<svg width="100" height="94" viewBox="0 0 100 94" fill="none" xmlns="http://www.w3.org/2000/svg">
<g clip-path="url(#clip0_11_195)">
<path d="M88.6307 30.0586C87.7204 30.565 87.0415 31.316 86.4215 32.1368C86.3429 32.2394 86.249 32.3551 86.1508 32.473C85.3104 30.5498 84.3258 28.6942 82.407 27.6267C80.4423 26.5353 78.041 26.5353 76.2947 28.0459C75.6282 28.6671 75.0632 29.389 74.6203 30.1852C74.4806 30.4188 74.3147 30.7986 74.1204 31.1588C73.3651 30.0673 72.7473 28.8885 71.8436 27.9062C71.154 27.1323 70.2963 26.5269 69.3362 26.1364C68.3761 25.7458 67.3393 25.5806 66.3054 25.6533C63.2492 25.8847 61.0662 27.618 59.3962 29.873C58.4925 26.7732 57.588 23.6734 56.6828 20.5735C55.5302 16.6267 54.5871 12.3721 52.3518 8.86188C50.4831 5.92359 47.7544 3.74061 44.2486 3.22761C43.2342 3.08009 42.2031 3.09188 41.1924 3.26254C40.7352 3.00305 40.1946 2.93255 39.6861 3.06608C38.6306 3.31324 37.6742 3.87322 36.9421 4.67275C36.6493 4.80297 36.3918 5.00131 36.1912 5.25124C33.3882 8.67415 32.5915 12.8087 32.4168 17.1375C32.2116 22.1366 32.3099 27.164 32.2771 32.1695C32.2596 34.597 32.3317 37.0463 32.2182 39.4716C32.1898 40.0806 32.2029 41.1918 31.7597 41.6698C31.1049 42.3771 28.3543 43.0364 27.551 42.7111C23.388 41.0346 20.9911 37.2078 16.468 36.6294C12.925 36.1775 9.06551 36.9459 6.26257 39.2489C2.86368 42.041 2.28082 46.5641 3.77398 50.5393C5.35445 54.7546 8.40844 58.5464 11.6502 61.6179C14.8919 64.6893 20.2642 64.1261 23.1544 67.6233C25.7107 70.7165 25.6452 77.6519 28.0421 80.8608C30.7512 84.4911 34.4055 86.3401 38.7387 87.4316C43.8949 88.7414 49.169 89.8918 54.4889 90.1996C59.4661 90.4856 64.5153 90.169 69.4598 89.5927C77.7551 88.6257 86.0679 86.22 91.2328 79.1887C96.33 72.2468 97.3015 62.9582 97.7184 54.6149C97.9454 50.1027 98.1485 24.7452 88.6307 30.0586Z" fill="#FFE4CA"/>
<path d="M94.0208 67.9146C87.0353 75.5005 78.8338 80.4166 68.3141 81.1348C58.8552 81.7896 48.0801 80.8117 39.7433 76.0441C36.1457 73.9855 32.653 71.2699 30.4132 67.7291C28.8852 65.3278 28.2303 62.4507 25.829 60.6934C22.8296 58.5104 18.6012 58.3859 15.318 56.692C9.98057 53.9414 5.67575 49.3157 6.13854 42.9632C6.22367 41.7779 4.30483 41.1972 3.81585 42.3345C-0.161536 51.551 4.84621 59.973 13.2507 64.3193C15.3551 65.4108 18.874 65.8474 20.6226 67.3274C22.2882 68.742 22.9824 71.7152 24.1677 73.669C26.98 78.3532 30.9617 82.2258 35.7222 84.9069C52.6861 94.3112 90.9952 93.0036 95.4485 68.7398C95.5882 67.9692 94.643 67.2379 94.0208 67.9146Z" fill="#F8B6AB"/>
<path d="M40.1013 3.591C24.9187 11.5392 35.0805 30.088 30.1491 42.5113C29.9483 43.0177 30.4504 43.4805 30.9088 43.5067C36.0388 43.808 35.6393 37.3682 35.7114 33.7401C35.9035 24.7375 33.1224 10.3539 40.9374 3.97084C41.7931 3.28538 40.9942 3.13039 40.1013 3.591Z" fill="#F8B6AB"/>
<path d="M92.2024 45.908C91.6806 43.1116 86.8388 43.712 87.1815 46.5869C87.6552 50.6189 87.2208 54.6465 87.7033 58.6523C88.0133 61.2085 91.4667 61.9638 92.3421 59.281C93.7436 54.963 93.021 50.298 92.2024 45.908Z" fill="white"/>
<path d="M91.1829 64.9894C91.0934 63.9329 90.3098 62.9047 89.1506 62.9549C88.0744 63.0029 87.0855 63.8499 87.1161 64.9894C87.1215 65.1941 87.1149 65.3989 87.0964 65.6028C87.0724 65.6814 87.0156 65.963 87.0004 66.022C86.9851 66.0809 86.9458 66.201 86.913 66.2905C87.0593 65.974 87.0113 66.0896 86.7733 66.6398C86.7057 66.9914 86.6633 67.3474 86.6467 67.7051C86.5594 68.4385 87.199 69.1829 87.8168 69.4514C88.5568 69.7636 89.2968 69.565 89.895 69.0585C91.0192 68.0958 91.3052 66.404 91.1829 64.9894Z" fill="white"/>
<path d="M22.3537 65.6902C15.6934 61.4574 6.41796 57.4363 4.47293 48.9576C3.65431 45.4081 5.01867 41.9721 8.49615 40.5466C12.6613 38.8308 16.6496 40.9068 20.3323 42.7951C23.825 44.5873 29.7671 47.8159 32.4827 43.1007C33.727 40.9396 33.3559 38.117 33.3406 35.7353L33.262 26.796C33.214 21.4565 32.6923 15.7174 34.4823 10.5853C35.9646 6.33064 40.0118 3.18497 44.6593 4.438C49.1192 5.64082 50.704 10.69 51.6449 14.6805C53.1926 21.3015 54.4107 27.9967 55.3057 34.7486C55.4542 35.8816 56.1615 36.8356 57.4036 36.8487C58.423 36.8596 59.652 35.8729 59.5036 34.7486C58.6304 28.1997 57.5171 21.6901 56.0741 15.2394C55.07 10.749 53.7886 5.81546 50.1168 2.71126C46.3424 -0.480249 40.8959 -0.842623 36.6107 1.5652C31.7252 4.3092 29.8893 9.76446 29.2912 15.0298C28.5664 21.3888 29.0838 27.9749 29.1406 34.3601C29.1515 35.7986 30.0749 41.529 27.7849 41.3718C25.3138 41.2015 22.6528 39.2303 20.4851 38.1563C16.2195 36.0453 11.6091 34.7836 7.00736 36.6544C2.99068 38.2807 0.294711 41.8564 0.0240215 46.2005C-0.303425 51.4571 2.74401 56.5282 6.48126 59.9686C10.5722 63.7364 15.5712 66.356 20.234 69.3204C22.5218 70.7721 24.6284 67.1375 22.3537 65.6945V65.6902Z" fill="#42210B"/>
<path d="M59.4708 36.006C59.866 33.1987 60.6802 28.5315 63.7997 27.4378C67.3885 26.1804 69.7505 31.1314 70.1478 33.8951C70.4621 36.0781 73.6405 35.6808 74.195 33.8951C74.887 31.7121 76.7251 29.2213 79.3097 29.6143C81.0561 29.8806 83.9158 31.6859 83.4465 33.775C82.8527 36.4099 86.6751 37.473 87.4937 34.8905C87.891 33.6419 88.3997 32.3495 89.8382 32.8364C91.2266 33.3079 92.3836 34.7355 93.0909 35.9558C93.9946 37.5123 94.2828 39.4661 94.619 41.2102C95.0718 43.5271 95.3823 45.8694 95.5489 48.2242C96.2038 57.3927 95.5489 67.9168 90.7049 75.9851C81.7547 90.8708 59.8551 91.1568 44.8012 88.1857C34.2313 86.0966 27.3003 77.6725 23.9625 67.8382C23.0894 65.295 19.0443 66.3865 19.9153 68.9537C23.3404 79.0456 30.1185 88.0853 40.5946 91.4384C45.2073 92.914 50.3154 93.3681 55.1311 93.6213C60.178 93.9165 65.2422 93.6515 70.2307 92.8311C79.8904 91.1961 89.3296 86.5878 94.4465 77.8974C99.9978 68.4734 100.701 56.0676 99.487 45.4343C98.9194 40.4571 98.3235 34.6548 94.4945 31.0114C92.9315 29.5248 90.8577 28.3067 88.6289 28.5184C85.7735 28.7913 84.2345 31.2559 83.4399 33.7576L87.4872 34.8731C88.4892 30.4263 84.5882 26.3966 80.4187 25.5496C75.4655 24.5432 71.5536 28.3067 70.1412 32.7534H74.1885C73.4703 27.7522 69.0476 22.0917 63.4548 23.1789C58.1676 24.207 56.0741 30.1775 55.4171 34.8621C55.2599 35.9951 55.6943 37.1041 56.884 37.4446C57.8642 37.7262 59.3071 37.0997 59.4643 35.9798L59.4708 36.006Z" fill="#42210B"/>
</g>
<defs>
<clipPath id="clip0_11_195">
<rect width="100" height="93.7436" fill="white"/>
</clipPath>
</defs>
</svg>
