<svg width="300" height="221" viewBox="0 0 300 221" fill="none" xmlns="http://www.w3.org/2000/svg">
<g clip-path="url(#clip0_6_988)">
<path d="M77.7799 132.809L64.4227 130.244L57.4589 128.911C52.2567 131.679 30.4226 127.941 20.8814 101.031C18.7798 95.1311 17.2737 88.12 16.6671 79.8222C15.5121 52.0123 33.8995 30.3583 58.9348 32.8402C61.0143 33.0462 63.0756 33.4064 65.1018 33.9176C65.8459 34.1025 66.5346 34.4638 67.1095 34.9709C67.6845 35.4781 68.1289 36.1163 68.4052 36.8315C68.6815 37.5467 68.7816 38.3179 68.6969 39.0799C68.6122 39.8419 68.3453 40.5723 67.9187 41.2094C66.6543 43.1131 65.5263 45.104 64.5435 47.1672C59.6139 57.5002 56.1571 74.2628 69.4489 93.7206C91.6673 126.261 77.7799 132.809 77.7799 132.809Z" fill="#FF8F08"/>
<path d="M64.4228 130.244L57.459 128.911C51.1209 132.286 20.0534 125.993 16.6671 79.8222C15.5121 52.0123 33.8995 30.3583 58.9348 32.8402C19.2566 39.8694 15.0775 118.221 59.5837 125.745C61.3124 127.115 62.9304 128.619 64.4228 130.244Z" fill="white"/>
<path d="M77.778 134.596C77.6652 134.596 77.5527 134.586 77.4419 134.565L57.6823 130.773C54.0897 132.209 47.0314 131.578 39.6873 127.529C31.3925 122.951 17.1409 110.682 14.8864 79.952C14.8864 79.9329 14.8864 79.9138 14.8864 79.8956C14.1982 63.4177 20.3462 48.2265 31.3392 39.2668C40.7899 31.5605 52.9328 29.0444 65.5304 32.1843C66.5531 32.4313 67.5002 32.9235 68.29 33.6185C69.0798 34.3135 69.6885 35.1903 70.0636 36.1732C70.4431 37.1566 70.5812 38.2167 70.4664 39.2646C70.3515 40.3124 69.9871 41.3174 69.4037 42.1953C63.3292 51.3392 55.4489 70.0626 70.9198 92.7146C81.3293 107.958 85.4923 119.788 83.2941 127.877C81.9862 132.679 78.8896 134.261 78.5405 134.426C78.302 134.538 78.0416 134.596 77.778 134.596ZM57.456 127.127C57.569 127.127 57.6819 127.137 57.793 127.158L77.4108 130.924C78.0456 130.432 79.2659 129.214 79.8866 126.756C81.113 121.907 80.0395 112.415 67.961 94.7287C60.6039 83.955 57.4459 72.8333 58.5777 61.6733C59.5314 52.2638 63.3685 44.8131 66.4248 40.2195C66.693 39.8206 66.8611 39.363 66.9148 38.8854C66.9685 38.4078 66.9064 37.9243 66.7335 37.4758C66.5607 37.0273 66.2822 36.6271 65.9218 36.3091C65.5615 35.9912 65.1297 35.7647 64.6632 35.649C53.1833 32.7899 42.1491 35.0565 33.5917 42.0344C23.477 50.2839 17.816 64.3684 18.4457 79.7186C20.5836 108.75 33.7496 120.174 41.4096 124.402C48.3513 128.232 54.5887 128.417 56.6179 127.335C56.8772 127.198 57.1665 127.126 57.46 127.127H57.456Z" fill="#000072"/>
<g opacity="0.3">
<path opacity="0.3" d="M90.7739 190.147L76.1864 197.988C76.1864 197.988 91.0707 209.595 103.274 197.094" fill="#000072"/>
</g>
<g opacity="0.3">
<path opacity="0.3" d="M77.7799 132.809L64.4227 130.244L57.4589 128.911C52.2567 131.68 30.4226 127.941 20.8813 101.031L42.4589 109.683C42.4589 109.683 30.3572 67.1401 46.8281 50.2678C63.299 33.3955 64.5414 47.1662 64.5414 47.1662C59.6119 57.4992 56.1551 74.2618 69.4469 93.7197C91.6673 126.261 77.7799 132.809 77.7799 132.809Z" fill="#000072"/>
</g>
<path d="M90.7739 190.147L76.1864 197.988C76.1864 197.988 91.0707 209.595 103.274 197.094" fill="#FF8F08"/>
<g opacity="0.3">
<path opacity="0.3" d="M90.7739 190.147L76.1864 197.988C76.1864 197.988 91.0707 209.595 103.274 197.094" fill="#000072"/>
</g>
<path d="M56.5173 130.629C56.5173 130.629 37.3019 128.84 25.7938 152.253C25.7938 152.253 23.3139 157.61 32.2918 163.96C41.2697 170.31 54.7617 167.442 54.7617 167.442" fill="#FF0000"/>
<g opacity="0.6">
<path opacity="0.6" d="M56.5183 130.63L56.3936 133.246C51.3221 133.471 36.8633 135.84 27.5061 154.883C27.5061 154.883 26.5303 156.989 28.0242 160.132C24.2445 155.605 25.7918 152.257 25.7918 152.257C37.304 128.838 56.5183 130.63 56.5183 130.63Z" fill="white"/>
</g>
<path d="M47.5555 169.881C42.6923 169.881 36.3613 169.025 31.2577 165.418C21.1812 158.292 24.0433 151.777 24.1701 151.503C36.1017 127.227 55.8433 128.773 56.6793 128.851C57.1484 128.898 57.58 129.128 57.8801 129.492C58.1802 129.855 58.3244 130.323 58.2813 130.792C58.2381 131.261 58.0111 131.695 57.6498 131.997C57.2884 132.3 56.822 132.448 56.3523 132.408C55.5877 132.345 38.1993 131.115 27.4196 152.987C27.2828 153.359 26.0343 157.35 33.32 162.501C41.5384 168.313 54.2608 165.721 54.3885 165.691C54.8485 165.6 55.3256 165.695 55.7167 165.953C56.1079 166.211 56.3817 166.613 56.4792 167.072C56.5767 167.53 56.4899 168.009 56.2377 168.404C55.9854 168.799 55.5879 169.079 55.131 169.184C54.8644 169.241 51.7567 169.881 47.5555 169.881Z" fill="#000072"/>
<path d="M39.7325 150.652C39.8185 151.688 39.8097 152.728 39.7063 153.762C39.6057 154.803 39.4148 155.834 39.1359 156.842C38.8581 157.88 38.4734 158.886 37.988 159.844C37.5192 160.831 36.8814 161.741 36.1973 162.629C36.0444 162.827 35.8517 162.992 35.6317 163.111C35.4117 163.231 35.1691 163.303 34.9196 163.323C34.67 163.343 34.419 163.311 34.1825 163.229C33.9461 163.147 33.7295 163.016 33.5465 162.845C33.3636 162.674 33.2183 162.467 33.1201 162.236C33.0219 162.006 32.9729 161.758 32.9762 161.507C32.9795 161.257 33.035 161.01 33.1393 160.783C33.2436 160.555 33.3942 160.352 33.5816 160.186L33.644 160.132C34.2828 159.573 34.9307 158.982 35.4609 158.273C36.0222 157.568 36.5078 156.805 36.9096 155.998C37.3311 155.171 37.6799 154.309 37.9518 153.421C38.2287 152.527 38.4257 151.61 38.5404 150.681V150.635C38.5572 150.489 38.6279 150.353 38.7388 150.256C38.8498 150.158 38.993 150.105 39.1406 150.108C39.2883 150.11 39.4299 150.167 39.538 150.267C39.6461 150.368 39.7129 150.505 39.7255 150.652H39.7325Z" fill="#000072"/>
<path d="M159.226 177.086C159.226 178.121 157.589 188.91 157.589 188.91L169.476 188.144L172.132 182.785" fill="#FF8F08"/>
<g opacity="0.3">
<path opacity="0.3" d="M159.226 177.086C159.226 178.121 157.589 188.91 157.589 188.91L169.476 188.144L172.132 182.785" fill="#000072"/>
</g>
<path d="M188.334 207.595C187.84 209.749 186.797 212.022 185.119 214.357C185.119 214.357 177.28 220.112 169.148 209.994C169.148 209.994 164.995 213.19 158.923 215.728C151.87 218.692 142.238 220.781 133.53 215.984H133.526C128.181 213.043 123.187 207.502 119.347 197.984C119.347 197.984 101.192 199.567 88.6924 190.145C88.1316 190.646 87.5457 191.119 86.9369 191.561C81.627 195.485 64.7165 205.545 42.2758 194.479C41.4837 194.086 40.6862 193.668 39.8834 193.223C42.2637 203.717 27.5614 207.121 19.9638 204.252C19.8323 204.209 19.703 204.159 19.5765 204.103C19.487 204.062 19.4105 204.032 19.3501 204.009C19.0946 203.895 18.8471 203.77 18.6067 203.64C2.82795 191.587 18.5423 164.424 34.5242 157.512C34.5242 157.512 41.7617 156.036 49.7617 162.5L49.8513 162.571C49.8513 162.571 49.8513 162.37 49.8573 162C49.8633 161.255 49.8995 159.833 50.0183 157.94C50.5655 149.173 52.9589 130.274 63.292 121.899C94.3102 127.505 120.947 137.375 141.089 153.541C147.257 158.469 152.844 164.083 157.744 170.273C157.744 170.273 159.923 182.404 155.554 190.149C156.352 189.863 157.164 189.612 157.968 189.398L158.093 189.363C158.102 189.357 158.113 189.355 158.123 189.357C168.795 186.594 180.278 189.845 185.629 196.363C188.173 199.463 189.328 203.309 188.334 207.595Z" fill="#FF8F08"/>
<g opacity="0.6">
<path opacity="0.6" d="M117.743 168.126C117.743 168.126 118.511 212.146 146.16 218.807C127.381 218.835 111.701 197.131 117.743 168.126Z" fill="white"/>
</g>
<path d="M49.7617 162.5L49.1078 165.994C49.1078 165.994 35.1239 179.684 41.9649 193.226L42.2738 194.482C41.4817 194.089 40.6842 193.671 39.8814 193.226C42.4106 204.386 25.6248 207.529 18.6017 203.643C2.82796 191.587 18.5423 164.424 34.5243 157.512C34.5243 157.512 41.7617 156.036 49.7617 162.5Z" fill="#FF0000"/>
<g opacity="0.6">
<path opacity="0.6" d="M157.744 170.273C157.744 170.273 157.774 170.434 157.815 170.726C136.852 146.434 104.941 132.785 66.1903 125.779C55.8593 134.16 53.465 153.056 52.9167 161.82C52.798 163.708 52.7617 165.14 52.7567 165.881C52.7507 166.249 52.7507 166.452 52.7507 166.452C52.7194 166.428 52.6895 166.402 52.6611 166.375C44.6611 159.916 37.4226 161.392 37.4226 161.392C23.5121 167.41 9.80989 188.756 16.8813 202.149C4.0654 189.482 19.1731 164.154 34.5242 157.512C34.5242 157.512 41.7617 156.036 49.7617 162.5L49.8513 162.571C49.8513 162.571 49.8513 162.37 49.8573 162C49.8633 161.255 49.8996 159.833 50.0183 157.94C50.5655 149.173 52.9589 130.274 63.2919 121.899C103.827 129.226 136.881 143.832 157.744 170.273Z" fill="white"/>
</g>
<path d="M188.334 207.595C187.84 209.749 186.797 212.022 185.119 214.357C185.119 214.357 177.28 220.112 169.148 209.994C169.148 209.994 164.995 213.19 158.923 215.728C166.458 203.216 157.97 189.394 157.97 189.394L158.095 189.359C158.104 189.353 158.115 189.351 158.125 189.353C160.012 188.811 178.917 183.793 185.631 196.359C186.418 197.856 186.997 199.454 187.352 201.108C187.837 203.244 188.165 205.412 188.334 207.595Z" fill="#FF0000"/>
<g opacity="0.3">
<path opacity="0.3" d="M188.334 207.595C187.84 209.749 186.797 212.022 185.119 214.357C185.119 214.357 177.28 220.112 169.148 209.994C169.148 209.994 164.994 213.19 158.923 215.728C151.87 218.692 142.238 220.781 133.53 215.984C151.572 218.651 163.393 205.126 153.423 202.888C143.453 200.65 147.024 189.394 147.024 189.394C151.589 165.234 125.685 162.02 125.685 162.02L135.518 154.138C135.78 154.108 138.048 153.828 141.089 153.535C147.257 158.463 152.844 164.077 157.744 170.267C157.744 170.267 159.923 182.398 155.554 190.142C156.352 189.857 157.163 189.606 157.968 189.392L158.093 189.357C158.102 189.351 158.113 189.349 158.123 189.351C168.795 186.588 180.278 189.839 185.629 196.357C188.173 199.463 189.328 203.308 188.334 207.595Z" fill="#000072"/>
</g>
<path d="M144.994 220.627C142.636 220.638 140.286 220.334 138.008 219.722C129.494 217.402 122.829 210.719 118.182 199.849C113.819 200.022 99.7036 199.928 88.773 192.413C86.7609 194 82.1683 197.204 75.5395 199.309C67.8483 201.752 55.9509 203.075 41.8845 196.278C41.645 199.125 40.2134 201.629 37.6873 203.527C32.4901 207.429 23.1671 208.215 17.7355 205.21C17.6589 205.168 17.5856 205.119 17.5162 205.066C11.9729 200.831 9.53425 194.584 10.4648 187.005C11.9669 174.761 22.4417 160.797 33.814 155.878C33.9271 155.829 34.0452 155.791 34.1661 155.767C34.4609 155.707 40.7265 154.509 48.1501 159.159C48.5384 150.855 50.6652 129.848 62.1672 120.514C62.5363 120.229 63.0024 120.099 63.4659 120.153C63.9294 120.207 64.3535 120.44 64.6475 120.802C64.9416 121.164 65.0823 121.627 65.0395 122.092C64.9968 122.556 64.774 122.986 64.4188 123.288C51.5414 133.737 51.634 162.274 51.636 162.561C51.6395 162.901 51.546 163.234 51.3665 163.523C51.187 163.811 50.929 164.042 50.6227 164.189C50.3164 164.336 49.9745 164.393 49.6372 164.352C49.3 164.312 48.9812 164.176 48.7185 163.96C42.0575 158.528 36.1168 159.083 35.0364 159.241C24.9448 163.718 15.3411 176.574 14.0101 187.439C13.4789 191.771 14.0182 197.826 19.5785 202.146C23.4015 204.173 31.1339 203.982 35.5434 200.671C37.9217 198.885 38.7949 196.515 38.14 193.628C38.0639 193.293 38.0866 192.942 38.2052 192.619C38.3239 192.295 38.5334 192.013 38.8087 191.807C39.0839 191.6 39.4131 191.477 39.7566 191.453C40.1001 191.429 40.4432 191.504 40.7446 191.671C67.8685 206.646 87.28 189.028 87.4732 188.849C87.7804 188.563 88.1785 188.394 88.5978 188.372C89.017 188.35 89.4306 188.476 89.7659 188.729C101.553 197.614 119.018 196.231 119.192 196.217C119.572 196.183 119.953 196.273 120.279 196.472C120.605 196.671 120.859 196.97 121.002 197.324C125.228 207.798 131.258 214.174 138.933 216.271C152.844 220.075 167.907 208.695 168.061 208.579C168.432 208.296 168.899 208.169 169.362 208.225C169.825 208.282 170.248 208.517 170.54 208.881C176.852 216.728 182.541 213.89 183.852 213.065C187.675 207.587 187.93 202.363 184.593 197.938C179.261 190.872 166.508 188.134 156.159 191.837C155.816 191.959 155.444 191.974 155.092 191.879C154.741 191.785 154.427 191.585 154.192 191.306C153.957 191.028 153.813 190.685 153.779 190.322C153.745 189.96 153.823 189.595 154.002 189.278C157.993 182.2 156.009 170.709 155.989 170.593C155.914 170.131 156.024 169.658 156.295 169.276C156.566 168.894 156.976 168.634 157.437 168.552C157.898 168.469 158.373 168.571 158.759 168.835C159.146 169.099 159.413 169.505 159.504 169.964C159.584 170.413 161.182 179.611 158.679 187.398C169.706 184.925 181.783 188.281 187.444 195.787C191.742 201.486 191.424 208.636 186.571 215.405C186.462 215.56 186.329 215.695 186.177 215.808C186.088 215.873 177.586 221.924 168.857 212.405C165.339 214.784 155.659 220.627 144.994 220.627Z" fill="#000072"/>
<path d="M51.634 162.477C51.6008 163.584 51.6118 164.768 51.642 165.917C51.6722 167.066 51.7316 168.231 51.8231 169.384C52.0132 171.688 52.3131 173.989 52.9348 176.195V176.208C52.9769 176.352 52.9628 176.507 52.8955 176.642C52.8283 176.776 52.7127 176.88 52.5719 176.933C52.4311 176.986 52.2755 176.984 52.1363 176.927C51.9971 176.87 51.8845 176.763 51.8211 176.626C50.7778 174.426 50.0686 172.107 49.471 169.776C49.1762 168.609 48.9157 167.434 48.6803 166.255C48.4448 165.076 48.2366 163.904 48.0636 162.667C48.0308 162.422 48.049 162.174 48.1168 161.936C48.1846 161.699 48.3006 161.479 48.4576 161.288C48.6146 161.098 48.8092 160.942 49.0292 160.831C49.2492 160.719 49.4898 160.654 49.7361 160.64C49.9823 160.626 50.2288 160.663 50.4602 160.748C50.6916 160.834 50.9028 160.966 51.0807 161.137C51.2586 161.308 51.3992 161.513 51.4939 161.741C51.5886 161.969 51.6353 162.214 51.6309 162.46L51.634 162.477Z" fill="#000072"/>
<path d="M38.6993 194.565L31.8985 186.976C31.8088 186.865 31.7613 186.726 31.7644 186.583C31.7675 186.44 31.821 186.303 31.9154 186.197C32.0098 186.09 32.1389 186.02 32.28 185.999C32.4211 185.978 32.565 186.008 32.6862 186.083L41.0625 191.889C41.4514 192.162 41.7167 192.577 41.8002 193.045C41.8838 193.512 41.7789 193.994 41.5084 194.385C41.2379 194.775 40.8238 195.043 40.3567 195.129C39.8895 195.215 39.4072 195.113 39.0152 194.845C38.8999 194.763 38.7939 194.67 38.6993 194.565Z" fill="#000072"/>
<path d="M41.9659 195.008C41.6355 195.008 41.3114 194.917 41.0299 194.744C40.7483 194.571 40.5204 194.323 40.3713 194.028C33.0202 179.486 47.2496 165.309 47.8583 164.713C48.1966 164.381 48.6528 164.198 49.1264 164.203C49.6001 164.207 50.0524 164.4 50.384 164.739C50.7155 165.077 50.899 165.533 50.8942 166.007C50.8894 166.48 50.6966 166.933 50.3583 167.264C50.2275 167.392 37.3925 180.219 43.5585 192.415C43.696 192.687 43.7616 192.99 43.749 193.295C43.7363 193.6 43.6459 193.896 43.4862 194.156C43.3266 194.416 43.103 194.631 42.8369 194.78C42.5708 194.929 42.2709 195.007 41.9659 195.008Z" fill="#000072"/>
<path d="M24.5715 191.455C24.3967 192.591 24.0737 193.698 23.6107 194.749C23.1399 195.831 22.5095 196.837 21.7405 197.732C21.5332 197.952 21.3471 198.196 21.1167 198.397L20.4266 199.012C20.1852 199.205 19.9236 199.373 19.667 199.553C19.5363 199.639 19.4115 199.736 19.2747 199.812L18.8582 200.031C17.7516 200.662 16.5172 200.968 15.2797 201.204C15.0354 201.25 14.7841 201.246 14.5416 201.19C14.2992 201.135 14.0709 201.029 13.8713 200.881C13.6717 200.733 13.505 200.545 13.3818 200.328C13.2587 200.112 13.1818 199.873 13.1559 199.626C13.1301 199.378 13.1558 199.128 13.2316 198.891C13.3074 198.654 13.4316 198.436 13.5962 198.249C13.7609 198.063 13.9624 197.913 14.1882 197.808C14.4139 197.704 14.6588 197.647 14.9075 197.642H15.0373C15.9186 197.629 16.83 197.603 17.6691 197.304L17.993 197.212C18.0996 197.178 18.1942 197.123 18.3009 197.08C18.5021 196.985 18.7184 196.905 18.9206 196.799L19.5111 196.445C19.7061 196.317 19.8945 196.179 20.0755 196.032C20.8347 195.422 21.4981 194.702 22.0433 193.896C22.6093 193.066 23.0671 192.167 23.4055 191.221L23.4216 191.174C23.4699 191.033 23.569 190.916 23.6994 190.845C23.8298 190.774 23.982 190.754 24.1262 190.79C24.2704 190.825 24.396 190.914 24.4784 191.037C24.5608 191.161 24.594 191.311 24.5715 191.457V191.455Z" fill="#000072"/>
<path d="M32.5705 195.993C32.6948 196.878 32.7453 197.773 32.7214 198.667C32.7072 199.583 32.6007 200.496 32.4035 201.391C32.1907 202.354 31.836 203.279 31.3512 204.138C30.7846 205.077 30.0238 205.884 29.1198 206.505L29.0796 206.533C28.6852 206.803 28.1997 206.905 27.7298 206.818C27.2599 206.73 26.8442 206.459 26.5741 206.065C26.3039 205.67 26.2015 205.185 26.2893 204.715C26.3771 204.245 26.648 203.829 27.0424 203.559C27.1624 203.477 27.2918 203.41 27.4277 203.358C27.9954 203.143 28.5118 202.812 28.9438 202.385C29.4315 201.861 29.8384 201.268 30.151 200.624C30.4934 199.921 30.763 199.184 30.9558 198.425C31.1629 197.648 31.3069 196.855 31.3864 196.054V196.021C31.3993 195.875 31.4654 195.739 31.5722 195.638C31.679 195.538 31.819 195.48 31.9655 195.477C32.112 195.473 32.2547 195.523 32.3665 195.618C32.4783 195.713 32.5512 195.845 32.5715 195.991L32.5705 195.993Z" fill="#000072"/>
<path d="M87.4782 188.837C89.5687 186.703 91.5909 184.565 93.3434 182.265C95.0959 179.965 96.5687 177.509 97.6362 174.855C98.7036 172.201 99.3555 169.36 99.6633 166.433C99.9712 163.507 99.935 160.503 99.7881 157.47V157.459C99.7806 157.312 99.8282 157.166 99.9216 157.052C100.015 156.937 100.148 156.861 100.294 156.838C100.44 156.816 100.589 156.848 100.713 156.93C100.837 157.011 100.926 157.135 100.963 157.278C101.777 160.303 102.222 163.416 102.29 166.548C102.362 169.764 101.899 172.97 100.921 176.035C99.9319 179.126 98.3605 182.03 96.443 184.602C94.5255 187.175 92.287 189.449 89.9037 191.458C89.5538 191.763 89.0994 191.919 88.6364 191.894C88.1735 191.87 87.7381 191.667 87.4222 191.327C87.1063 190.988 86.9346 190.539 86.9434 190.075C86.9521 189.612 87.1406 189.17 87.4691 188.843L87.4782 188.837Z" fill="#000072"/>
<path d="M118.991 167.692C118.314 170.083 117.961 172.646 117.797 175.149C117.652 177.658 117.688 180.174 117.905 182.678L118.133 184.545C118.186 185.168 118.297 185.785 118.404 186.403C118.51 187.021 118.597 187.639 118.716 188.253L119.11 190.09L119.296 191.01L119.538 191.915L119.996 193.74C120.324 194.947 120.72 196.148 121.027 197.376L121.061 197.513C121.169 197.952 121.106 198.417 120.885 198.812C120.664 199.207 120.301 199.503 119.869 199.64C119.438 199.777 118.97 199.745 118.562 199.55C118.153 199.356 117.834 199.013 117.668 198.591C117.183 197.343 116.706 196.084 116.307 194.8L115.778 192.851L115.526 191.873L115.324 190.88L114.961 188.89C114.852 188.224 114.793 187.55 114.719 186.878C114.541 185.541 114.531 184.183 114.478 182.837C114.466 180.138 114.724 177.444 115.25 174.796C115.805 172.156 116.573 169.589 117.912 167.179C117.983 167.051 118.098 166.955 118.236 166.907C118.374 166.859 118.524 166.863 118.659 166.918C118.794 166.974 118.903 167.077 118.967 167.208C119.031 167.339 119.045 167.489 119.005 167.629L118.991 167.692Z" fill="#000072"/>
<path d="M157.142 190.966L153.01 196.376C152.924 196.491 152.801 196.571 152.661 196.603C152.522 196.635 152.376 196.617 152.249 196.552C152.122 196.486 152.022 196.377 151.968 196.245C151.913 196.113 151.907 195.966 151.951 195.83L153.969 189.328C154.04 189.1 154.155 188.889 154.307 188.706C154.459 188.523 154.646 188.371 154.857 188.26C155.068 188.15 155.298 188.081 155.535 188.059C155.772 188.038 156.012 188.063 156.239 188.133C156.466 188.204 156.678 188.319 156.861 188.471C157.044 188.623 157.195 188.81 157.306 189.021C157.417 189.232 157.485 189.462 157.507 189.699C157.529 189.937 157.504 190.176 157.433 190.403C157.369 190.606 157.271 190.797 157.142 190.966Z" fill="#000072"/>
<path d="M167.884 208.729L172.695 205.602C172.811 205.52 172.953 205.481 173.095 205.493C173.237 205.505 173.37 205.567 173.471 205.668C173.571 205.769 173.633 205.902 173.645 206.044C173.657 206.186 173.618 206.328 173.536 206.444L170.41 211.254C170.142 211.65 169.729 211.926 169.26 212.02C168.791 212.115 168.304 212.022 167.903 211.762C167.502 211.501 167.219 211.093 167.115 210.626C167.012 210.159 167.095 209.67 167.349 209.264C167.488 209.051 167.671 208.869 167.884 208.729Z" fill="#000072"/>
<path d="M158.922 217.519C158.606 217.518 158.296 217.434 158.023 217.274C157.75 217.115 157.525 216.886 157.369 216.61C157.214 216.335 157.134 216.024 157.139 215.708C157.143 215.392 157.231 215.082 157.394 214.812C164.261 203.404 156.525 190.465 156.445 190.333C156.203 189.929 156.13 189.446 156.241 188.989C156.353 188.532 156.641 188.137 157.042 187.891C157.444 187.645 157.926 187.567 158.384 187.675C158.842 187.782 159.24 188.066 159.489 188.465C159.86 189.069 168.455 203.363 160.453 216.654C160.294 216.918 160.07 217.136 159.802 217.288C159.533 217.44 159.23 217.519 158.922 217.519Z" fill="#000072"/>
<path d="M173.115 182.935C160.516 181.42 150.953 167.066 150.953 167.066L179.631 176.506" fill="#FF0000"/>
<path d="M173.117 184.717C173.045 184.717 172.973 184.713 172.902 184.704C159.638 183.109 149.876 168.667 149.461 168.053C149.199 167.659 149.103 167.176 149.196 166.712C149.289 166.247 149.563 165.839 149.957 165.576C150.351 165.313 150.834 165.218 151.298 165.311C151.763 165.404 152.171 165.678 152.434 166.072C152.562 166.263 161.728 179.764 173.323 181.162C173.775 181.217 174.188 181.442 174.479 181.791C174.77 182.14 174.917 182.587 174.89 183.041C174.863 183.495 174.664 183.921 174.334 184.233C174.004 184.545 173.567 184.72 173.112 184.721L173.117 184.717Z" fill="#000072"/>
<path d="M229.077 190.149C222.768 200.44 211.208 202.833 201.191 192.732C197.923 192.488 195.006 191.595 192.631 189.702C192.506 189.601 192.381 189.501 192.262 189.4C192.262 189.4 189.583 197.888 177.675 198.484C165.766 199.079 167.556 193.126 167.556 193.126C167.556 193.126 170.514 179.597 183.716 177.085L217.109 177.689L227.961 188.993L229.077 190.149Z" fill="#FF0000"/>
<g opacity="0.6">
<path opacity="0.6" d="M191.846 177.232C191.544 177.846 191.308 178.491 191.141 179.155L187.391 179.089C174.189 181.604 171.23 195.13 171.23 195.13C171.108 195.645 171.104 196.181 171.219 196.697C171.333 197.213 171.563 197.697 171.891 198.112C166.444 196.857 167.565 193.124 167.565 193.124C167.565 193.124 170.523 179.595 183.725 177.083L191.846 177.232Z" fill="white"/>
</g>
<path d="M253.72 184C249.857 186.079 246.26 187.63 242.928 188.655C230.012 192.622 221.113 188.673 216.232 176.809L241.595 167.428L261.018 160.25C275.167 156.595 281.102 170.009 281.102 170.009C286.755 182.809 264.881 196.351 253.72 184Z" fill="#FF8F08"/>
<path d="M253.72 184C249.857 186.079 246.26 187.63 242.928 188.655L242.708 188.463C233.185 180.875 236.928 172.69 236.928 172.69C236.934 172.434 238.851 170.244 241.595 167.428L261.018 160.25C275.167 156.595 281.102 170.009 281.102 170.009C286.755 182.809 264.881 196.351 253.72 184Z" fill="#FF0000"/>
<path d="M233.918 191.919C231.45 191.919 229.168 191.545 227.072 190.795C221.611 188.841 217.414 184.363 214.582 177.489C214.49 177.271 214.441 177.037 214.44 176.801C214.438 176.565 214.483 176.33 214.573 176.112C214.663 175.893 214.795 175.694 214.962 175.527C215.129 175.36 215.328 175.227 215.546 175.138C215.765 175.048 215.999 175.002 216.235 175.003C216.472 175.005 216.705 175.053 216.923 175.145C217.141 175.238 217.338 175.372 217.503 175.541C217.668 175.71 217.798 175.911 217.885 176.13C220.312 182.031 223.807 185.834 228.276 187.433C234.364 189.612 242.641 187.928 252.875 182.426C253.227 182.237 253.632 182.171 254.025 182.24C254.418 182.308 254.778 182.506 255.045 182.802C260.424 188.755 268.367 187.833 273.858 184.269C278.344 181.36 281.819 176.046 279.472 170.733C279.254 170.247 273.939 158.761 261.471 161.98C261.012 162.099 260.525 162.031 260.117 161.79C259.709 161.55 259.413 161.157 259.295 160.699C259.176 160.24 259.244 159.753 259.485 159.345C259.725 158.937 260.118 158.641 260.576 158.523C276.008 154.532 282.673 169.14 282.738 169.287C285.507 175.553 282.719 182.776 275.797 187.263C269.567 191.304 260.094 192.55 253.374 186.198C246.006 190.008 239.494 191.919 233.918 191.919Z" fill="#000072"/>
<g opacity="0.3">
<path opacity="0.3" d="M253.72 184C249.857 186.079 246.26 187.63 242.928 188.655C230.012 192.622 221.113 188.673 216.232 176.809L233.619 170.381C231.887 172.672 230.803 174.243 230.803 174.243C230.803 174.243 241.517 173.583 259.113 175.321C274.011 176.785 272.368 164.512 271.517 160.714C278.172 163.387 281.101 170.012 281.101 170.012C286.755 182.81 264.881 196.351 253.72 184Z" fill="#000072"/>
</g>
<path d="M264.465 175.615C265.463 176.2 266.397 176.89 267.248 177.674C268.126 178.472 268.904 179.375 269.562 180.363C270.247 181.42 270.741 182.588 271.023 183.815C271.33 185.087 271.27 186.431 271.069 187.739C271.034 187.972 270.952 188.196 270.83 188.398C270.708 188.599 270.547 188.775 270.357 188.915C270.167 189.054 269.952 189.155 269.723 189.211C269.494 189.268 269.256 189.278 269.023 189.243C268.789 189.207 268.566 189.126 268.364 189.003C268.162 188.881 267.987 188.721 267.847 188.531C267.707 188.34 267.606 188.125 267.55 187.896C267.494 187.667 267.483 187.429 267.519 187.196C267.534 187.101 267.556 187.007 267.585 186.915L267.624 186.799C267.892 185.983 268.127 185.123 268.075 184.223C268.033 183.283 267.827 182.357 267.466 181.488C267.064 180.559 266.55 179.684 265.937 178.88C265.309 178.049 264.597 177.287 263.81 176.605L263.781 176.58C263.667 176.484 263.594 176.348 263.575 176.201C263.556 176.053 263.593 175.903 263.679 175.782C263.765 175.66 263.894 175.575 264.039 175.544C264.185 175.512 264.337 175.536 264.466 175.611L264.465 175.615Z" fill="#000072"/>
<path d="M271.23 169.813C271.883 169.804 272.533 169.891 273.161 170.071L273.62 170.206L274.065 170.379C274.362 170.495 274.652 170.63 274.932 170.781C276.063 171.385 277.05 172.237 277.884 173.196C278.746 174.152 279.369 175.254 279.962 176.369C280.221 176.936 280.471 177.509 280.711 178.089L281.315 179.853C281.393 180.077 281.426 180.314 281.412 180.551C281.399 180.788 281.338 181.02 281.234 181.233C281.13 181.446 280.985 181.637 280.807 181.794C280.629 181.951 280.421 182.071 280.197 182.147C279.972 182.224 279.734 182.255 279.498 182.239C279.261 182.223 279.03 182.16 278.817 182.054C278.605 181.948 278.415 181.801 278.26 181.622C278.105 181.442 277.987 181.234 277.912 181.009C277.88 180.914 277.855 180.816 277.84 180.717L277.821 180.594L277.574 179.013C277.456 178.501 277.334 177.985 277.201 177.471C276.874 176.484 276.525 175.478 275.973 174.609C275.454 173.718 274.777 172.93 273.975 172.282C273.773 172.122 273.562 171.974 273.342 171.84L273.01 171.638L272.662 171.467C272.209 171.249 271.729 171.091 271.234 171L271.15 170.985C271.003 170.963 270.87 170.886 270.778 170.769C270.685 170.653 270.64 170.507 270.651 170.359C270.661 170.21 270.727 170.072 270.835 169.97C270.943 169.868 271.086 169.811 271.234 169.809L271.23 169.813Z" fill="#000072"/>
<path d="M242.707 190.25C242.303 190.25 241.911 190.113 241.595 189.861C231.101 181.498 235.263 172.042 235.307 171.947C235.502 171.516 235.861 171.18 236.304 171.014C236.747 170.847 237.239 170.863 237.67 171.059C238.101 171.255 238.437 171.613 238.603 172.057C238.77 172.5 238.754 172.991 238.558 173.422C238.422 173.733 235.595 180.512 243.822 187.067C244.112 187.298 244.323 187.613 244.426 187.969C244.529 188.325 244.518 188.705 244.395 189.055C244.273 189.404 244.045 189.708 243.742 189.922C243.44 190.136 243.078 190.251 242.707 190.25Z" fill="#000072"/>
<path d="M214.684 200.99C209.733 200.99 204.838 198.756 200.398 194.45C197.495 194.159 195.033 193.383 192.943 192.097C191.222 194.993 186.995 199.804 177.772 200.264C172.307 200.537 168.617 199.512 166.821 197.215C166.324 196.586 165.977 195.852 165.805 195.069C165.633 194.285 165.642 193.473 165.83 192.694C166.073 191.626 169.451 177.978 183.392 175.329C183.624 175.28 183.863 175.279 184.096 175.324C184.329 175.369 184.55 175.46 184.748 175.592C184.945 175.724 185.114 175.893 185.245 176.091C185.376 176.289 185.466 176.51 185.51 176.743C185.554 176.976 185.552 177.216 185.503 177.448C185.453 177.68 185.358 177.899 185.223 178.094C185.088 178.289 184.916 178.455 184.716 178.583C184.516 178.71 184.293 178.796 184.059 178.837C172.212 181.09 169.42 193.002 169.307 193.508C169.3 193.551 169.289 193.594 169.274 193.636C169.232 193.886 169.245 194.143 169.313 194.388C169.38 194.633 169.501 194.86 169.666 195.054C170.152 195.643 171.898 196.981 177.593 196.697C188.023 196.176 190.47 189.152 190.571 188.85C190.663 188.571 190.822 188.318 191.034 188.115C191.247 187.912 191.506 187.764 191.789 187.685C192.072 187.605 192.37 187.596 192.657 187.659C192.944 187.722 193.211 187.855 193.435 188.045C195.42 189.755 198.003 190.702 201.33 190.946C201.759 190.978 202.163 191.165 202.466 191.471C206.8 195.843 211.546 197.867 216.187 197.33C220.631 196.814 224.671 193.93 227.563 189.212C227.686 189.012 227.846 188.838 228.036 188.7C228.226 188.562 228.441 188.463 228.669 188.409C228.897 188.354 229.134 188.345 229.365 188.381C229.597 188.418 229.819 188.5 230.019 188.622C230.219 188.745 230.393 188.906 230.531 189.095C230.668 189.285 230.767 189.5 230.822 189.728C230.877 189.956 230.886 190.193 230.85 190.424C230.813 190.656 230.731 190.878 230.608 191.078C227.132 196.752 222.158 200.233 216.599 200.877C215.964 200.952 215.324 200.989 214.684 200.99Z" fill="#000072"/>
<path d="M201.588 194.907C201.184 194.907 200.791 194.77 200.475 194.519C200.158 194.267 199.937 193.915 199.846 193.521C199.756 193.127 199.802 192.713 199.977 192.349C200.152 191.984 200.445 191.69 200.81 191.514C208.498 187.791 205.667 178.619 205.538 178.234C205.398 177.785 205.441 177.299 205.657 176.882C205.873 176.464 206.245 176.149 206.692 176.004C207.14 175.859 207.626 175.896 208.046 176.108C208.466 176.319 208.785 176.688 208.935 177.133C210.338 181.441 210.767 190.663 202.361 194.732C202.12 194.848 201.856 194.908 201.588 194.907Z" fill="#000072"/>
<path d="M192.261 191.185C191.876 191.184 191.501 191.058 191.193 190.827C190.884 190.595 190.659 190.27 190.551 189.9C187.981 181.123 192.755 176.742 192.959 176.56C193.311 176.243 193.775 176.079 194.248 176.104C194.721 176.128 195.165 176.34 195.482 176.692C195.798 177.044 195.963 177.507 195.938 177.98C195.913 178.453 195.702 178.897 195.35 179.214C195.185 179.369 192.081 182.417 193.978 188.897C194.11 189.351 194.057 189.838 193.831 190.253C193.605 190.668 193.223 190.976 192.77 191.11C192.605 191.159 192.434 191.184 192.261 191.185Z" fill="#000072"/>
<path d="M190.901 185.431C190.735 185.399 190.567 185.378 190.398 185.368C190.209 185.35 190.013 185.345 189.817 185.336C189.422 185.327 189.022 185.336 188.619 185.359C187.805 185.407 186.997 185.529 186.205 185.722C185.398 185.909 184.61 186.172 183.852 186.508C183.08 186.847 182.339 187.254 181.639 187.723L181.606 187.743C181.483 187.822 181.335 187.852 181.191 187.828C181.047 187.805 180.916 187.729 180.824 187.616C180.732 187.502 180.684 187.359 180.691 187.213C180.697 187.067 180.757 186.928 180.859 186.824C181.5 186.144 182.201 185.523 182.952 184.967C183.715 184.4 184.528 183.905 185.383 183.489C186.246 183.058 187.146 182.706 188.072 182.434C188.538 182.295 189.013 182.178 189.498 182.077C189.742 182.032 189.986 181.984 190.238 181.949C190.512 181.906 190.787 181.877 191.064 181.864L191.28 181.854C191.519 181.843 191.758 181.879 191.983 181.96C192.207 182.041 192.414 182.166 192.591 182.327C192.767 182.488 192.911 182.682 193.012 182.899C193.114 183.115 193.172 183.349 193.183 183.588C193.194 183.827 193.158 184.066 193.076 184.29C192.995 184.515 192.871 184.722 192.709 184.899C192.548 185.075 192.354 185.218 192.138 185.32C191.921 185.422 191.687 185.48 191.448 185.491C191.264 185.498 191.08 185.478 190.901 185.431Z" fill="#000072"/>
<path d="M209.425 186.31C209.478 186.44 209.54 186.567 209.609 186.69C209.688 186.831 209.766 186.972 209.855 187.111C210.025 187.392 210.213 187.667 210.411 187.931C210.808 188.462 211.257 188.952 211.751 189.392C212.246 189.824 212.799 190.184 213.393 190.461C213.99 190.743 214.641 190.877 215.325 190.946L215.388 190.952C215.531 190.968 215.663 191.034 215.76 191.139C215.858 191.245 215.914 191.381 215.919 191.525C215.924 191.668 215.878 191.808 215.788 191.92C215.698 192.031 215.571 192.107 215.429 192.132C214.6 192.292 213.749 192.309 212.914 192.182C212.07 192.038 211.249 191.775 210.478 191.402C209.716 191.025 208.994 190.572 208.324 190.05C207.989 189.789 207.666 189.515 207.355 189.222C207.198 189.077 207.046 188.92 206.893 188.768C206.74 188.616 206.604 188.466 206.422 188.237L206.221 187.987C205.919 187.603 205.782 187.116 205.839 186.632C205.896 186.148 206.143 185.706 206.526 185.404C206.908 185.101 207.395 184.963 207.879 185.019C208.364 185.075 208.806 185.321 209.109 185.703C209.251 185.884 209.358 186.09 209.425 186.31Z" fill="#000072"/>
<path d="M165.292 89.8766L160.007 124.12L118.161 146.263C118.161 146.263 99.0003 143.647 62.1491 122.895C60.8077 122.138 59.4999 121.41 58.2256 120.71C24.4337 102.079 12.9699 100.877 1.78674 86.605C1.78674 86.605 8.49501 85.783 12.0604 79.5335C14.3099 75.5909 19.5836 67.9047 32.2919 66.8272C39.7265 66.1965 49.6964 67.8272 63.0958 73.7911L71.5465 62.4761L72.4751 61.2317C72.4751 61.2317 80.6602 46.4992 98.0707 55.131C98.8855 55.7499 99.7427 56.3106 100.636 56.8091C103.956 58.6964 110.106 61.291 116.82 59.5767C126.809 57.0294 165.292 89.8766 165.292 89.8766Z" fill="#FF0000"/>
<g opacity="0.3">
<path opacity="0.3" d="M165.292 89.8766L160.007 124.12L118.161 146.263C118.161 146.263 99.0003 143.647 62.1491 122.895C60.8077 122.138 59.4998 121.41 58.2255 120.71C129.91 137.365 112.499 113.758 113.493 99.3354C114.399 86.0788 102.547 60.7809 100.63 56.8051C103.95 58.6924 110.1 61.287 116.814 59.5727C126.809 57.0294 165.292 89.8766 165.292 89.8766Z" fill="#000072"/>
</g>
<g opacity="0.6">
<path opacity="0.6" d="M32.2918 66.8271C32.2918 66.8271 33.7204 68.1964 36.3099 70.4278C22.2626 70.8805 16.5916 79.1189 14.2324 83.2437C11.4467 88.13 6.73844 89.6964 4.81589 90.1481C3.79175 89.0586 2.78571 87.8866 1.78571 86.6069C1.78571 86.6069 8.49397 85.785 12.0594 79.5354C14.3099 75.5908 19.5835 67.9046 32.2918 66.8271Z" fill="white"/>
</g>
<g opacity="0.6">
<path opacity="0.6" d="M165.292 89.8766L165.036 91.5547C156.44 84.4299 127.464 61.121 118.988 63.285C108.994 65.8393 100.239 58.8333 100.239 58.8333C82.8272 50.2024 74.6431 64.9339 74.6431 64.9339L72.0566 68.3987C71.4972 66.3454 71.289 64.3564 71.5385 62.4761L72.467 61.2317C72.467 61.2317 80.6522 46.4992 98.0627 55.131C98.0627 55.131 106.815 62.1311 116.812 59.5767C126.809 57.0224 165.292 89.8766 165.292 89.8766Z" fill="white"/>
</g>
<path d="M118.16 148.051C118.079 148.051 117.998 148.045 117.917 148.034C117.12 147.925 97.9973 145.133 61.2768 124.457C48.2054 117.098 38.3261 112.284 30.3914 108.42C16.0202 101.424 8.10968 97.5697 0.380277 87.7085C0.185038 87.4594 0.0594923 87.163 0.0164969 86.8494C-0.0264986 86.5359 0.0146005 86.2166 0.135583 85.9242C0.256566 85.6317 0.453086 85.3767 0.705027 85.1852C0.956968 84.9937 1.25528 84.8726 1.56941 84.8342C1.8008 84.8041 7.45474 84.0063 10.5091 78.6501C19.3502 63.1491 37.316 60.7175 62.5133 71.5857L70.9851 60.2356C71.9016 58.7265 81.0385 44.6973 98.8585 53.5303C98.9725 53.586 99.0804 53.6534 99.1804 53.7315C99.2599 53.7939 107.393 60.14 116.375 57.8452C118.12 57.3996 123.433 56.0434 145.852 72.3252C156.652 80.1723 166.355 88.4379 166.451 88.5224C166.682 88.72 166.859 88.9735 166.965 89.2588C167.071 89.5441 167.102 89.8516 167.055 90.1522L161.767 124.394C161.735 124.629 161.656 124.855 161.536 125.059C161.416 125.263 161.256 125.442 161.066 125.583C160.876 125.725 160.659 125.828 160.429 125.885C160.199 125.942 159.96 125.953 159.726 125.917C159.491 125.881 159.267 125.798 159.064 125.674C158.862 125.55 158.687 125.388 158.548 125.195C158.41 125.003 158.311 124.785 158.258 124.553C158.204 124.322 158.198 124.083 158.238 123.849L163.369 90.5938C148.649 78.1189 123.762 59.645 117.251 61.308C107.166 63.8815 98.445 57.6672 97.109 56.6511C81.5938 49.0675 74.3252 61.5646 74.0224 62.1018C73.9843 62.1714 73.942 62.2386 73.8956 62.303L64.5203 74.8614C64.2782 75.1863 63.9327 75.4191 63.5407 75.5215C63.1487 75.6239 62.7334 75.5898 62.3634 75.4248C47.2074 68.6742 34.9337 66.8382 25.8794 69.9469C18.0483 72.6421 14.7123 78.4982 13.6117 80.4197C11.1872 84.6713 7.50102 86.6854 4.9326 87.617C11.6137 95.3051 18.7596 98.784 31.9488 105.21C39.9287 109.096 49.8563 113.934 63.0243 121.345C99.0486 141.626 118.213 144.469 118.402 144.495C118.851 144.556 119.26 144.785 119.546 145.136C119.833 145.487 119.975 145.934 119.944 146.386C119.913 146.838 119.712 147.261 119.381 147.571C119.05 147.88 118.613 148.051 118.16 148.051Z" fill="#000072"/>
<path d="M64.4721 72.6532C66.0626 74.6109 67.8071 76.5767 69.5636 78.4671C71.3202 80.3574 73.1441 82.2246 75.0033 84.0365C78.7164 87.6713 82.6207 91.1054 86.6995 94.3243C90.783 97.5346 95.0577 100.506 99.5446 103.12C101.785 104.434 104.096 105.62 106.442 106.732C108.8 107.818 111.212 108.783 113.669 109.622H113.68C113.825 109.675 113.943 109.782 114.011 109.92C114.078 110.059 114.089 110.218 114.042 110.364C113.995 110.51 113.893 110.633 113.757 110.706C113.622 110.779 113.463 110.796 113.315 110.755C110.78 109.996 108.285 109.106 105.841 108.09C103.41 107.05 101.012 105.929 98.6774 104.678C94.0064 102.19 89.5416 99.3293 85.2639 96.2207C80.9883 93.1036 76.8818 89.7608 72.962 86.2066C70.9996 84.4332 69.0801 82.6113 67.2035 80.7407C65.3232 78.8604 63.5083 76.9721 61.7145 74.9278C61.5598 74.7515 61.4413 74.5465 61.3659 74.3244C61.2904 74.1023 61.2595 73.8675 61.2747 73.6335C61.29 73.3994 61.3512 73.1706 61.4549 72.9602C61.5586 72.7498 61.7027 72.5619 61.879 72.4072C62.0553 72.2525 62.2604 72.134 62.4825 72.0586C62.7045 71.9831 62.9393 71.9521 63.1734 71.9674C63.4075 71.9827 63.6362 72.0439 63.8466 72.1476C64.057 72.2513 64.2449 72.3954 64.3996 72.5717C64.4137 72.5868 64.4258 72.6019 64.4389 72.617L64.4721 72.6532Z" fill="#000072"/>
<path d="M298.214 129.934C289.764 129.381 285.304 138.154 275.893 148.285C275.893 148.285 252.679 173.881 210.417 177.452C180.375 179.994 161.161 172.678 149.358 166.208H149.352C144.548 163.571 140.97 161.083 138.393 159.446C129.464 153.791 126.339 163.761 126.339 163.761C125.191 156.66 125.804 153.369 126.268 152.041C126.268 152.041 126.268 152.041 126.274 152.03C126.47 151.469 126.637 151.261 126.637 151.261C121.131 150.518 116.815 144.714 116.815 144.714C133.631 133.702 127.379 118.375 129.911 104.089C116.976 82.8091 109.321 59.7849 112.435 33.2255C112.545 32.2966 112.89 31.4111 113.437 30.6521C113.983 29.8931 114.714 29.2855 115.56 28.8864C132.958 20.6489 160.923 32.7556 175.595 42.6309C184.65 37.9518 196.905 35.8623 210.907 35.1862C217.693 21.0906 226.847 9.88835 239.198 2.5674C241.252 1.35311 243.871 1.57343 245.637 3.18008C251.196 8.22738 255.524 14.2988 258.816 21.2164C262.869 29.7275 265.369 39.5263 266.69 50.2909C267.583 57.4992 267.947 65.1421 267.904 73.1189C267.898 74.5173 267.881 75.9278 267.851 77.3503C271.494 84.125 274.476 91.6542 276.679 100.071C281.953 110.119 288.167 114.238 295.131 113.66C294.339 117.636 293.018 120.547 291.167 122.393C291.22 122.416 291.268 122.434 291.316 122.458L292.059 122.785C296.357 124.791 298.102 127.22 298.214 129.934Z" fill="#FF8F08"/>
<g opacity="0.6">
<path opacity="0.6" d="M129.602 106.154C130.127 107.053 130.66 107.952 131.204 108.85C128.781 122.542 134.418 137.19 120.091 148.071C118.883 147.072 117.785 145.947 116.816 144.714C132.821 134.232 127.929 119.832 129.602 106.154Z" fill="white"/>
</g>
<g opacity="0.6">
<path opacity="0.6" d="M264.316 37.0051C260.845 25.4105 255.286 15.5292 246.934 7.94565C245.167 6.33598 242.548 6.11868 240.496 7.33297C229.514 13.8451 221.062 23.4225 214.55 35.3743C229.628 35.8683 245.615 48.5111 245.615 48.5111C224.567 39.2083 212.205 39.9518 212.205 39.9518C201.096 40.485 191.089 41.9095 182.907 44.8109C178.991 46.1993 174.681 45.8572 171.081 43.7838C155.663 34.9075 132.166 26.3974 116.856 33.6479C116.009 34.0471 115.279 34.6548 114.732 35.414C114.185 36.1732 113.841 37.059 113.731 37.988C112.272 50.4397 113.176 62.1188 115.891 73.1993C112.201 60.7104 110.766 47.4729 112.439 33.2224C112.549 32.2935 112.894 31.408 113.441 30.649C113.987 29.89 114.718 29.2824 115.564 28.8833C132.962 20.6459 160.927 32.7526 175.599 42.6278C184.654 37.9487 196.909 35.8592 210.911 35.1831C217.697 21.0875 226.851 9.88529 239.202 2.56435C241.256 1.35006 243.875 1.57038 245.641 3.17703C255.114 11.7857 260.991 23.3451 264.316 37.0051Z" fill="white"/>
</g>
<g opacity="0.6">
<path opacity="0.6" d="M264.316 37.0051C268.083 49.5474 269.404 64.1008 269.185 79.9218C268.756 79.0536 268.31 78.1964 267.857 77.3503C268.185 62.6601 267.238 49.0172 264.316 37.0051Z" fill="white"/>
</g>
<path d="M257.916 59.5766C248.995 50.4519 240.262 43.8824 231.708 39.7023C234.03 31.1067 236.822 23.16 240.964 17.0664C241.982 15.5775 244.142 15.4054 245.327 16.7646C253.916 26.6479 257.447 41.5866 257.916 59.5766Z" fill="#EF7FD2"/>
<g opacity="0.3">
<path opacity="0.3" d="M253.905 32.6127C252.487 29.8793 250.755 27.3205 248.744 24.988C247.559 23.6248 245.399 23.7968 244.381 25.2898C241.143 30.0574 238.732 35.9538 236.726 42.4206C235.048 41.4206 233.375 40.5212 231.708 39.7043C234.03 31.1087 236.822 23.162 240.964 17.0685C241.982 15.5795 244.142 15.4075 245.327 16.7667C249.113 21.1308 251.916 26.4639 253.905 32.6127Z" fill="#000072"/>
</g>
<path d="M298.214 129.934C289.764 129.381 285.304 138.154 275.893 148.285C275.893 148.285 252.679 173.881 210.417 177.452C168.155 181.024 147.321 165.101 138.393 159.444C129.464 153.787 126.339 163.759 126.339 163.759C125.191 156.658 125.804 153.367 126.268 152.039C126.268 152.039 126.268 152.039 126.274 152.028C126.506 151.525 126.637 151.259 126.637 151.259C142.411 138.016 157.244 140.842 169.542 145.11C181.84 149.378 192.018 139.491 192.018 139.491C194.042 132.432 200.685 126.634 204.316 123.898C205.224 123.212 205.986 122.351 206.556 121.367C207.126 120.382 207.493 119.292 207.635 118.163C208.038 114.955 207.695 111.396 205.73 107.062C200.373 97.0918 202.832 89.2045 210.569 86.6039C219.332 86.7588 223.075 91.9963 222.623 101.484C222.623 101.484 222.028 106.449 223.707 111.556C225.177 116.044 228.969 119.419 233.575 120.455C236.683 121.159 241.76 123.413 247.522 130.36C247.522 130.36 257.593 134.223 263.469 128.788C269.344 123.354 270.665 119.021 291.326 122.455L292.069 122.782C296.357 124.791 298.102 127.22 298.214 129.934Z" fill="white"/>
<g opacity="0.3">
<path opacity="0.3" d="M205.558 175.833C247.82 172.261 271.034 146.666 271.034 146.666C280.445 136.535 284.909 127.761 293.355 128.314C293.242 125.598 291.498 123.171 287.207 121.166L286.463 120.838C286.415 120.815 286.367 120.797 286.314 120.773C287.976 119.111 289.212 116.581 290.023 113.184C288.985 112.887 287.983 112.475 287.035 111.957C281.374 111.168 276.271 106.913 271.826 98.4521C270.183 92.1784 268.112 86.3977 265.653 81.0586C265.207 80.0888 264.749 79.1364 264.279 78.2015C263.861 77.3685 263.432 76.5415 262.999 75.7317C263.004 75.5305 263.004 75.3383 263.01 75.1482C258.025 63.9087 250.725 55.4348 245.29 50.1682C257.153 73.5868 301.504 177.354 149.357 166.208C153.408 168.432 157.623 170.344 161.965 171.927C173.001 175.271 187.27 177.38 205.558 175.833Z" fill="#000072"/>
</g>
<path d="M198.424 179.756C166.259 179.756 148.491 168.159 139.451 162.257C138.721 161.78 138.051 161.343 137.439 160.954C135.287 159.592 133.415 159.184 131.888 159.738C129.227 160.703 128.054 164.265 128.043 164.301C127.92 164.683 127.673 165.013 127.341 165.238C127.008 165.462 126.61 165.568 126.21 165.539C125.81 165.509 125.431 165.346 125.135 165.076C124.839 164.805 124.643 164.443 124.578 164.047C123.612 158.08 123.82 154.559 124.276 152.529C119.187 150.818 115.561 146.01 115.389 145.779C115.244 145.584 115.14 145.361 115.084 145.124C115.028 144.887 115.021 144.641 115.064 144.401C115.107 144.162 115.198 143.933 115.332 143.73C115.466 143.527 115.64 143.353 115.843 143.22C127.225 135.767 127.297 126.171 127.374 116.013C127.403 112.224 127.432 108.314 128.047 104.443C113.544 80.3685 107.859 56.9972 110.665 33.0143C110.807 31.7839 111.261 30.6103 111.985 29.6051C112.709 28.6 113.677 27.7967 114.799 27.2718C133.512 18.4126 162.301 31.7829 175.727 40.5676C183.939 36.5726 195.1 34.2426 209.775 33.4569C217.045 18.7104 226.382 8.09767 238.296 1.03326C241.062 -0.606587 244.499 -0.274599 246.847 1.8582C263.154 16.6671 270.407 40.5253 269.657 76.9198C273.305 83.776 276.234 91.3414 278.365 99.4159C283.094 108.335 288.526 112.413 294.996 111.88C295.272 111.857 295.549 111.898 295.806 112.001C296.063 112.104 296.292 112.265 296.477 112.471C296.661 112.678 296.794 112.924 296.867 113.191C296.939 113.458 296.949 113.738 296.895 114.009C296.261 117.174 295.285 119.766 293.977 121.748C297.84 123.842 299.865 126.561 300.003 129.855C300.014 130.105 299.972 130.355 299.88 130.588C299.787 130.821 299.647 131.032 299.467 131.207C299.288 131.382 299.074 131.518 298.839 131.604C298.604 131.691 298.353 131.727 298.103 131.711C292.625 131.35 288.963 135.73 283.415 142.357C281.598 144.527 279.538 146.984 277.205 149.5C276.976 149.753 271.118 156.149 259.946 163.048C249.665 169.396 232.753 177.356 210.571 179.23C206.309 179.591 202.263 179.756 198.424 179.756ZM133.303 155.92C135.204 155.92 137.227 156.593 139.349 157.937C139.974 158.334 140.656 158.78 141.404 159.266C151.189 165.654 171.549 178.944 210.266 175.673C251.353 172.201 274.343 147.337 274.571 147.086C276.855 144.626 278.883 142.204 280.672 140.067C285.82 133.918 290.006 128.917 295.979 128.208C295.375 127.023 293.939 125.491 290.48 124.039C290.21 123.925 289.972 123.747 289.787 123.52C289.602 123.293 289.475 123.024 289.419 122.736C289.362 122.449 289.378 122.152 289.463 121.872C289.548 121.591 289.701 121.336 289.909 121.129C291.16 119.88 292.152 117.981 292.869 115.469C285.928 115.042 279.96 110.152 275.106 100.901C275.043 100.781 274.994 100.655 274.959 100.525C272.846 92.4843 269.929 84.9732 266.286 78.1995C266.139 77.9276 266.065 77.6221 266.072 77.3132C266.869 41.7648 259.996 18.6299 244.443 4.50509C243.281 3.44875 241.499 3.28578 240.117 4.10771C228.572 10.9488 219.548 21.3744 212.527 35.964C212.387 36.2533 212.172 36.4995 211.904 36.6766C211.636 36.8537 211.325 36.955 211.004 36.97C195.752 37.7014 184.444 40.0706 176.42 44.2135C176.136 44.3603 175.817 44.4279 175.497 44.4093C175.178 44.3907 174.869 44.2866 174.603 44.1078C160.159 34.3855 132.72 22.7386 116.326 30.4981C115.754 30.766 115.259 31.1758 114.889 31.6888C114.519 32.2017 114.287 32.8007 114.214 33.4287C111.443 57.1039 116.919 79.2609 131.445 103.157C131.67 103.529 131.753 103.969 131.678 104.397C131.006 108.186 130.973 112.175 130.947 116.035C130.87 126.21 130.792 136.715 119.478 145.044C120.996 146.635 123.773 149.068 126.889 149.487C127.573 149.58 128.226 149.968 128.435 150.626C128.636 151.263 128.547 151.874 128.082 152.337C127.934 152.648 127.295 154.26 127.538 158.445C128.411 157.534 129.476 156.83 130.656 156.383C131.505 156.074 132.401 155.917 133.303 155.92Z" fill="#000072"/>
<path d="M267.858 79.139C267.497 79.139 267.145 79.0295 266.847 78.8251C266.549 78.6208 266.321 78.3311 266.191 77.9942C256.9 53.8573 235.687 38.1389 210.83 36.9739C210.359 36.9481 209.918 36.7374 209.602 36.3878C209.287 36.0382 209.122 35.578 209.144 35.1074C209.166 34.6368 209.373 34.194 209.72 33.8754C210.067 33.5568 210.526 33.3883 210.997 33.4065C223.612 33.998 235.63 38.1409 245.75 45.3884C256.333 52.9669 264.553 63.7989 269.524 76.7115C269.628 76.982 269.665 77.2737 269.631 77.5614C269.597 77.8492 269.493 78.1244 269.329 78.3633C269.165 78.6022 268.946 78.7977 268.689 78.9328C268.433 79.068 268.148 79.1387 267.858 79.139Z" fill="#000072"/>
<path d="M255.878 138.39C271.054 146.345 255.506 161.529 247.025 147.243L197.397 157.659C198.067 173.359 176.638 169.117 184.301 152.302C171.726 142.48 185.938 128.12 195.388 143.692L244.346 134.147C243.083 117.407 268.602 123.579 255.878 138.39Z" fill="white"/>
<g opacity="0.3">
<path opacity="0.3" d="M247.024 147.244L197.393 157.661C197.997 171.636 181.072 169.809 182.762 157.375C186.352 163.481 196.791 162.297 196.322 151.261L245.953 140.845C251.137 149.583 258.971 147.297 260.798 142.387C266.494 150.273 254.22 159.363 247.024 147.244Z" fill="#000072"/>
</g>
<g opacity="0.3">
<path opacity="0.3" d="M184.297 152.303C183.452 154.148 182.964 155.839 182.762 157.375C181.685 155.541 181.22 153.049 181.863 149.975C182.591 150.834 183.407 151.614 184.297 152.303Z" fill="#000072"/>
</g>
<path d="M257.913 61.3654C257.448 61.3653 257.001 61.1835 256.668 60.8588C256.334 60.5341 256.141 60.0921 256.129 59.6269C255.626 40.3965 251.651 26.7627 243.975 17.9467C243.881 17.8389 243.764 17.7543 243.633 17.6998C243.501 17.6453 243.358 17.6224 243.216 17.6329C243.061 17.6417 242.91 17.6865 242.774 17.7636C242.639 17.8408 242.524 17.9482 242.437 18.0775C238.953 23.2083 236.175 30.0162 233.43 40.1681C233.304 40.6222 233.003 41.0079 232.594 41.2412C232.184 41.4745 231.699 41.5364 231.244 41.4134C230.789 41.2905 230.401 40.9927 230.165 40.5849C229.929 40.1771 229.863 39.6924 229.983 39.2365C232.836 28.6832 235.766 21.5383 239.484 16.0695C239.877 15.4871 240.399 15.0035 241.01 14.6563C241.621 14.3092 242.303 14.108 243.005 14.0685C243.692 14.0254 244.38 14.1413 245.016 14.4072C245.651 14.6731 246.217 15.0818 246.669 15.6017C254.913 25.0695 259.176 39.4448 259.7 59.5334C259.706 59.7678 259.666 60.0012 259.582 60.2201C259.498 60.4391 259.372 60.6393 259.21 60.8095C259.049 60.9796 258.855 61.1162 258.641 61.2116C258.427 61.307 258.196 61.3593 257.962 61.3654H257.913Z" fill="#000072"/>
<path d="M190.151 169.221C188.946 169.217 187.755 168.975 186.645 168.507C185.536 168.04 184.53 167.356 183.687 166.497C182.162 164.944 179.096 160.6 182.142 152.82C178.42 149.452 176.828 145.232 177.868 141.321C178.747 138.02 181.439 135.581 184.727 135.109C186.713 134.824 191.669 134.944 196.237 141.708L242.515 132.686C242.616 127.872 244.909 124.266 248.843 122.888C252.881 121.47 257.625 122.888 259.873 126.179C260.954 127.762 262.81 131.895 258.539 137.887C264.139 141.584 264.224 145.935 263.962 147.752C263.459 151.233 260.734 154.046 257.178 154.753C253.154 155.558 249.113 153.507 246.181 149.244L199.178 159.11C198.983 163.647 196.982 167.033 193.561 168.518C192.484 168.983 191.324 169.223 190.151 169.221ZM185.953 138.593C185.713 138.593 185.472 138.61 185.234 138.644C183.338 138.917 181.838 140.295 181.32 142.241C180.565 145.075 182.09 148.31 185.4 150.893C185.716 151.14 185.94 151.486 186.036 151.876C186.131 152.265 186.093 152.676 185.926 153.041C183.822 157.657 183.934 161.648 186.235 163.991C187.804 165.59 190.18 166.09 192.142 165.239C194.507 164.213 195.771 161.477 195.611 157.733C195.594 157.31 195.726 156.895 195.986 156.562C196.246 156.228 196.615 155.997 197.029 155.91L246.657 145.493C247.021 145.416 247.401 145.456 247.742 145.605C248.083 145.755 248.369 146.008 248.559 146.328C250.751 150.021 253.644 151.812 256.486 151.247C258.527 150.845 260.15 149.193 260.431 147.239C260.811 144.61 258.849 141.959 255.049 139.968C254.811 139.844 254.604 139.667 254.444 139.451C254.284 139.235 254.174 138.986 254.124 138.722C254.073 138.458 254.083 138.186 254.152 137.927C254.222 137.667 254.349 137.426 254.524 137.223C257.559 133.691 258.436 130.398 256.927 128.19C255.582 126.22 252.551 125.373 250.028 126.254C247.211 127.243 245.823 129.997 246.126 134.01C246.159 134.447 246.031 134.88 245.765 135.228C245.5 135.576 245.116 135.814 244.687 135.898L195.729 145.443C195.37 145.513 194.999 145.472 194.665 145.324C194.331 145.176 194.05 144.929 193.861 144.616C191.51 140.746 188.666 138.593 185.953 138.593Z" fill="#000072"/>
<path d="M154.02 53.3986C143.421 44.9479 132.418 39.1943 120.684 38.3151C120.129 56.2165 124.58 72.0989 133.774 86.0677C133.883 86.2335 134.037 86.3647 134.217 86.4457C134.398 86.5268 134.599 86.5544 134.795 86.5252C134.991 86.4959 135.174 86.4112 135.323 86.2809C135.473 86.1506 135.582 85.9803 135.637 85.7901C139.344 72.8051 144.983 62.0123 153.989 55.0364C154.115 54.9414 154.218 54.819 154.29 54.6784C154.362 54.5378 154.4 54.3827 154.403 54.2249C154.406 54.0671 154.373 53.9107 154.307 53.7675C154.24 53.6243 154.142 53.4982 154.02 53.3986Z" fill="#EF7FD2"/>
<g opacity="0.6">
<path opacity="0.6" d="M158.057 57.9016C149.045 64.8775 142.342 77.0566 138.634 90.0386C138.579 90.2292 138.471 90.4001 138.321 90.5309C138.172 90.6616 137.989 90.7468 137.792 90.7763C137.596 90.8057 137.396 90.7782 137.215 90.697C137.034 90.6158 136.88 90.4844 136.771 90.3183C135.675 88.6573 134.652 86.9671 133.688 85.2468C133.823 85.3384 133.978 85.3967 134.141 85.4169C134.303 85.437 134.468 85.4185 134.622 85.3628C134.776 85.307 134.914 85.2157 135.026 85.0963C135.138 84.9768 135.22 84.8326 135.265 84.6754C138.873 72.0446 145.367 60.1099 153.943 53.1219C155.33 54.122 156.709 55.1696 158.08 56.2648C158.202 56.3641 158.3 56.4898 158.367 56.6326C158.434 56.7753 158.468 56.9313 158.465 57.0888C158.463 57.2464 158.425 57.4014 158.354 57.5422C158.284 57.6829 158.182 57.8059 158.057 57.9016Z" fill="white"/>
</g>
<g opacity="0.3">
<path opacity="0.3" d="M153.988 55.0354C153.284 55.5827 152.601 56.1481 151.94 56.7377C143.815 51.5063 135.423 48.0948 126.613 47.4398C126.172 61.7377 128.927 74.7498 134.738 86.5295C134.55 86.5488 134.36 86.5155 134.19 86.4335C134.02 86.3514 133.876 86.2238 133.774 86.0647C124.578 72.1009 120.131 56.2135 120.685 38.3151C132.417 39.1964 143.421 44.9459 154.018 53.3986C154.14 53.4979 154.239 53.6239 154.305 53.7669C154.372 53.91 154.405 54.0663 154.403 54.2241C154.4 54.382 154.361 54.537 154.289 54.6776C154.217 54.8182 154.115 54.9406 153.988 55.0354Z" fill="#000072"/>
</g>
<path d="M134.632 88.3233C134.165 88.324 133.706 88.2077 133.295 87.9851C132.885 87.7624 132.537 87.4405 132.283 87.0486C122.844 72.7085 118.341 56.293 118.903 38.2557C118.91 38.0147 118.966 37.7776 119.068 37.5589C119.169 37.3401 119.314 37.1442 119.493 36.983C119.673 36.8217 119.883 36.6985 120.111 36.6207C120.339 36.5429 120.581 36.5122 120.821 36.5304C131.901 37.3603 143.125 42.4197 155.135 51.9982C155.469 52.2622 155.737 52.5989 155.92 52.9825C156.103 53.366 156.197 53.7864 156.193 54.2115C156.191 54.6432 156.09 55.0687 155.898 55.4554C155.706 55.8421 155.428 56.1799 155.086 56.4429C147.126 62.6079 141.327 72.3655 137.357 86.274C137.212 86.7943 136.919 87.2614 136.514 87.6185C136.109 87.9757 135.609 88.2076 135.075 88.2861C134.929 88.3095 134.781 88.3219 134.632 88.3233ZM122.43 40.2789C122.265 56.2437 126.281 70.8393 134.385 83.7146C138.436 70.2961 144.266 60.62 152.163 54.2055C141.705 46.0133 131.949 41.4398 122.43 40.2789Z" fill="#000072"/>
<path d="M211.914 129.136C215.997 125.373 221.458 124.538 226.041 127.661C226.289 127.83 226.472 128.078 226.561 128.365C226.649 128.651 226.638 128.96 226.528 129.239C225.729 131.223 224.325 132.84 222.604 134.008C221.893 134.496 221.078 134.81 220.223 134.927C219.369 135.044 218.499 134.96 217.683 134.683C215.561 133.957 213.759 132.646 211.942 131.126C211.799 131.004 211.683 130.853 211.603 130.682C211.523 130.512 211.48 130.326 211.477 130.138C211.475 129.949 211.512 129.762 211.587 129.59C211.663 129.417 211.774 129.262 211.914 129.136Z" fill="#000072"/>
<path d="M220.461 134.148L221.147 137.983C221.675 140.927 220.236 143.919 217.546 145.227C213.988 146.955 209.271 146.736 206.31 142.977C205.506 141.953 204.969 140.74 204.644 139.476L203.77 136.084L220.461 134.148Z" fill="white"/>
<path d="M234.624 130.362C243.175 140.795 225.496 149.677 221.225 138.557L224.405 134.148" fill="white"/>
<path d="M222.892 137.916C223.753 139.701 225.005 140.977 226.66 141.467C227.518 141.719 228.419 141.792 229.308 141.683C230.242 141.558 231.148 141.273 231.985 140.838C233.657 139.946 235.016 138.491 235.43 136.686C235.659 135.787 235.632 134.792 235.391 133.782C235.151 132.772 234.694 131.76 234.163 130.739L234.148 130.711C234.085 130.586 234.067 130.443 234.098 130.306C234.129 130.17 234.206 130.049 234.317 129.963C234.427 129.877 234.564 129.832 234.704 129.836C234.844 129.84 234.978 129.893 235.083 129.984C236.052 130.835 236.855 131.859 237.451 133.002C238.093 134.251 238.391 135.648 238.314 137.05C238.211 138.502 237.725 139.901 236.905 141.105C236.104 142.287 235.057 143.283 233.835 144.023C232.626 144.778 231.278 145.284 229.871 145.511C228.416 145.756 226.925 145.661 225.513 145.235C224.064 144.794 222.756 143.982 221.719 142.878C220.741 141.819 220.005 140.561 219.562 139.19C219.417 138.758 219.443 138.288 219.633 137.875C219.823 137.461 220.164 137.136 220.585 136.965C221.007 136.795 221.478 136.791 221.902 136.956C222.326 137.12 222.672 137.44 222.868 137.851L222.892 137.916Z" fill="#000072"/>
<path d="M222.219 133.833C222.373 134.492 222.528 135.15 222.667 135.81L222.878 136.802L222.979 137.298C223.013 137.472 223.046 137.6 223.079 137.837C223.382 139.562 223.146 141.338 222.404 142.924C221.661 144.53 220.428 145.858 218.883 146.719C218.692 146.819 218.489 146.933 218.304 147.013L217.752 147.249C217.382 147.399 217.002 147.526 216.62 147.642C215.85 147.86 215.06 148.001 214.261 148.064C212.666 148.181 211.009 147.98 209.501 147.352C208.002 146.743 206.683 145.762 205.67 144.5C205.169 143.891 204.75 143.219 204.421 142.502C204.104 141.808 203.868 141.08 203.717 140.332C203.679 140.15 203.645 139.968 203.616 139.785L203.546 139.273L203.41 138.262C203.329 137.586 203.252 136.909 203.192 136.228C203.178 136.085 203.216 135.942 203.298 135.825C203.38 135.707 203.501 135.622 203.64 135.586C203.779 135.55 203.926 135.564 204.055 135.626C204.184 135.689 204.287 135.795 204.345 135.926C204.62 136.552 204.881 137.183 205.135 137.813L205.506 138.764L205.69 139.236C205.745 139.379 205.804 139.521 205.865 139.661C206.368 140.788 206.999 141.742 207.854 142.489C208.674 143.279 209.657 143.791 210.671 144.119C211.187 144.27 211.719 144.364 212.256 144.401C212.799 144.443 213.345 144.427 213.885 144.352C214.43 144.272 214.966 144.144 215.488 143.968C215.747 143.878 216.007 143.783 216.258 143.666L216.631 143.493C216.756 143.435 216.842 143.374 216.949 143.317C217.762 142.823 218.41 142.099 218.813 141.238C219.225 140.36 219.378 139.383 219.252 138.421L218.965 136.459C218.865 135.791 218.783 135.12 218.7 134.447C218.641 133.992 218.76 133.532 219.032 133.162C219.303 132.792 219.706 132.541 220.158 132.46C220.609 132.379 221.075 132.475 221.458 132.727C221.841 132.98 222.112 133.37 222.215 133.817L222.219 133.833Z" fill="#000072"/>
<path d="M239.405 150.103C239.333 150.326 239.276 150.45 239.214 150.606C239.152 150.762 239.088 150.891 239.023 151.029C238.897 151.307 238.756 151.568 238.611 151.823C238.473 152.081 238.322 152.332 238.159 152.575C237.997 152.815 237.857 153.07 237.672 153.294C237.338 153.761 236.976 154.207 236.589 154.631C236.396 154.842 236.213 155.061 236.012 155.261L235.39 155.845C233.719 157.38 231.768 158.536 229.743 159.376L228.201 159.943C227.683 160.11 227.15 160.224 226.626 160.365L225.84 160.566C225.578 160.63 225.309 160.654 225.043 160.701L223.451 160.943C222.389 161.066 221.322 161.084 220.264 161.155L217.098 161.055C216.945 161.052 216.798 160.99 216.689 160.882C216.58 160.773 216.518 160.627 216.515 160.473C216.512 160.319 216.568 160.17 216.673 160.058C216.778 159.945 216.922 159.877 217.075 159.869H217.128L220.176 159.668C221.176 159.499 222.182 159.388 223.163 159.179L224.617 158.81C224.858 158.745 225.104 158.701 225.339 158.618L226.043 158.364C226.506 158.19 226.979 158.043 227.429 157.849L228.752 157.211C230.47 156.296 232.031 155.142 233.287 153.741L233.753 153.214C233.903 153.034 234.033 152.839 234.174 152.653C234.452 152.283 234.708 151.897 234.94 151.496C235.07 151.304 235.158 151.094 235.267 150.893C235.377 150.695 235.474 150.491 235.559 150.281C235.652 150.082 235.734 149.878 235.806 149.669C235.841 149.569 235.884 149.468 235.906 149.368C235.928 149.267 235.969 149.16 235.97 149.134C235.974 148.893 236.027 148.655 236.125 148.434C236.222 148.213 236.363 148.014 236.539 147.848C236.714 147.682 236.921 147.552 237.147 147.467C237.373 147.382 237.614 147.343 237.855 147.352C238.096 147.361 238.334 147.417 238.553 147.519C238.772 147.621 238.969 147.765 239.132 147.943C239.294 148.122 239.42 148.331 239.501 148.558C239.582 148.785 239.618 149.027 239.604 149.268C239.598 149.432 239.571 149.594 239.522 149.75L239.405 150.103Z" fill="#000072"/>
<path d="M185.638 79.8222C182.156 75.1853 173.365 74.135 167.977 81.2065C167.865 81.3585 167.785 81.5324 167.743 81.7171C167.701 81.9018 167.698 82.0932 167.735 82.279C167.771 82.4648 167.846 82.6409 167.955 82.7961C168.063 82.9513 168.203 83.0822 168.365 83.1803C169.852 84.0958 172.783 85.4942 177.361 85.9701C179.135 86.1552 180.603 86.3181 181.807 86.458C185.444 86.8805 187.838 82.7477 185.638 79.8222Z" fill="white"/>
<path d="M239.864 76.5656C236.666 79.3634 233.881 78.0214 232.89 75.1139C231.931 72.3031 233.152 69.2095 235.632 67.5747C239.069 65.3081 242.909 64.5445 247.681 67.2729C249.195 68.1391 249.261 70.3091 247.823 71.297C245.327 73.0083 242.028 74.0817 239.864 76.5656Z" fill="white"/>
<g opacity="0.3">
<path opacity="0.3" d="M267.91 73.119L256.743 56.2739V44.5173C261.85 36.4287 257.915 21.7677 257.915 21.7677L258.821 21.2205C265.595 35.4338 268.018 53.2316 267.91 73.119Z" fill="#000072"/>
</g>
<path d="M270.512 82.6783C270.053 81.9519 269.607 81.0234 269.155 79.8684C269.149 79.8503 269.143 79.8393 269.137 79.8212C269.608 80.7568 270.067 81.7092 270.512 82.6783Z" fill="#000072"/>
<path d="M90.3202 204.653C81.9791 204.653 75.1974 199.477 75.0928 199.396C74.7306 199.101 74.4982 198.676 74.4456 198.212C74.3929 197.748 74.5242 197.282 74.8112 196.914C75.0981 196.545 75.518 196.304 75.9808 196.241C76.4436 196.179 76.9125 196.3 77.287 196.579C77.8443 197.011 91.0767 207.033 101.996 195.848C102.16 195.678 102.355 195.543 102.571 195.449C102.787 195.355 103.019 195.305 103.255 195.302C103.49 195.298 103.724 195.341 103.943 195.428C104.162 195.515 104.361 195.645 104.529 195.81C104.698 195.974 104.832 196.17 104.924 196.387C105.017 196.603 105.065 196.836 105.067 197.071C105.07 197.307 105.025 197.54 104.937 197.759C104.848 197.977 104.717 198.175 104.552 198.343C99.9007 203.107 94.8766 204.653 90.3202 204.653Z" fill="#000072"/>
<g opacity="0.3">
<path opacity="0.3" d="M104.954 106.154C67.2578 100.333 32.2878 66.8272 32.2878 66.8272C39.7225 66.1964 49.6923 67.8272 63.0918 73.791L71.5425 62.4761C69.2679 79.6482 104.954 106.154 104.954 106.154Z" fill="#000072"/>
</g>
<g opacity="0.3">
<path opacity="0.3" d="M104.492 142.541C104.492 142.541 126.625 163.064 96.8464 180.577L90.3806 191.442C90.3806 191.442 107.245 200.867 117.365 197.99C117.365 197.99 110.271 169.72 125.003 158.704L126.64 151.259L119.345 147.422" fill="#000072"/>
</g>
<g opacity="0.3">
<path opacity="0.3" d="M86.9349 191.565C81.625 195.489 64.7145 205.549 42.2738 194.483C41.4817 194.09 40.6843 193.672 39.8814 193.227C42.2617 203.721 27.5595 207.125 19.9619 204.256C25.146 206.084 32.6641 200.507 29.4679 190.15C26.1943 179.53 34.9257 177.685 34.9257 177.685C78.1733 205.6 98.6161 148.071 98.6161 148.071C98.6161 148.071 100.771 160.392 100.879 161.381C102.741 179.238 87.8987 190.351 86.9349 191.565Z" fill="#000072"/>
</g>
<g opacity="0.3">
<path opacity="0.3" d="M229.077 190.149C222.768 200.44 211.208 202.833 201.191 192.732C197.923 192.488 195.006 191.595 192.631 189.702C191.619 186.857 191.03 184.381 192.863 186.19C196.44 189.711 207.643 185.404 207.643 185.404L206.564 188.468C217.289 193.826 219.665 183.005 219.665 183.005L223.789 187.088L227.969 188.993L229.077 190.149Z" fill="#000072"/>
</g>
<path d="M256.883 94.8132C255.978 95.1683 255.011 95.5466 254.108 95.9691C253.651 96.1703 253.203 96.4007 252.754 96.6029L251.435 97.277C249.732 98.1846 248.108 99.2332 246.579 100.412C245.814 100.973 245.133 101.619 244.427 102.233L243.452 103.239C243.296 103.41 243.118 103.562 242.97 103.742L242.527 104.278C241.281 105.658 240.346 107.268 239.431 108.893L235.945 105.666C236.108 105.577 236.213 105.527 236.327 105.471C236.44 105.415 236.553 105.361 236.661 105.315C236.879 105.215 237.098 105.123 237.314 105.043C237.745 104.866 238.178 104.723 238.61 104.576C239.474 104.302 240.354 104.081 241.244 103.916C241.689 103.842 242.133 103.76 242.579 103.715L243.923 103.591C244.821 103.549 245.719 103.561 246.615 103.625C248.398 103.773 250.167 104.108 251.812 104.754C253.481 105.316 254.998 106.223 256.39 107.204C256.553 107.319 256.67 107.486 256.723 107.678C256.775 107.87 256.759 108.074 256.677 108.255C256.596 108.436 256.453 108.584 256.275 108.671C256.097 108.759 255.893 108.782 255.7 108.736L255.608 108.714C255.217 108.62 254.837 108.512 254.458 108.412C254.08 108.311 253.716 108.18 253.328 108.125C252.562 107.985 251.824 107.804 251.064 107.737C249.583 107.547 248.086 107.516 246.598 107.644C245.137 107.751 243.691 108.014 242.285 108.427C241.934 108.527 241.592 108.647 241.246 108.754L240.232 109.13C239.902 109.269 239.57 109.403 239.257 109.557C239.094 109.629 238.946 109.708 238.797 109.785C238.719 109.824 238.646 109.86 238.582 109.897L238.422 109.986L238.358 110.021C237.897 110.278 237.365 110.38 236.841 110.313C236.318 110.247 235.829 110.014 235.447 109.65C235.065 109.285 234.809 108.808 234.718 108.288C234.626 107.769 234.703 107.233 234.937 106.76C235.954 104.706 237.106 102.666 238.682 100.962L239.248 100.306C239.437 100.088 239.658 99.9037 239.866 99.7025C240.287 99.3091 240.706 98.9128 241.134 98.5285C242.049 97.8333 242.936 97.1039 243.931 96.5446C245.851 95.3629 247.93 94.4618 250.105 93.8685C250.65 93.7417 251.185 93.5999 251.728 93.4922C252.276 93.3997 252.816 93.291 253.368 93.2347C254.476 93.0954 255.595 93.0617 256.709 93.1341C256.904 93.1483 257.088 93.2281 257.231 93.3605C257.374 93.4929 257.468 93.6701 257.498 93.863C257.527 94.0558 257.49 94.253 257.393 94.4222C257.296 94.5913 257.144 94.7224 256.962 94.7941L256.883 94.8132Z" fill="#000072"/>
<path d="M186.469 98.1824C179.879 96.8745 173.226 102.935 171.609 111.72C169.993 120.504 174.024 128.684 180.614 129.992C187.205 131.3 193.858 125.24 195.475 116.456C197.091 107.672 193.059 99.4902 186.469 98.1824Z" fill="#000072"/>
<path d="M185.712 101.854C183.533 102.449 182.386 105.375 183.15 108.393C183.913 111.411 186.299 113.373 188.482 112.778C190.664 112.183 191.808 109.257 191.043 106.239C190.278 103.221 187.891 101.259 185.712 101.854Z" fill="white"/>
<path d="M177.1 120.209C176.046 120.788 175.792 122.442 176.538 123.902C177.283 125.362 178.739 126.077 179.794 125.497C180.85 124.918 181.102 123.265 180.357 121.804C179.611 120.343 178.156 119.629 177.1 120.209Z" fill="#B199C5"/>
</g>
<defs>
<clipPath id="clip0_6_988">
<rect width="300" height="220.626" fill="white"/>
</clipPath>
</defs>
</svg>
