<svg width="60" height="46" viewBox="0 0 60 46" fill="none" xmlns="http://www.w3.org/2000/svg">
    <g clip-path="url(#clip0_10_7069)">
        <path d="M0.0130354 16.297C0.0565953 15.7505 0.233068 15.2229 0.527092 14.7602C0.821115 14.2975 1.22378 13.9136 1.70003 13.642L12.9 7.17602L24.1 0.709015C26.373 -0.602986 29.214 1.03702 29.214 3.66102V6.14102C38.314 8.36602 57.399 18.551 59.983 43.306C60.103 44.455 59.433 44.738 58.513 45.041C58.148 45.164 57.7568 45.1875 57.3798 45.1089C57.0027 45.0303 56.6535 44.8526 56.368 44.594C51.317 40.139 41.668 29.585 29.214 27.646V29.531C29.214 32.155 26.373 33.796 24.1 32.484L12.9 26.014L1.70003 19.547C1.13626 19.2247 0.67732 18.7467 0.378132 18.1703C0.0789446 17.594 -0.0478111 16.9436 0.0130354 16.297Z" fill="#42210B"/>
        <path d="M3.38346 15.1778L3.38246 15.1885C3.35244 15.5075 3.41497 15.8284 3.56255 16.1127L2.23972 16.7993L3.56255 16.1127C3.71013 16.397 3.93653 16.6328 4.21464 16.7919L4.22014 16.795L14.7201 22.858L25.2201 28.921L25.2211 28.9216C26.349 29.5739 27.7641 28.7592 27.7641 27.452V25.685V23.9335L29.4947 24.2028C35.6668 25.1633 41.1603 28.2196 45.636 31.5163C49.4814 34.3486 52.6615 37.4266 54.9051 39.5981C55.2718 39.9531 55.6136 40.2838 55.9291 40.5853C55.9295 40.5857 55.9299 40.5861 55.9303 40.5865L54.8941 41.671C55.1846 41.948 55.4628 42.2387 55.7347 42.5229C56.8079 43.6444 57.7832 44.6637 59.0311 44.331L3.38346 15.1778ZM3.38346 15.1778L3.38432 15.1671C3.40572 14.8985 3.49244 14.6391 3.63694 14.4116C3.78144 14.1841 3.97934 13.9954 4.21342 13.8619L4.21343 13.8619L4.22013 13.858L14.7201 7.795L25.2201 1.73201L25.2202 1.73198C26.35 1.07956 27.7641 1.89555 27.7641 3.20101V5.52601V6.70336L28.9077 6.98306C32.9014 7.95984 39.721 11.1797 45.8303 17.006C51.9113 22.8053 57.2283 31.1271 58.3971 42.3102L3.38346 15.1778Z" fill="#E6BA59" stroke="#42210B" stroke-width="3"/>
    </g>
    <defs>
        <clipPath id="clip0_10_7069">
            <rect width="60" height="45.151" fill="white"/>
        </clipPath>
    </defs>
</svg>
