<svg width="60" height="45" viewBox="0 0 60 45" fill="none" xmlns="http://www.w3.org/2000/svg">
    <g clip-path="url(#clip0_10_7056)">
        <path d="M15.3071 43.2158C13.5627 43.2158 11.8899 42.5848 10.6565 41.4617C9.42304 40.3386 8.73011 38.8153 8.73011 37.227V18.6449C8.7295 18.4248 8.78386 18.2074 8.88907 18.0093C8.99429 17.8112 9.1476 17.6374 9.33743 17.5011L29.2477 3.30533C29.5272 3.10813 29.8707 3.0011 30.2242 3.0011C30.5778 3.0011 30.9213 3.10813 31.2008 3.30533L50.6418 17.1995C50.8299 17.3357 50.9822 17.5086 51.0872 17.7054C51.1924 17.9023 51.2477 18.1181 51.2491 18.3369V37.227C51.2473 38.8148 50.5537 40.3371 49.3207 41.4598C48.0877 42.5826 46.4159 43.2141 44.6721 43.2158H15.3071Z" fill="#FFCB05"/>
        <path d="M30.2484 4.44904L49.6894 18.3369V37.227C49.6894 37.8236 49.5603 38.4144 49.3096 38.9657C49.0588 39.5169 48.6913 40.0178 48.228 40.4397C47.7646 40.8616 47.2146 41.1962 46.6092 41.4246C46.0038 41.6529 45.355 41.7704 44.6997 41.7704H15.3071C14.6518 41.7704 14.003 41.6529 13.3976 41.4246C12.7922 41.1962 12.2422 40.8616 11.7789 40.4397C11.3155 40.0178 10.948 39.5169 10.6972 38.9657C10.4465 38.4144 10.3174 37.8236 10.3174 37.227V18.6448L30.2484 4.44904ZM30.2484 1.55832C29.5383 1.56208 28.8504 1.78345 28.2953 2.18673L8.35745 16.3637C7.98213 16.6371 7.67972 16.9844 7.47294 17.3795C7.26616 17.7746 7.16037 18.2072 7.16352 18.6448V37.227C7.16535 39.1981 8.02609 41.0881 9.55679 42.4819C11.0875 43.8757 13.163 44.6595 15.3278 44.6611H44.7205C46.8846 44.6578 48.9591 43.8735 50.4894 42.4801C52.0197 41.0866 52.8811 39.1976 52.8847 37.227V18.3369C52.8843 17.8997 52.7748 17.4683 52.5643 17.0753C52.3539 16.6823 52.0481 16.3379 51.6701 16.0684L32.2291 2.17419C31.6733 1.76781 30.9819 1.54614 30.2691 1.54578L30.2484 1.55832Z" fill="#42210B"/>
        <path d="M57.5431 21.2716L32.2153 2.26846C31.6245 1.74148 30.8304 1.44635 30.0034 1.44635C29.1764 1.44635 28.3823 1.74148 27.7915 2.26846L2.49822 21.2716C2.21093 21.5332 1.98303 21.8438 1.82755 22.1856C1.67207 22.5274 1.59204 22.8938 1.59204 23.2637C1.59204 23.6337 1.67207 24 1.82755 24.3418C1.98303 24.6836 2.21093 24.9942 2.49822 25.2558C2.78552 25.5174 3.12658 25.7249 3.50195 25.8665C3.87732 26.0081 4.27965 26.0809 4.68594 26.0809C5.09224 26.0809 5.49456 26.0081 5.86992 25.8665C6.24529 25.7249 6.58636 25.5174 6.87366 25.2558L29.9999 8.22579L53.1331 25.2558C53.7134 25.7841 54.5003 26.0809 55.3209 26.0809C56.1414 26.0809 56.9283 25.7841 57.5086 25.2558C58.0888 24.7275 58.4147 24.0109 58.4147 23.2637C58.4147 22.5166 58.0888 21.8 57.5086 21.2716H57.5431Z" fill="#FFCB05" stroke="#42210B" stroke-width="4.6" stroke-linejoin="round"/>
        <path d="M57.5431 21.2716L32.2153 2.26846C31.6245 1.74148 30.8304 1.44635 30.0034 1.44635C29.1764 1.44635 28.3823 1.74148 27.7915 2.26846L2.49822 21.2716C2.21093 21.5332 1.98303 21.8438 1.82755 22.1856C1.67207 22.5274 1.59204 22.8938 1.59204 23.2637C1.59204 23.6337 1.67207 24 1.82755 24.3418C1.98303 24.6836 2.21093 24.9942 2.49822 25.2558C2.78552 25.5174 3.12658 25.7249 3.50195 25.8665C3.87732 26.0081 4.27965 26.0809 4.68594 26.0809C5.09224 26.0809 5.49456 26.0081 5.86992 25.8665C6.24529 25.7249 6.58636 25.5174 6.87366 25.2558L29.9999 8.22579L53.1331 25.2558C53.7134 25.7841 54.5003 26.0809 55.3209 26.0809C56.1414 26.0809 56.9283 25.7841 57.5086 25.2558C58.0888 24.7275 58.4147 24.0109 58.4147 23.2637C58.4147 22.5166 58.0888 21.8 57.5086 21.2716H57.5431Z" fill="#FFCB05" stroke="#42210B" stroke-width="4.6" stroke-linejoin="round"/>
        <path d="M10.3174 20.6055C9.89643 20.6055 9.49269 20.4532 9.19502 20.1822C8.89734 19.9111 8.7301 19.5435 8.7301 19.1602V4.43017C8.7301 3.68685 9.05439 2.97397 9.63162 2.44836C10.2089 1.92275 10.9918 1.62744 11.8081 1.62744H13.6093C14.4257 1.62744 15.2086 1.92275 15.7858 2.44836C16.363 2.97397 16.6873 3.68685 16.6873 4.43017V19.1602C16.6873 19.5435 16.5201 19.9111 16.2224 20.1822C15.9247 20.4532 15.521 20.6055 15.1 20.6055H10.3174Z" fill="#FAA61A"/>
        <path d="M13.6094 3.09797C14.0048 3.09797 14.3839 3.24097 14.6635 3.49552C14.943 3.75008 15.1001 4.09533 15.1001 4.45532V19.1853H10.3175V4.4302C10.3175 4.0702 10.4745 3.72496 10.7541 3.4704C11.0336 3.21584 11.4128 3.07285 11.8082 3.07285H13.6094V3.09797ZM13.6094 0.182129H11.8082C10.5744 0.187114 9.39311 0.636881 8.52268 1.43301C7.65224 2.22913 7.16356 3.3068 7.16357 4.4302V19.1602C7.16357 19.9268 7.49804 20.6621 8.09339 21.2042C8.68875 21.7463 9.49622 22.0509 10.3382 22.0509H15.1208C15.9627 22.0509 16.7702 21.7463 17.3656 21.2042C17.9609 20.6621 18.2954 19.9268 18.2954 19.1602V4.4302C18.2936 3.30405 17.8015 2.22452 16.9269 1.42821C16.0524 0.631907 14.8669 0.183791 13.6301 0.182129H13.6094Z" fill="#42210B"/>
        <path d="M29.8482 4.73181L10.3175 18.6449V37.227C10.3175 38.432 10.8432 39.5876 11.7789 40.4397C12.7147 41.2917 13.9838 41.7704 15.3072 41.7704H29.8482V4.73181Z" fill="#FAA61A"/>
        <path d="M29.8481 1.45782C29.0693 1.47621 28.3281 1.76642 27.7777 2.26846L2.49822 21.2716C2.21093 21.5332 1.98303 21.8438 1.82755 22.1856C1.67207 22.5274 1.59204 22.8938 1.59204 23.2637C1.59204 23.6337 1.67207 24 1.82755 24.3418C1.98303 24.6836 2.21093 24.9942 2.49822 25.2558C2.78552 25.5174 3.12658 25.7249 3.50195 25.8665C3.87732 26.0081 4.27965 26.0809 4.68594 26.0809C5.09224 26.0809 5.49456 26.0081 5.86993 25.8665C6.24529 25.7249 6.58636 25.5174 6.87366 25.2558L29.8481 8.33265V1.45782Z" fill="#FAA61A"/>
        <path d="M57.5431 21.2716L32.2153 2.26846C31.6245 1.74148 30.8304 1.44635 30.0034 1.44635C29.1764 1.44635 28.3823 1.74148 27.7915 2.26846L2.49822 21.2716C2.21093 21.5332 1.98303 21.8438 1.82755 22.1856C1.67207 22.5274 1.59204 22.8938 1.59204 23.2637C1.59204 23.6337 1.67207 24 1.82755 24.3418C1.98303 24.6836 2.21093 24.9942 2.49822 25.2558C2.78552 25.5174 3.12658 25.7249 3.50195 25.8665C3.87732 26.0081 4.27965 26.0809 4.68594 26.0809C5.09224 26.0809 5.49456 26.0081 5.86992 25.8665C6.24529 25.7249 6.58636 25.5174 6.87366 25.2558L29.9999 8.22579L53.1331 25.2558C53.7134 25.7841 54.5003 26.0809 55.3209 26.0809C56.1414 26.0809 56.9283 25.7841 57.5086 25.2558C58.0888 24.7275 58.4148 24.0109 58.4148 23.2637C58.4148 22.5166 58.0888 21.8 57.5086 21.2716H57.5431Z" stroke="#42210B" stroke-width="4.6" stroke-linejoin="round"/>
        <path d="M25.321 43.2158C25.1123 43.2166 24.9054 43.1798 24.7124 43.1075C24.5195 43.0351 24.3441 42.9287 24.1965 42.7943C24.049 42.6599 23.9321 42.5003 23.8526 42.3246C23.7732 42.1488 23.7327 41.9605 23.7337 41.7704V30.5533C23.7337 29.625 24.1387 28.7347 24.8595 28.0782C25.5804 27.4218 26.5582 27.053 27.5777 27.053H32.4086C33.4281 27.053 34.4059 27.4218 35.1267 28.0782C35.8476 28.7347 36.2526 29.625 36.2526 30.5533V41.7704C36.2535 41.9605 36.2131 42.1488 36.1337 42.3246C36.0542 42.5003 35.9373 42.6599 35.7898 42.7943C35.6422 42.9287 35.4668 43.0351 35.2738 43.1075C35.0809 43.1798 34.874 43.2166 34.6653 43.2158H25.321Z" fill="#FFCB05"/>
        <path d="M32.4224 28.4983C32.719 28.4975 33.0129 28.5501 33.2871 28.6531C33.5613 28.756 33.8105 28.9074 34.0202 29.0984C34.2299 29.2894 34.3961 29.5162 34.5092 29.7659C34.6223 30.0156 34.6801 30.2832 34.6791 30.5533V41.7704H25.321V30.5533C25.321 30.0083 25.5587 29.4856 25.982 29.1002C26.4052 28.7148 26.9792 28.4983 27.5777 28.4983H32.4086H32.4224ZM32.4086 25.6077H27.5777C26.1378 25.6093 24.7574 26.1309 23.7392 27.058C22.721 27.9852 22.1482 29.2421 22.1464 30.5533V41.7704C22.1455 42.1503 22.227 42.5265 22.3862 42.8776C22.5454 43.2287 22.7792 43.5477 23.0742 43.8163C23.3691 44.0849 23.7195 44.2978 24.105 44.4428C24.4906 44.5877 24.9038 44.662 25.321 44.6611H34.6791C35.0963 44.662 35.5095 44.5877 35.8951 44.4428C36.2807 44.2978 36.631 44.0849 36.926 43.8163C37.2209 43.5477 37.4547 43.2287 37.614 42.8776C37.7732 42.5265 37.8547 42.1503 37.8538 41.7704V30.5533C37.8519 29.2421 37.2791 27.9852 36.2609 27.058C35.2428 26.1309 33.8623 25.6093 32.4224 25.6077H32.4086Z" fill="#42210B"/>
        <path d="M43.5956 28.9006V37.491" stroke="white" stroke-width="4.6" stroke-linecap="round" stroke-linejoin="round"/>
    </g>
    <defs>
        <clipPath id="clip0_10_7056">
            <rect width="60" height="44.6675" fill="white" transform="translate(0 -0.00012207)"/>
        </clipPath>
    </defs>
</svg>
