<svg width="49" height="45" viewBox="0 0 49 45" fill="none" xmlns="http://www.w3.org/2000/svg">
    <g clip-path="url(#clip0_10_7046)">
        <path d="M6.2381 43.1786C5.55543 43.1767 4.88169 43.0368 4.26554 42.7691C3.6494 42.5015 3.10617 42.1127 2.67499 41.6307C2.24381 41.1488 1.93541 40.5857 1.77207 39.9822C1.60874 39.3786 1.59453 38.7496 1.73044 38.1404L3.66023 29.5552C4.01697 27.9363 4.89159 26.4495 6.17399 25.2821L30.3857 3.23564C30.9935 2.68196 31.7151 2.24277 32.5093 1.9431C33.3035 1.64344 34.1547 1.4892 35.0144 1.4892C35.8741 1.4892 36.7254 1.64344 37.5196 1.9431C38.3138 2.24277 39.0354 2.68196 39.6431 3.23564L45.34 8.42304C45.9481 8.97643 46.4304 9.63349 46.7595 10.3567C47.0886 11.0799 47.258 11.855 47.258 12.6378C47.258 13.4206 47.0886 14.1957 46.7595 14.9189C46.4304 15.6421 45.9481 16.2992 45.34 16.8526L21.1283 38.899C19.8561 40.0632 18.2411 40.8671 16.4782 41.2139L7.22077 43.0425C6.89557 43.1068 6.56378 43.1394 6.23097 43.1397L6.2381 43.1786Z" fill="#FFCB05"/>
        <path d="M35.0287 2.98274C35.6732 2.97981 36.3119 3.09287 36.9083 3.31542C37.5047 3.53798 38.0469 3.86564 38.5038 4.27959L44.2007 9.46699C45.1199 10.3047 45.6363 11.4405 45.6363 12.6248C45.6363 13.8091 45.1199 14.9449 44.2007 15.7826L19.9889 37.8291C18.9437 38.8026 17.6101 39.4785 16.1507 39.7744L6.89323 41.6029C6.68291 41.6462 6.46793 41.668 6.25231 41.6678C5.81321 41.6662 5.37997 41.576 4.98378 41.4036C4.58759 41.2312 4.23832 40.9809 3.96112 40.6709C3.68392 40.3608 3.48573 39.9986 3.38075 39.6103C3.27577 39.2221 3.26662 38.8175 3.35402 38.4257L5.27672 29.8405C5.57539 28.5136 6.29606 27.2959 7.34899 26.339L31.5607 4.29257C32.4826 3.45932 33.7297 2.99295 35.0287 2.99572V2.98274ZM35.0287 0.0129804C33.9545 0.00972368 32.8903 0.200585 31.8977 0.574574C30.9051 0.948563 30.0039 1.49823 29.2464 2.19168L5.03463 24.2381C3.52749 25.6048 2.49694 27.3462 2.07223 29.244L0.14244 37.8356C-0.0419985 38.6613 -0.022902 39.5139 0.198421 40.332C0.419745 41.1502 0.837762 41.9134 1.42227 42.5666C2.00678 43.2198 2.74325 43.7467 3.57851 44.1093C4.41377 44.4719 5.32698 44.6612 6.25231 44.6635C6.70228 44.6624 7.15092 44.6189 7.59108 44.5338L16.8485 42.7053C18.9161 42.2917 20.811 41.3491 22.3104 39.9884L46.5221 17.9419C47.2828 17.2505 47.8863 16.4293 48.2981 15.5253C48.7099 14.6213 48.9218 13.6521 48.9218 12.6735C48.9218 11.6948 48.7099 10.7257 48.2981 9.82164C47.8863 8.91761 47.2828 8.09641 46.5221 7.405L40.8252 2.2176C40.0667 1.52308 39.1645 0.972367 38.1708 0.597291C37.177 0.222216 36.1115 0.0302212 35.0358 0.0324126L35.0287 0.0129804Z" fill="#42210B"/>
        <path d="M35.2637 14.0982L15.0568 32.498L20.646 37.5874L40.853 19.1876L35.2637 14.0982Z" fill="#FAA61A"/>
        <path d="M20.0459 38.3608L6.54431 26.0667" stroke="#42210B" stroke-width="4.6" stroke-linejoin="round"/>
        <path d="M41.6513 18.6941L28.1497 6.39996" stroke="#42210B" stroke-width="4.6" stroke-linejoin="round"/>
        <path d="M6.88608 41.6224L11.0733 40.7989L4.21567 34.5546L3.34692 38.4451C3.24749 38.8856 3.27056 39.3418 3.41411 39.7721C3.55766 40.2024 3.8171 40.5933 4.16882 40.909C4.52053 41.2248 4.95334 41.4554 5.42792 41.58C5.90249 41.7046 6.40375 41.7192 6.88608 41.6224Z" fill="#42210B"/>
        <path d="M14.1354 31.6885L34.6014 13.0528" stroke="#42210B" stroke-width="4.6" stroke-linejoin="round"/>
        <path d="M18.3654 20.6004L26.8252 12.9814" stroke="white" stroke-width="4.6" stroke-linecap="round" stroke-linejoin="round"/>
        <path d="M34.3878 6.29615C34.6448 6.11383 34.9578 6.00898 35.2833 5.9962C35.6087 5.98341 35.9304 6.06334 36.2037 6.22483" stroke="white" stroke-width="4.6" stroke-linecap="round" stroke-linejoin="round"/>
    </g>
    <defs>
        <clipPath id="clip0_10_7046">
            <rect width="48.9433" height="44.67" fill="white"/>
        </clipPath>
    </defs>
</svg>
