<svg width="32" height="30" viewBox="0 0 32 30" fill="none" xmlns="http://www.w3.org/2000/svg">
    <g clip-path="url(#clip0_6_1530)">
        <path d="M28.3618 9.61871C28.0705 9.78077 27.8532 10.0211 27.6548 10.2837C27.6297 10.3166 27.5997 10.3536 27.5682 10.3913C27.2993 9.77588 26.9842 9.18211 26.3702 8.84052C25.7415 8.49124 24.9731 8.49125 24.4143 8.97465C24.201 9.17344 24.0202 9.40443 23.8785 9.65923C23.8338 9.73397 23.7807 9.85552 23.7185 9.97078C23.4768 9.6215 23.2791 9.24429 22.9899 8.92994C22.7693 8.68231 22.4948 8.48857 22.1875 8.3636C21.8803 8.23862 21.5485 8.18575 21.2177 8.20903C20.2397 8.28308 19.5411 8.83773 19.0068 9.55933C18.7176 8.56739 18.4281 7.57544 18.1385 6.5835C17.7696 5.32051 17.4678 3.95903 16.7525 2.83576C16.1546 1.89551 15.2814 1.19696 14.1595 1.0328C13.8349 0.985591 13.5049 0.989362 13.1815 1.04397C13.0352 0.960938 12.8622 0.938377 12.6995 0.981105C12.3618 1.0602 12.0557 1.23939 11.8214 1.49524C11.7277 1.53691 11.6453 1.60038 11.5811 1.68036C10.6842 2.77569 10.4292 4.09875 10.3733 5.48398C10.3077 7.08366 10.3391 8.69243 10.3286 10.2942C10.323 11.071 10.3461 11.8548 10.3098 12.6309C10.3007 12.8258 10.3049 13.1813 10.1631 13.3343C9.95351 13.5606 9.07334 13.7716 8.81627 13.6675C7.48413 13.131 6.71712 11.9065 5.26972 11.7214C4.13597 11.5768 2.90093 11.8226 2.00398 12.5596C0.916337 13.4531 0.729824 14.9005 1.20763 16.1725C1.71339 17.5214 2.69066 18.7348 3.72801 19.7177C4.76536 20.7005 6.4845 20.5203 7.40938 21.6394C8.22739 22.6293 8.20643 24.8486 8.97344 25.8754C9.84035 27.0371 11.0097 27.6288 12.3964 27.9781C14.0463 28.3972 15.734 28.7653 17.4364 28.8638C19.0291 28.9553 20.6449 28.8541 22.2271 28.6696C24.8816 28.3602 27.5417 27.5904 29.1944 25.3403C30.8256 23.1189 31.1364 20.1466 31.2699 17.4767C31.3425 16.0328 31.4075 7.91843 28.3618 9.61871Z" fill="#FFE4CA"/>
        <path d="M30.0867 21.7326C27.8513 24.1601 25.2269 25.7333 21.8606 25.9631C18.8337 26.1727 15.3857 25.8597 12.7179 24.3341C11.5667 23.6753 10.449 22.8063 9.73229 21.6733C9.24331 20.9049 9.03374 19.9842 8.26533 19.4218C7.30552 18.7233 5.95243 18.6835 4.9018 18.1414C3.19384 17.2612 1.8163 15.781 1.96439 13.7482C1.99163 13.3689 1.37761 13.1831 1.22113 13.547C-0.0516327 16.4963 1.55085 19.1913 4.24027 20.5821C4.91368 20.9314 6.03974 21.0711 6.59929 21.5447C7.13228 21.9974 7.35442 22.9488 7.73374 23.574C8.63366 25.073 9.90781 26.3122 11.4312 27.1702C16.8596 30.1796 29.1185 29.7611 30.5436 21.9967C30.5883 21.7501 30.2858 21.5161 30.0867 21.7326Z" fill="#F8B6AB"/>
        <path d="M12.8324 1.14914C7.97401 3.69257 11.2258 9.62817 9.64774 13.6036C9.58347 13.7657 9.74414 13.9138 9.89084 13.9222C11.5324 14.0186 11.4046 11.9578 11.4277 10.7969C11.4891 7.91602 10.5992 3.31326 13.1 1.27069C13.3738 1.05134 13.1182 1.00175 12.8324 1.14914Z" fill="#F8B6AB"/>
        <path d="M29.5048 14.6905C29.3378 13.7957 27.7885 13.9878 27.8981 14.9078C28.0497 16.198 27.9107 17.4868 28.0651 18.7687C28.1643 19.5867 29.2694 19.8284 29.5495 18.9699C29.998 17.5881 29.7668 16.0953 29.5048 14.6905Z" fill="white"/>
        <path d="M29.1785 20.7966C29.1499 20.4585 28.8991 20.1295 28.5282 20.1456C28.1838 20.161 27.8673 20.432 27.8771 20.7966C27.8789 20.8621 27.8768 20.9277 27.8708 20.9929C27.8632 21.0181 27.845 21.1082 27.8401 21.1271C27.8352 21.1459 27.8226 21.1843 27.8122 21.213C27.859 21.1117 27.8436 21.1487 27.7675 21.3247C27.7458 21.4373 27.7323 21.5512 27.7269 21.6656C27.699 21.9003 27.9037 22.1386 28.1014 22.2245C28.3382 22.3244 28.575 22.2608 28.7664 22.0987C29.1261 21.7907 29.2177 21.2493 29.1785 20.7966Z" fill="white"/>
        <path d="M7.15322 21.0209C5.02194 19.6664 2.05379 18.3796 1.43138 15.6665C1.16942 14.5306 1.60601 13.4311 2.71881 12.9749C4.05165 12.4259 5.3279 13.0902 6.50636 13.6944C7.62404 14.2679 9.5255 15.3011 10.3945 13.7922C10.7927 13.1007 10.6739 12.1974 10.669 11.4353L10.6439 8.57474C10.6285 6.86608 10.4616 5.02959 11.0344 3.38729C11.5087 2.02581 12.8038 1.0192 14.291 1.42016C15.7182 1.80507 16.2253 3.42082 16.5264 4.69777C17.0217 6.81648 17.4115 8.95895 17.6979 11.1196C17.7454 11.4821 17.9717 11.7874 18.3692 11.7916C18.6954 11.7951 19.0887 11.4793 19.0412 11.1196C18.7618 9.02391 18.4055 6.94083 17.9438 4.8766C17.6224 3.43968 17.2124 1.86095 16.0374 0.867609C14.8296 -0.153675 13.0867 -0.269635 11.7155 0.500869C10.1521 1.37895 9.56462 3.12463 9.37322 4.80954C9.1413 6.84443 9.30686 8.95196 9.32502 10.9952C9.32851 11.4556 9.624 13.2893 8.89122 13.239C8.10046 13.1845 7.24892 12.5537 6.55526 12.21C5.19029 11.5345 3.71494 11.1307 2.24239 11.7294C0.957058 12.2498 0.0943465 13.3941 0.00772595 14.7842C-0.0970569 16.4663 0.878121 18.089 2.07404 19.19C3.38313 20.3957 4.98282 21.2339 6.47492 22.1826C7.20701 22.6471 7.88111 21.484 7.15322 21.0223V21.0209Z" fill="#42210B"/>
        <path d="M19.0307 11.522C19.1571 10.6236 19.4177 9.13012 20.4159 8.78014C21.5644 8.37778 22.3202 9.9621 22.4473 10.8465C22.5479 11.545 23.565 11.4179 23.7424 10.8465C23.9639 10.1479 24.5521 9.35086 25.3792 9.4766C25.938 9.56183 26.8531 10.1395 26.7029 10.808C26.5129 11.6512 27.7361 11.9914 27.998 11.165C28.1252 10.7654 28.2879 10.3519 28.7483 10.5077C29.1926 10.6586 29.5628 11.1154 29.7891 11.5059C30.0783 12.004 30.1705 12.6292 30.2781 13.1873C30.423 13.9287 30.5224 14.6782 30.5757 15.4318C30.7853 18.3657 30.5757 21.7334 29.0256 24.3153C26.1615 29.0787 19.1537 29.1702 14.3364 28.2195C10.954 27.551 8.73613 24.8552 7.66805 21.7083C7.38863 20.8944 6.09421 21.2437 6.37293 22.0652C7.46896 25.2946 9.63797 28.1873 12.9903 29.2603C14.4664 29.7325 16.101 29.8778 17.642 29.9589C19.257 30.0533 20.8775 29.9685 22.4739 29.706C25.565 29.1828 28.5855 27.7081 30.2229 24.9272C31.9993 21.9115 32.2243 17.9417 31.8359 14.539C31.6543 12.9463 31.4635 11.0896 30.2383 9.92367C29.7381 9.44796 29.0745 9.05817 28.3613 9.12593C27.4476 9.21325 26.9551 10.0019 26.7008 10.8025L27.9959 11.1594C28.3166 9.73646 27.0683 8.44694 25.734 8.1759C24.149 7.85387 22.8972 9.05817 22.4452 10.4811H23.7404C23.5105 8.88074 22.0953 7.06939 20.3056 7.41727C18.6137 7.74628 17.9438 9.65683 17.7335 11.1559C17.6832 11.5185 17.8222 11.8733 18.2029 11.9823C18.5166 12.0724 18.9783 11.8719 19.0286 11.5136L19.0307 11.522Z" fill="#42210B"/>
    </g>
    <defs>
        <clipPath id="clip0_6_1530">
            <rect width="32" height="29.9979" fill="white"/>
        </clipPath>
    </defs>
</svg>
