<svg width="60" height="46" viewBox="0 0 60 46" fill="none" xmlns="http://www.w3.org/2000/svg">
    <g clip-path="url(#clip0_10_7072)">
        <path d="M59.987 16.297C59.9434 15.7505 59.7669 15.2229 59.4729 14.7602C59.1789 14.2975 58.7762 13.9136 58.3 13.642L47.1 7.17602L35.9 0.709015C33.627 -0.602986 30.786 1.03702 30.786 3.66102V6.14102C21.686 8.36602 2.60099 18.551 0.0169868 43.306C-0.103012 44.455 0.56699 44.738 1.48699 45.041C1.85197 45.164 2.24316 45.1875 2.62021 45.1089C2.99726 45.0303 3.34653 44.8526 3.63199 44.594C8.68299 40.139 18.332 29.585 30.786 27.646V29.531C30.786 32.155 33.627 33.796 35.9 32.484L47.1 26.014L58.3 19.547C58.8637 19.2247 59.3227 18.7467 59.6219 18.1703C59.9211 17.594 60.0478 16.9436 59.987 16.297Z" fill="#42210B"/>
        <path d="M56.6165 15.1778L56.6175 15.1885C56.6476 15.5075 56.585 15.8284 56.4374 16.1127L57.7603 16.7993L56.4374 16.1127C56.2899 16.397 56.0635 16.6328 55.7854 16.7919L55.7799 16.795L45.2799 22.858L34.7799 28.921L34.7789 28.9216C33.651 29.5739 32.2359 28.7592 32.2359 27.452V25.685V23.9335L30.5053 24.2028C24.3332 25.1633 18.8397 28.2196 14.364 31.5163C10.5186 34.3486 7.33849 37.4266 5.09494 39.5981C4.72817 39.9531 4.38643 40.2838 4.0709 40.5853C4.0705 40.5857 4.07009 40.5861 4.06968 40.5865L5.10595 41.671C4.81543 41.948 4.53722 42.2387 4.26529 42.5229C3.19213 43.6444 2.21675 44.6637 0.968948 44.331L56.6165 15.1778ZM56.6165 15.1778L56.6157 15.1671C56.5943 14.8985 56.5076 14.6391 56.3631 14.4116C56.2186 14.1841 56.0207 13.9954 55.7866 13.8619L55.7866 13.8619L55.7799 13.858L45.2799 7.795L34.7799 1.73201L34.7798 1.73198C33.65 1.07956 32.2359 1.89555 32.2359 3.20101V5.52601V6.70336L31.0923 6.98306C27.0986 7.95984 20.279 11.1797 14.1697 17.006C8.0887 22.8053 2.77172 31.1271 1.6029 42.3102L56.6165 15.1778Z" fill="#E6BA59" stroke="#42210B" stroke-width="3"/>
    </g>
    <defs>
        <clipPath id="clip0_10_7072">
            <rect width="60" height="45.151" fill="white" transform="matrix(-1 0 0 1 60 0)"/>
        </clipPath>
    </defs>
</svg>
