<svg width="250" height="327" viewBox="0 0 250 327" fill="none" xmlns="http://www.w3.org/2000/svg">
<g clip-path="url(#clip0_10_9522)">
<path d="M95.0358 264.811C95.0358 264.811 45.666 292.249 19.0208 267.515C-20.3757 230.937 17.6364 178.039 32.4467 176.843C48.6187 175.537 29.6275 260.718 97.9485 244.477L95.0358 264.811Z" fill="#F99B28"/>
<g opacity="0.5">
<path opacity="0.5" d="M97.9508 244.479L95.0369 264.81C95.0369 264.81 94.0017 265.381 92.1469 266.294L94.5872 249.288C26.2674 265.527 45.2585 180.349 29.0854 181.655C24.7151 182.009 18.3303 186.859 12.5071 194.462C19.0882 184.135 27.2181 177.259 32.449 176.838C48.6233 175.537 29.631 260.72 97.9508 244.479Z" fill="white"/>
</g>
<path d="M96.1839 256.798L95.0346 264.81C95.0346 264.81 45.6649 292.251 19.0254 267.516C-15.4438 235.515 9.34207 191.019 25.998 179.586C13.2878 198.331 5.19207 229.931 31.4355 254.291C50.1264 271.653 80.0199 263.313 96.1839 256.798Z" fill="white"/>
<g opacity="0.25">
<path opacity="0.25" d="M97.2306 249.498L95.0369 264.81C95.0369 264.81 45.6649 292.248 19.022 267.515C-3.40013 246.696 -0.751025 220.586 8.43582 201.735C5.45343 217.561 8.56365 235.363 24.7573 250.402C47.1132 271.147 85.454 255.183 97.2306 249.498Z" fill="#390075"/>
</g>
<path d="M48.4041 279.525C35.9347 279.525 25.5643 275.904 17.8703 268.761C-5.17837 247.359 -0.979292 222.143 3.57247 209.015C10.2072 189.89 24.044 175.818 32.3143 175.15C39.0906 174.606 40.7935 184.114 42.9404 196.152C45.6797 211.518 49.0912 230.641 62.9143 239.706C71.3456 245.236 83.0023 246.284 97.5615 242.823C97.831 242.759 98.1119 242.762 98.38 242.831C98.6481 242.901 98.8951 243.035 99.0997 243.221C99.3042 243.408 99.46 243.642 99.5536 243.902C99.6472 244.163 99.6757 244.442 99.6366 244.717L96.7215 265.05C96.6844 265.309 96.5878 265.557 96.4393 265.772C96.2908 265.988 96.0944 266.167 95.8655 266.294C95.3519 266.578 83.1393 273.309 67.4215 277.088C60.6544 278.717 54.2936 279.525 48.4041 279.525ZM32.7743 178.535C32.7126 178.535 32.651 178.535 32.5871 178.543C26.3598 179.045 13.2113 191.602 6.78199 210.134C2.50073 222.479 -1.45296 246.19 20.1816 266.276C43.8798 288.279 87.3007 266.938 93.4766 263.723L95.9226 246.674C81.5311 249.678 69.807 248.295 61.0504 242.551C46.005 232.684 42.3012 211.916 39.5928 196.753C37.8545 186.981 36.3433 178.535 32.7743 178.535Z" fill="#390075"/>
<g opacity="0.4">
<path opacity="0.4" d="M23.1035 203.862C22.5853 206.829 23.3831 221.246 30.4699 222.858C36.3821 224.204 36.268 219.881 34.9908 215.373C32.8028 207.653 32.6008 200.154 30.4128 198.84C28.6563 197.783 24.351 196.741 23.1035 203.862Z" fill="white"/>
</g>
<g opacity="0.3">
<path opacity="0.3" d="M241.807 35.2144C240.014 34.2853 237.998 33.9589 235.758 34.3424C207.836 39.1008 185.652 61.2786 175.673 72.9765C174.952 73.8194 174.065 74.504 173.066 74.987C172.068 75.47 170.98 75.741 169.872 75.7829C168.763 75.8248 167.658 75.6368 166.626 75.2306C165.594 74.8244 164.657 74.2088 163.875 73.4227C163.875 73.4227 191.369 34.0548 229.706 27.5216C235.005 26.6188 239.071 29.6697 241.807 35.2144Z" fill="white"/>
<path opacity="0.3" d="M169.576 76.0891C167.357 76.0865 165.23 75.204 163.661 73.6351L163.485 73.4559L163.628 73.2505C163.903 72.8556 191.635 33.7045 229.655 27.2249C234.815 26.3506 239.109 29.066 242.077 35.0809L242.482 35.9027L241.669 35.4816C239.896 34.5685 237.922 34.2786 235.808 34.6381C208.301 39.3268 186.467 60.7925 175.901 73.1717C175.155 74.0445 174.236 74.7536 173.202 75.2546C172.168 75.7556 171.042 76.0377 169.894 76.0833C169.788 76.0868 169.682 76.0891 169.576 76.0891ZM164.27 73.3863C165.018 74.0892 165.899 74.6364 166.86 74.9962C167.822 75.3559 168.846 75.521 169.872 75.4818C170.938 75.446 171.984 75.1871 172.944 74.722C173.904 74.2569 174.756 73.5958 175.445 72.7814C186.06 60.3405 208.01 38.7687 235.709 34.0457C237.642 33.7182 239.465 33.8962 241.141 34.5753C238.325 29.3616 234.407 27.0286 229.758 27.8184C193.42 34.0103 166.506 70.2909 164.27 73.3863Z" fill="#390075"/>
</g>
<path d="M210.544 104.103C208.623 97.6118 201.042 89.394 194.537 83.2546C188.671 77.7167 188.786 68.3735 194.71 62.8984C205.136 53.2619 217.086 47.1635 225.084 43.7965C229.823 41.8014 235.071 45.2392 235.165 50.3799C235.311 58.3489 234.21 70.3469 228.395 83.4669C222.106 97.6598 211.408 104.011 211.408 104.011" fill="#FF6C6C"/>
<path d="M211.566 104.269L211.259 103.752C211.365 103.69 221.951 97.2786 228.126 83.3459C233.957 70.1872 235.012 58.1583 234.869 50.3856C234.849 49.2436 234.549 48.1241 233.995 47.1251C233.442 46.1261 232.651 45.2782 231.694 44.656C230.745 44.0279 229.655 43.6458 228.523 43.544C227.39 43.4421 226.249 43.6239 225.204 44.0727C217.094 47.4877 205.257 53.5643 194.919 63.1187C193.54 64.3958 192.438 65.9416 191.679 67.6609C190.92 69.3802 190.522 71.2367 190.507 73.1159C190.489 74.973 190.856 76.8138 191.586 78.5216C192.316 80.2293 193.392 81.7669 194.748 83.0366C200.999 88.9409 208.865 97.3733 210.833 104.018L210.257 104.188C208.327 97.6723 200.533 89.3267 194.334 83.4738C192.919 82.1474 191.795 80.5416 191.032 78.758C190.27 76.9745 189.887 75.052 189.906 73.1125C189.92 71.1509 190.337 69.2131 191.129 67.4186C191.921 65.624 193.072 64.0107 194.511 62.6781C204.914 53.0633 216.817 46.9524 224.971 43.5192C226.112 43.0407 227.353 42.849 228.585 42.961C229.817 43.073 231.003 43.4852 232.04 44.1616C233.076 44.838 233.93 45.7579 234.528 46.8409C235.127 47.9239 235.451 49.1371 235.472 50.3742C235.615 58.2085 234.559 70.3298 228.676 83.5879C222.419 97.7054 211.674 104.206 211.566 104.269Z" fill="#390075"/>
<path d="M206.805 85.6275C205.783 87.9361 204.586 90.1636 203.226 92.2908C200.507 89.095 197.414 85.9665 194.543 83.2557C188.678 77.7156 188.793 68.3746 194.712 62.8938C200.631 57.413 207.058 53.0781 212.967 49.7407C213.358 50.6247 213.566 51.5786 213.579 52.5451C213.722 60.5175 212.62 72.5098 206.805 85.6275Z" fill="#FF6C6C"/>
<path d="M203.26 92.7987L202.996 92.4883C200.619 89.6908 197.705 86.6582 194.337 83.4715C192.922 82.1459 191.797 80.5408 191.035 78.7581C190.272 76.9753 189.888 75.0536 189.907 73.1148C189.921 71.152 190.336 69.2128 191.127 67.4165C191.918 65.6202 193.069 64.005 194.508 62.6701C199.758 57.8171 205.922 53.3771 212.819 49.476L213.108 49.3127L213.241 49.6164C213.65 50.537 213.867 51.5311 213.88 52.5382C214.021 60.3726 212.955 72.495 207.08 85.7519C206.05 88.0738 204.846 90.3146 203.479 92.4552L203.26 92.7987ZM212.82 50.1711C206.079 54.0095 200.056 58.3638 194.917 63.1164C193.538 64.3953 192.436 65.9428 191.678 67.6637C190.92 69.3846 190.522 71.2424 190.509 73.1227C190.491 74.9792 190.858 76.8191 191.588 78.5261C192.318 80.233 193.395 81.7697 194.75 83.0389C198.01 86.1206 200.847 89.0608 203.189 91.7886C204.452 89.7786 205.568 87.6807 206.531 85.5111C212.36 72.3592 213.418 60.3315 213.279 52.5565C213.268 51.7405 213.113 50.9328 212.82 50.1711Z" fill="#390075"/>
<g opacity="0.3">
<path opacity="0.3" d="M79.8624 6.96478C81.8632 6.69656 83.8698 7.07892 85.85 8.19175C110.513 22.1232 123.871 50.501 129.305 64.8879C129.698 65.9252 130.301 66.8698 131.077 67.6624C131.853 68.4549 132.785 69.0782 133.814 69.4929C134.842 69.9077 135.946 70.1049 137.054 70.0722C138.163 70.0394 139.253 69.7774 140.255 69.3027C140.255 69.3027 127.714 22.9507 93.8533 3.8226C89.1725 1.18263 84.3138 2.67325 79.8624 6.96478Z" fill="white"/>
<path opacity="0.3" d="M136.814 70.3732C135.123 70.3747 133.471 69.8607 132.079 68.8997C130.687 67.9386 129.621 66.5762 129.023 64.9939C123.274 49.7693 109.999 22.1779 85.7017 8.45301C83.831 7.39839 81.877 7.00005 79.9024 7.26257L78.9893 7.38355L79.649 6.74782C84.4793 2.09219 89.4419 0.990768 93.996 3.56112C127.578 22.5317 140.415 68.7593 140.541 69.2238L140.607 69.4669L140.379 69.5742C139.264 70.1003 138.047 70.3732 136.814 70.3732ZM81.0848 6.58232C82.7626 6.58232 84.4096 7.03315 86.0007 7.92913C110.464 21.7476 123.811 49.4748 129.589 64.7816C129.962 65.781 130.539 66.6914 131.285 67.4541C132.03 68.2168 132.927 68.815 133.917 69.2101C134.87 69.5939 135.889 69.7849 136.916 69.772C137.943 69.759 138.957 69.5425 139.899 69.1348C138.844 65.4653 125.802 22.2144 93.7083 4.08501C89.5994 1.77032 85.1253 2.63776 80.7105 6.58916C80.8326 6.5846 80.957 6.58232 81.0848 6.58232Z" fill="#390075"/>
</g>
<path d="M85.9539 82.3687C89.959 76.9153 99.8785 71.7438 108.071 68.1702C115.465 64.9447 118.52 56.1151 114.805 48.9576C108.258 36.3603 99.0796 26.5754 92.6948 20.6997C88.9112 17.2174 82.8083 18.676 80.9787 23.4812C78.1435 30.9297 75.1166 42.5922 76.1462 56.906C77.2578 72.3898 85.1743 81.9887 85.1743 81.9887" fill="#FF6C6C"/>
<path d="M86.197 82.5457L85.7119 82.1896C89.8129 76.6049 100.069 71.333 107.95 67.894C109.656 67.1584 111.189 66.0764 112.454 64.7168C113.72 63.3572 114.688 61.7495 115.3 59.9958C115.923 58.2227 116.176 56.3408 116.045 54.466C115.913 52.5912 115.399 50.7632 114.534 49.0946C108.04 36.6024 98.9586 26.8779 92.4848 20.92C91.6534 20.1437 90.6419 19.5864 89.5414 19.2985C88.4409 19.0106 87.2861 19.0011 86.181 19.2708C85.0694 19.5326 84.0389 20.063 83.1799 20.8155C82.3209 21.5681 81.6595 22.5199 81.2538 23.5874C78.4882 30.8522 75.4088 42.5272 76.4395 56.8844C77.5329 72.0954 85.3216 81.7011 85.4003 81.7959L84.9358 82.1782C84.857 82.0824 76.9462 72.3283 75.8403 56.9267C74.8005 42.4599 77.905 30.6958 80.6922 23.3705C81.1309 22.2138 81.8462 21.1821 82.7757 20.3657C83.7053 19.5493 84.8206 18.9731 86.0243 18.6874C87.228 18.4017 88.4834 18.4152 89.6806 18.7268C90.8779 19.0384 91.9806 19.6386 92.8923 20.4749C99.398 26.4659 108.529 36.2451 115.067 48.815C115.97 50.5565 116.506 52.4646 116.644 54.4214C116.781 56.3783 116.516 58.3426 115.866 60.1933C115.228 62.025 114.216 63.7041 112.895 65.1242C111.574 66.5444 109.972 67.6745 108.191 68.443C100.374 71.8557 90.2158 77.0672 86.197 82.5457Z" fill="#390075"/>
<path d="M95.7274 66.2529C95.9081 68.7717 96.2797 71.2731 96.8391 73.7357C100.481 71.6458 104.45 69.7523 108.068 68.1726C115.463 64.946 118.517 56.1175 114.802 48.9555C111.087 41.7934 106.509 35.5422 102.086 30.3992C101.419 31.0991 100.9 31.9263 100.56 32.8314C97.7225 40.2788 94.6979 51.939 95.7274 66.2529Z" fill="#FF6C6C"/>
<path d="M96.6359 74.1989L96.5458 73.8017C95.9843 71.3224 95.6104 68.8042 95.4272 66.2687C94.3875 51.8122 97.4885 40.0447 100.273 32.7126C100.627 31.7697 101.168 30.9082 101.863 30.1799L102.092 29.9402L102.307 30.1913C107.479 36.1983 111.773 42.461 115.069 48.8058C115.972 50.5486 116.509 52.4577 116.646 54.4157C116.784 56.3737 116.519 58.3391 115.868 60.1909C115.229 62.0216 114.217 63.6997 112.896 65.119C111.575 66.5383 109.974 67.6678 108.193 68.4361C103.948 70.2897 100.18 72.1559 96.9932 73.9843L96.6359 74.1989ZM102.075 30.8521C101.54 31.4681 101.118 32.1741 100.83 32.9374C98.0672 40.2079 94.9901 51.8841 96.023 66.231C96.1929 68.5994 96.5328 70.9525 97.04 73.2721C100.168 71.4973 103.835 69.6905 107.943 67.8974C109.648 67.1615 111.181 66.0798 112.446 64.7206C113.711 63.3614 114.68 61.7545 115.292 60.0015C115.916 58.2278 116.171 56.3451 116.04 54.4694C115.909 52.5936 115.396 50.7645 114.531 49.0946C111.308 42.881 107.117 36.7462 102.075 30.8521Z" fill="#390075"/>
<path d="M229.709 163.012C223.439 158.323 219.697 145.692 219.158 139.614C218.845 136.1 217.824 129.087 217.016 123.782C254.136 102.21 255.555 23.9288 231.376 28.0492C204.073 32.7014 182.271 54.0038 171.981 65.8831C161.846 61.6327 154.138 60.8611 154.138 60.8611C154.138 60.8611 146.431 58.9208 135.224 59.5611C129.586 44.9254 116.278 17.4025 92.107 3.74836C70.6733 -8.35924 45.3967 66.3716 73.5153 99.0523C70.9803 103.732 67.7469 109.806 66.295 112.944C63.7235 118.484 55.9257 129.103 48.4338 131.391C44.0156 132.74 43.2292 136.086 45.5804 139.113C47.0882 141.053 49.8936 142.867 53.853 143.924C54.1658 144.012 54.4945 144.088 54.8232 144.166C54.8232 144.166 54.8232 144.166 54.8015 144.176C54.531 144.29 52.2688 145.243 46.4593 147.776C40.7684 150.262 44.0909 155.468 51.8922 161.463C59.6934 167.459 68.9133 179.847 70.9107 181.79C72.0806 182.931 78.1858 189.863 90.8081 196.777C99.7884 201.702 112.071 206.62 128.222 209.437C167.066 216.213 188.97 203.985 191.508 202.828C194.047 201.67 206.917 193.137 216.291 190.141C225.665 187.145 230.545 183.367 226.028 179.1C221.102 174.444 219.376 172.871 219.376 172.871C219.701 172.913 220.023 172.945 220.337 172.971C224.439 173.32 227.708 172.565 229.788 171.247C233.02 169.188 233.414 165.772 229.709 163.012Z" fill="#F99B28"/>
<g opacity="0.4">
<path opacity="0.4" d="M230.139 35.121C207.091 39.0484 189.302 57.3422 178.125 70.097C176.548 71.9027 174.477 73.2073 172.167 73.8496C169.857 74.492 167.41 74.444 165.127 73.7117C158.069 71.429 152.47 70.4291 152.47 70.4291C152.47 70.4291 146.717 69.4396 139.116 69.2147C136.711 69.1532 134.377 68.3851 132.405 67.0062C130.433 65.6273 128.911 63.6985 128.028 61.4603C121.843 45.6706 111.284 22.356 90.8778 10.8259C79.4972 4.39774 67.0404 22.437 62.0549 45.6695C65.665 18.9056 79.6159 -4.05749 92.2303 3.07148C116.403 16.7233 129.71 44.2474 135.346 58.8842C146.555 58.2439 154.262 60.1865 154.262 60.1865C154.262 60.1865 161.969 60.9524 172.1 65.2085C182.393 53.3258 204.194 32.0245 231.496 27.3723C245.78 24.9343 251.128 51.2645 245.468 77.67C248.637 54.1167 243.024 32.925 230.139 35.121Z" fill="white"/>
</g>
<path d="M216.289 190.134C206.919 193.13 194.045 201.662 191.506 202.821C188.968 203.979 167.064 216.206 128.223 209.43C112.072 206.613 99.7895 201.695 90.8093 196.77C78.1869 189.856 72.0818 182.922 70.9119 181.783C68.9145 179.843 59.69 167.447 51.8933 161.456C44.0966 155.465 40.7696 150.255 46.4604 147.769C52.2699 145.236 54.5321 144.286 54.8026 144.169C54.8198 144.158 54.8243 144.159 54.8243 144.159C54.4956 144.081 54.1669 144.005 53.8542 143.917C55.2101 143.71 56.7076 143.552 58.3386 143.46C71.5864 142.679 84.8182 163.103 108.865 158.24C127.325 154.507 127.195 112.713 133.608 102.966C133.673 102.867 133.738 102.772 133.803 102.673C140.568 92.6206 156.102 95.3313 159.064 107.079C159.097 107.194 159.126 107.308 159.153 107.422C161.892 118.764 147.615 158.045 163.719 167.807C184.705 180.526 204.068 165.788 216.268 171.008C217.78 171.653 219.13 172.313 220.34 172.967C220.027 172.942 219.705 172.91 219.379 172.868C219.379 172.868 221.105 174.44 226.031 179.096C230.543 183.36 225.655 187.132 216.289 190.134Z" fill="white"/>
<path d="M171.975 68.2787C171.656 68.2786 171.339 68.2145 171.045 68.0904C161.354 64.018 153.97 63.2533 153.897 63.2453C153.779 63.2337 153.661 63.2135 153.546 63.1848C153.475 63.1665 146.013 61.3438 135.364 61.9544C135.047 61.9741 134.731 61.9311 134.431 61.8279C134.132 61.7247 133.855 61.5634 133.618 61.3532C133.382 61.143 133.188 60.8881 133.05 60.6031C132.912 60.318 132.832 60.0085 132.813 59.6923C132.795 59.3761 132.84 59.0594 132.944 58.7604C133.049 58.4614 133.211 58.186 133.423 57.95C133.634 57.714 133.89 57.5221 134.176 57.3853C134.461 57.2485 134.771 57.1694 135.087 57.1527C145.739 56.5432 153.293 58.1799 154.548 58.4778C155.81 58.6228 163.28 59.61 172.909 63.6562C173.421 63.8711 173.844 64.257 174.104 64.7481C174.364 65.2392 174.446 65.8052 174.336 66.35C174.226 66.8947 173.931 67.3845 173.5 67.7362C173.07 68.0878 172.531 68.2795 171.975 68.2787Z" fill="#390075"/>
<path d="M75.5561 100.159C73.6957 103.603 71.8432 107.058 70.0775 110.52C69.6358 111.384 69.2032 112.25 68.7889 113.108L68.1475 114.455C67.9101 114.934 67.6647 115.402 67.4113 115.859C66.4043 117.658 65.2862 119.392 64.0637 121.052C61.636 124.348 58.9036 127.437 55.5651 130.069C53.8816 131.364 52.0371 132.556 49.8582 133.362L49.0593 133.633C48.8858 133.698 48.6963 133.748 48.5331 133.821C48.2177 133.942 47.9152 134.095 47.6303 134.277C47.397 134.419 47.1872 134.596 47.0082 134.802C46.8679 134.949 46.7615 135.125 46.6967 135.317C46.6341 135.494 46.6066 135.681 46.6156 135.868C46.638 136.111 46.6917 136.351 46.7754 136.58C47.0404 137.197 47.4226 137.756 47.9008 138.226C48.9531 139.309 50.4369 140.197 52.0314 140.851C52.4324 141.016 52.8418 141.169 53.2595 141.308C53.465 141.384 53.6807 141.438 53.8895 141.504L54.2068 141.6L54.3997 141.662C54.4948 141.695 54.5882 141.733 54.6794 141.776C54.8709 141.869 55.0509 141.984 55.2158 142.118C55.54 142.382 55.799 142.716 55.9725 143.096C56.2148 143.623 56.2863 144.212 56.177 144.782C56.0678 145.351 55.7831 145.872 55.363 146.272C55.216 146.409 55.055 146.53 54.8825 146.634C54.7981 146.684 54.7102 146.729 54.6212 146.772L54.5253 146.815L53.8507 147.106L52.5016 147.689L47.1863 150.001C46.5243 150.3 46.1089 150.685 46.0061 150.891C45.9511 150.994 45.9232 151.109 45.9251 151.225C45.9314 151.451 45.9746 151.674 46.0529 151.886C46.2287 152.442 46.6453 153.134 47.1338 153.793C47.6651 154.488 48.242 155.146 48.8607 155.764C50.1827 157.075 51.588 158.299 53.0678 159.428C54.6806 160.685 56.2255 162.027 57.696 163.448C60.6088 166.26 63.2807 169.227 65.8636 172.237L69.686 176.764L71.5624 178.991C71.8603 179.334 72.1936 179.722 72.4356 179.963C72.5497 180.085 72.7529 180.278 72.9127 180.433L73.4308 180.921C79.0836 186.108 85.2692 190.682 91.8844 194.567C95.1773 196.494 98.5717 198.225 102.075 199.642C102.949 200.001 103.835 200.327 104.708 200.647L107.463 201.585L113.021 203.388C120.459 205.737 127.939 207.943 135.548 209.732C135.738 209.777 135.904 209.892 136.013 210.053C136.122 210.215 136.167 210.411 136.138 210.604C136.109 210.797 136.01 210.972 135.858 211.095C135.707 211.218 135.515 211.28 135.32 211.268C131.355 211.04 127.416 210.501 123.515 209.816C119.614 209.131 115.741 208.295 111.898 207.347C109.974 206.882 108.059 206.379 106.155 205.838L103.296 205.014C102.31 204.711 101.337 204.396 100.384 204.035C96.578 202.631 92.9011 200.898 89.3951 198.857C82.4088 194.792 76.0411 189.887 70.1814 184.367L69.6312 183.84C69.4406 183.653 69.2888 183.512 69.0606 183.269C68.6143 182.813 68.321 182.445 67.9717 182.044L66.0713 179.753C64.8238 178.237 63.5889 176.732 62.3197 175.261C59.795 172.313 57.2006 169.44 54.4625 166.798C53.1104 165.49 51.6892 164.254 50.2052 163.098C48.5636 161.843 47.005 160.484 45.5393 159.028C44.7699 158.257 44.0531 157.436 43.3936 156.569C42.727 155.656 42.0707 154.663 41.6267 153.349C41.3791 152.634 41.2556 151.881 41.2615 151.124C41.275 150.253 41.5006 149.399 41.9189 148.635C42.3101 147.941 42.8349 147.331 43.4632 146.841C43.9875 146.424 44.56 146.07 45.1684 145.789L45.577 145.598L45.9194 145.452L46.5962 145.16L47.951 144.574L50.6583 143.403L52.012 142.818L52.6888 142.526C52.6785 142.526 52.7721 142.49 52.6763 142.526C52.6145 142.553 52.5546 142.585 52.4971 142.62C52.3767 142.692 52.2645 142.777 52.1627 142.873C51.9594 143.064 51.8011 143.298 51.6993 143.558C51.6052 143.793 51.5602 144.044 51.5671 144.297C51.5739 144.55 51.6325 144.799 51.7392 145.029C51.8629 145.294 52.0451 145.528 52.2722 145.714C52.3901 145.81 52.5192 145.892 52.6569 145.957C52.7195 145.988 52.7839 146.015 52.8498 146.039C52.8845 146.052 52.9199 146.062 52.9559 146.071L52.5678 145.957C52.3088 145.876 52.0485 145.807 51.7917 145.715C51.2781 145.544 50.7675 145.354 50.26 145.144C48.2398 144.299 46.2538 143.177 44.5532 141.446C43.6376 140.526 42.9147 139.432 42.4268 138.229C42.1659 137.538 42.0097 136.813 41.9634 136.076C41.9243 135.281 42.0406 134.486 42.3058 133.735C42.5648 132.997 42.9653 132.316 43.4849 131.732C43.9493 131.195 44.4904 130.73 45.0908 130.351C45.6304 130.001 46.204 129.707 46.8028 129.472C47.0916 129.351 47.3735 129.266 47.6623 129.166L48.258 128.964C49.7738 128.408 51.2815 127.467 52.7014 126.369C55.5411 124.138 58.0795 121.304 60.2972 118.282C61.404 116.78 62.4168 115.211 63.3298 113.584C63.552 113.182 63.7623 112.781 63.9609 112.38L64.5853 111.069C65.0236 110.155 65.4698 109.269 65.9207 108.385C67.7252 104.854 69.5833 101.388 71.454 97.9235C71.7495 97.3835 72.2466 96.9824 72.8369 96.8078C73.4272 96.6332 74.0625 96.6994 74.6042 96.9918C75.1458 97.2842 75.5497 97.779 75.7277 98.3683C75.9056 98.9575 75.8431 99.5933 75.5538 100.137L75.5561 100.159Z" fill="#390075"/>
<path d="M219.321 123.432C219.815 126.503 220.314 129.574 220.755 132.665C220.974 134.212 221.188 135.76 221.378 137.33L221.639 139.674C221.711 140.359 221.832 141.078 221.954 141.789C222.512 144.685 223.331 147.524 224.401 150.272C225.458 153.011 226.757 155.658 228.37 157.919C228.562 158.215 228.792 158.456 228.999 158.727C229.199 158.996 229.418 159.25 229.653 159.489L230.331 160.197L231.048 160.799L231.224 160.952L231.503 161.173C231.692 161.328 231.884 161.468 232.068 161.646C232.454 161.988 232.813 162.359 233.144 162.754C233.904 163.648 234.447 164.707 234.73 165.846C235.031 167.121 234.926 168.458 234.432 169.671C233.974 170.753 233.27 171.715 232.377 172.48C230.739 173.896 228.924 174.594 227.154 175.057C225.426 175.466 223.653 175.651 221.878 175.608C221.444 175.608 221.015 175.575 220.584 175.555H220.503H220.463C220.453 175.555 220.408 175.555 220.501 175.555C220.884 175.572 221.264 175.487 221.603 175.308C221.942 175.13 222.228 174.865 222.431 174.541C222.671 174.154 222.779 173.7 222.74 173.247C222.695 172.742 222.475 172.269 222.119 171.909L223.755 173.433L227.15 176.64L227.573 177.042L227.786 177.244L228.051 177.511C228.429 177.887 228.772 178.295 229.079 178.731C229.716 179.627 230.309 180.938 230.262 182.408C230.238 183.885 229.578 185.148 228.902 186.013C228.27 186.806 227.53 187.507 226.704 188.095C225.198 189.181 223.677 189.93 222.153 190.606C220.629 191.281 219.102 191.819 217.57 192.318L217 192.502L216.483 192.679L215.45 193.033C214.765 193.297 214.071 193.561 213.383 193.842C207.868 196.166 202.516 199.2 197.183 202.309L195.165 203.485C194.481 203.88 193.816 204.265 193.023 204.679C192.819 204.78 192.577 204.907 192.402 204.983L191.868 205.22L190.757 205.697C190.016 206.005 189.274 206.297 188.526 206.584C185.554 207.699 182.523 208.651 179.447 209.437C173.334 211.007 167.078 211.951 160.775 212.255C160.473 212.265 160.178 212.161 159.949 211.965C159.719 211.769 159.571 211.494 159.533 211.194C159.495 210.894 159.57 210.591 159.744 210.344C159.918 210.097 160.178 209.924 160.472 209.858H160.492C163.51 209.229 166.514 208.623 169.482 207.884C172.451 207.144 175.396 206.338 178.295 205.412C181.202 204.513 184.058 203.472 186.855 202.35C187.551 202.063 188.242 201.768 188.928 201.466L189.944 200.998L190.466 200.75L190.886 200.535C191.467 200.226 192.142 199.827 192.797 199.443L194.79 198.256C200.143 195.072 205.579 191.9 211.485 189.342C212.229 189.028 212.985 188.73 213.742 188.429L214.906 188.018L215.49 187.814L216.025 187.633C217.441 187.162 218.827 186.64 220.146 186.055C221.466 185.469 222.719 184.806 223.722 184.062C224.16 183.748 224.555 183.376 224.894 182.957C225.158 182.605 225.207 182.387 225.196 182.303C225.184 182.22 225.164 182.011 224.906 181.654C224.763 181.456 224.603 181.271 224.427 181.103L224.282 180.956L224.07 180.76L223.641 180.361L220.25 177.196L218.489 175.537C218.061 175.111 217.773 174.566 217.66 173.973C217.548 173.38 217.618 172.767 217.86 172.214C218.102 171.661 218.506 171.194 219.019 170.875C219.531 170.556 220.128 170.399 220.731 170.425L220.94 170.436C221.282 170.451 221.624 170.482 221.967 170.479C223.297 170.517 224.627 170.384 225.924 170.084C227.146 169.779 228.287 169.271 228.999 168.639C229.295 168.397 229.532 168.092 229.693 167.745C229.793 167.513 229.814 167.254 229.751 167.009C229.647 166.64 229.461 166.299 229.208 166.011C229.039 165.813 228.857 165.627 228.663 165.453C228.571 165.357 228.445 165.273 228.336 165.181L227.893 164.815L226.833 163.915L225.898 162.946C225.592 162.628 225.305 162.293 225.038 161.942C224.773 161.6 224.474 161.268 224.239 160.915C222.258 158.111 220.798 155.135 219.667 152.08C218.52 149.028 217.653 145.878 217.076 142.668C216.945 141.85 216.816 141.032 216.734 140.177L216.505 137.894C216.342 136.382 216.149 134.852 215.951 133.328C215.55 130.272 215.142 127.205 214.707 124.14C214.614 123.53 214.768 122.907 215.134 122.409C215.5 121.912 216.049 121.58 216.66 121.487C217.271 121.395 217.894 121.548 218.391 121.915C218.889 122.281 219.22 122.83 219.313 123.441L219.321 123.432Z" fill="#390075"/>
<path d="M76.1427 56.9073C77.2556 72.3865 85.1686 81.9865 85.1686 81.9865L85.9505 82.37C88.183 79.3317 92.252 76.3801 96.8391 73.7356C100.481 71.6457 104.45 69.7522 108.068 68.1725C115.463 64.9459 118.517 56.1174 114.802 48.9554C111.087 41.7933 106.509 35.5421 102.086 30.3991C99.1418 26.9892 96.0056 23.7501 92.6925 20.6975C88.9089 17.2163 82.8094 18.6715 80.9821 23.4767C78.1378 30.9332 75.1132 42.598 76.1427 56.9073Z" fill="#FF6C6C"/>
<g opacity="0.3">
<path opacity="0.3" d="M95.7274 66.2526C95.9081 68.7714 96.2797 71.2729 96.8391 73.7354C100.481 71.6456 104.45 69.752 108.068 68.1724C115.463 64.9458 118.517 56.1173 114.802 48.9552C111.087 41.7932 106.509 35.5419 102.086 30.3989C101.419 31.0988 100.9 31.9261 100.56 32.8312C97.7225 40.2786 94.6979 51.9388 95.7274 66.2526Z" fill="#390075"/>
<path opacity="0.3" d="M96.6359 74.1989L96.5458 73.8017C95.9843 71.3224 95.6104 68.8042 95.4272 66.2687C94.3875 51.8122 97.4885 40.0447 100.273 32.7126C100.627 31.7697 101.168 30.9082 101.863 30.1799L102.092 29.9402L102.307 30.1913C107.479 36.1983 111.773 42.461 115.069 48.8058C115.972 50.5486 116.509 52.4577 116.646 54.4157C116.784 56.3737 116.519 58.3391 115.868 60.1909C115.229 62.0216 114.217 63.6997 112.896 65.119C111.575 66.5383 109.974 67.6678 108.193 68.4361C103.948 70.2897 100.18 72.1559 96.9932 73.9843L96.6359 74.1989ZM102.075 30.8521C101.54 31.4681 101.118 32.1741 100.83 32.9374C98.0672 40.2079 94.9901 51.8841 96.023 66.231C96.1929 68.5994 96.5328 70.9525 97.04 73.2721C100.168 71.4973 103.835 69.6905 107.943 67.8974C109.648 67.1615 111.181 66.0798 112.446 64.7206C113.711 63.3614 114.68 61.7545 115.292 60.0015C115.916 58.2278 116.171 56.3451 116.04 54.4694C115.909 52.5936 115.396 50.7645 114.531 49.0946C111.308 42.881 107.117 36.7462 102.075 30.8521Z" fill="#6B184E"/>
</g>
<path d="M85.2314 80.7196C85.2625 80.5135 85.3277 80.3141 85.4243 80.1295L85.462 80.069L85.5761 79.9423L85.8044 79.6901L86.2609 79.1844C86.5611 78.842 86.8932 78.543 87.2128 78.2268C87.5324 77.9107 87.8577 77.6048 88.1967 77.3217C89.5153 76.1682 90.9035 75.0967 92.3535 74.1134C95.2069 72.1422 98.2087 70.477 101.246 68.9224C102.768 68.1501 104.301 67.4094 105.844 66.7002L108.164 65.6558C108.462 65.4972 108.772 65.3614 109.064 65.1993C109.34 65.0087 109.643 64.8569 109.904 64.6457C112.052 63.0592 113.478 60.4843 113.576 57.8158C113.64 56.4889 113.412 55.164 112.907 53.9352L112.819 53.7069C112.786 53.6259 112.735 53.5254 112.694 53.4364L112.434 52.884L111.913 51.7791C111.571 51.0418 111.228 50.2953 110.845 49.5831C109.409 46.659 107.72 43.866 105.985 41.1085C102.459 35.6119 98.3711 30.4963 93.7882 25.8439C92.6377 24.6923 91.4678 23.5612 90.2557 22.4826C89.9555 22.2086 89.6473 21.9518 89.3426 21.6836C89.2741 21.6254 89.1737 21.5341 89.1303 21.5021L88.999 21.3971C88.9075 21.3321 88.8127 21.2719 88.7148 21.2168C88.3204 20.9965 87.8758 20.8817 87.424 20.8835C87.2009 20.8852 86.9789 20.9147 86.7631 20.9714C86.6556 21.0007 86.5496 21.0358 86.4458 21.0764C86.3488 21.1232 86.2461 21.1666 86.1034 21.2476C85.5645 21.5517 85.073 21.9332 84.6447 22.3799C83.7465 23.3135 83.0092 24.5484 82.4465 25.9181C82.3072 26.2605 82.1714 26.6029 82.0516 26.9659L81.8712 27.5034L81.6955 28.089C81.4558 28.8685 81.2264 29.6515 81.0106 30.4425C80.5724 32.0175 80.1877 33.6097 79.8339 35.2088C79.128 38.4033 78.5977 41.634 78.2451 44.8864C77.5671 51.3602 77.5706 57.9619 79.0874 64.1675C79.2427 64.9539 79.4938 65.7049 79.7255 66.4628L80.077 67.6041L80.497 68.7649C80.7717 69.5426 81.0597 70.3122 81.361 71.0739C81.651 71.8432 81.9637 72.5965 82.281 73.3475C82.8961 74.8323 83.5911 76.2828 84.3628 77.6927C84.7272 78.3591 85.1328 79.0022 85.5772 79.6182C85.7717 79.8906 85.9849 80.1492 86.2153 80.392L86.3659 80.5449L86.4915 80.6511C86.5326 80.6888 86.5406 80.6819 86.5622 80.707C86.5508 80.6979 86.5376 80.6912 86.5234 80.6876C86.5234 80.6876 86.4732 80.6659 86.4413 80.6568L86.3842 80.642C86.4276 80.5872 85.5453 80.4833 85.2314 80.7196ZM86.6775 84.0295C86.3351 84.2578 85.4289 84.1437 85.4357 84.1071L85.3045 84.0649C85.2268 84.0399 85.1506 84.0106 85.0762 83.977C84.9689 83.9268 84.8582 83.872 84.7589 83.815C84.6051 83.7226 84.4561 83.6224 84.3126 83.5148L83.9542 83.2215L83.6575 82.935C83.305 82.5777 82.9778 82.1963 82.6782 81.7936C82.1321 81.06 81.6324 80.293 81.1818 79.4972C80.3243 77.9806 79.5501 76.4184 78.8626 74.8176C78.5202 74.0312 78.1778 73.2425 77.8673 72.4492C77.5569 71.656 77.235 70.865 76.9405 70.0684L76.4908 68.8745L76.0845 67.619C75.8151 66.7812 75.5287 65.9458 75.3449 65.0897C73.5941 58.2758 73.5267 51.2724 74.1453 44.4561C74.4701 41.047 74.9811 37.6582 75.6759 34.3048C76.0183 32.6305 76.403 30.9629 76.8401 29.3068C77.0501 28.477 77.2807 27.6518 77.5249 26.8278L77.703 26.2091L77.9118 25.5528C78.0522 25.1157 78.2154 24.6808 78.3855 24.2471C79.0703 22.5168 80.0245 20.7899 81.4295 19.2856C82.1536 18.5143 82.9864 17.8529 83.9017 17.3225C84.1231 17.1912 84.3971 17.0554 84.6801 16.9253C84.963 16.8056 85.2526 16.7027 85.5476 16.6171C87.3359 16.1034 89.2541 16.3082 90.8937 17.1878C91.1635 17.333 91.4246 17.4938 91.6756 17.6694L92.0396 17.9479L92.3079 18.1762C92.6366 18.457 92.9744 18.732 93.2963 19.0185C94.6054 20.1485 95.8541 21.3287 97.0845 22.5294C99.5246 24.9435 101.835 27.4851 104.007 30.1434C106.189 32.7935 108.215 35.5678 110.075 38.4526C110.558 39.1625 110.997 39.9021 111.445 40.6337C111.894 41.3653 112.347 42.0969 112.752 42.8548L114.007 45.109L115.172 47.41C115.569 48.1724 115.93 48.9531 116.277 49.7395L116.805 50.9163L117.07 51.5041C117.113 51.6056 117.158 51.6924 117.202 51.8054L117.335 52.1603C118.073 54.0496 118.385 56.0786 118.248 58.1023C118.009 62.1427 115.819 65.964 112.541 68.2867C112.139 68.5891 111.694 68.8243 111.269 69.0856C110.831 69.3253 110.371 69.5262 109.921 69.7419L107.639 70.7007C106.122 71.3467 104.623 72.0235 103.141 72.7312C100.189 74.1184 97.3241 75.6811 94.5598 77.4108C93.205 78.2816 91.8741 79.1879 90.6677 80.1945C90.3527 80.4365 90.0605 80.6945 89.7752 80.957C89.4898 81.2195 89.1839 81.4695 88.9283 81.7491L88.5277 82.1577L88.3268 82.3631L88.2263 82.4647L88.0677 82.6485C87.6365 83.1376 87.172 83.5964 86.6775 84.0215V84.0295Z" fill="#390075"/>
<path d="M225.71 88.8324C218.374 102.508 207.231 108.04 207.231 108.04L206.36 108.072C205.561 104.386 203.05 100.031 199.947 95.7456C197.476 92.3512 194.626 89.0025 191.967 86.0828C186.534 80.1192 187.352 70.8125 193.665 65.7917C199.977 60.7708 206.714 56.9335 212.855 54.047C216.935 52.1361 221.12 50.4594 225.391 49.025C230.267 47.3917 235.24 51.2107 234.947 56.3423C234.493 64.3079 232.495 76.1872 225.71 88.8324Z" fill="#FF6C6C"/>
<g opacity="0.3">
<path opacity="0.3" d="M204.017 89.3676C202.823 91.5926 201.462 93.7239 199.947 95.7433C197.476 92.3489 194.626 89.0001 191.967 86.0805C186.534 80.1169 187.352 70.8102 193.665 65.7893C199.977 60.7684 206.714 56.9312 212.855 54.0447C213.18 54.9556 213.316 55.9228 213.256 56.8878C212.798 64.842 210.801 76.7247 204.017 89.3676Z" fill="#390075"/>
<path opacity="0.3" d="M199.943 96.249L199.703 95.9203C197.543 92.9528 194.865 89.7113 191.745 86.2838C190.433 84.8554 189.433 83.1705 188.806 81.3355C188.18 79.5005 187.941 77.5555 188.105 75.6234C188.266 73.6672 188.826 71.7647 189.75 70.033C190.674 68.3013 191.943 66.7771 193.478 65.5543C199.078 61.103 205.555 57.1436 212.729 53.772L213.028 53.6316L213.142 53.9432C213.479 54.8922 213.621 55.8997 213.558 56.905C213.11 64.7291 211.136 76.7362 204.284 89.5093C203.083 91.7478 201.714 93.8921 200.189 95.9237L199.943 96.249ZM212.677 54.4614C205.667 57.7816 199.336 61.6702 193.852 66.0245C192.381 67.1964 191.166 68.6568 190.281 70.3158C189.396 71.9748 188.86 73.7974 188.705 75.6714C188.548 77.5213 188.776 79.3837 189.376 81.1407C189.976 82.8978 190.934 84.5111 192.19 85.8786C195.21 89.1954 197.818 92.3421 199.951 95.2378C201.361 93.3277 202.632 91.3186 203.754 89.2262C210.554 76.5502 212.513 64.6355 212.958 56.8719C213.007 56.0581 212.912 55.2421 212.677 54.4614Z" fill="#6B184E"/>
</g>
<path d="M205.022 109.282C204.746 108.696 204.511 108.091 204.319 107.472L204.25 107.244L204.199 107.109L204.099 106.841L203.901 106.303C203.782 105.944 203.604 105.591 203.445 105.235C203.286 104.879 203.131 104.524 202.943 104.175C202.222 102.75 201.415 101.37 200.525 100.044C198.71 97.3344 196.733 94.7366 194.605 92.2644C193.54 91.015 192.447 89.7854 191.328 88.5755L189.64 86.7688C189.317 86.3887 188.98 86.0177 188.678 85.6194C188.399 85.204 188.088 84.8079 187.846 84.3639C185.802 80.9056 185.362 76.5227 186.795 72.7368C187.495 70.8335 188.607 69.1084 190.052 67.6851L190.319 67.4146C190.405 67.3302 190.481 67.2685 190.562 67.1943L191.044 66.7652L192.006 65.9069C192.645 65.3362 193.292 64.7655 193.967 64.2314L195.969 62.6072L198.023 61.0584C198.708 60.5322 199.416 60.0528 200.123 59.5655C200.831 59.0781 201.534 58.5839 202.265 58.133C205.142 56.2588 208.126 54.553 211.2 53.0243C214.268 51.4848 217.415 50.1083 220.628 48.9005C222.242 48.307 223.864 47.7386 225.52 47.2433C225.93 47.112 226.351 46.999 226.766 46.8769L227.102 46.7833L227.548 46.6772C227.85 46.619 228.155 46.5786 228.461 46.5562C230.317 46.4222 232.151 47.0167 233.576 48.2134C233.81 48.412 234.033 48.6243 234.242 48.8492C234.437 49.0677 234.62 49.2963 234.79 49.534C235.41 50.3915 235.9 51.3352 236.245 52.3349C236.914 54.2821 237.074 56.2452 236.999 58.1068C236.977 58.5725 236.948 59.0359 236.898 59.4924L236.821 60.1772L236.73 60.8153C236.616 61.6656 236.487 62.5136 236.34 63.3571C236.063 65.0463 235.729 66.7241 235.363 68.3939C234.628 71.7391 233.711 75.0414 232.615 78.2861C230.397 84.76 227.479 91.1265 223.095 96.6313C222.578 97.3378 221.975 97.9838 221.388 98.639L220.504 99.6171L219.607 100.523C219.013 101.132 218.407 101.731 217.787 102.319C217.18 102.916 216.549 103.497 215.912 104.074C214.632 105.253 213.288 106.361 211.888 107.394C211.151 107.937 210.382 108.432 209.583 108.878C209.145 109.124 208.69 109.339 208.223 109.522L207.835 109.662L207.387 109.784C207.24 109.823 207.033 109.851 206.859 109.877C206.745 109.886 206.62 109.892 206.503 109.894C206.421 109.894 206.339 109.89 206.257 109.881L206.121 109.865C206.113 109.902 205.239 109.628 205.022 109.282ZM207.692 106.857C207.501 106.514 206.652 106.25 206.665 106.293L206.606 106.284C206.573 106.284 206.512 106.284 206.519 106.284C206.504 106.281 206.49 106.281 206.475 106.284C206.506 106.27 206.509 106.284 206.563 106.262L206.721 106.218L206.92 106.139C207.23 106.011 207.53 105.862 207.82 105.694C208.477 105.312 209.109 104.891 209.714 104.431C210.994 103.459 212.221 102.419 213.388 101.314C213.985 100.758 214.578 100.198 215.156 99.6148C215.735 99.0316 216.319 98.4575 216.889 97.8594L217.746 96.9714L218.531 96.0743C219.053 95.4762 219.589 94.8941 220.052 94.239C223.97 89.193 226.672 83.1678 228.693 76.9827C229.699 73.8695 230.534 70.7036 231.194 67.4991C231.524 65.8955 231.823 64.285 232.066 62.6688C232.196 61.8607 232.305 61.0515 232.408 60.2423L232.487 59.6362L232.542 59.0655C232.579 58.69 232.596 58.3179 232.609 57.947C232.654 56.4701 232.485 55.0434 232.045 53.8233C231.836 53.2409 231.544 52.6922 231.177 52.1945C231.082 52.0633 231.004 51.9822 230.936 51.9001C230.858 51.8198 230.775 51.7436 230.689 51.6718C230.514 51.532 230.322 51.4143 230.119 51.3214C229.707 51.1333 229.254 51.0547 228.804 51.0931C228.69 51.1011 228.575 51.1228 228.47 51.141L228.307 51.1844C228.256 51.1958 228.127 51.2381 228.04 51.2632C227.654 51.3773 227.267 51.4915 226.882 51.6193C225.337 52.1044 223.8 52.6636 222.285 53.2457C216.203 55.6241 210.384 58.6279 204.923 62.2089C202.213 64.0179 199.531 65.8772 197.027 67.9613C196.381 68.459 195.771 68.9966 195.154 69.5284L194.228 70.3274L193.765 70.7257C193.692 70.7908 193.604 70.8616 193.537 70.9221L193.361 71.099C192.396 72.0154 191.646 73.1336 191.164 74.3735C190.164 76.8492 190.413 79.7813 191.726 82.1074C191.879 82.4065 192.093 82.669 192.267 82.9555C192.466 83.226 192.694 83.4759 192.902 83.743L194.591 85.6434C195.714 86.9194 196.812 88.2217 197.883 89.5503C200.02 92.2085 202.079 94.9535 203.881 97.9188C204.803 99.4088 205.633 100.954 206.366 102.546C206.558 102.941 206.73 103.355 206.893 103.773C207.056 104.191 207.235 104.596 207.371 105.035L207.585 105.685L207.691 106.008L207.743 106.171L207.754 106.242C207.767 106.449 207.746 106.657 207.692 106.857Z" fill="#390075"/>
<path d="M146.531 171.604C144.426 183.67 137.628 192.562 131.351 191.464C125.073 190.366 121.688 179.7 123.792 167.635" fill="#FF6C6C"/>
<path d="M132.391 191.858C132.025 191.858 131.659 191.826 131.298 191.763C128.147 191.213 125.604 188.37 124.141 183.758C122.699 179.211 122.471 173.468 123.497 167.587L124.089 167.689C123.079 173.478 123.302 179.12 124.715 183.575C126.106 187.963 128.481 190.662 131.402 191.171C137.496 192.236 144.161 183.436 146.24 171.553L146.832 171.656C144.816 183.177 138.501 191.858 132.391 191.858Z" fill="#390075"/>
<path d="M145.967 174.311C145.023 178.223 143.58 181.712 141.848 184.508C138.865 189.334 135.021 192.104 131.347 191.464C127.673 190.824 124.992 186.908 123.828 181.347C123.143 178.134 122.972 174.371 123.408 170.377L145.967 174.311Z" fill="#ED2E7A"/>
<path d="M132.76 183.398C132.447 182.267 132.354 181.176 132.291 180.088C132.26 179.016 132.286 177.943 132.369 176.874C132.435 175.81 132.547 174.754 132.68 173.701C132.816 172.649 133.013 171.606 133.268 170.577C133.383 170.169 133.645 169.818 134.004 169.592C134.363 169.367 134.793 169.282 135.21 169.355C135.628 169.428 136.004 169.653 136.265 169.987C136.526 170.321 136.654 170.74 136.624 171.162C136.516 172.218 136.347 173.266 136.119 174.301C135.891 175.336 135.636 176.368 135.337 177.392C135.054 178.426 134.715 179.444 134.323 180.442C133.896 181.444 133.438 182.44 132.76 183.398Z" fill="#390075"/>
<path d="M132.796 193.63C132.194 193.63 131.593 193.578 131 193.475C123.625 192.188 119.044 183.001 120.79 172.994C120.835 172.73 120.932 172.478 121.075 172.251C121.218 172.024 121.405 171.828 121.624 171.674C121.843 171.519 122.091 171.41 122.352 171.351C122.614 171.292 122.884 171.286 123.148 171.332C123.412 171.378 123.665 171.475 123.891 171.619C124.117 171.763 124.313 171.95 124.467 172.169C124.621 172.388 124.73 172.636 124.788 172.898C124.847 173.159 124.853 173.43 124.806 173.694C123.469 181.355 126.632 188.574 131.701 189.459C134.06 189.871 136.577 188.888 138.777 186.7C141.163 184.32 142.85 180.862 143.53 176.961C143.623 176.428 143.924 175.954 144.366 175.643C144.808 175.332 145.356 175.21 145.889 175.303C146.421 175.396 146.895 175.696 147.206 176.139C147.517 176.581 147.639 177.129 147.547 177.661C146.722 182.382 144.631 186.617 141.657 189.585C139.002 192.231 135.911 193.63 132.796 193.63Z" fill="#390075"/>
<g opacity="0.3">
<path opacity="0.3" d="M123.41 170.382C123.025 173.906 123.116 177.251 123.611 180.198C123.76 180.214 123.902 180.247 124.055 180.256C130.894 180.646 133.876 176.172 133.876 176.172L134.01 176.196C134.01 176.196 135.271 181.516 141.868 183.363C142.061 183.416 142.253 183.461 142.439 183.503C143.907 180.894 145.129 177.771 145.963 174.317L123.41 170.382Z" fill="#390075"/>
</g>
<path d="M155.008 170.716C153.238 177.053 148.59 179.521 142.835 177.824C136.264 175.883 135.465 170.291 135.397 168.236L135.264 168.212C134.508 170.115 131.86 175.113 125.021 174.711C119.031 174.36 115.492 170.464 115.973 163.902" fill="white"/>
<path d="M146.218 178.649C145.042 178.639 143.874 178.459 142.749 178.117C136.85 176.377 135.461 171.815 135.165 169.184C133.995 171.561 131.141 175.382 125.007 175.021C121.989 174.844 119.528 173.766 117.908 171.912C116.206 169.972 115.435 167.197 115.677 163.89L116.277 163.934C116.048 167.076 116.767 169.699 118.36 171.516C119.879 173.249 122.189 174.256 125.042 174.421C131.59 174.807 134.181 170.137 134.988 168.112L135.078 167.883L135.693 167.991L135.7 168.235C135.773 170.414 136.623 175.681 142.924 177.539C145.663 178.348 148.18 178.185 150.194 177.069C152.308 175.898 153.874 173.675 154.722 170.64L155.301 170.802C154.41 173.998 152.744 176.344 150.486 177.595C149.176 178.305 147.707 178.668 146.218 178.649Z" fill="#390075"/>
<g opacity="0.3">
<path opacity="0.3" d="M155.008 170.716C153.236 177.053 148.593 179.523 142.835 177.821C136.265 175.881 135.467 170.288 135.396 168.24L135.263 168.218C134.508 170.12 131.862 175.117 125.019 174.713C119.031 174.371 115.491 170.468 115.976 163.907L116.177 163.942C117.099 164.103 117.871 164.682 118.38 165.467C119.907 167.817 122.528 169.178 125.95 169.375C129.411 169.58 131.795 168.403 133.406 166.947L137.579 167.676C138.606 169.59 140.445 171.505 143.766 172.483C147.058 173.457 149.984 173.064 152.218 171.369C152.963 170.798 153.884 170.52 154.807 170.684L155.008 170.716Z" fill="#390075"/>
</g>
<path d="M155.335 170.807C155.349 172.128 155.111 173.439 154.632 174.67C154.116 176.047 153.266 177.274 152.158 178.24C151.05 179.207 149.719 179.883 148.285 180.208C146.85 180.529 145.366 180.568 143.916 180.322C143.564 180.279 143.216 180.21 142.875 180.115C142.531 180.037 142.191 179.942 141.857 179.829C141.521 179.715 141.183 179.6 140.851 179.476L139.871 179.012C138.552 178.334 137.372 177.413 136.395 176.297C135.432 175.178 134.68 173.892 134.178 172.503C133.932 171.83 133.741 171.137 133.607 170.432C133.463 169.732 133.376 169.021 133.348 168.307L135.045 170.258L134.912 170.236L137.17 168.973C136.643 170.312 135.912 171.561 135.002 172.676C134.063 173.826 132.917 174.79 131.622 175.517C130.317 176.234 128.886 176.695 127.407 176.876C127.046 176.915 126.685 176.946 126.323 176.971L125.256 176.958C124.902 176.953 124.549 176.928 124.199 176.883C123.845 176.854 123.494 176.801 123.148 176.723C121.695 176.469 120.305 175.938 119.055 175.157C117.755 174.359 116.681 173.242 115.933 171.913C115.235 170.646 114.863 169.225 114.851 167.778C114.835 166.438 115.1 165.11 115.629 163.879C115.659 163.812 115.708 163.755 115.771 163.716C115.834 163.678 115.908 163.659 115.981 163.664C116.055 163.668 116.125 163.695 116.183 163.741C116.241 163.786 116.284 163.849 116.305 163.919V163.928C117.018 166.348 117.779 168.436 119.044 169.836C119.641 170.529 120.364 171.102 121.175 171.524C122.035 171.939 122.954 172.216 123.9 172.344C124.884 172.467 125.929 172.553 126.875 172.422C127.808 172.328 128.716 172.071 129.561 171.665C130.404 171.24 131.16 170.659 131.787 169.953C132.446 169.216 132.977 168.375 133.359 167.463L133.37 167.439C133.545 167.006 133.865 166.646 134.275 166.421C134.684 166.195 135.159 166.118 135.619 166.201L135.752 166.225H135.779C136.239 166.308 136.656 166.547 136.96 166.902C137.264 167.257 137.436 167.705 137.449 168.172C137.472 169.164 137.665 170.145 138.02 171.071C138.362 171.959 138.877 172.77 139.536 173.457C140.202 174.126 140.981 174.672 141.837 175.07C142.696 175.497 143.706 175.778 144.677 175.993C146.638 176.399 148.493 176.272 150.177 175.36C151.028 174.913 151.828 174.251 152.574 173.438C153.343 172.552 154.046 171.612 154.68 170.625L154.687 170.615C154.738 170.536 154.819 170.482 154.91 170.463C155.002 170.444 155.097 170.463 155.175 170.514C155.224 170.546 155.264 170.59 155.292 170.641C155.32 170.692 155.334 170.749 155.335 170.807Z" fill="#390075"/>
<path d="M217.021 126.187C216.493 126.187 215.978 126.013 215.558 125.691C215.139 125.369 214.836 124.918 214.699 124.408C214.561 123.897 214.595 123.355 214.796 122.866C214.998 122.377 215.354 121.968 215.812 121.701C241.547 106.75 250.347 61.2582 242.46 39.4867C240.764 34.8071 237.545 29.429 231.784 30.4094C205.352 34.9132 184.108 55.5503 173.796 67.4501C173.59 67.6929 173.338 67.8925 173.055 68.0373C172.772 68.182 172.463 68.2692 172.145 68.2936C171.828 68.3181 171.509 68.2794 171.207 68.1797C170.905 68.0801 170.626 67.9215 170.385 67.7131C170.145 67.5047 169.948 67.2507 169.807 66.9658C169.665 66.6809 169.582 66.3707 169.561 66.0532C169.54 65.7358 169.582 65.4174 169.685 65.1164C169.789 64.8154 169.95 64.5379 170.161 64.3C180.89 51.9139 203.066 30.4231 230.976 25.6682C238.018 24.4663 243.702 28.7932 246.982 37.8477C251.18 49.4348 250.99 67.0769 246.486 83.8892C241.256 103.407 231.22 118.313 218.228 125.861C217.862 126.075 217.445 126.187 217.021 126.187Z" fill="#390075"/>
<path d="M73.5085 101.456C73.1617 101.457 72.8188 101.383 72.5035 101.238C72.1882 101.094 71.908 100.883 71.6823 100.619C61.8585 89.2056 57.3365 71.7884 58.9492 51.5851C60.3188 34.4738 66.2128 17.3065 73.973 7.85028C80.1615 0.317277 87.0222 -1.89126 93.2894 1.65039C117.984 15.6024 131.57 43.3764 137.468 58.6912C137.586 58.9867 137.643 59.3025 137.638 59.6204C137.632 59.9383 137.564 60.2519 137.437 60.5432C137.309 60.8345 137.125 61.0976 136.896 61.3173C136.666 61.5371 136.395 61.709 136.098 61.8234C135.801 61.9377 135.485 61.992 135.167 61.9833C134.849 61.9745 134.536 61.9028 134.246 61.7723C133.957 61.6419 133.695 61.4552 133.478 61.2231C133.261 60.9911 133.092 60.7183 132.98 60.4204C127.31 45.7071 114.311 19.0516 90.9245 5.83691C85.8032 2.94355 80.9022 6.99426 77.6938 10.9023C64.5134 26.9613 54.6691 73.4719 75.3301 97.4817C75.6302 97.8309 75.8239 98.259 75.888 98.7151C75.9521 99.1711 75.8839 99.636 75.6916 100.054C75.4993 100.473 75.191 100.827 74.8032 101.076C74.4154 101.324 73.9644 101.456 73.5039 101.456H73.5085Z" fill="#390075"/>
<g opacity="0.3">
<path opacity="0.3" d="M216.29 190.138C206.918 193.133 194.041 201.665 191.506 202.822C188.971 203.978 167.067 216.206 128.222 209.43C112.067 206.612 99.7884 201.695 90.8093 196.768C78.1869 189.856 72.0783 182.922 70.9073 181.784C68.9122 179.844 59.6865 167.448 51.8887 161.459C44.0909 155.469 40.7684 150.253 46.4604 147.762C47.3564 147.371 48.1725 147.021 48.9041 146.708C64.9186 164.386 93.6627 190.422 130.418 196.839C167.173 203.255 203.043 188.481 224.098 177.263C224.681 177.812 225.323 178.416 226.038 179.089C230.541 183.357 225.657 187.135 216.29 190.138Z" fill="#390075"/>
</g>
<path d="M135.889 167.08C135.77 167.08 135.652 167.07 135.536 167.05C135.003 166.957 134.53 166.656 134.219 166.213C133.908 165.771 133.786 165.223 133.879 164.691L135.03 158.09C135.133 157.567 135.437 157.105 135.876 156.804C136.316 156.502 136.856 156.384 137.381 156.476C137.906 156.567 138.374 156.861 138.686 157.294C138.997 157.727 139.126 158.264 139.046 158.791L137.894 165.392C137.812 165.864 137.566 166.292 137.199 166.601C136.832 166.91 136.368 167.079 135.889 167.08Z" fill="#390075"/>
<path d="M149.318 158.756C148.633 162.652 142.158 166.909 135.288 165.71C128.418 164.512 123.76 158.313 124.445 154.416C125.13 150.52 130.751 151.163 137.62 152.362C144.489 153.56 149.998 154.859 149.318 158.756Z" fill="#390075"/>
<path d="M142.453 156.408C142.303 157.263 139.686 157.988 136.705 157.467C133.723 156.947 131.506 155.38 131.655 154.525C131.805 153.67 134.234 154.02 137.215 154.54C140.196 155.059 142.604 155.554 142.453 156.408Z" fill="white"/>
<path d="M138.711 157.917C138.022 157.916 137.335 157.855 136.657 157.737C135.249 157.491 133.903 157 132.861 156.353C131.819 155.706 131.289 155.028 131.386 154.478C131.513 153.744 132.586 153.706 133.384 153.744C134.348 153.789 135.631 153.987 137.265 154.271C138.9 154.556 140.17 154.803 141.091 155.089C141.853 155.324 142.852 155.722 142.723 156.458C142.627 157.008 141.89 157.47 140.701 157.723C140.046 157.856 139.379 157.921 138.711 157.917ZM133.017 154.281C132.062 154.281 131.943 154.499 131.929 154.572C131.887 154.814 132.253 155.329 133.155 155.89C134.139 156.501 135.417 156.965 136.757 157.199C138.097 157.433 139.459 157.427 140.59 157.186C141.629 156.965 142.147 156.603 142.188 156.361C142.202 156.28 142.152 155.987 140.932 155.609C140.039 155.333 138.783 155.09 137.174 154.81C135.564 154.531 134.299 154.333 133.365 154.291C133.234 154.284 133.117 154.281 133.017 154.281Z" fill="#390075"/>
<path d="M117.175 134.094C118.42 125.424 114.475 117.684 108.364 116.807C102.253 115.929 96.2895 122.247 95.0448 130.916C93.8 139.586 97.745 147.326 103.856 148.203C109.967 149.081 115.93 142.764 117.175 134.094Z" fill="#390075"/>
<path d="M112.634 130.917C113.052 128.005 111.895 125.43 110.048 125.165C108.202 124.9 106.366 127.045 105.948 129.957C105.53 132.868 106.688 135.443 108.535 135.708C110.381 135.973 112.217 133.828 112.634 130.917Z" fill="white"/>
<path d="M190.107 141.826C188.25 142.021 186.406 142.321 184.584 142.725C182.829 143.121 181.109 143.659 179.441 144.333C178.614 144.645 177.843 145.054 177.057 145.423L175.932 146.072C175.75 146.186 175.552 146.276 175.374 146.397L174.842 146.763C173.38 147.677 172.135 148.876 170.899 150.091L168.388 145.962C168.564 145.921 168.673 145.904 168.792 145.882C168.911 145.861 169.028 145.841 169.134 145.826C169.363 145.797 169.584 145.767 169.801 145.75C170.24 145.702 170.672 145.685 171.104 145.664C171.961 145.641 172.818 145.671 173.671 145.754C175.367 145.914 177.035 146.3 178.628 146.903C180.209 147.506 181.721 148.286 183.046 149.3C184.401 150.266 185.537 151.486 186.526 152.752C186.65 152.909 186.716 153.104 186.713 153.304C186.71 153.504 186.638 153.697 186.51 153.85C186.381 154.003 186.204 154.108 186.008 154.146C185.812 154.184 185.608 154.153 185.432 154.059L185.341 154.011C184.673 153.656 184.071 153.246 183.422 152.921C182.772 152.596 182.144 152.265 181.474 152.023C180.193 151.481 178.858 151.081 177.49 150.83C176.154 150.563 174.794 150.438 173.432 150.456C173.095 150.456 172.757 150.479 172.421 150.488L171.42 150.57C171.091 150.61 170.761 150.646 170.443 150.705C170.28 150.729 170.13 150.762 169.977 150.792C169.898 150.807 169.825 150.822 169.76 150.838L169.602 150.876L169.543 150.889C169.02 151.013 168.471 150.967 167.976 150.756C167.481 150.546 167.067 150.183 166.793 149.72C166.519 149.257 166.401 148.719 166.455 148.184C166.509 147.649 166.733 147.145 167.094 146.746C168.549 145.139 170.126 143.582 172.001 142.442C172.892 141.799 173.902 141.366 174.866 140.866C175.88 140.475 176.877 140.044 177.927 139.798C179.98 139.23 182.103 138.963 184.232 139.006C186.343 139.067 188.385 139.367 190.404 140.123C190.588 140.192 190.745 140.321 190.847 140.49C190.949 140.658 190.992 140.857 190.967 141.052C190.943 141.248 190.853 141.43 190.713 141.568C190.573 141.707 190.39 141.794 190.194 141.816L190.107 141.826Z" fill="#390075"/>
<path d="M234.934 307.322C226.685 321.089 219.411 323.327 217.804 323.85C213.083 325.39 201.737 323.773 201.737 323.773C201.737 323.773 170.122 320.585 146.535 320.544H113.852C113.128 320.544 112.399 320.55 111.665 320.555C88.288 320.739 58.1765 323.773 58.1765 323.773C58.1765 323.773 46.8325 325.39 42.1095 323.85C40.5036 323.327 33.2297 321.089 24.9799 307.322C14.8218 290.377 19.5345 276.717 25.9706 271.147C34.9235 263.406 43.3319 269.336 49.2396 278.201C50.1892 276.193 51.77 274.119 53.675 272.199C57.2223 268.621 61.8825 265.593 65.6251 264.613C75.9681 261.908 86.4356 266.712 92.01 276.604H167.911C173.485 266.712 183.951 261.908 194.294 264.613C200.049 266.117 207.965 272.462 210.68 278.195C216.589 269.33 224.997 263.401 233.949 271.141C240.381 276.717 245.088 290.377 234.934 307.322Z" fill="#F99B28"/>
<path d="M234.934 307.319C226.686 321.087 219.411 323.325 217.804 323.852C213.083 325.389 201.737 323.772 201.737 323.772C201.737 323.772 170.122 320.583 146.534 320.545H113.85C113.125 320.545 112.397 320.551 111.663 320.556C88.2891 320.738 58.1765 323.772 58.1765 323.772C58.1765 323.772 46.8302 325.389 42.1095 323.852C40.5013 323.325 33.2274 321.087 24.9799 307.319C14.8286 290.377 19.5345 276.718 25.9718 271.146C34.9246 263.406 43.3319 269.336 49.2385 278.199C50.1881 276.191 51.7723 274.117 53.6772 272.198C57.4575 271.686 60.4239 273.088 63.2122 275.33C67.9717 279.154 72.213 285.426 79.1012 288.844C90.6072 294.551 102.889 291.926 102.889 291.926C102.889 291.926 97.4258 284.858 93.3111 276.611H166.607C162.488 284.858 157.029 291.926 157.029 291.926C157.029 291.926 169.307 294.559 180.813 288.844C180.963 288.769 181.108 288.693 181.254 288.616C191.862 283.077 196.146 270.832 206.241 272.195C208.146 274.114 209.726 276.19 210.675 278.195C216.581 269.332 224.994 263.403 233.941 271.143C240.378 276.718 245.085 290.377 234.934 307.319Z" fill="white"/>
<g opacity="0.3">
<path opacity="0.3" d="M234.934 307.197C226.686 320.964 219.411 323.202 217.804 323.729C213.083 325.267 201.737 323.649 201.737 323.649C201.737 323.649 170.122 320.461 146.534 320.423H113.385C89.7992 320.461 58.1822 323.649 58.1822 323.649C58.1822 323.649 46.8359 325.267 42.1152 323.729C40.507 323.202 33.2331 320.964 24.9856 307.197C19.3929 297.868 18.3086 289.536 19.5402 283C20.2832 287.312 21.9861 292.033 24.9856 297.046C33.2331 310.814 40.5264 312.991 42.1152 313.574C57.8775 319.348 62.8881 304.852 69.726 303.699C77.9838 302.303 85.7793 308.646 93.8476 309.718L93.9047 309.725C96.0048 309.999 97.0936 307.283 95.3884 306.026C83.831 297.498 71.6389 286.901 63.2122 275.331C56.7236 266.416 52.4731 256.933 52.4731 247.368C52.4731 225.061 71.4369 206.982 94.8177 206.982C108.416 206.982 120.52 213.095 128.26 222.598C136.008 213.095 148.107 206.982 161.702 206.982C185.091 206.982 204.046 225.061 204.046 247.368C204.046 248.442 203.99 249.516 203.877 250.584C202.533 263.769 193.149 276.906 181.402 288.478C181.355 288.524 181.302 288.571 181.256 288.619C174.624 295.133 167.258 301.141 160.181 306.367C158.544 307.577 159.475 310.175 161.508 310.08C163.267 309.998 164.818 309.88 166.073 309.715C174.143 308.642 181.938 302.296 190.196 303.695C197.028 304.848 202.044 319.345 217.807 313.571C219.395 312.987 226.689 310.811 234.936 297.042C237.936 292.03 239.638 287.309 240.381 282.997C241.611 289.536 240.524 297.868 234.934 307.197Z" fill="#390075"/>
</g>
<path d="M50.7405 277.066C50.9912 277.33 51.2274 277.607 51.4481 277.896C51.649 278.171 51.8533 278.443 52.028 278.728C52.3899 279.286 52.7162 279.866 53.005 280.465C53.6008 281.646 54.0253 282.896 54.4157 284.145C54.7965 285.394 55.1052 286.665 55.3402 287.949C55.5765 289.235 55.7199 290.536 55.7694 291.842C55.7708 291.903 55.7527 291.962 55.7176 292.011C55.6825 292.061 55.6324 292.097 55.5748 292.116C55.5172 292.134 55.4552 292.133 55.3981 292.113C55.341 292.094 55.2918 292.056 55.258 292.006C54.5355 290.913 53.9009 289.813 53.2424 288.733L51.3192 285.524C50.6789 284.469 50.01 283.444 49.4131 282.4C49.1049 281.884 48.8059 281.365 48.5217 280.845L48.1005 280.07C47.9738 279.824 47.8186 279.533 47.7421 279.338L47.628 279.052C47.4683 278.646 47.4548 278.198 47.5897 277.783C47.7246 277.368 47.9996 277.013 48.3675 276.779C48.7353 276.544 49.1733 276.445 49.6062 276.498C50.0392 276.551 50.4402 276.753 50.7405 277.07V277.066Z" fill="#390075"/>
<path d="M212.175 279.334C212.099 279.529 211.947 279.821 211.816 280.067L211.396 280.842C211.11 281.361 210.813 281.879 210.504 282.397C209.907 283.441 209.238 284.466 208.598 285.521L206.674 288.73C206.016 289.81 205.381 290.91 204.658 292.002C204.625 292.053 204.576 292.091 204.518 292.111C204.461 292.131 204.399 292.132 204.341 292.113C204.284 292.095 204.234 292.058 204.199 292.009C204.164 291.959 204.146 291.9 204.148 291.839C204.198 290.533 204.341 289.232 204.576 287.946C204.811 286.661 205.12 285.391 205.5 284.142C205.891 282.893 206.315 281.642 206.912 280.462C207.201 279.863 207.527 279.283 207.889 278.725C208.064 278.439 208.267 278.168 208.469 277.893C208.69 277.603 208.926 277.326 209.177 277.063C209.477 276.748 209.878 276.547 210.311 276.494C210.743 276.441 211.18 276.54 211.548 276.774C211.915 277.008 212.19 277.362 212.326 277.776C212.461 278.19 212.449 278.639 212.29 279.044L212.175 279.334Z" fill="#390075"/>
<path d="M48.2341 326.401C45.7334 326.401 43.2794 326.21 41.5297 325.639C33.5516 323.049 27.2547 314.775 23.3672 308.291C13.2319 291.376 16.9755 276.447 24.7368 269.728C28.3686 266.589 32.1979 265.267 36.1128 265.799C40.5892 266.406 45.0348 269.487 49.0844 274.755C52.7368 269.469 59.5724 264.255 65.1445 262.798C65.3853 262.73 65.6373 262.71 65.8858 262.74C66.1343 262.771 66.3742 262.85 66.5916 262.974C66.8089 263.099 66.9993 263.265 67.1515 263.464C67.3037 263.662 67.4148 263.889 67.4781 264.131C67.5415 264.374 67.5559 264.626 67.5204 264.874C67.485 265.122 67.4005 265.36 67.2718 265.575C67.1431 265.789 66.9729 265.976 66.771 266.124C66.5692 266.272 66.3399 266.378 66.0964 266.437C60.6921 267.85 53.3257 273.958 50.938 279.008C50.7956 279.309 50.5758 279.566 50.3012 279.755C50.0265 279.943 49.7069 280.055 49.3748 280.079C49.0427 280.103 48.7102 280.039 48.4111 279.893C48.112 279.746 47.8572 279.523 47.6725 279.246C44.9709 275.192 40.684 270.216 35.6072 269.526C32.8051 269.146 29.9757 270.171 27.1976 272.574C20.5777 278.293 17.5725 291.305 26.5915 306.358C30.148 312.293 35.8195 319.836 42.6357 322.049L42.6916 322.067C46.2298 323.219 54.8745 322.347 57.9106 321.915C57.9357 321.915 57.9608 321.908 57.987 321.905C58.3078 321.873 90.3892 318.667 113.851 318.667H146.059C169.521 318.667 201.602 321.873 201.922 321.905C201.949 321.905 201.974 321.905 202 321.915C205.037 322.347 213.691 323.216 217.219 322.067L217.275 322.049C224.091 319.834 229.762 312.293 233.319 306.358C242.336 291.306 239.326 278.294 232.712 272.574C229.934 270.177 227.104 269.15 224.303 269.526C219.226 270.211 214.944 275.192 212.237 279.246C212.052 279.523 211.798 279.747 211.499 279.893C211.2 280.039 210.867 280.104 210.535 280.079C210.203 280.055 209.883 279.943 209.609 279.755C209.334 279.567 209.115 279.309 208.972 279.008C206.584 273.958 199.217 267.85 193.813 266.437C193.339 266.302 192.938 265.988 192.694 265.561C192.449 265.133 192.382 264.627 192.507 264.151C192.632 263.675 192.938 263.267 193.36 263.014C193.782 262.761 194.286 262.684 194.765 262.798C200.337 264.255 207.173 269.469 210.826 274.755C214.876 269.487 219.321 266.406 223.798 265.799C227.717 265.267 231.542 266.589 235.172 269.728C242.934 276.444 246.681 291.376 236.542 308.291C232.655 314.777 226.358 323.051 218.433 325.626C213.44 327.252 202.887 325.838 201.505 325.643C200.235 325.516 168.965 322.426 146.056 322.426H113.853C90.9451 322.426 59.6763 325.516 58.4036 325.643C57.5122 325.771 52.795 326.401 48.2341 326.401Z" fill="#390075"/>
<g opacity="0.3">
<path opacity="0.3" d="M139.236 320.423C139.17 320.466 139.105 320.509 139.039 320.545H117.254C117.189 320.509 117.122 320.466 117.052 320.423H139.236Z" fill="#390075"/>
</g>
<path d="M204.045 237.963C204.045 239.037 203.989 240.111 203.876 241.179C202.532 254.363 193.147 267.502 181.4 279.073C162.352 297.839 137.135 312.453 130.133 316.347C129.56 316.667 128.915 316.837 128.259 316.84C127.603 316.843 126.957 316.68 126.381 316.366C114.687 310.022 52.4731 274.549 52.4731 237.963C52.4731 215.656 71.4369 197.576 94.8177 197.576C108.416 197.576 120.52 203.689 128.26 213.192C136.008 203.689 148.107 197.576 161.702 197.576C185.092 197.576 204.045 215.656 204.045 237.963Z" fill="#F9266C"/>
<g opacity="0.5">
<path opacity="0.5" d="M204.045 237.963C204.045 238.917 204.003 239.867 203.909 240.822C202.174 220.038 183.943 203.689 161.703 203.689C149.604 203.689 138.697 208.527 130.981 216.287C130.483 216.789 133.81 220.566 133.699 221.263C132.974 225.862 129.008 220.35 128.262 219.305C120.518 209.802 108.414 203.689 94.82 203.689C72.5703 203.689 54.3164 220.067 52.6089 240.878C52.5199 239.905 52.4777 238.938 52.4777 237.963C52.4777 215.656 71.4414 197.576 94.8223 197.576C108.421 197.576 120.525 203.689 128.264 213.192C136.013 203.689 148.111 197.576 161.706 197.576C185.092 197.576 204.045 215.656 204.045 237.963Z" fill="white"/>
</g>
<g opacity="0.3">
<path opacity="0.3" d="M54.2411 241.339L52.6432 241.211C52.5405 240.173 52.4834 239.128 52.4788 238.09C53.0073 239.172 53.6019 240.253 54.2411 241.339Z" fill="#390075"/>
</g>
<g opacity="0.3">
<path opacity="0.3" d="M204.045 237.963C204.045 239.037 203.989 240.111 203.876 241.18C199.988 241.499 196.037 241.739 192.366 241.936C196.066 235.819 198.553 229.518 199.198 223.208C199.31 222.139 199.367 221.066 199.367 219.991C199.367 219.822 199.367 219.649 199.367 219.479C202.441 225.155 204.049 231.508 204.045 237.963Z" fill="#390075"/>
</g>
<path d="M128.24 318.724C127.277 318.722 126.33 318.481 125.484 318.021C112.978 311.235 50.5933 275.49 50.5933 237.961C50.5933 214.655 70.4314 195.695 94.8166 195.695C107.78 195.695 119.844 200.993 128.259 210.305C136.675 200.992 148.737 195.695 161.701 195.695C186.085 195.695 205.924 214.655 205.924 237.961C205.924 274.526 143.549 311.043 131.045 317.992C130.187 318.471 129.222 318.723 128.24 318.724ZM94.8166 199.451C72.5064 199.451 54.3552 216.724 54.3552 237.955C54.3552 273.354 115.101 308.102 127.278 314.709C127.576 314.871 127.91 314.955 128.25 314.954C128.589 314.952 128.922 314.864 129.218 314.698C134.543 311.74 153.235 300.972 170.252 286.644C191.427 268.813 202.163 252.432 202.163 237.955C202.163 216.726 184.015 199.451 161.702 199.451C149.106 199.451 137.449 204.89 129.72 214.373C129.543 214.59 129.321 214.764 129.069 214.884C128.816 215.004 128.541 215.066 128.261 215.066C127.982 215.066 127.707 215.004 127.454 214.884C127.202 214.764 126.98 214.59 126.803 214.373C119.073 204.9 107.413 199.457 94.8166 199.457V199.451Z" fill="#390075"/>
<g opacity="0.3">
<path opacity="0.3" d="M203.876 241.179C202.532 254.363 193.147 267.502 181.401 279.073C162.352 297.839 137.135 312.453 130.133 316.347C129.56 316.667 128.915 316.837 128.259 316.84C127.603 316.843 126.957 316.68 126.381 316.366C118.632 312.162 88.7023 295.168 69.3916 273.539C69.3162 273.459 69.2455 273.38 69.1747 273.299C60.3166 263.316 53.7332 252.351 52.6375 241.211L54.2354 241.339C64.3399 242.096 74.4923 242.366 78.7565 242.81C90.6814 244.066 98.3126 255.177 87.6865 268.86C86.9286 269.838 85.777 270.914 84.4279 272.007C110.167 287.937 143.533 286.878 168.144 268.522C157.903 254.993 165.506 244.061 177.332 242.81C180.233 242.51 185.867 242.284 192.36 241.936C196.037 241.739 199.988 241.499 203.876 241.179Z" fill="#390075"/>
</g>
<g opacity="0.3">
<path opacity="0.3" d="M69.1747 273.299C60.1146 263.223 53.3474 252.215 52.2243 241.179C52.3601 241.189 52.4971 241.202 52.6375 241.211C53.7332 252.351 60.312 263.316 69.1747 273.299Z" fill="#390075"/>
</g>
<path d="M186.455 205.242C186.455 205.242 214.462 223.647 212.006 247.533C208.532 281.318 176.598 269.854 170.532 261.344C160.108 246.708 169.666 234.675 181.593 233.418C191.386 232.391 201.19 232.742 201.073 225.497C200.957 218.252 186.455 205.242 186.455 205.242Z" fill="white"/>
<g opacity="0.25">
<path opacity="0.25" d="M212.006 247.527C208.532 281.311 176.599 269.848 170.534 261.337C165.822 254.717 165.192 248.636 167.022 243.84C167.741 245.985 168.888 248.227 170.534 250.536C176.445 258.826 206.909 269.927 211.682 239.237C212.175 241.971 212.285 244.762 212.006 247.527Z" fill="#390075"/>
</g>
<path d="M191.524 272.178C181.954 272.178 172.26 267.002 169.001 262.425C164.083 255.521 162.886 248.363 165.633 242.272C168.281 236.396 174.321 232.283 181.396 231.543C182.798 231.396 184.198 231.276 185.553 231.161C194.873 230.362 199.257 229.55 199.192 225.522C199.117 220.843 190.569 211.461 185.199 206.642C184.858 206.322 184.649 205.887 184.611 205.422C184.573 204.956 184.71 204.494 184.995 204.123C185.28 203.753 185.692 203.502 186.152 203.419C186.611 203.336 187.085 203.427 187.482 203.674C188.664 204.452 216.415 222.992 213.871 247.731C212.177 264.201 204.028 269.717 197.489 271.444C195.541 271.944 193.536 272.191 191.524 272.178ZM202.734 223.733C202.866 224.299 202.939 224.876 202.953 225.457C203.082 233.435 194.333 234.182 185.872 234.904C184.536 235.019 183.154 235.133 181.791 235.28C176.041 235.886 171.163 239.161 169.061 243.818C166.893 248.641 167.955 254.474 172.064 260.244C175.032 264.403 186.566 270.433 196.534 267.799C204.266 265.757 208.969 258.681 210.136 247.337C211.044 238.493 207.447 230.353 202.734 223.733Z" fill="#390075"/>
<path d="M69.9737 205.242C69.9737 205.242 41.9657 223.647 44.4219 247.533C47.8962 281.318 79.8305 269.854 85.8957 261.344C96.3198 246.708 86.762 234.675 74.8347 233.418C65.0418 232.391 55.2386 232.742 55.355 225.497C55.4715 218.252 69.9737 205.242 69.9737 205.242Z" fill="white"/>
<g opacity="0.25">
<path opacity="0.25" d="M85.8957 261.332C79.8305 269.848 47.8985 281.306 44.4231 247.522C44.14 244.73 44.2526 241.913 44.7575 239.152C49.5581 269.764 79.9903 258.67 85.8957 250.386C87.5221 248.103 88.6601 245.886 89.3848 243.766C91.243 248.575 90.6312 254.683 85.8957 261.332Z" fill="#390075"/>
</g>
<path d="M64.9037 272.178C62.8903 272.188 60.8839 271.938 58.9344 271.435C52.3955 269.707 44.245 264.192 42.5512 247.721C40.0083 222.982 67.7583 204.441 68.9407 203.664C69.3369 203.409 69.8142 203.313 70.2783 203.393C70.7424 203.473 71.1596 203.724 71.4473 204.097C71.735 204.47 71.8723 204.937 71.8322 205.407C71.792 205.876 71.5772 206.313 71.2303 206.632C65.859 211.45 57.3057 220.838 57.236 225.512C57.171 229.54 61.5561 230.355 70.8765 231.15C72.2313 231.265 73.6317 231.386 75.0322 231.533C82.1086 232.278 88.1476 236.392 90.7956 242.262C93.5417 248.353 92.3455 255.511 87.4274 262.415C84.1665 267.001 74.4729 272.178 64.9037 272.178ZM53.6921 223.733C48.9794 230.353 45.3818 238.494 46.2903 247.337C47.4568 258.681 52.1604 265.757 59.8931 267.798C69.8584 270.43 81.3987 264.403 84.3605 260.244C88.4695 254.474 89.5378 248.641 87.3646 243.818C85.2634 239.157 80.3863 235.886 74.635 235.28C73.2722 235.136 71.8957 235.018 70.5535 234.904C62.0937 234.182 53.344 233.435 53.4729 225.457C53.4866 224.876 53.56 224.299 53.6921 223.733Z" fill="#390075"/>
<path d="M129.693 211.97C130.04 212.233 130.357 212.533 130.639 212.864C130.921 213.179 131.178 213.515 131.41 213.868C131.874 214.581 132.275 215.334 132.606 216.118C133.279 217.69 133.828 219.358 133.94 221.14C133.943 221.179 133.938 221.217 133.925 221.253C133.913 221.289 133.894 221.322 133.868 221.351C133.843 221.38 133.813 221.403 133.778 221.42C133.744 221.437 133.707 221.446 133.669 221.449C133.596 221.454 133.523 221.431 133.467 221.385L133.459 221.378C132.774 220.819 132.176 220.254 131.564 219.701L129.802 218.035C129.231 217.477 128.66 216.927 128.149 216.323C127.638 215.719 127.159 215.091 126.834 214.403L126.793 214.317C126.609 213.928 126.561 213.489 126.657 213.069C126.752 212.649 126.986 212.274 127.32 212.002C127.654 211.731 128.069 211.579 128.499 211.572C128.929 211.564 129.35 211.701 129.693 211.96V211.97Z" fill="#390075"/>
<g opacity="0.3">
<path opacity="0.3" d="M147.689 216.092C153.802 210.177 171.69 209.22 179.701 217.289C186.555 224.189 174.875 223.078 165.635 222.545C157.627 222.082 141.577 222.007 147.689 216.092Z" fill="white"/>
</g>
<path d="M182.625 259.077C181.698 259.86 180.663 260.372 179.61 260.818C178.546 261.232 177.447 261.548 176.326 261.762C175.19 261.985 174.038 262.116 172.881 262.152C171.708 262.152 170.506 262.073 169.319 261.763C168.891 261.652 168.521 261.384 168.281 261.013C168.041 260.642 167.949 260.194 168.023 259.758C168.097 259.323 168.332 258.931 168.681 258.66C169.03 258.388 169.468 258.258 169.908 258.294L169.991 258.301C170.954 258.38 171.932 258.483 172.941 258.54C173.95 258.597 174.985 258.628 176.036 258.654C177.087 258.68 178.15 258.661 179.24 258.714C180.33 258.768 181.441 258.851 182.625 259.077Z" fill="#390075"/>
<path d="M180.384 245.866C179.173 246.313 178.008 246.593 176.845 246.869C175.682 247.145 174.544 247.326 173.412 247.554C172.28 247.782 171.161 247.997 170.055 248.239C168.943 248.453 167.864 248.733 166.761 248.932L166.693 248.943C166.256 249.021 165.806 248.932 165.432 248.693C165.059 248.454 164.788 248.084 164.675 247.655C164.562 247.226 164.615 246.77 164.822 246.378C165.03 245.986 165.377 245.687 165.796 245.54C166.979 245.132 168.2 244.843 169.44 244.679C170.665 244.515 171.899 244.439 173.135 244.451C174.364 244.446 175.591 244.544 176.803 244.744C178.019 244.971 179.227 245.274 180.384 245.866Z" fill="#390075"/>
<path d="M73.3738 259.077C74.5574 258.849 75.6634 258.783 76.7579 258.716C77.8525 258.65 78.9105 258.674 79.9617 258.656C81.0129 258.638 82.0447 258.598 83.0571 258.542C84.0695 258.486 85.0442 258.382 86.0064 258.303L86.0897 258.296C86.5302 258.26 86.9682 258.391 87.3173 258.662C87.6663 258.933 87.901 259.325 87.975 259.761C88.049 260.196 87.9569 260.644 87.7169 261.015C87.4769 261.386 87.1064 261.654 86.6787 261.765C85.4917 262.076 84.2898 262.16 83.1165 262.154C81.9596 262.118 80.8076 261.987 79.6718 261.764C78.5511 261.55 77.4523 261.234 76.3893 260.82C75.3346 260.37 74.3006 259.86 73.3738 259.077Z" fill="#390075"/>
<path d="M75.6154 245.866C76.7705 245.274 77.9792 244.971 79.1913 244.736C80.4038 244.536 81.6308 244.438 82.8597 244.443C84.0954 244.431 85.3305 244.507 86.5554 244.671C87.7955 244.835 89.016 245.124 90.1986 245.532C90.6183 245.678 90.9673 245.977 91.1761 246.369C91.3849 246.762 91.438 247.218 91.3249 247.648C91.2118 248.078 90.9408 248.449 90.5659 248.688C90.1911 248.927 89.74 249.015 89.3027 248.936L89.233 248.924C88.1316 248.725 87.0519 248.445 85.9391 248.231C84.8342 247.991 83.7145 247.766 82.5823 247.546C81.4501 247.326 80.3064 247.128 79.1502 246.861C77.994 246.594 76.8275 246.313 75.6154 245.866Z" fill="#390075"/>
<path d="M38.8743 307.041C42.1469 306.332 44.0628 302.354 43.1537 298.156C42.2445 293.959 38.8545 291.13 35.5819 291.839C32.3093 292.548 30.3934 296.525 31.3026 300.723C32.2117 304.921 35.6017 307.75 38.8743 307.041Z" fill="#FF6C6C"/>
<path d="M42.9983 291.917C44.8477 291.61 46.0573 289.615 45.7001 287.462C45.3428 285.308 43.5539 283.811 41.7045 284.118C39.8551 284.425 38.6455 286.42 39.0028 288.573C39.36 290.727 41.1489 292.224 42.9983 291.917Z" fill="#FF6C6C"/>
<path d="M34.0472 288.558C36.0923 288.356 37.5603 286.267 37.3261 283.891C37.0919 281.516 35.2442 279.753 33.1991 279.955C31.1541 280.156 29.6861 282.246 29.9203 284.621C30.1545 286.997 32.0022 288.759 34.0472 288.558Z" fill="#FF6C6C"/>
<path d="M28.5105 293.222C29.9072 292.99 30.8291 291.535 30.5696 289.971C30.3101 288.407 28.9675 287.327 27.5709 287.558C26.1742 287.79 25.2523 289.246 25.5117 290.81C25.7712 292.374 27.1138 293.454 28.5105 293.222Z" fill="#FF6C6C"/>
<path d="M228.098 300.39C229.226 296.245 227.521 292.173 224.291 291.293C221.06 290.413 217.526 293.06 216.398 297.204C215.269 301.349 216.974 305.422 220.204 306.301C223.435 307.181 226.969 304.534 228.098 300.39Z" fill="#FF6C6C"/>
<path d="M220.464 287.803C220.934 285.671 219.83 283.616 217.999 283.213C216.168 282.809 214.304 284.211 213.834 286.343C213.365 288.474 214.468 290.529 216.299 290.933C218.13 291.336 219.995 289.935 220.464 287.803Z" fill="#FF6C6C"/>
<path d="M229.724 284.314C230.083 281.954 228.726 279.791 226.694 279.482C224.663 279.174 222.725 280.837 222.367 283.197C222.009 285.558 223.365 287.721 225.397 288.029C227.429 288.338 229.366 286.674 229.724 284.314Z" fill="#FF6C6C"/>
<path d="M233.821 290.74C234.162 289.192 233.318 287.69 231.935 287.385C230.552 287.081 229.155 288.089 228.814 289.637C228.473 291.185 229.318 292.687 230.7 292.992C232.083 293.296 233.48 292.288 233.821 290.74Z" fill="#FF6C6C"/>
</g>
<defs>
<clipPath id="clip0_10_9522">
<rect width="250" height="326.401" fill="white"/>
</clipPath>
</defs>
</svg>
