<svg width="250" height="241" viewBox="0 0 250 241" fill="none" xmlns="http://www.w3.org/2000/svg">
<g clip-path="url(#clip0_6_2023)">
<path d="M183.323 173.63C184.124 174.672 213.752 204.761 205.062 220.335C198.878 231.417 161.54 227.801 161.54 227.801L156.415 194.986L183.323 173.63Z" fill="#F9A528"/>
<path d="M174.971 230.252C168.263 230.252 162.79 229.769 161.363 229.631L159.943 229.493L154.434 194.213L183.644 171.03L184.767 172.492C184.851 172.592 185.049 172.807 185.341 173.121C196.544 185.287 214.211 207.711 206.667 221.233C202.469 228.753 186.795 230.252 174.971 230.252ZM163.134 226.097C174.102 226.99 199.068 227.304 203.458 219.439C208.101 211.121 200.691 195.359 183.123 176.139L158.397 195.758L163.134 226.097Z" fill="#42210B"/>
<path d="M28.627 143.924L26.4614 145.213C26.5757 145.517 26.6878 145.806 26.8157 146.095C26.9205 146.35 27.0358 146.619 27.1448 146.865C27.1587 146.913 27.1773 146.959 27.2004 147.002C27.3569 147.367 27.519 147.724 27.6867 148.072L33.3742 144.694L28.627 143.924Z" fill="#F9A528"/>
<path d="M20.1 136.563C21.0287 141.952 22.2938 146.604 23.7896 150.614C23.8944 150.917 24.0129 151.224 24.1313 151.524C24.3514 152.097 24.5631 152.636 24.7896 153.14C25.0631 153.799 25.3325 154.42 25.6281 155.019C25.7413 155.27 25.8608 155.527 25.9782 155.772C25.9979 155.818 26.021 155.863 26.0474 155.906C26.2119 156.262 26.3912 156.61 26.5715 156.948L35.3028 151.287L36.2462 150.671L41.3823 151.288C40.7471 150.385 40.1392 149.452 39.5679 148.506L50.1357 141.627L61.8219 134.02C48.946 124.802 44.9734 105.223 44.1495 94.4507C44.0863 93.6688 43.8254 92.9158 43.3914 92.2624C42.9574 91.609 42.3645 91.0765 41.6684 90.715C40.9722 90.3535 40.1956 90.1748 39.4114 90.1957C38.6273 90.2166 37.8613 90.4364 37.1854 90.8345C36.2682 91.3537 35.3789 91.9205 34.5209 92.5325C34.1268 92.8008 33.7379 93.0891 33.3427 93.4025C32.9476 93.7159 32.5577 94.0209 32.1499 94.3522C30.8125 95.4676 29.5613 96.6824 28.4068 97.9862C28.0431 98.4055 27.6731 98.8363 27.3178 99.2902C27.083 99.5774 26.8492 99.8646 26.627 100.176C26.3639 100.508 26.1166 100.859 25.8713 101.224C25.6554 101.539 25.4248 101.864 25.2109 102.192C20.4459 109.581 17.3538 120.534 20.1 136.563Z" fill="#F9A528"/>
<g opacity="0.5">
<path opacity="0.5" d="M40.3089 149.689C40.0563 149.296 39.8047 148.901 39.5636 148.501L40.7407 147.735C40.616 147.533 40.4839 147.334 40.3623 147.129L61.2212 133.565C48.8285 124.174 44.9618 105.054 44.1515 94.4528C44.0888 93.6704 43.8282 92.9168 43.3942 92.2629C42.9602 91.6089 42.3671 91.076 41.6706 90.7142C40.9741 90.3524 40.197 90.1736 39.4124 90.1947C38.6278 90.2157 37.8614 90.4359 37.1853 90.8345C36.4903 91.2286 35.7692 91.673 35.0313 92.1793C36.5522 92.4371 39.4095 92.0441 39.4923 93.1887C40.3204 103.964 40.8361 125.543 53.712 134.765L31.4559 149.24C31.98 150.124 32.5481 150.996 33.133 151.836L37.0406 149.296L40.3089 149.689Z" fill="white"/>
</g>
<path d="M24.1323 151.524C24.342 152.095 24.5652 152.634 24.7927 153.136C25.06 153.795 25.3335 154.416 25.6249 155.015C25.7298 155.268 25.8576 155.524 25.9761 155.767C25.9936 155.815 26.0168 155.861 26.0453 155.904C26.2109 156.264 26.3859 156.609 26.5693 156.952L35.2986 151.281C31.414 142.692 27.7622 131.464 28.3575 123.652C29.9822 102.365 38.984 93.3868 40.7932 90.367C40.1918 90.1974 39.5623 90.1513 38.9426 90.2315C38.3229 90.3117 37.7259 90.5164 37.1874 90.8335C36.2708 91.3548 35.3818 91.9234 34.524 92.5368C34.1288 92.8051 33.7368 93.0923 33.3458 93.4068C32.9549 93.7212 32.5587 94.0273 32.1509 94.3564C30.3761 95.8323 28.7573 97.4862 27.3198 99.2923C27.0819 99.5785 26.8513 99.8667 26.628 100.176C26.3681 100.509 26.1176 100.858 25.8713 101.224C25.6532 101.539 25.4268 101.868 25.213 102.198C20.449 109.584 17.3516 120.541 20.101 136.564C21.0328 141.955 22.2917 146.608 23.7896 150.62C23.8944 150.919 24.0128 151.226 24.1323 151.524Z" fill="white"/>
<path d="M26.5683 158.79C26.2364 158.79 25.9106 158.7 25.6257 158.53C25.3407 158.359 25.1072 158.115 24.9499 157.823C24.7627 157.473 24.5813 157.115 24.4059 156.747C24.3646 156.671 24.3275 156.592 24.2948 156.512C24.1774 156.27 24.0569 156.017 23.9458 155.768C23.6565 155.169 23.3735 154.532 23.1009 153.864C22.884 153.377 22.6586 152.826 22.4144 152.179C22.298 151.898 22.1702 151.56 22.0528 151.229C20.4606 146.951 19.1923 142.109 18.2919 136.869C15.8266 122.542 17.6357 110.538 23.668 101.192C23.8923 100.845 24.1261 100.504 24.3546 100.174C24.6187 99.787 24.8934 99.4076 25.168 99.0512C25.3923 98.7451 25.6438 98.4223 25.9132 98.1078C27.4186 96.2177 29.114 94.4872 30.9728 92.9434C31.3921 92.586 31.8197 92.2464 32.2306 91.9445C32.6352 91.6301 33.0493 91.3208 33.4884 91.019C34.4088 90.3649 35.3563 89.7611 36.2745 89.2371C37.2205 88.6854 38.291 88.3829 39.3858 88.358C40.4806 88.3331 41.5638 88.5865 42.5339 89.0945C43.504 89.6026 44.3293 90.3486 44.9323 91.2627C45.5353 92.1768 45.8964 93.229 45.9817 94.3207C46.4796 100.797 49.1724 122.702 62.8952 132.531C63.1393 132.705 63.337 132.936 63.4713 133.205C63.6056 133.473 63.6723 133.769 63.6655 134.069C63.6588 134.369 63.5789 134.662 63.4328 134.924C63.2866 135.186 63.0787 135.408 62.8271 135.571L27.5715 158.501C27.272 158.692 26.9236 158.793 26.5683 158.79ZM39.5323 92.021C39.0309 92.0231 38.5392 92.1588 38.1078 92.4141C37.2808 92.8858 36.437 93.4266 35.5921 94.0293C35.1855 94.3082 34.8333 94.566 34.4884 94.8385L34.4444 94.8731C34.0953 95.132 33.7243 95.4276 33.3417 95.7526C31.6598 97.1489 30.1266 98.7152 28.7664 100.426C28.518 100.724 28.3136 100.984 28.1102 101.265C27.8534 101.599 27.6197 101.922 27.3901 102.258C27.1805 102.564 26.9708 102.873 26.7612 103.188C21.2446 111.736 19.6157 122.86 21.9186 136.249C22.7802 141.265 23.9898 145.882 25.5118 149.973C25.6166 150.276 25.7214 150.558 25.8378 150.831C26.0799 151.469 26.2811 151.962 26.473 152.388C26.4813 152.408 26.4897 152.427 26.4971 152.447C26.7455 153.055 27.0023 153.635 27.2832 154.22C27.2926 154.24 27.3021 154.26 27.3105 154.28L38.5596 146.959L58.671 133.882C45.4639 122.562 42.8194 101.148 42.3194 94.5975C42.2894 94.1293 42.1384 93.677 41.8812 93.2847C41.624 92.8924 41.2693 92.5737 40.8519 92.3596C40.4457 92.1428 39.9927 92.0284 39.5323 92.0263V92.021Z" fill="#42210B"/>
<g opacity="0.3">
<path opacity="0.3" d="M20.0999 136.563C21.0286 141.952 22.2938 146.604 23.7895 150.615C23.8943 150.917 24.0128 151.225 24.1312 151.524C24.3514 152.097 24.5631 152.636 24.7895 153.14C25.0631 153.799 25.3324 154.42 25.628 155.019C25.7412 155.271 25.8607 155.527 25.9781 155.772C25.9978 155.818 26.0209 155.863 26.0473 155.906C26.2119 156.262 26.3911 156.61 26.5714 156.948L35.3028 151.287L36.2461 150.671L41.3822 151.289C40.747 150.385 40.1391 149.452 39.5678 148.506L50.1356 141.627C40.9682 135.129 22.6575 119.102 28.411 97.9905C28.0472 98.4098 27.6772 98.8405 27.3219 99.2944C27.0871 99.5816 26.8534 99.8688 26.6311 100.18C26.3681 100.512 26.1207 100.864 25.8754 101.228C25.6595 101.543 25.4289 101.869 25.215 102.196C20.4458 109.581 17.3537 120.534 20.0999 136.563Z" fill="#42210B"/>
</g>
<path d="M102.039 135.36C102.039 135.36 95.6089 105.763 65.8416 112.728C21.666 123.065 -27.0819 196.897 23.0674 222.634C47.2007 235.021 163.997 237.038 172.556 218.66C180.586 201.418 183.674 166.933 183.674 166.933L102.039 135.36Z" fill="#F9A528"/>
<path d="M183.676 166.933C183.676 166.933 183.179 172.482 182.062 180.244C180.405 191.829 177.364 208.336 172.558 218.665C163.999 237.038 47.1955 235.016 23.0695 222.639C-27.084 196.896 21.667 123.062 65.8427 112.731C85.9583 108.024 95.4182 120.017 99.4317 128.286C101.366 132.256 102.04 135.364 102.04 135.364L183.676 166.933Z" fill="#F9A528"/>
<g opacity="0.3">
<path opacity="0.3" d="M104.371 224.599L102.246 232.19C69.3802 232.328 34.9642 228.742 23.0694 222.637C5.93058 213.841 0.341663 199.433 2.17179 183.854C3.62352 195.144 9.97342 205.145 23.0694 211.865C26.1343 213.437 47.5581 220.292 57.9739 212.057C65.7305 205.923 78.4585 187.756 89.5022 185.045C80.8935 203.143 84.735 219.687 93.7379 222.417C97.0805 223.43 100.657 224.147 104.371 224.599Z" fill="#42210B"/>
</g>
<g opacity="0.5">
<path opacity="0.5" d="M183.676 166.933C183.676 166.933 183.421 169.771 182.869 174.228L102.586 143.177C102.586 143.177 95.7725 111.836 64.2589 119.215C42.9577 124.198 20.6545 143.123 7.6958 164.832C18.5529 140.751 42.8204 118.118 65.8427 112.731C95.6111 105.765 102.04 135.364 102.04 135.364L183.676 166.933Z" fill="white"/>
</g>
<path d="M183.676 166.933C183.676 166.933 180.586 201.418 172.558 218.665C169.823 224.534 156.044 228.32 137.764 230.357C138.093 228.931 139.269 227.332 141.483 225.546C161.632 209.293 121.171 188.912 123.95 158.672C124.383 153.955 125.608 149.438 127.379 145.168L183.676 166.933Z" fill="white"/>
<g opacity="0.3">
<path opacity="0.3" d="M183.676 166.933C183.676 166.933 183.179 172.482 182.062 180.244C166.596 182.984 142.29 184.671 117.18 176.107C101.595 170.794 89.9268 158.183 89.9268 158.183L92.7569 127.206L99.4317 128.289C101.366 132.259 102.04 135.368 102.04 135.368L183.676 166.933Z" fill="#42210B"/>
</g>
<path d="M100.825 234.04C96.8416 234.04 92.7726 233.986 88.6176 233.877C64.3238 233.237 34.1257 230.377 22.2278 224.269C1.33647 213.547 -1.18441 196.11 0.379482 183.369C2.17187 168.775 10.4756 152.329 23.1628 138.247C35.8018 124.219 51.2037 114.266 65.4234 110.939C74.7522 108.756 82.8599 109.786 89.5379 114.009C99.0942 120.048 102.676 130.693 103.584 133.988L185.627 165.714L185.503 167.093C185.376 168.514 182.293 202.102 174.221 219.437C172.753 222.582 168.991 225.159 162.714 227.311C150.146 231.622 127.537 234.04 100.825 234.04ZM74.4797 113.508C71.8858 113.508 69.1476 113.845 66.2651 114.518C37.8342 121.171 7.59097 154.849 4.03344 183.818C2.61211 195.396 4.90659 211.246 23.9112 220.999C43.5227 231.062 130.464 234.488 161.528 223.834C168.016 221.609 170.203 219.371 170.896 217.885C177.802 203.055 181.04 174.7 181.714 168.139L100.457 136.718L100.247 135.751C100.196 135.522 97.3699 123.285 87.5537 117.101C83.7509 114.708 79.3736 113.508 74.4797 113.508Z" fill="#42210B"/>
<path d="M153.827 53.8169C153.827 53.8169 171.321 18.9354 201.385 9.18105C220.542 2.96847 228.556 67.4715 200.21 88.518" fill="#F89B29"/>
<g opacity="0.3">
<path opacity="0.3" d="M203.635 84.1021C222.28 67.3961 220.72 30.6143 211.641 13.4545C211.055 12.3476 209.374 13.0719 209.776 14.2574C216.128 32.9759 215.45 63.4707 198.949 78.25L203.635 84.1021Z" fill="#42210B"/>
</g>
<g opacity="0.5">
<path opacity="0.5" d="M210.092 12.1621C209.683 11.5681 209.238 11 208.759 10.4609C206.571 8.84147 204.09 8.30899 201.385 9.18527C173.831 18.121 156.838 48.1641 154.189 53.1178C155.526 53.4645 156.94 53.3771 158.224 52.8685C159.509 52.3598 160.599 51.456 161.336 50.2877C167.993 39.7094 183.228 19.274 205.124 12.1726C206.882 11.6013 208.542 11.6244 210.092 12.1621Z" fill="white"/>
</g>
<path d="M200.211 90.3607C199.825 90.3609 199.448 90.2392 199.134 90.0129C198.821 89.7866 198.587 89.4672 198.465 89.1001C198.343 88.733 198.341 88.3369 198.457 87.9682C198.574 87.5995 198.804 87.2769 199.114 87.0463C219.822 71.6716 219.81 32.6792 211.936 17.4092C209.978 13.6127 206.656 9.40845 201.952 10.9336C172.988 20.3274 155.638 54.3 155.467 54.6428C155.243 55.0701 154.861 55.3925 154.402 55.5404C153.943 55.6884 153.444 55.6502 153.013 55.4339C152.582 55.2176 152.253 54.8407 152.097 54.3843C151.942 53.9279 151.972 53.4286 152.18 52.994C152.909 51.5423 170.373 17.3118 200.816 7.43787C206.403 5.62451 211.508 8.56991 215.201 15.7259C219.813 24.6679 221.638 39.3949 219.851 53.2445C217.735 69.636 211.151 82.6901 201.304 89.9991C200.988 90.2337 200.605 90.3605 200.211 90.3607Z" fill="#42210B"/>
<path d="M193.553 72.7985C191.247 67.806 184.184 62.0818 178.239 57.9143C172.874 54.1481 171.871 46.6222 175.992 41.5238C183.247 32.5524 192.141 26.2465 198.178 22.601C201.754 20.4407 206.379 22.5894 207.057 26.713C208.105 33.1069 208.629 42.8823 205.493 54.1146C202.1 66.2651 194.241 72.6276 194.241 72.6276" fill="#FF6C6C"/>
<path d="M205.49 54.1093C202.097 66.2578 194.241 72.6202 194.241 72.6202L193.555 72.7995C192.27 70.0176 189.507 67.0093 186.282 64.1593C183.721 61.9057 180.867 59.7569 178.24 57.9111C172.874 54.145 171.872 46.619 175.989 41.5165C180.106 36.4139 184.766 32.1782 189.126 28.7989C192.023 26.5614 195.045 24.4903 198.178 22.5957C201.754 20.4365 206.377 22.5831 207.054 26.7056C208.106 33.1016 208.628 42.877 205.49 54.1093Z" fill="#FF8080"/>
<g opacity="0.3">
<path opacity="0.3" d="M188.379 58.3807C187.828 60.3572 187.127 62.289 186.283 64.1593C183.722 61.9057 180.868 59.7569 178.241 57.9111C172.875 54.1449 171.873 46.619 175.99 41.5164C180.107 36.4139 184.767 32.1782 189.127 28.7988C189.545 29.4642 189.824 30.2072 189.949 30.9832C190.997 37.3772 191.518 47.1483 188.379 58.3807Z" fill="#42210B"/>
</g>
<path d="M192.669 73.2072C192.04 71.9704 191.165 70.8163 190.218 69.7262C189.257 68.627 188.23 67.5867 187.144 66.611C184.97 64.63 182.62 62.8103 180.2 61.0871C179.595 60.6538 178.987 60.2265 178.374 59.8052L176.494 58.5358C175.034 57.5219 173.847 56.1621 173.04 54.5779C172.235 52.9771 171.836 51.2029 171.878 49.4115C171.921 47.6202 172.403 45.8667 173.282 44.3057C173.394 44.1118 173.505 43.9179 173.629 43.7323L173.811 43.4546L173.977 43.2177L174.644 42.2743C175.086 41.6454 175.564 41.0333 176.026 40.4138C176.98 39.1989 177.947 37.9925 178.973 36.8374C181.003 34.5078 183.177 32.3076 185.482 30.2496C187.79 28.1963 190.216 26.2801 192.748 24.5108C194.016 23.6261 195.312 22.7806 196.636 21.9742C197.298 21.5717 197.972 21.187 198.657 20.8117C199.341 20.4365 200.012 20.0853 200.791 19.7195L200.842 19.6954C201.16 19.5461 201.517 19.5056 201.86 19.5801L202.03 19.6168L202.135 19.644C202.201 19.6629 202.274 19.6828 202.324 19.7017C202.429 19.7405 202.552 19.7782 202.651 19.8212C202.848 19.9012 203.039 19.9918 203.226 20.0927C203.406 20.1846 203.581 20.2868 203.75 20.3987C203.916 20.5012 204.076 20.6132 204.229 20.7341C204.529 20.9622 204.817 21.2072 205.09 21.4679C205.338 21.7341 205.607 21.992 205.823 22.2729C206.736 23.3829 207.395 24.5915 207.927 25.8147C208.423 27.0219 208.813 28.2701 209.091 29.5452C209.25 30.1828 209.37 30.8293 209.451 31.4812C209.537 32.1248 209.594 32.761 209.633 33.3931C209.922 38.4348 209.361 43.3508 208.376 48.1808C207.876 50.5957 207.223 52.9764 206.421 55.3085C205.628 57.6497 204.653 59.9252 203.505 62.1143C202.352 64.2998 200.998 66.3982 199.396 68.2986C197.811 70.2116 195.949 71.8767 193.872 73.2387C193.756 73.3164 193.614 73.3459 193.477 73.321C193.339 73.2962 193.217 73.2189 193.135 73.1055C193.053 72.9921 193.019 72.8514 193.039 72.7132C193.059 72.5749 193.132 72.4499 193.243 72.3645H193.248C196.961 69.439 199.642 65.4465 201.577 61.1751C203.521 56.8902 204.765 52.2991 205.56 47.6536C205.954 45.3291 206.219 42.9846 206.354 40.6308C206.488 38.2881 206.517 35.9328 206.314 33.6478C206.209 32.4948 206.069 31.412 205.765 30.3544L205.545 29.5399C205.469 29.2695 205.371 29.0158 205.286 28.7475C205.122 28.2129 204.9 27.7203 204.703 27.2119C204.258 26.2329 203.728 25.3178 203.095 24.5726C202.943 24.3776 202.766 24.2256 202.605 24.0485C202.438 23.8961 202.263 23.7527 202.081 23.6187C201.915 23.496 201.74 23.3863 201.557 23.2907C201.478 23.2486 201.397 23.2112 201.314 23.1785C201.275 23.1617 201.249 23.1575 201.216 23.145C201.208 23.1411 201.199 23.1382 201.189 23.1366H201.181L201.242 23.1481L202.31 23.0087C201.728 23.2928 201.052 23.6544 200.433 24.0076C199.815 24.3609 199.176 24.7413 198.547 25.1208C197.295 25.8839 196.066 26.6875 194.86 27.5316C192.449 29.2208 190.139 31.0499 187.942 33.0094C185.737 34.9596 183.646 37.0357 181.68 39.2272C180.69 40.3163 179.758 41.4557 178.836 42.6013C178.388 43.1841 177.934 43.7627 177.496 44.3539L176.841 45.2417L176.677 45.4629L176.545 45.6557C176.455 45.7805 176.378 45.9126 176.298 46.0436C175.025 48.1399 174.896 50.8956 175.975 53.1419C176.504 54.2781 177.307 55.2653 178.312 56.0149L180.135 57.3419C180.75 57.7968 181.361 58.2577 181.967 58.7245C184.377 60.6112 186.725 62.5933 188.901 64.7935C191.048 67.0093 193.13 69.3981 194.442 72.3928C194.497 72.5082 194.529 72.6333 194.536 72.7611C194.542 72.8888 194.524 73.0165 194.481 73.1371C194.438 73.2576 194.372 73.3686 194.287 73.4636C194.201 73.5587 194.098 73.6359 193.982 73.691C193.867 73.746 193.742 73.7778 193.614 73.7845C193.486 73.7912 193.359 73.7727 193.238 73.73C193.118 73.6873 193.007 73.6213 192.912 73.5358C192.817 73.4502 192.739 73.3468 192.684 73.2314L192.669 73.2072Z" fill="#42210B"/>
<path d="M221.408 150.581C220.64 151.876 219.806 153.131 218.908 154.34C218.01 155.545 217 156.663 215.893 157.679C215.888 157.679 215.888 157.684 215.877 157.69C209.576 163.519 199.718 167.042 189.476 169.157C189.468 169.155 189.46 169.155 189.453 169.156C189.445 169.158 189.438 169.161 189.432 169.166C183.247 170.436 176.911 171.198 171.122 171.631C171.112 171.641 171.112 171.641 171.107 171.641C158.327 172.615 148.217 172.045 148.217 172.045L127.866 170.131L113.472 168.78L105.401 168.023C104.451 167.526 103.532 167.019 102.636 166.512C98.5333 164.191 95.0062 161.809 91.9759 159.423L86.0096 162.346C85.1378 162.538 84.2338 162.529 83.3657 162.321C82.4977 162.112 81.6884 161.709 80.9991 161.142C80.3097 160.575 79.7582 159.858 79.3864 159.047C79.0146 158.235 78.832 157.35 78.8526 156.457L78.9858 150.849V150.839L79.1084 145.571L79.143 144.095L78.2866 144.212L70.5636 145.3C66.2346 145.9 62.7809 141.753 64.1582 137.601L76.0435 102.442V102.409C77.5046 96.0696 79.7088 89.9253 82.6104 84.1031C97.1864 55.0297 124.164 46.2637 124.164 46.2637C156.371 34.5702 185.739 49.1116 197.299 60.1804C221.971 83.8075 214.685 121.997 214.685 121.997C215.669 122.479 219.914 124.978 222.694 129.563C225.579 134.305 226.877 141.271 221.408 150.581Z" fill="#F89B29"/>
<g opacity="0.5">
<path opacity="0.5" d="M198.689 66.0868C206.999 74.0404 211.678 83.6502 214.233 92.8962C212.151 81.9637 207.408 69.855 197.311 60.1856C185.751 49.1167 156.383 34.5753 124.175 46.2688C124.175 46.2688 100.045 54.1092 85.0967 79.557C85.2833 81.8264 89.2171 80.0392 95.7609 72.7858C109.722 57.3125 125.554 52.1743 125.554 52.1743C157.767 40.4713 187.129 55.0212 198.689 66.0868Z" fill="white"/>
</g>
<path d="M221.358 150.623C219.971 152.881 218.171 155.242 215.893 157.681L215.888 157.687C215.888 157.692 215.888 157.692 215.888 157.697C213.557 160.185 210.447 162.006 206.999 163.55C206.984 163.555 206.969 163.566 206.954 163.57C204.278 164.766 201.399 165.794 198.513 166.847L198.444 166.871C193.505 168.666 188.153 170.049 182.648 171.063C171.889 173.055 160.561 173.656 150.678 173.277C147.19 173.149 143.885 172.894 140.844 172.544C135.355 171.894 130.834 171.033 127.872 170.138C127.843 170.129 127.813 170.123 127.789 170.114C115.63 166.399 107.777 158.828 104.948 151.882C104.635 151.124 104.376 150.345 104.176 149.551C103.596 147.233 103.615 145.054 104.265 143.185C109.951 126.912 123.342 135.108 145.085 136.145C166.829 137.183 173.569 125.485 172.919 99.9044C172.269 74.3235 161.983 62.7736 160.178 58.779C158.373 54.7844 166.175 52.3389 177.288 65.9611C188.4 79.5833 186.285 104.337 186.285 104.337C186.309 116.915 188.656 128.107 200.069 125.406C211.481 122.705 217.96 125.356 217.96 125.356C217.96 125.356 221.374 128.027 223.706 132.184C226.039 136.341 226.13 142.86 221.358 150.623Z" fill="white"/>
<g opacity="0.3">
<path opacity="0.3" d="M221.408 150.581C220.64 151.876 219.806 153.131 218.908 154.34C218.01 155.545 217 156.663 215.893 157.679L215.888 157.684C215.888 157.684 215.888 157.684 215.878 157.69C213.399 159.982 210.373 161.915 206.994 163.548C206.978 163.553 206.964 163.564 206.949 163.568C204.219 164.864 201.398 165.959 198.508 166.845C195.591 167.76 192.55 168.522 189.476 169.157C189.468 169.155 189.46 169.155 189.453 169.156C189.445 169.158 189.438 169.161 189.432 169.166C187.144 169.634 184.882 170.342 182.643 171.06C171.884 173.052 160.555 173.652 150.673 173.274C149.835 172.906 149.015 172.495 148.218 172.045L127.867 170.131L113.472 168.779L105.401 168.023C104.451 167.526 103.532 167.019 102.636 166.512C98.5333 164.191 95.0062 161.809 91.9759 159.423L86.0096 162.346C85.1378 162.538 84.2338 162.529 83.3657 162.321C82.4977 162.112 81.6884 161.709 80.9991 161.142C80.3097 160.575 79.7583 159.858 79.3864 159.047C79.0146 158.235 78.832 157.35 78.8526 156.457L78.9858 150.849V150.839L79.1084 145.571L79.143 144.095L78.2866 144.212L70.5636 145.3C66.2346 145.9 62.7809 141.753 64.1582 137.601L76.0435 102.442V102.409C77.5046 96.0695 79.7088 89.9252 82.6104 84.103C82.6104 84.103 66.5239 135.579 74.9754 136.259C83.4269 136.938 86.0862 135.432 86.0862 135.432C86.0862 135.432 81.9196 152.216 86.8985 152.678C91.8774 153.141 99.2849 147.007 99.2849 147.007C99.2849 147.007 100.77 149.083 104.927 151.876C111.382 156.231 124.295 162.335 148.1 165.124C175.5 168.332 206.93 162.788 221.349 150.623C221.37 150.611 221.389 150.597 221.408 150.581Z" fill="#42210B"/>
</g>
<path d="M176.701 130.846C176.797 132.868 180.107 135.546 183.409 137.729C185.362 139.006 187.668 139.633 189.999 139.521C192.329 139.409 194.565 138.564 196.387 137.107C199.468 134.616 202.506 131.633 202.408 129.611C202.213 125.541 196.396 124.545 189.296 124.886C182.195 125.226 176.505 126.776 176.701 130.846Z" fill="#42210B"/>
<g opacity="0.54">
<path opacity="0.54" d="M186.629 128.731C186.651 129.2 187.957 129.797 189.265 130.279C190.837 130.856 192.968 130.754 194.476 130.028C195.734 129.423 196.975 128.705 196.951 128.235C196.906 127.291 194.582 127.105 191.731 127.242C188.879 127.379 186.583 127.785 186.629 128.731Z" fill="white"/>
</g>
<path d="M150.54 90.6262C154.498 89.1148 157.054 86.1783 156.248 84.0676C155.442 81.9568 151.58 81.471 147.621 82.9825C143.663 84.4939 141.108 87.4303 141.914 89.5411C142.72 91.6519 146.582 92.1377 150.54 90.6262Z" fill="white"/>
<path d="M205.653 87.8592C206.348 85.7091 203.642 82.9105 199.61 81.6083C195.578 80.306 191.747 80.9933 191.053 83.1433C190.358 85.2934 193.064 88.0921 197.095 89.3943C201.127 90.6966 204.959 90.0093 205.653 87.8592Z" fill="white"/>
<path d="M138.86 118.863C138.59 117.316 138.605 115.843 138.787 114.306C138.984 112.732 139.461 111.206 140.195 109.799C140.579 109.058 141.059 108.37 141.623 107.754C142.193 107.115 142.844 106.555 143.56 106.087C145 105.137 146.662 104.635 148.277 104.438C149.968 104.238 151.846 104.511 153.413 105.37C154.908 106.2 156.157 107.408 157.038 108.874C157.898 110.248 158.439 111.729 158.784 113.223C159.098 114.724 159.251 116.247 159.058 117.793C159.03 118.013 158.923 118.216 158.758 118.365C158.593 118.513 158.38 118.597 158.157 118.602C157.935 118.606 157.719 118.53 157.548 118.388C157.377 118.246 157.263 118.048 157.226 117.828L157.219 117.785C156.8 115.224 155.798 112.649 154.34 110.715C153.592 109.772 152.745 108.983 151.787 108.552C150.821 108.109 149.748 107.949 148.694 108.09C148.116 108.155 147.545 108.276 146.99 108.451C146.452 108.611 145.935 108.837 145.451 109.122C144.478 109.662 143.685 110.485 143.008 111.464C141.688 113.443 140.984 116.13 140.689 118.73L140.681 118.803C140.657 119.024 140.553 119.229 140.39 119.38C140.227 119.531 140.014 119.618 139.792 119.624C139.57 119.631 139.353 119.557 139.18 119.417C139.008 119.276 138.893 119.078 138.855 118.859L138.86 118.863Z" fill="#42210B"/>
<path d="M207.581 116.044C207.305 113.813 206.689 111.495 205.564 109.826C204.991 108.998 204.32 108.318 203.513 107.862C202.674 107.393 201.75 107.098 200.794 106.995C199.927 106.881 199.044 107.011 198.246 107.368C197.454 107.706 196.738 108.346 196.093 109.137C194.835 110.745 193.923 112.93 193.473 115.119L193.462 115.173C193.417 115.387 193.299 115.579 193.127 115.714C192.955 115.849 192.741 115.919 192.523 115.911C192.304 115.904 192.095 115.819 191.933 115.673C191.771 115.527 191.665 115.328 191.635 115.111C191.447 113.749 191.574 112.412 191.845 111.088C192.137 109.731 192.659 108.433 193.389 107.251C194.18 105.949 195.301 104.879 196.638 104.148C198.051 103.4 199.736 103.154 201.25 103.352C202.682 103.537 204.159 104.001 205.427 104.866C206.679 105.707 207.695 106.855 208.377 108.201C209.008 109.446 209.408 110.796 209.559 112.184C209.633 112.848 209.66 113.516 209.64 114.184C209.623 114.855 209.55 115.524 209.421 116.183C209.378 116.398 209.26 116.592 209.088 116.728C208.916 116.865 208.701 116.936 208.481 116.928C208.261 116.92 208.052 116.834 207.89 116.685C207.728 116.536 207.624 116.335 207.598 116.117L207.581 116.044Z" fill="#42210B"/>
<path d="M155.432 174.627C116.544 174.627 97.0901 164.781 93.2925 162.62L86.4101 164.138C85.2665 164.391 84.0804 164.38 82.9416 164.106C81.8027 163.833 80.7409 163.305 79.8364 162.561C78.9318 161.817 78.2082 160.877 77.7202 159.812C77.2322 158.748 76.9926 157.586 77.0195 156.415L77.2553 146.216L70.8184 147.116C69.5165 147.298 68.1898 147.145 66.9636 146.671C65.7374 146.197 64.6523 145.418 63.811 144.408C62.9697 143.398 62.3999 142.19 62.1557 140.899C61.9114 139.607 62.0007 138.274 62.4151 137.027L74.9105 99.4065L80.2447 84.7875C94.6918 54.4111 122.017 45.0498 123.582 44.5372C138.108 39.268 153.806 38.7083 168.983 42.923C180.408 46.0959 191.475 52.0538 198.583 58.8554C208.995 68.8236 215.366 83.1858 217.007 100.389C217.993 110.712 217.029 119.075 216.563 122.228C219.435 123.889 224.866 127.839 226.513 134.64C228.027 140.891 225.966 147.888 220.389 155.434C210.977 168.166 187.806 172.318 170.026 173.559C169.539 173.593 169.059 173.432 168.691 173.112C168.323 172.792 168.097 172.339 168.064 171.853C168.03 171.366 168.19 170.886 168.51 170.518C168.83 170.15 169.284 169.924 169.77 169.89C186.779 168.704 208.855 164.853 217.432 153.247C222.332 146.618 224.185 140.648 222.94 135.505C221.389 129.099 215.498 125.746 213.723 124.871L212.474 124.254L212.731 122.883C212.803 122.498 219.689 84.1502 196.042 61.5094C184.054 50.0318 155.191 36.961 124.809 47.9973L124.748 48.0172C124.479 48.1053 97.4695 57.2119 83.6021 86.2832L78.3853 100.611L65.9119 138.182C65.6949 138.836 65.6481 139.534 65.776 140.211C65.904 140.888 66.2024 141.521 66.643 142.05C67.0837 142.579 67.652 142.988 68.2944 143.236C68.9368 143.485 69.632 143.566 70.3142 143.471L81.0361 141.972L80.7007 156.495C80.6863 157.109 80.8118 157.718 81.0678 158.277C81.3237 158.836 81.7034 159.329 82.178 159.719C82.6527 160.109 83.2099 160.386 83.8074 160.529C84.405 160.673 85.0272 160.678 85.6271 160.545L93.9581 158.706L94.5985 159.112C94.7841 159.229 113.885 170.946 155.441 170.946C155.929 170.946 156.397 171.14 156.741 171.484C157.086 171.829 157.28 172.297 157.28 172.785C157.28 173.272 157.086 173.74 156.741 174.085C156.397 174.429 155.929 174.623 155.441 174.623L155.432 174.627Z" fill="#42210B"/>
<path d="M213.775 93.1488C213.353 93.148 212.945 93.0026 212.618 92.7368C212.291 92.4711 212.065 92.1011 211.978 91.6887C210.16 83.0548 206.968 75.4419 202.492 69.0595C202.354 68.8619 202.255 68.6389 202.203 68.4033C202.15 68.1677 202.145 67.9241 202.186 67.6864C202.228 67.4487 202.316 67.2215 202.446 67.0178C202.575 66.8141 202.744 66.6379 202.941 66.4993C203.139 66.3607 203.362 66.2624 203.597 66.2099C203.833 66.1575 204.077 66.152 204.314 66.1937C204.552 66.2354 204.779 66.3235 204.983 66.453C205.187 66.5825 205.363 66.7509 205.501 66.9485C210.264 73.7396 213.653 81.8086 215.576 90.9309C215.676 91.4079 215.583 91.9054 215.317 92.3138C215.051 92.7223 214.633 93.0083 214.156 93.109C214.031 93.1351 213.903 93.1484 213.775 93.1488Z" fill="#42210B"/>
<path d="M215.387 105.14C214.92 105.139 214.471 104.961 214.131 104.642C213.79 104.322 213.585 103.885 213.555 103.419C212.916 93.4466 210.694 84.4469 206.951 76.6767C206.739 76.2376 206.711 75.7324 206.872 75.2722C207.032 74.812 207.369 74.4346 207.809 74.2229C208.248 74.0112 208.753 73.9826 209.213 74.1434C209.673 74.3042 210.051 74.6412 210.262 75.0803C214.214 83.2823 216.552 92.7369 217.224 103.184C217.255 103.671 217.092 104.15 216.77 104.516C216.448 104.882 215.994 105.105 215.508 105.136C215.467 105.138 215.427 105.14 215.387 105.14Z" fill="#42210B"/>
<path d="M202.524 140.345C202.524 140.345 205.071 145.881 201.515 148.282C196.928 151.38 192.036 147.778 189.749 145.01C189.749 145.01 185.092 153.298 178.059 150.46C173.352 148.558 174.956 142.007 174.956 142.007" fill="white"/>
<path d="M202.524 140.345C202.524 140.345 205.071 145.881 201.515 148.282C196.928 151.38 192.036 147.778 189.749 145.01C189.749 145.01 185.092 153.298 178.059 150.46C173.352 148.558 174.956 142.007 174.956 142.007" fill="white"/>
<g opacity="0.3">
<path opacity="0.3" d="M178.058 150.453C185.092 153.301 189.749 145.01 189.749 145.01C192.036 147.777 196.929 151.381 201.513 148.282C203.679 146.815 203.581 144.188 203.172 142.358C202.864 142.799 202.472 143.175 202.019 143.466C197.773 146.26 193.283 143.628 190.715 141.055L189.298 141.139C187.779 143.225 183.588 147.904 177.893 145.673C176.216 145.013 175.322 143.796 174.862 142.491C174.598 144.039 174.131 148.869 178.058 150.453Z" fill="#42210B"/>
</g>
<path d="M202.743 140.245C203.692 140.888 204.278 141.778 204.641 142.781C205.004 143.785 205.06 144.931 204.825 146.126C204.771 146.433 204.686 146.734 204.572 147.023C204.469 147.329 204.334 147.623 204.167 147.9C204.008 148.188 203.817 148.456 203.596 148.7C203.494 148.828 203.385 148.951 203.27 149.068L202.903 149.383L202.528 149.692C202.404 149.783 202.287 149.847 202.165 149.925C201.924 150.076 201.677 150.217 201.431 150.359C200.896 150.581 200.374 150.838 199.793 150.959C198.663 151.255 197.481 151.293 196.334 151.07C195.255 150.859 194.213 150.486 193.245 149.965C191.443 148.951 189.846 147.61 188.535 146.012L191.123 145.78C190.833 146.266 190.518 146.736 190.179 147.189C189.852 147.627 189.507 148.05 189.14 148.457C188.399 149.29 187.568 150.038 186.663 150.688C185.713 151.37 184.658 151.894 183.54 152.237C182.375 152.585 181.154 152.708 179.943 152.6C179.638 152.584 179.343 152.521 179.042 152.479C178.748 152.418 178.455 152.348 178.165 152.27C177.88 152.171 177.607 152.096 177.314 151.968C177.02 151.84 176.726 151.677 176.435 151.525C175.303 150.823 174.442 149.757 173.994 148.501C173.602 147.384 173.488 146.188 173.664 145.017C173.801 143.93 174.161 142.882 174.722 141.941C174.757 141.884 174.813 141.843 174.878 141.827C174.943 141.811 175.011 141.821 175.069 141.856C175.1 141.875 175.127 141.9 175.147 141.931C175.167 141.961 175.181 141.996 175.186 142.032V142.055C175.342 143.065 175.5 144.036 175.747 144.922C175.993 145.808 176.31 146.609 176.725 147.228C177.095 147.797 177.592 148.273 178.176 148.618C178.333 148.686 178.485 148.762 178.633 148.847C178.791 148.931 179 148.993 179.181 149.074L179.747 149.255C179.937 149.292 180.127 149.36 180.32 149.379C181.862 149.652 183.445 149.1 184.843 148.115C185.557 147.6 186.212 147.008 186.797 146.349C187.098 146.016 187.384 145.666 187.653 145.301C187.912 144.957 188.152 144.598 188.371 144.227L189.494 142.245L190.961 143.995C192.008 145.246 193.3 146.27 194.758 147.002C196.177 147.657 197.635 147.917 198.911 147.54C199.242 147.487 199.547 147.316 199.868 147.203C200.02 147.113 200.169 147.02 200.328 146.939C200.402 146.897 200.492 146.857 200.555 146.815L200.717 146.687L200.886 146.569C200.934 146.523 200.979 146.474 201.021 146.423C201.12 146.335 201.204 146.231 201.27 146.116C201.358 146.008 201.431 145.889 201.485 145.761C201.559 145.63 201.615 145.489 201.653 145.342C201.846 144.742 201.862 144.007 201.939 143.197C202.015 142.386 202.077 141.485 202.303 140.432L202.309 140.405C202.324 140.332 202.368 140.269 202.431 140.228C202.493 140.188 202.569 140.174 202.642 140.189C202.679 140.201 202.713 140.22 202.743 140.245Z" fill="#42210B"/>
<path d="M190.13 136.6C190.289 137.388 190.418 138.159 190.532 138.945C190.647 139.731 190.734 140.517 190.795 141.323C190.864 142.141 190.883 142.963 190.851 143.783C190.802 144.631 190.746 145.49 190.327 146.509L190.299 146.578C190.158 146.919 189.889 147.19 189.549 147.331C189.208 147.473 188.826 147.474 188.485 147.334C188.145 147.193 187.874 146.924 187.732 146.583C187.59 146.243 187.589 145.861 187.73 145.52C187.765 145.435 187.809 145.353 187.861 145.276C188.118 144.891 188.321 144.194 188.45 143.511C188.585 142.791 188.676 142.063 188.722 141.332C188.823 139.819 188.833 138.302 188.754 136.788V136.771C188.744 136.595 188.801 136.422 188.913 136.287C189.026 136.152 189.186 136.064 189.361 136.043C189.536 136.021 189.712 136.066 189.854 136.17C189.997 136.274 190.095 136.427 190.128 136.6H190.13Z" fill="#42210B"/>
<path d="M138.92 54.2435C138.92 54.2435 127.082 17.0571 98.9075 2.73367C80.9564 -6.39286 62.9706 56.0684 87.6846 81.2824" fill="#F89B29"/>
<g opacity="0.5">
<path opacity="0.5" d="M98.9075 2.73363C95.9496 1.22949 92.9916 1.68545 90.2223 3.57218C91.5321 3.55172 92.8262 3.85984 93.9863 4.46837C114.506 14.9041 126.365 37.4683 131.291 48.9554C131.872 50.3077 132.893 51.4239 134.188 52.1226C135.484 52.8214 136.977 53.0616 138.426 52.8043C135.921 45.8433 123.783 15.38 98.9075 2.73363Z" fill="white"/>
</g>
<path d="M138.336 54.429C136.398 51.6209 134.908 48.686 133.465 45.729C131.982 42.7941 130.571 39.8267 129.037 36.918C127.491 34.0177 125.784 31.2063 123.924 28.4969C122.083 25.7861 120.1 23.1749 117.982 20.6743C115.875 18.1825 113.614 15.8247 111.212 13.6148C108.827 11.4083 106.268 9.39769 103.56 7.60243C102.902 7.12761 102.198 6.73768 101.51 6.30583C101.164 6.09619 100.824 5.87817 100.474 5.67692L99.4086 5.10042L98.3447 4.52182L98.0795 4.37717L97.8489 4.27235L97.395 4.06272C96.7971 3.84234 96.1705 3.70926 95.5345 3.66756C94.8973 3.65215 94.2614 3.73199 93.6478 3.90444C92.9985 4.10356 92.3763 4.38241 91.7956 4.73461C90.5829 5.44527 89.4718 6.48612 88.4603 7.62864C86.4363 9.94512 84.8315 12.7542 83.4909 15.6724C82.1503 18.5905 81.0863 21.6816 80.2132 24.8178C78.4986 31.1254 77.5689 37.6204 77.445 44.1557C77.3255 50.6744 77.9942 57.2255 79.7824 63.4307C80.2394 64.9768 80.7583 66.5009 81.3547 67.9914C81.976 69.464 82.6931 70.8943 83.5014 72.2732L85.8923 76.3957C86.691 77.7814 87.4719 79.1828 88.1155 80.8432L88.1228 80.861C88.1694 80.9826 88.1788 81.1152 88.1501 81.2422C88.1213 81.3692 88.0556 81.4849 87.9612 81.5746C87.8668 81.6643 87.7479 81.724 87.6196 81.7462C87.4913 81.7685 87.3593 81.7522 87.2402 81.6995C85.5631 80.9553 84.1911 79.7981 83.0045 78.4963C81.8569 77.1648 80.8672 75.7052 80.0549 74.1463C78.5139 71.0289 77.2421 67.7856 76.2532 64.4517C74.3392 57.8041 73.6474 50.9102 73.77 44.0823C73.9046 37.246 74.8822 30.4524 76.6808 23.8556C77.599 20.5569 78.7154 17.3013 80.1608 14.1546C81.6062 11.008 83.3337 7.94624 85.7078 5.21782C86.9059 3.86776 88.2538 2.57954 89.9236 1.59006C90.7735 1.077 91.6845 0.672731 92.6352 0.386741C93.6316 0.103123 94.6658 -0.0245185 95.7012 0.00834829C96.7351 0.066338 97.7543 0.280496 98.7241 0.643547L99.4138 0.948571L99.7556 1.1037L100.04 1.25778L101.178 1.87516L102.315 2.49359C102.689 2.70323 103.049 2.94012 103.421 3.16338C104.155 3.62144 104.905 4.04176 105.605 4.54384C108.469 6.44403 111.175 8.57135 113.697 10.9053C116.214 13.2197 118.584 15.6895 120.792 18.3002C122.992 20.8997 125.053 23.6137 126.966 26.4309C128.879 29.2422 130.642 32.1446 132.359 35.0732C134.076 38.0018 135.659 41.0122 136.946 44.1557C138.249 47.2877 139.322 50.5329 139.508 54.06C139.519 54.1992 139.483 54.3381 139.407 54.4548C139.33 54.5715 139.216 54.6593 139.084 54.7045C138.952 54.7497 138.809 54.7496 138.677 54.7042C138.545 54.6589 138.431 54.5709 138.355 54.4541L138.336 54.429Z" fill="#42210B"/>
<path d="M96.7148 66.7902C99.7713 62.2191 107.642 57.671 114.165 54.474C120.054 51.5915 122.219 44.314 118.944 38.635C113.179 28.6405 105.378 21.0255 99.9841 16.4806C96.7882 13.7888 91.8858 15.1892 90.5714 19.1566C88.5348 25.3052 86.494 34.8793 87.8388 46.467C89.2937 58.998 96.0628 66.5093 96.0628 66.5093" fill="#FF6C6C"/>
<path d="M87.8409 46.4669C89.2958 58.9948 96.0629 66.5072 96.0629 66.5072L96.7117 66.7912C98.416 64.2441 101.615 61.7033 105.245 59.3921C108.126 57.5662 111.281 55.887 114.163 54.4751C120.052 51.5926 122.217 44.315 118.947 38.6339C115.676 32.9527 111.734 28.0388 107.956 24.0212C105.443 21.3582 102.782 18.8406 99.9831 16.4805C96.7872 13.7888 91.8869 15.1881 90.5746 19.1544C88.5359 25.3083 86.4951 34.8824 87.8409 46.4669Z" fill="#FF8080"/>
<g opacity="0.3">
<path opacity="0.3" d="M104.075 53.3567C104.311 55.3953 104.703 57.4129 105.245 59.3922C108.126 57.5663 111.281 55.8871 114.163 54.4752C120.052 51.5927 122.217 44.3151 118.947 38.634C115.676 32.9528 111.734 28.0389 107.955 24.0212C107.439 24.6128 107.046 25.3027 106.802 26.0495C103.924 34.8465 102.994 44.1642 104.075 53.3567Z" fill="#42210B"/>
</g>
<path d="M96.7064 65.7672C96.7766 65.4947 96.7892 65.3071 96.8845 65.176C96.9859 65.0597 97.0948 64.9501 97.2105 64.848L97.6298 64.4486C98.1888 63.9196 98.7552 63.4025 99.3289 62.8973C100.482 61.8827 101.668 60.9183 102.886 59.9917C105.323 58.1347 107.874 56.4323 110.524 54.8944C111.19 54.515 111.857 54.1334 112.537 53.775C112.875 53.5926 113.214 53.4123 113.558 53.2404L114.073 52.9794L114.331 52.8484L114.54 52.7289C115.674 52.1258 116.64 51.2514 117.353 50.1839C118.782 48.0655 119.062 45.2574 118.087 42.9514C117.871 42.4127 117.476 41.7251 117.134 41.0846L116.081 39.1444L114.937 37.2577L114.366 36.3143L113.751 35.3982L112.521 33.566L111.212 31.7893C110.786 31.1908 110.325 30.6164 109.862 30.0452C109.399 29.4739 108.956 28.8922 108.468 28.3377C106.572 26.0936 104.544 23.9639 102.396 21.9595C101.331 20.9511 100.222 19.9952 99.1004 19.0623C98.5333 18.6074 97.9694 18.142 97.3898 17.7133C97.1015 17.4932 96.8133 17.2762 96.5229 17.0707C96.2326 16.8653 95.9286 16.6515 95.6844 16.4848L96.8824 16.838H96.9611C96.9611 16.838 96.9611 16.838 96.9464 16.838C96.9317 16.838 96.8982 16.838 96.8615 16.8506C96.783 16.8659 96.7057 16.8862 96.6298 16.9114C96.5408 16.9354 96.4539 16.9666 96.3699 17.0047C96.2757 17.0378 96.1846 17.0788 96.0974 17.1273C95.9057 17.2222 95.7192 17.3272 95.5387 17.4418C95.3573 17.5833 95.1655 17.6965 94.9873 17.8611C94.2609 18.4669 93.5953 19.2635 93.001 20.1409C92.4078 21.063 91.8914 22.0323 91.457 23.0391C91.3386 23.2948 91.2254 23.5496 91.1374 23.7948C91.0493 24.0401 90.9487 24.2948 90.8638 24.56C90.7789 24.8252 90.6929 25.0841 90.6164 25.3566C90.5399 25.6292 90.4592 25.8964 90.3931 26.1753C89.2842 30.6217 88.8859 35.3867 88.9173 40.0794C88.9844 44.7826 89.5399 49.4984 90.826 53.9961C91.4565 56.2385 92.3211 58.4083 93.4056 60.4697L93.8186 61.2349C93.9612 61.4864 94.1194 61.7275 94.2683 61.9749C94.5597 62.4759 94.8972 62.9476 95.2263 63.4172C95.5408 63.9025 95.9286 64.3291 96.2808 64.7861L96.4904 65.0471C96.5319 65.102 96.5635 65.1637 96.5837 65.2295C96.6267 65.3553 96.6466 65.5408 96.7064 65.7672ZM96.7231 67.8122C96.3302 67.5868 95.9546 67.3324 95.5995 67.0512C95.4139 66.9024 95.2347 66.742 95.068 66.5785C94.9894 66.502 94.894 66.4056 94.8374 66.3416L94.6834 66.1634C94.2788 65.6823 93.8448 65.2201 93.4748 64.7117C93.0912 64.2138 92.7107 63.7117 92.3742 63.1814C92.2023 62.9193 92.021 62.6573 91.8564 62.3952L91.3795 61.585C90.1336 59.4196 89.1197 57.1289 88.3544 54.7508C86.8104 50.0204 86.0484 45.095 85.7948 40.1664C85.5851 35.2274 85.7948 30.2862 86.8304 25.321C86.8922 25.0065 86.9687 24.6994 87.0494 24.386C87.1301 24.0726 87.2067 23.7571 87.3031 23.4427C87.4814 22.8053 87.6984 22.1794 87.953 21.5685L88.3188 20.6692C88.4467 20.3704 88.5976 20.0769 88.7381 19.7803C89.0053 19.1839 89.3565 18.6084 89.6814 18.0256C90.3963 16.881 91.2348 15.7647 92.3249 14.7763C92.587 14.5247 92.8993 14.3025 93.1907 14.0708C93.5082 13.8464 93.8382 13.6403 94.1792 13.4535C94.354 13.3531 94.5346 13.2631 94.72 13.1841C94.9094 13.0954 95.1037 13.0173 95.3018 12.9503C95.5102 12.8748 95.7226 12.8108 95.938 12.7585C96.0428 12.7302 96.1781 12.7082 96.2976 12.6851C96.3531 12.6736 96.4338 12.6642 96.5072 12.6547L96.6193 12.6422L96.8101 12.6317L97.4862 12.616L98.0103 12.9849C98.3834 13.248 98.6832 13.4713 99.0019 13.7187C99.3205 13.966 99.6308 14.2029 99.9285 14.4524C100.544 14.9387 101.128 15.4492 101.72 15.9534C102.883 16.9806 104.026 18.0277 105.116 19.122C107.309 21.2937 109.371 23.5933 111.292 26.0086C111.787 26.5998 112.229 27.2318 112.7 27.8419C113.17 28.4519 113.63 29.0693 114.062 29.7097L115.377 31.6101L116.607 33.565L117.221 34.5429L117.791 35.5481L118.927 37.5585L119.969 39.6193C120.311 40.3194 120.665 40.9421 120.994 41.81C121.633 43.4504 121.804 45.2564 121.588 46.9859C121.372 48.7154 120.688 50.3799 119.701 51.8075C118.691 53.2262 117.346 54.3731 115.785 55.146L115.499 55.2938L115.249 55.4122L114.75 55.647C114.415 55.8011 114.085 55.9615 113.756 56.1302C113.094 56.4541 112.442 56.8021 111.79 57.148C109.186 58.5579 106.673 60.129 104.266 61.8523C103.061 62.7128 101.883 63.6122 100.747 64.5566C100.175 65.0262 99.6165 65.508 99.07 66.002L98.1675 66.8217C97.725 67.2054 97.2405 67.5377 96.7231 67.8122Z" fill="#42210B"/>
<g opacity="0.1">
<path opacity="0.1" d="M172.712 113.783C171.637 125.672 162.308 134.826 150.889 136.103C146.89 136.553 142.841 136.023 139.093 134.56C137.408 133.903 135.802 133.059 134.305 132.044C130.635 129.572 127.698 126.16 125.798 122.164C123.899 118.168 123.108 113.736 123.508 109.33C124.547 97.8511 133.287 88.9174 144.169 87.1711C147.887 86.5709 151.692 86.8283 155.294 87.9238C158.897 89.0193 162.201 90.9239 164.955 93.4919C167.709 96.06 169.839 99.2236 171.184 102.741C172.528 106.258 173.05 110.037 172.71 113.787L172.712 113.783Z" fill="white"/>
</g>
<path d="M156.22 88.214L134.305 132.039C130.913 129.748 128.14 126.654 126.234 123.032L144.171 87.1659C148.213 86.5211 152.351 86.8811 156.22 88.214Z" fill="url(#paint0_linear_6_2023)"/>
<path d="M169.418 99.0565L150.892 136.103C146.893 136.553 142.845 136.023 139.096 134.559L161.108 90.541C164.528 92.6625 167.38 95.5852 169.418 99.0565Z" fill="url(#paint1_linear_6_2023)"/>
<path d="M213.229 88.4321L196.001 122.887C192.441 120.508 189.766 117.02 188.391 112.966L200.725 88.3032C204.793 86.9678 209.189 87.0131 213.229 88.4321Z" fill="url(#paint2_linear_6_2023)"/>
<path d="M225.418 101.289L213.6 124.918C209.512 126.447 205.03 126.56 200.871 125.24L218.029 90.9225C221.583 93.4535 224.185 97.1039 225.418 101.289Z" fill="url(#paint3_linear_6_2023)"/>
<path d="M148.157 138.097C147.347 138.097 146.533 138.06 145.717 137.987C138.829 137.357 132.46 134.056 127.973 128.791C123.487 123.526 121.238 116.714 121.709 109.813C122.18 102.911 125.333 96.468 130.494 91.8612C135.654 87.2544 142.412 84.8496 149.322 85.1613C156.233 85.473 162.747 88.4764 167.472 93.529C172.196 98.5817 174.756 105.283 174.604 112.198C174.452 119.114 171.6 125.696 166.657 130.536C161.715 135.376 155.075 138.09 148.157 138.097ZM148.094 88.6919C136.409 88.6919 126.415 97.6361 125.341 109.494C124.933 113.998 125.87 118.521 128.033 122.492C130.195 126.463 133.487 129.703 137.492 131.804C141.496 133.904 146.034 134.769 150.53 134.291C155.027 133.812 159.28 132.011 162.753 129.115C166.226 126.219 168.762 122.358 170.04 118.02C171.319 113.683 171.283 109.064 169.936 104.747C168.589 100.431 165.993 96.6101 162.475 93.7691C158.957 90.9281 154.676 89.194 150.172 88.7863C149.475 88.7234 148.78 88.6919 148.094 88.6919Z" fill="#42210B"/>
<g opacity="0.1">
<path opacity="0.1" d="M226.113 108.495C225.67 113.293 223.452 117.753 219.895 121.003C216.338 124.254 211.696 126.06 206.878 126.069C202.059 126.078 197.411 124.29 193.841 121.054C190.271 117.817 188.037 113.366 187.575 108.57C187.113 103.773 188.457 98.9772 191.343 95.1192C194.23 91.2611 198.452 88.6186 203.184 87.7083C207.916 86.798 212.817 87.6854 216.929 90.197C221.041 92.7086 224.068 96.6637 225.419 101.289C226.1 103.626 226.336 106.071 226.113 108.495Z" fill="white"/>
</g>
<path d="M206.82 127.995C206.172 127.995 205.521 127.965 204.867 127.907C202.088 127.655 199.386 126.859 196.915 125.563C194.444 124.267 192.252 122.497 190.465 120.354C188.678 118.211 187.33 115.737 186.499 113.073C185.668 110.409 185.37 107.608 185.622 104.829C186.678 93.1605 197.03 84.5255 208.699 85.5831C220.369 86.6408 229.002 96.9926 227.945 108.661C227.468 113.937 225.036 118.844 221.128 122.421C217.221 125.997 212.118 127.985 206.82 127.995ZM206.77 89.1721C197.79 89.1721 190.104 96.0461 189.282 105.16C189.063 107.464 189.301 109.789 189.982 112.001C190.664 114.213 191.776 116.268 193.254 118.049C194.732 119.83 196.548 121.301 198.596 122.379C200.645 123.456 202.886 124.118 205.191 124.327C207.496 124.535 209.819 124.287 212.028 123.595C214.237 122.903 216.287 121.782 218.061 120.295C219.835 118.809 221.298 116.987 222.366 114.933C223.434 112.88 224.086 110.636 224.284 108.33L226.114 108.495L224.284 108.33C225.157 98.6802 218.018 90.1176 208.368 89.2444C207.832 89.1962 207.299 89.1721 206.77 89.1721Z" fill="#42210B"/>
<path d="M172.602 110.115C172.191 110.116 171.791 109.978 171.467 109.725C171.142 109.472 170.913 109.117 170.814 108.717C170.716 108.317 170.754 107.896 170.923 107.521C171.093 107.146 171.383 106.839 171.748 106.648C172.133 106.447 181.257 101.781 188.399 106.516C188.606 106.647 188.785 106.818 188.926 107.019C189.066 107.219 189.165 107.446 189.216 107.686C189.267 107.925 189.27 108.173 189.225 108.413C189.179 108.654 189.086 108.883 188.951 109.087C188.815 109.291 188.64 109.466 188.437 109.602C188.233 109.738 188.004 109.831 187.763 109.877C187.522 109.923 187.275 109.92 187.036 109.869C186.796 109.818 186.569 109.72 186.368 109.58C181.046 106.051 173.521 109.87 173.446 109.909C173.185 110.044 172.896 110.115 172.602 110.115Z" fill="#42210B"/>
<path d="M193.484 205.838C193.484 205.838 188.921 200.427 177.132 201.874C170.998 202.625 156.414 208.818 158.585 221.03C160.416 231.334 172.64 229.124 188.353 227.595C188.353 227.595 198.914 226.799 203.4 222.378C207.886 217.957 206.87 210.219 205.279 206.131" fill="white"/>
<path d="M171.924 230.728C163.982 230.728 158.107 228.841 156.776 221.351C156.031 217.158 156.955 213.274 159.522 209.801C164.029 203.698 172.58 200.577 176.909 200.053C189.54 198.502 194.677 204.405 194.89 204.657C195.193 205.029 195.338 205.506 195.295 205.984C195.251 206.463 195.022 206.905 194.656 207.217C194.29 207.529 193.817 207.684 193.337 207.651C192.858 207.618 192.411 207.399 192.091 207.04C191.895 206.82 187.828 202.417 177.357 203.702C173.359 204.192 166.1 207.088 162.478 211.99C160.534 214.62 159.834 217.554 160.396 220.713C161.715 228.133 169.508 227.682 184.323 226.163C185.581 226.033 186.866 225.903 188.18 225.773C190.973 225.564 198.838 224.306 202.115 221.078C205.834 217.409 205.023 210.534 203.572 206.804C203.484 206.579 203.442 206.339 203.447 206.098C203.452 205.857 203.505 205.619 203.602 205.398C203.699 205.177 203.839 204.977 204.013 204.81C204.187 204.643 204.393 204.512 204.618 204.425C204.843 204.337 205.083 204.295 205.324 204.3C205.565 204.305 205.803 204.358 206.024 204.455C206.245 204.552 206.445 204.692 206.612 204.866C206.779 205.041 206.91 205.246 206.997 205.471C208.551 209.454 210.067 218.401 204.691 223.696C199.781 228.534 188.951 229.402 188.491 229.436C187.227 229.559 185.948 229.692 184.695 229.82C180.142 230.281 175.789 230.728 171.924 230.728Z" fill="#42210B"/>
<path d="M205.432 191.698C205.432 191.698 206.616 176.201 219.268 175.532C237.096 174.589 243.972 172.096 243.972 172.096V177.809L234.922 187.661L205.432 191.698Z" fill="white"/>
<path d="M243.971 172.095V177.808L234.921 187.661L205.432 191.697C205.432 191.697 206.616 176.199 219.268 175.531C237.096 174.587 243.972 172.094 243.972 172.094L243.971 172.095ZM243.972 168.949C243.61 168.949 243.251 169.012 242.911 169.134C242.781 169.179 235.971 171.498 219.102 172.39C212.708 172.728 207.747 176.23 204.766 182.517C202.663 186.951 202.312 191.275 202.298 191.457C202.265 191.889 202.322 192.323 202.464 192.732C202.607 193.141 202.832 193.516 203.127 193.834C203.421 194.151 203.778 194.405 204.175 194.578C204.572 194.752 205 194.841 205.433 194.841C205.576 194.842 205.719 194.832 205.86 194.812L235.347 190.777C236.072 190.677 236.739 190.327 237.234 189.788L246.284 179.935C246.817 179.355 247.113 178.596 247.113 177.808V172.095C247.113 171.261 246.782 170.461 246.192 169.871C245.603 169.282 244.803 168.95 243.969 168.95L243.972 168.949Z" fill="#42210B"/>
<path d="M208.819 187.426C208.819 187.426 206.286 180.268 196.291 177.335C186.628 174.498 168.656 178.753 147.062 176.105L124.758 205.115L172.555 218.66L208.819 187.426Z" fill="white"/>
<path d="M147.062 176.105C152.692 176.795 158.074 177.016 163.129 177.016C172.143 177.016 180.117 176.313 186.566 176.313C190.367 176.313 193.642 176.557 196.291 177.335C206.285 180.27 208.82 187.426 208.82 187.426L172.553 218.662L124.756 205.116L147.06 176.106L147.062 176.105ZM145.428 172.21L144.151 173.871L121.848 202.879L118.549 207.169L123.756 208.645L171.553 222.191L173.452 222.73L174.948 221.441L211.215 190.205L213.116 188.567L212.278 186.201C212.149 185.837 208.985 177.236 197.325 173.814C194.566 173.005 191.245 172.644 186.566 172.644C183.526 172.644 180.172 172.795 176.623 172.959C172.55 173.143 167.931 173.351 163.129 173.351C157.468 173.351 152.361 173.061 147.511 172.467L145.432 172.212L145.428 172.21Z" fill="#42210B"/>
<path d="M209.935 185.968L169.479 238.954H105.227L136.957 197.331L149.728 180.581L209.935 185.968Z" fill="#1698F9"/>
<g opacity="0.5">
<path opacity="0.5" d="M135.384 201.815L148.155 185.065L206.805 190.312L209.411 186.899L149.204 181.513L136.433 198.263L104.703 239.886H106.363L135.384 201.815Z" fill="white"/>
</g>
<g opacity="0.3">
<path opacity="0.3" d="M146.254 238.954H105.227L136.957 197.33C142.117 199.696 149.521 204.527 149.295 212.693C148.95 225.193 135.236 230.373 134.714 234.033C134.502 235.52 139.835 237.331 146.254 238.954Z" fill="#42210B"/>
</g>
<path d="M248.164 175.017L223.729 204.061L202.655 229.115L201.396 230.616L169.479 238.954L209.935 185.968L248.164 175.017Z" fill="#1698F9"/>
<g opacity="0.5">
<path opacity="0.5" d="M207.839 190.684L242.439 180.773L248.164 173.969L209.935 184.919L169.479 237.906L172.359 237.153L207.839 190.684Z" fill="white"/>
</g>
<path d="M169.478 240.794H105.229C104.887 240.794 104.551 240.698 104.26 240.517C103.969 240.336 103.734 240.078 103.583 239.771C103.431 239.464 103.368 239.12 103.4 238.779C103.433 238.439 103.56 238.114 103.768 237.841L148.264 179.465C148.453 179.218 148.701 179.022 148.985 178.897C149.269 178.772 149.581 178.721 149.89 178.749L210.098 184.135C210.425 184.165 210.739 184.281 211.006 184.473C211.273 184.664 211.484 184.924 211.617 185.225C211.749 185.526 211.798 185.857 211.76 186.183C211.721 186.509 211.595 186.819 211.395 187.081L170.936 240.072C170.764 240.296 170.543 240.477 170.291 240.603C170.038 240.728 169.76 240.793 169.478 240.794ZM108.942 237.118H168.568L206.446 187.5L150.578 182.5L108.942 237.118Z" fill="#42210B"/>
<path d="M169.478 240.794C169.135 240.794 168.799 240.698 168.508 240.517C168.217 240.336 167.982 240.078 167.83 239.77C167.678 239.463 167.615 239.12 167.648 238.779C167.681 238.438 167.809 238.112 168.016 237.84L208.476 184.85C208.716 184.536 209.051 184.307 209.431 184.198L247.659 173.253C248.038 173.145 248.441 173.161 248.81 173.299C249.179 173.437 249.493 173.69 249.707 174.02C249.922 174.35 250.024 174.741 249.999 175.134C249.975 175.527 249.825 175.901 249.571 176.203L202.806 231.799C202.56 232.091 202.231 232.299 201.862 232.395L169.944 240.734C169.792 240.774 169.635 240.794 169.478 240.794ZM211.025 187.565L174.178 235.827L200.366 228.985L242.88 178.444L211.025 187.565Z" fill="#42210B"/>
<path d="M146.071 209.369C145.232 219.513 136.148 230.631 123.682 230.916C115.95 231.098 112.761 232.426 108.414 234.808C105.898 236.18 98.9086 237.075 91.2055 237.026C81.5622 236.967 70.7953 235.437 66.2294 231.526C57.7926 224.305 79.6461 191.714 90.6049 184.241L100.062 212.843C100.328 212.424 100.598 212.004 100.878 211.599C101.395 210.826 101.941 210.084 102.502 209.37C110.058 199.713 120.807 195.178 129.833 195.065C139.886 194.936 146.825 200.215 146.071 209.369Z" fill="#F9A528"/>
<path d="M146.071 209.369C145.232 219.513 136.149 230.631 123.682 230.916C115.95 231.098 112.761 232.426 108.414 234.808C105.898 236.18 98.9087 237.075 91.2056 237.026C93.1183 234.042 94.5415 230.772 95.4214 227.339C97.7483 218.401 99.6424 213.87 100.881 211.598C101.93 209.689 102.505 209.369 102.505 209.369C110.061 199.712 120.81 195.177 129.836 195.064C139.886 194.936 146.825 200.214 146.071 209.369Z" fill="white"/>
<path d="M90.7758 184.497C89.257 186.085 87.8985 187.757 86.5579 189.45C85.2173 191.142 83.9259 192.865 82.6555 194.605C80.1147 198.081 77.5739 201.567 75.3182 205.231C73.0626 208.895 70.9641 212.647 69.2996 216.528C68.4705 218.465 67.7273 220.427 67.2242 222.385C66.7179 224.322 66.4485 226.328 66.7242 227.898C66.7924 228.249 66.8978 228.593 67.0386 228.922C67.1681 229.192 67.3365 229.441 67.5386 229.661C67.5921 229.709 67.6434 229.76 67.6917 229.811L67.9338 230.01C68.1015 230.142 68.2745 230.273 68.4579 230.398C68.8409 230.657 69.2389 230.894 69.6497 231.106C71.3425 231.992 73.312 232.637 75.3235 233.142C79.3747 234.137 83.6523 234.616 87.9258 234.832C92.2024 235.027 96.5209 234.946 100.739 234.491C101.787 234.376 102.835 234.228 103.849 234.043C104.819 233.878 105.775 233.637 106.708 233.324C106.918 233.25 107.111 233.17 107.277 233.092C107.39 233.038 107.697 232.875 107.929 232.748C108.425 232.484 108.929 232.224 109.449 231.966C110.504 231.441 111.589 230.977 112.699 230.578C114.957 229.764 117.317 229.348 119.602 229.121C120.746 229.022 121.887 228.941 123.015 228.912C123.609 228.896 124.081 228.866 124.578 228.842C125.07 228.793 125.566 228.762 126.053 228.674C129.977 228.094 133.68 226.223 136.657 223.512C139.658 220.787 141.904 217.332 143.177 213.483C143.48 212.537 143.71 211.568 143.864 210.585C144.022 209.629 144.089 208.659 144.064 207.69C144.008 205.803 143.507 204.006 142.539 202.513C141.572 201.02 140.155 199.834 138.48 198.997C136.805 198.161 134.902 197.647 132.932 197.407C128.971 196.905 124.802 197.413 120.826 198.56C118.828 199.161 116.881 199.922 115.005 200.836C113.113 201.77 111.299 202.853 109.579 204.074C106.108 206.519 103.032 209.571 100.332 213.012C100.282 213.067 100.215 213.102 100.142 213.112C100.068 213.122 99.994 213.106 99.9314 213.067C99.8688 213.027 99.8222 212.967 99.7996 212.897C99.777 212.826 99.78 212.75 99.808 212.682C103.724 204.703 110.928 198.12 119.625 194.937C121.807 194.122 124.071 193.545 126.376 193.216C128.719 192.867 131.097 192.819 133.452 193.072C135.83 193.352 138.235 193.969 140.474 195.134C142.707 196.277 144.738 198.046 146.116 200.27C147.493 202.494 148.144 205.098 148.187 207.585C148.23 210.094 147.758 212.448 147.046 214.731C145.559 219.257 142.922 223.319 139.395 226.522C135.897 229.711 131.444 231.985 126.672 232.69C126.08 232.795 125.479 232.836 124.882 232.894C124.283 232.925 123.659 232.958 123.158 232.971C122.093 232.996 121.046 233.076 120.005 233.162C117.932 233.372 115.94 233.728 114.066 234.404C113.111 234.748 112.178 235.152 111.274 235.614C110.81 235.843 110.344 236.093 109.876 236.347C109.628 236.479 109.457 236.583 109.074 236.774C108.746 236.932 108.432 237.06 108.131 237.173C106.91 237.616 105.77 237.866 104.625 238.092C103.481 238.317 102.355 238.472 101.228 238.604C96.7211 239.128 92.2506 239.218 87.7654 239.064C83.2823 238.891 78.793 238.459 74.3057 237.422C72.0636 236.881 69.8142 236.21 67.5973 235.085C67.0326 234.797 66.4852 234.476 65.958 234.124C65.6875 233.946 65.4203 233.75 65.1572 233.545L64.7609 233.224L64.3197 232.805C63.7645 232.229 63.3046 231.569 62.957 230.849C62.6505 230.176 62.4233 229.47 62.2799 228.745C62.0528 227.446 62.0143 226.121 62.1656 224.811C62.3013 223.608 62.5259 222.417 62.8375 221.247C63.4385 219.013 64.2209 216.831 65.1771 214.723C67.0418 210.57 69.265 206.669 71.7366 202.937C74.2082 199.204 76.8192 195.58 79.8632 192.292C81.3792 190.635 83.007 189.084 84.7351 187.65C85.607 186.929 86.5168 186.255 87.4604 185.631C88.4021 184.995 89.3991 184.446 90.4393 183.989C90.5068 183.956 90.5837 183.948 90.6563 183.967C90.7288 183.986 90.7922 184.031 90.8349 184.092C90.8777 184.154 90.897 184.229 90.8894 184.303C90.8819 184.378 90.8479 184.447 90.7936 184.499L90.7758 184.497Z" fill="#42210B"/>
<g opacity="0.3">
<path opacity="0.3" d="M223.729 204.061L202.655 229.113C202.424 229.02 202.219 228.874 202.057 228.685C201.895 228.497 201.781 228.272 201.725 228.03C200.717 224.047 206.966 215.801 210.821 210.665C216.891 202.571 221.402 202.93 223.729 204.061Z" fill="#42210B"/>
</g>
<path d="M231.899 199.968C231.899 199.968 226.305 193.134 217.216 205.256C213.366 210.392 207.114 218.643 208.121 222.621C209.667 228.731 237.498 212.088 231.899 199.968Z" fill="white"/>
<g opacity="0.3">
<path opacity="0.3" d="M232.53 204.809C230.774 215.996 209.47 227.945 208.12 222.628C207.491 220.158 209.665 216.045 212.326 212.051C212.051 213.069 211.981 213.985 212.174 214.741C213.197 218.79 225.805 212.823 232.53 204.809Z" fill="#42210B"/>
</g>
<path d="M210.274 225.754C209.885 225.757 209.496 225.719 209.115 225.64C207.688 225.326 206.677 224.393 206.342 223.071C205.228 218.669 210.072 211.725 215.566 204.395L215.745 204.156C219.635 198.968 223.53 196.294 227.322 196.216C230.319 196.151 232.503 197.814 233.315 198.806L233.463 198.987L233.56 199.197C235.496 203.389 234.364 208.289 230.287 213.372C225.006 219.961 215.46 225.754 210.274 225.754ZM209.875 222.062C211.463 222.621 218.614 219.738 224.566 214.149C227.011 211.852 232.399 206.03 230.345 200.999C229.528 200.246 228.447 199.846 227.337 199.887C225.555 199.95 222.606 201.124 218.681 206.359L218.502 206.598C215.494 210.608 209.269 218.908 209.875 222.067V222.062Z" fill="#42210B"/>
<g opacity="0.3">
<path opacity="0.3" d="M146.071 209.369C145.232 219.513 136.149 230.631 123.682 230.916C115.95 231.098 112.761 232.426 108.414 234.808C105.898 236.18 98.9087 237.075 91.2056 237.026C81.5623 236.967 70.7954 235.437 66.2295 231.526C61.7726 227.714 65.7673 216.818 72.1476 206.284C69.5648 212.71 68.8867 218.19 71.7838 220.669C76.3487 224.579 87.1177 226.11 96.7589 226.168C104.463 226.218 107.11 225.11 111.624 223.287C120.503 219.701 125.301 223.091 132.98 222.158C142.269 221.03 144.428 211.612 144.801 202.243C145.832 204.248 146.294 206.635 146.071 209.369Z" fill="#42210B"/>
</g>
</g>
<defs>
<linearGradient id="paint0_linear_6_2023" x1="141.228" y1="89.4876" x2="141.228" y2="124.243" gradientUnits="userSpaceOnUse">
<stop stop-color="white"/>
<stop offset="1" stop-color="white"/>
</linearGradient>
<linearGradient id="paint1_linear_6_2023" x1="69245" y1="79668.5" x2="69245" y2="95005.9" gradientUnits="userSpaceOnUse">
<stop stop-color="white"/>
<stop offset="1" stop-color="white"/>
</linearGradient>
<linearGradient id="paint2_linear_6_2023" x1="67827.2" y1="60682.5" x2="67827.2" y2="69958.7" gradientUnits="userSpaceOnUse">
<stop stop-color="white"/>
<stop offset="1" stop-color="white"/>
</linearGradient>
<linearGradient id="paint3_linear_6_2023" x1="69938.2" y1="61338.2" x2="69938.2" y2="70447.2" gradientUnits="userSpaceOnUse">
<stop stop-color="white"/>
<stop offset="1" stop-color="white"/>
</linearGradient>
<clipPath id="clip0_6_2023">
<rect width="250" height="240.794" fill="white"/>
</clipPath>
</defs>
</svg>
