<svg width="373" height="810" viewBox="0 0 373 810" fill="none" xmlns="http://www.w3.org/2000/svg">
<g clip-path="url(#clip0_10_8466)">
<path d="M695.141 657.984H-800.87V872.105H695.141V657.984Z" fill="url(#paint0_linear_10_8466)"/>
<g style="mix-blend-mode:multiply" opacity="0.61">
<path d="M-657.402 685.39L361.018 691.082L365.206 694.544L-659.539 686.563L-657.402 685.39Z" fill="#776A98"/>
</g>
<g style="mix-blend-mode:multiply" opacity="0.61">
<path d="M-696.491 706.787L390.874 714.368L393.545 716.456L-701.983 709.848L-696.491 706.787Z" fill="#776A98"/>
</g>
<g style="mix-blend-mode:multiply" opacity="0.61">
<path d="M-744.47 733.048L437.849 751.07L444.602 756.362L-749.001 735.537L-744.47 733.048Z" fill="#776A98"/>
</g>
<g style="mix-blend-mode:multiply" opacity="0.61">
<path d="M-800.87 783.453L695.141 793.465V798.7L-800.87 788.202V783.453Z" fill="#776A98"/>
</g>
<path style="mix-blend-mode:color-dodge" opacity="0.59" d="M695.141 798.7L-800.87 788.202V793.465L695.141 801.561V798.7Z" fill="url(#paint1_linear_10_8466)"/>
<path style="mix-blend-mode:color-dodge" opacity="0.59" d="M444.602 756.362L446.355 757.735L-751.715 737.739L-749.001 735.537L444.602 756.362Z" fill="url(#paint2_linear_10_8466)"/>
<path style="mix-blend-mode:color-dodge" opacity="0.59" d="M393.545 716.456L-701.983 709.848L-705.339 711.622L395.618 718.087L393.545 716.456Z" fill="url(#paint3_linear_10_8466)"/>
<path style="mix-blend-mode:color-dodge" opacity="0.59" d="M365.207 694.544L-659.539 686.562L-661.078 687.42L366.809 695.573L365.207 694.544Z" fill="url(#paint4_linear_10_8466)"/>
<g style="mix-blend-mode:multiply" opacity="0.42">
<path d="M65.9831 676.55L325.049 681.899H190.344L332.359 685.389L357.47 706.787L220.692 703.526L368.092 709.848L388.993 729.443H321.801L399.145 733.048L454.283 763.915L343.108 677.065L65.9831 676.55Z" fill="#776A98"/>
</g>
<path style="mix-blend-mode:color-dodge" opacity="0.62" d="M-579.674 828.137L-535.328 801.561L695.141 810.029V865.926L-579.674 828.137Z" fill="url(#paint5_linear_10_8466)"/>
<path style="mix-blend-mode:color-dodge" opacity="0.62" d="M695.141 783.596L-473.607 773.669L-420.135 750.555L440.563 760.053L454.283 771.524H695.141V783.596Z" fill="url(#paint6_linear_10_8466)"/>
<path style="mix-blend-mode:color-dodge" opacity="0.62" d="M408.099 746.636L393.545 735.537L-311.888 723.35L-362.111 733.048L408.099 746.636Z" fill="url(#paint7_linear_10_8466)"/>
<path style="mix-blend-mode:color-dodge" opacity="0.62" d="M340.907 702.267L332.636 696.46L-386.902 691.082L-411.907 702.267H340.907Z" fill="url(#paint8_linear_10_8466)"/>
<path d="M695.141 -272.133H-800.87V658.013H695.141V-272.133Z" fill="url(#paint9_linear_10_8466)"/>
<path d="M695.141 763.915H454.284L343.109 658.013L331.119 -189.488H695.141V763.915Z" fill="#E5E77A"/>
<path d="M-551.356 746.35L269.911 752.014L393.545 837.062H292.201L280.468 825.505L269.847 837.062H-342.513L-362.261 819.326L-381.431 833.257H-454.928L-451.615 809.686L-508.036 835.174L-682.834 837.062L-551.356 746.35Z" fill="url(#paint10_linear_10_8466)"/>
<g style="mix-blend-mode:multiply" opacity="0.26">
<path d="M280.468 825.505L226.954 775.186L269.846 837.062L280.468 825.505Z" fill="#A21800"/>
</g>
<path d="M-682.834 837.062L-678.945 843.413L-508.036 840.237L-454.821 813.032L-459.437 837.062L-378.225 835.174L-362.261 823.789L-342.834 843.413L271.279 839.522L280.468 829.824L292.394 839.98L393.545 841.467V837.062H292.201L280.468 825.505L269.847 837.062H-342.513L-362.261 819.326L-381.431 833.257H-454.928L-451.615 809.686L-508.036 835.174L-682.834 837.062Z" fill="#682C39"/>
<g style="mix-blend-mode:multiply" opacity="0.26">
<g style="mix-blend-mode:multiply" opacity="0.26">
<path d="M-386.411 792.807L-135.936 768.749L98.9165 792.807L-140.851 816.35L-386.411 792.807Z" fill="#A21800"/>
</g>
<g style="mix-blend-mode:multiply" opacity="0.26">
<path d="M51.9205 812.717L131.23 787.858L55.0407 774.442L81.8193 770.58L192.204 787.858L117.04 812.717H51.9205Z" fill="#A21800"/>
</g>
<g style="mix-blend-mode:multiply" opacity="0.26">
<path d="M150.508 812.717L215.028 785.655L106.76 767.118L141.061 766.975L259.93 782.108L196.307 810.2L150.508 812.717Z" fill="#A21800"/>
</g>
</g>
<g style="mix-blend-mode:soft-light">
<path d="M-292.504 826.563L-254.655 764.315L175.427 766.976L231.698 826.563H-292.504Z" fill="#FFFECA"/>
</g>
<path d="M343.108 658.013L454.283 763.915L455.95 -272.133H329.345L343.108 658.013Z" fill="url(#paint11_linear_10_8466)"/>
<path style="mix-blend-mode:multiply" opacity="0.54" d="M-57.9293 646.828L-58.5491 -363.016H4.04823L-11.2752 646.828H-57.9293Z" fill="url(#paint12_linear_10_8466)"/>
<path style="mix-blend-mode:multiply" opacity="0.54" d="M57.1566 663.935L56.5368 -345.881H119.134L103.811 663.935H57.1566Z" fill="url(#paint13_linear_10_8466)"/>
<path style="mix-blend-mode:multiply" opacity="0.54" d="M172.242 659.872L171.623 -349.971H234.22L218.918 659.872H172.242Z" fill="url(#paint14_linear_10_8466)"/>
<path style="mix-blend-mode:multiply" opacity="0.54" d="M283.204 659.872L286.73 -372.342H321.074L334.88 657.755L283.204 659.872Z" fill="url(#paint15_linear_10_8466)"/>
<path style="mix-blend-mode:multiply" opacity="0.54" d="M359.714 669.913L343.344 -272.133H387.07L376.427 681.899L359.714 669.913Z" fill="url(#paint16_linear_10_8466)"/>
<g style="mix-blend-mode:multiply">
<g style="mix-blend-mode:darken">
<g style="mix-blend-mode:multiply" opacity="0.46">
<g style="mix-blend-mode:multiply" opacity="0.46">
<path d="M80.8363 6.83938C78.1458 6.75122 75.5244 7.98566 73.4678 10.3093C71.4112 12.6329 70.0618 15.8846 69.675 19.4496C69.2881 23.0147 69.8905 26.6459 71.3682 29.6567C72.846 32.6675 75.0966 34.8492 77.6947 35.7893C77.4201 37.1611 77.4801 38.6143 77.8657 39.9373C78.3503 41.5609 79.2969 42.8603 80.4973 43.5497C81.6977 44.2391 83.0535 44.2619 84.2665 43.6133C85.4795 42.9646 86.4502 41.6975 86.9653 40.0907C87.4803 38.484 87.4974 36.6692 87.0127 35.0456C86.899 34.6694 86.7632 34.306 86.6067 33.9585C88.5783 32.2365 90.0864 29.715 90.9105 26.7631C91.7345 23.8113 91.8311 20.5839 91.1863 17.5531C90.5414 14.5224 89.1889 11.8475 87.3266 9.91974C85.4643 7.99196 83.1899 6.91253 80.8363 6.83938V6.83938Z" fill="white"/>
</g>
<g style="mix-blend-mode:multiply" opacity="0.46">
<path d="M85.4954 6.61043C86.1218 6.29947 86.6646 5.74526 87.0543 5.0188C87.444 4.29233 87.6627 3.42668 87.6826 2.53277C87.7024 1.63885 87.5224 0.757348 87.1656 0.00120859C86.8089 -0.75493 86.2916 -1.35128 85.68 -1.71145C85.0685 -2.07162 84.3906 -2.17922 83.733 -2.02045C83.0755 -1.86168 82.4684 -1.44377 81.9894 -0.820266C81.5104 -0.196759 81.1814 0.60397 81.0446 1.47931C80.9077 2.35466 80.9691 3.26475 81.221 4.09304C81.5497 5.17355 82.1796 6.04047 82.9774 6.51032C83.7752 6.98017 84.6782 7.01608 85.4954 6.61043V6.61043Z" fill="white"/>
</g>
<g style="mix-blend-mode:multiply" opacity="0.46">
<path d="M68.5477 46.4881C67.9213 46.8014 67.3792 47.3579 66.9908 48.0865C66.6024 48.815 66.3854 49.6822 66.3678 50.5769C66.3502 51.4716 66.5326 52.3529 66.8918 53.1078C67.2509 53.8627 67.7704 54.4568 68.3836 54.8138C68.9967 55.1708 69.6755 55.2745 70.333 55.1115C70.9904 54.9485 71.5965 54.5263 72.0735 53.8991C72.5505 53.2719 72.8765 52.4682 73.0099 51.5912C73.1432 50.7142 73.0778 49.8038 72.822 48.9769C72.4893 47.9016 71.8577 47.0412 71.0604 46.5769C70.263 46.1126 69.3622 46.0808 68.5477 46.4881Z" fill="white"/>
</g>
<g style="mix-blend-mode:multiply" opacity="0.46">
<path d="M106.675 24.5184C106.142 22.7387 105.226 21.2105 104.045 20.1268C102.863 19.0432 101.468 18.4527 100.035 18.4301C98.6031 18.4075 97.1979 18.9537 95.9974 19.9997C94.7969 21.0458 93.855 22.5446 93.2908 24.307C92.7265 26.0693 92.5652 28.016 92.8272 29.901C93.0893 31.786 93.7629 33.5248 94.7629 34.8975C95.763 36.2702 97.0446 37.2153 98.4458 37.6134C99.8471 38.0115 101.305 37.8446 102.635 37.1339C104.418 36.1734 105.844 34.3068 106.601 31.9425C107.358 29.5782 107.384 26.9088 106.675 24.5184Z" fill="white"/>
</g>
</g>
<g style="mix-blend-mode:multiply" opacity="0.46">
<g style="mix-blend-mode:multiply" opacity="0.46">
<path d="M79.0411 126.959C76.3506 126.871 73.7292 128.105 71.6725 130.429C69.6159 132.752 68.2666 136.004 67.8797 139.569C67.4929 143.134 68.0952 146.765 69.573 149.776C71.0508 152.787 73.3014 154.969 75.8995 155.909C75.6262 157.29 75.686 158.752 76.0704 160.085C76.5579 161.713 77.5084 163.014 78.7128 163.704C79.9172 164.393 81.2768 164.414 82.4926 163.761C83.7084 163.109 84.6808 161.836 85.1958 160.224C85.7108 158.612 85.7263 156.792 85.2389 155.165C85.1106 154.793 84.9611 154.421 84.8115 154.078C86.3287 152.778 87.5816 150.995 88.458 148.888C89.3345 146.782 89.8071 144.417 89.8338 142.006C89.8649 140.069 89.6104 138.142 89.0846 136.337C88.5587 134.532 87.7721 132.883 86.7695 131.485C85.767 130.088 84.5684 128.968 83.2422 128.192C81.916 127.415 80.4884 126.996 79.0411 126.959V126.959Z" fill="white"/>
</g>
<g style="mix-blend-mode:multiply" opacity="0.46">
<path d="M83.7002 126.73C84.3266 126.419 84.8694 125.865 85.2591 125.138C85.6487 124.412 85.8675 123.546 85.8873 122.652C85.9072 121.758 85.7272 120.877 85.3704 120.121C85.0136 119.364 84.4963 118.768 83.8848 118.408C83.2732 118.048 82.5953 117.94 81.9378 118.099C81.2802 118.258 80.6731 118.676 80.1942 119.299C79.7152 119.923 79.3862 120.723 79.2493 121.599C79.1124 122.474 79.1739 123.384 79.4259 124.212C79.7545 125.293 80.3844 126.16 81.1822 126.63C81.9799 127.1 82.883 127.135 83.7002 126.73V126.73Z" fill="white"/>
</g>
<g style="mix-blend-mode:multiply" opacity="0.46">
<path d="M66.8166 166.608C66.1903 166.921 65.6481 167.477 65.2597 168.206C64.8713 168.934 64.6544 169.802 64.6367 170.696C64.6191 171.591 64.8016 172.472 65.1607 173.227C65.5199 173.982 66.0394 174.576 66.6525 174.933C67.2656 175.29 67.9444 175.394 68.6019 175.231C69.2593 175.068 69.8654 174.646 70.3424 174.018C70.8193 173.391 71.1454 172.588 71.2788 171.711C71.4121 170.834 71.3467 169.923 71.0909 169.096C70.7582 168.021 70.1266 167.161 69.3293 166.696C68.5319 166.232 67.6311 166.2 66.8166 166.608Z" fill="white"/>
</g>
<g style="mix-blend-mode:multiply" opacity="0.46">
<path d="M104.901 144.638C104.369 142.848 103.453 141.31 102.268 140.219C101.083 139.127 99.6831 138.531 98.2448 138.505C96.8064 138.479 95.3947 139.026 94.1886 140.075C92.9825 141.124 92.0361 142.629 91.4695 144.399C90.9028 146.169 90.7414 148.124 91.0056 150.017C91.2697 151.909 91.9477 153.655 92.9535 155.031C93.9593 156.408 95.2477 157.354 96.6555 157.749C98.0633 158.145 99.5271 157.972 100.862 157.253C102.644 156.293 104.07 154.426 104.827 152.062C105.584 149.697 105.611 147.028 104.901 144.638Z" fill="white"/>
</g>
</g>
<g style="mix-blend-mode:multiply" opacity="0.46">
<g style="mix-blend-mode:multiply" opacity="0.46">
<path d="M77.2459 247.078C74.5574 246.998 71.94 248.238 69.8877 250.563C67.8355 252.889 66.4903 256.141 66.1063 259.703C65.7224 263.266 66.326 266.893 67.8035 269.901C69.2809 272.909 71.5299 275.088 74.1257 276.028C73.926 277.034 73.9076 278.09 74.072 279.107C74.2363 280.125 74.5787 281.076 75.0711 281.881C75.5634 282.687 76.1916 283.326 76.904 283.743C77.6164 284.161 78.3927 284.347 79.1691 284.285C79.9455 284.223 80.6998 283.915 81.37 283.387C82.0403 282.859 82.6074 282.125 83.0247 281.247C83.442 280.368 83.6975 279.369 83.7703 278.333C83.8431 277.296 83.7312 276.252 83.4437 275.284C83.327 274.914 83.1838 274.559 83.0162 274.226C84.9973 272.509 86.5144 269.986 87.3447 267.029C88.1749 264.071 88.2744 260.835 87.6285 257.797C86.9827 254.758 85.6255 252.077 83.7566 250.148C81.8877 248.218 79.6056 247.142 77.2459 247.078V247.078Z" fill="white"/>
</g>
<g style="mix-blend-mode:multiply" opacity="0.46">
<path d="M81.9263 246.849C82.5527 246.536 83.0948 245.98 83.4832 245.251C83.8716 244.523 84.0886 243.655 84.1062 242.761C84.1239 241.866 83.9414 240.985 83.5822 240.23C83.2231 239.475 82.7036 238.881 82.0904 238.524C81.4773 238.167 80.7984 238.063 80.141 238.226C79.4835 238.389 78.8775 238.811 78.4005 239.438C77.9235 240.066 77.5975 240.869 77.4641 241.746C77.3308 242.623 77.3962 243.534 77.652 244.361C77.9847 245.436 78.6162 246.296 79.4136 246.761C80.2109 247.225 81.1118 247.257 81.9263 246.849V246.849Z" fill="white"/>
</g>
<g style="mix-blend-mode:multiply" opacity="0.46">
<path d="M64.9573 286.727C64.3309 287.04 63.7888 287.597 63.4004 288.325C63.012 289.054 62.7951 289.921 62.7774 290.816C62.7598 291.71 62.9422 292.592 63.3014 293.347C63.6606 294.101 64.18 294.696 64.7931 295.053C65.4063 295.41 66.0851 295.513 66.7426 295.35C67.4 295.187 68.0061 294.765 68.4831 294.138C68.96 293.511 69.2861 292.707 69.4195 291.83C69.5529 290.953 69.4874 290.043 69.2316 289.216C68.8989 288.14 68.2673 287.28 67.47 286.816C66.6726 286.351 65.7718 286.32 64.9573 286.727V286.727Z" fill="white"/>
</g>
<g style="mix-blend-mode:multiply" opacity="0.46">
<path d="M103.148 264.786C102.615 263.006 101.7 261.478 100.518 260.394C99.3366 259.31 97.9415 258.72 96.5091 258.697C95.0768 258.675 93.6716 259.221 92.4711 260.267C91.2706 261.313 90.3287 262.812 89.7645 264.574C89.2002 266.336 89.0389 268.283 89.3009 270.168C89.563 272.053 90.2366 273.792 91.2366 275.165C92.2367 276.537 93.5183 277.483 94.9195 277.881C96.3207 278.279 97.7786 278.112 99.109 277.401C100.892 276.441 102.318 274.574 103.075 272.21C103.832 269.845 103.858 267.176 103.148 264.786Z" fill="white"/>
</g>
</g>
<g style="mix-blend-mode:multiply" opacity="0.46">
<g style="mix-blend-mode:multiply" opacity="0.46">
<path d="M75.472 367.198C72.7815 367.109 70.1601 368.344 68.1035 370.667C66.0469 372.991 64.6975 376.243 64.3106 379.808C63.9238 383.373 64.5262 387.004 66.0039 390.015C67.4817 393.026 69.7323 395.207 72.3304 396.147C72.0351 397.526 72.0953 398.997 72.5014 400.324C72.986 401.948 73.9326 403.247 75.133 403.936C76.3334 404.626 77.6892 404.649 78.9022 404C80.1151 403.351 81.0859 402.084 81.6009 400.477C82.116 398.871 82.133 397.056 81.6484 395.432C81.5404 395.047 81.3968 394.682 81.221 394.345C83.2007 392.629 84.7172 390.109 85.548 387.155C86.3788 384.2 86.4801 380.967 85.8369 377.929C85.1937 374.892 83.84 372.211 81.9745 370.279C80.1089 368.348 77.8299 367.268 75.472 367.198V367.198Z" fill="white"/>
</g>
<g style="mix-blend-mode:multiply" opacity="0.46">
<path d="M80.1311 366.969C80.7574 366.656 81.2996 366.099 81.688 365.37C82.0764 364.642 82.2933 363.775 82.311 362.88C82.3286 361.985 82.1461 361.104 81.787 360.349C81.4278 359.594 80.9083 359 80.2952 358.643C79.6821 358.286 79.0032 358.182 78.3457 358.345C77.6883 358.508 77.0822 358.931 76.6053 359.558C76.1283 360.185 75.8022 360.989 75.6689 361.866C75.5355 362.743 75.6009 363.653 75.8568 364.48C76.1851 365.56 76.8162 366.425 77.615 366.89C78.4138 367.355 79.317 367.384 80.1311 366.969V366.969Z" fill="white"/>
</g>
<g style="mix-blend-mode:multiply" opacity="0.46">
<path d="M63.1621 406.847C62.5357 407.158 61.9929 407.712 61.6032 408.438C61.2135 409.165 60.9948 410.03 60.9749 410.924C60.9551 411.818 61.1351 412.7 61.4919 413.456C61.8486 414.212 62.3659 414.808 62.9775 415.169C63.589 415.529 64.2669 415.636 64.9244 415.478C65.5819 415.319 66.189 414.901 66.668 414.277C67.147 413.654 67.476 412.853 67.6129 411.978C67.7497 411.102 67.6883 410.192 67.4364 409.364C67.1077 408.283 66.4778 407.417 65.6801 406.947C64.8823 406.477 63.9793 406.441 63.1621 406.847V406.847Z" fill="white"/>
</g>
<g style="mix-blend-mode:multiply" opacity="0.46">
<path d="M101.31 384.905C100.777 383.125 99.8622 381.597 98.6805 380.514C97.4988 379.43 96.1035 378.839 94.6712 378.817C93.2389 378.794 91.8337 379.34 90.6332 380.386C89.4327 381.432 88.4908 382.931 87.9266 384.694C87.3623 386.456 87.2009 388.403 87.463 390.288C87.725 392.173 88.3986 393.911 89.3987 395.284C90.3987 396.657 91.6804 397.602 93.0816 398C94.4829 398.398 95.9408 398.231 97.2712 397.521C98.1557 397.048 98.962 396.347 99.6438 395.457C100.326 394.567 100.87 393.506 101.245 392.334C101.62 391.162 101.819 389.903 101.83 388.628C101.841 387.354 101.665 386.088 101.31 384.905V384.905Z" fill="white"/>
</g>
</g>
<g style="mix-blend-mode:multiply" opacity="0.46">
<g style="mix-blend-mode:multiply" opacity="0.46">
<path d="M73.6769 487.317C70.9955 487.258 68.39 488.508 66.3477 490.835C64.3055 493.161 62.9665 496.404 62.5814 499.956C62.1963 503.508 62.7914 507.127 64.2554 510.134C65.7194 513.142 67.9519 515.332 70.5352 516.295C70.2621 517.667 70.3221 519.12 70.7062 520.443C71.1909 522.067 72.1375 523.366 73.3378 524.056C74.5382 524.745 75.894 524.768 77.107 524.119C78.32 523.471 79.2908 522.204 79.8058 520.597C80.3208 518.99 80.3379 517.175 79.8533 515.552C79.7453 515.167 79.6017 514.802 79.4258 514.465C81.4055 512.749 82.9221 510.229 83.7529 507.274C84.5837 504.319 84.6849 501.086 84.0418 498.049C83.3986 495.012 82.0448 492.33 80.1793 490.399C78.3138 488.467 76.0348 487.387 73.6769 487.317V487.317Z" fill="white"/>
</g>
<g style="mix-blend-mode:multiply" opacity="0.46">
<path d="M78.3359 487.088C78.9623 486.775 79.5044 486.218 79.8928 485.49C80.2812 484.761 80.4981 483.894 80.5157 482.999C80.5334 482.105 80.3509 481.223 79.9918 480.468C79.6326 479.713 79.1132 479.119 78.5 478.762C77.8869 478.405 77.2081 478.302 76.5506 478.465C75.8931 478.627 75.2871 479.05 74.8101 479.677C74.3332 480.304 74.0071 481.108 73.8738 481.985C73.7404 482.862 73.8058 483.772 74.0617 484.599C74.3943 485.675 75.0259 486.535 75.8232 486.999C76.6205 487.464 77.5214 487.495 78.3359 487.088V487.088Z" fill="white"/>
</g>
<g style="mix-blend-mode:multiply" opacity="0.46">
<path d="M61.3881 526.966C60.7617 527.277 60.2189 527.831 59.8292 528.557C59.4396 529.284 59.2208 530.15 59.201 531.044C59.1811 531.937 59.3611 532.819 59.7179 533.575C60.0747 534.331 60.5919 534.928 61.2035 535.288C61.815 535.648 62.493 535.755 63.1505 535.597C63.808 535.438 64.4152 535.02 64.8941 534.396C65.3731 533.773 65.7021 532.972 65.839 532.097C65.9759 531.222 65.9144 530.311 65.6624 529.483C65.3338 528.403 64.7039 527.536 63.9062 527.066C63.1084 526.596 62.2053 526.56 61.3881 526.966V526.966Z" fill="white"/>
</g>
<g style="mix-blend-mode:multiply" opacity="0.46">
<path d="M99.515 505.024C98.982 503.245 98.0669 501.716 96.8852 500.633C95.7034 499.549 94.3082 498.959 92.8759 498.936C91.4436 498.913 90.0384 499.46 88.8379 500.506C87.6374 501.552 86.6955 503.051 86.1313 504.813C85.567 506.575 85.4057 508.522 85.6677 510.407C85.9298 512.292 86.6034 514.031 87.6034 515.403C88.6035 516.776 89.8851 517.721 91.2863 518.119C92.6875 518.517 94.1455 518.35 95.4759 517.64C96.3604 517.167 97.1667 516.466 97.8485 515.576C98.5304 514.686 99.0744 513.625 99.4496 512.453C99.8247 511.281 100.024 510.022 100.035 508.747C100.046 507.473 99.8694 506.208 99.515 505.024V505.024Z" fill="white"/>
</g>
</g>
<g style="mix-blend-mode:multiply" opacity="0.46">
<g style="mix-blend-mode:multiply" opacity="0.46">
<path d="M71.8816 607.465C69.1911 607.377 66.5698 608.611 64.5131 610.935C62.4565 613.258 61.1071 616.51 60.7203 620.075C60.3334 623.64 60.9358 627.271 62.4135 630.282C63.8913 633.293 66.142 635.475 68.74 636.415C68.4669 637.787 68.5268 639.239 68.911 640.563C69.151 641.367 69.5069 642.099 69.9584 642.719C70.4099 643.339 70.9483 643.834 71.5426 644.175C72.137 644.516 72.7758 644.698 73.4225 644.709C74.0692 644.72 74.7112 644.56 75.3118 644.239C75.9124 643.917 76.4598 643.441 76.9229 642.837C77.3859 642.232 77.7556 641.512 78.0106 640.716C78.2656 639.921 78.401 639.066 78.4091 638.2C78.4173 637.334 78.298 636.475 78.0581 635.671C77.9486 635.292 77.8127 634.928 77.652 634.584C79.6236 632.862 81.1317 630.34 81.9558 627.389C82.7798 624.437 82.8765 621.209 82.2316 618.179C81.5867 615.148 80.2342 612.473 78.3719 610.545C76.5096 608.617 74.2352 607.538 71.8816 607.465V607.465Z" fill="white"/>
</g>
<g style="mix-blend-mode:multiply" opacity="0.46">
<path d="M76.5407 607.236C77.1671 606.925 77.71 606.371 78.0997 605.644C78.4893 604.918 78.708 604.052 78.7279 603.158C78.7477 602.264 78.5677 601.383 78.2109 600.627C77.8542 599.871 77.3369 599.274 76.7253 598.914C76.1138 598.554 75.4359 598.446 74.7783 598.605C74.1208 598.764 73.5137 599.182 73.0347 599.805C72.5557 600.429 72.2267 601.229 72.0899 602.105C71.953 602.98 72.0144 603.89 72.2664 604.719C72.595 605.799 73.2249 606.666 74.0227 607.136C74.8205 607.606 75.7235 607.642 76.5407 607.236V607.236Z" fill="white"/>
</g>
<g style="mix-blend-mode:multiply" opacity="0.46">
<path d="M59.593 647.085C58.9666 647.396 58.4238 647.95 58.0341 648.677C57.6444 649.403 57.4257 650.269 57.4058 651.163C57.386 652.057 57.566 652.938 57.9228 653.695C58.2795 654.451 58.7968 655.047 59.4084 655.407C60.0199 655.767 60.6979 655.875 61.3554 655.716C62.0129 655.557 62.62 655.14 63.099 654.516C63.578 653.893 63.907 653.092 64.0439 652.216C64.1807 651.341 64.1193 650.431 63.8673 649.603C63.5343 648.527 62.904 647.665 62.1077 647.196C61.3113 646.727 60.4105 646.687 59.593 647.085V647.085Z" fill="white"/>
</g>
<g style="mix-blend-mode:multiply" opacity="0.46">
<path d="M97.7413 625.144C97.2099 623.354 96.2937 621.816 95.1088 620.725C93.9239 619.633 92.5236 619.036 91.0853 619.011C89.6469 618.985 88.2353 619.532 87.0291 620.581C85.823 621.63 84.8767 623.135 84.31 624.905C83.7434 626.675 83.5819 628.63 83.8461 630.523C84.1103 632.415 84.7882 634.16 85.794 635.537C86.7998 636.914 88.0882 637.86 89.496 638.255C90.9038 638.651 92.3676 638.478 93.702 637.759C94.5865 637.287 95.3928 636.585 96.0747 635.695C96.7565 634.805 97.3006 633.744 97.6758 632.572C98.0509 631.401 98.2498 630.141 98.2611 628.867C98.2723 627.592 98.0957 626.327 97.7413 625.144V625.144Z" fill="white"/>
</g>
</g>
</g>
<g style="mix-blend-mode:darken">
<g style="mix-blend-mode:multiply" opacity="0.46">
<g style="mix-blend-mode:multiply" opacity="0.46">
<path d="M195.922 6.83938C193.232 6.75122 190.61 7.98566 188.554 10.3093C186.497 12.6329 185.148 15.8846 184.761 19.4496C184.374 23.0147 184.976 26.6459 186.454 29.6567C187.932 32.6675 190.183 34.8492 192.781 35.7893C192.506 37.1611 192.566 38.6143 192.952 39.9373C193.436 41.5609 194.383 42.8603 195.583 43.5497C196.784 44.2391 198.14 44.2619 199.352 43.6133C200.565 42.9646 201.536 41.6975 202.051 40.0907C202.566 38.484 202.583 36.6692 202.099 35.0456C201.985 34.6694 201.849 34.306 201.693 33.9585C203.664 32.2365 205.172 29.715 205.996 26.7631C206.82 23.8113 206.917 20.5839 206.272 17.5531C205.627 14.5224 204.275 11.8475 202.413 9.91974C200.55 7.99196 198.276 6.91253 195.922 6.83938V6.83938Z" fill="white"/>
</g>
<g style="mix-blend-mode:multiply" opacity="0.46">
<path d="M200.581 6.61043C201.208 6.29947 201.751 5.74526 202.14 5.0188C202.53 4.29233 202.749 3.42668 202.768 2.53277C202.788 1.63885 202.608 0.757348 202.252 0.00120859C201.895 -0.75493 201.377 -1.35128 200.766 -1.71145C200.154 -2.07162 199.476 -2.17922 198.819 -2.02045C198.161 -1.86168 197.554 -1.44377 197.075 -0.820266C196.596 -0.196759 196.267 0.60397 196.13 1.47931C195.994 2.35466 196.055 3.26475 196.307 4.09304C196.636 5.17355 197.266 6.04047 198.063 6.51032C198.861 6.98017 199.764 7.01608 200.581 6.61043V6.61043Z" fill="white"/>
</g>
<g style="mix-blend-mode:multiply" opacity="0.46">
<path d="M183.634 46.4881C183.007 46.8014 182.465 47.3579 182.077 48.0865C181.688 48.815 181.471 49.6822 181.454 50.5769C181.436 51.4716 181.619 52.3529 181.978 53.1078C182.337 53.8627 182.856 54.4568 183.469 54.8138C184.083 55.1708 184.761 55.2745 185.419 55.1115C186.076 54.9485 186.682 54.5263 187.159 53.8991C187.636 53.2719 187.962 52.4682 188.096 51.5912C188.229 50.7142 188.164 49.8038 187.908 48.9769C187.575 47.9016 186.944 47.0412 186.146 46.5769C185.349 46.1126 184.448 46.0808 183.634 46.4881V46.4881Z" fill="white"/>
</g>
<g style="mix-blend-mode:multiply" opacity="0.46">
<path d="M221.782 24.5182C221.252 22.7287 220.338 21.1899 219.154 20.0965C217.971 19.0031 216.572 18.4043 215.134 18.3758C213.696 18.3474 212.284 18.8906 211.077 19.9367C209.87 20.9829 208.922 22.4848 208.353 24.2525C207.784 26.0202 207.62 27.9742 207.881 29.8669C208.142 31.7597 208.817 33.5063 209.82 34.8855C210.823 36.2647 212.109 37.2145 213.516 37.6147C214.922 38.0149 216.386 37.8475 217.721 37.1337C219.504 36.1726 220.931 34.3076 221.692 31.9448C222.452 29.582 222.485 26.9127 221.782 24.5182V24.5182Z" fill="white"/>
</g>
</g>
<g style="mix-blend-mode:multiply" opacity="0.46">
<g style="mix-blend-mode:multiply" opacity="0.46">
<path d="M194.127 126.959C191.439 126.878 188.821 128.118 186.769 130.444C184.717 132.77 183.372 136.021 182.988 139.584C182.604 143.147 183.207 146.774 184.685 149.782C186.162 152.789 188.411 154.969 191.007 155.909C190.807 156.915 190.789 157.97 190.953 158.988C191.118 160.005 191.46 160.956 191.952 161.762C192.445 162.568 193.073 163.206 193.785 163.624C194.498 164.042 195.274 164.227 196.05 164.165C196.827 164.103 197.581 163.796 198.251 163.268C198.921 162.739 199.489 162.006 199.906 161.127C200.323 160.249 200.579 159.25 200.651 158.214C200.724 157.177 200.612 156.132 200.325 155.165C200.197 154.793 200.047 154.421 199.897 154.078C201.415 152.778 202.668 150.995 203.544 148.888C204.42 146.782 204.893 144.417 204.92 142.006C204.951 140.069 204.696 138.142 204.171 136.337C203.645 134.532 202.858 132.883 201.855 131.485C200.853 130.088 199.654 128.968 198.328 128.192C197.002 127.415 195.574 126.996 194.127 126.959V126.959Z" fill="white"/>
</g>
<g style="mix-blend-mode:multiply" opacity="0.46">
<path d="M198.807 126.73C199.434 126.419 199.977 125.865 200.366 125.138C200.756 124.412 200.975 123.546 200.995 122.652C201.015 121.758 200.835 120.877 200.478 120.121C200.121 119.364 199.604 118.768 198.992 118.408C198.381 118.048 197.703 117.94 197.045 118.099C196.388 118.258 195.78 118.676 195.301 119.299C194.822 119.923 194.493 120.723 194.357 121.599C194.22 122.474 194.281 123.384 194.533 124.212C194.862 125.293 195.492 126.16 196.289 126.63C197.087 127.1 197.99 127.135 198.807 126.73V126.73Z" fill="white"/>
</g>
<g style="mix-blend-mode:multiply" opacity="0.46">
<path d="M181.838 166.607C181.212 166.921 180.67 167.477 180.282 168.206C179.893 168.934 179.676 169.802 179.659 170.696C179.641 171.591 179.823 172.472 180.183 173.227C180.542 173.982 181.061 174.576 181.674 174.933C182.287 175.29 182.966 175.394 183.624 175.231C184.281 175.068 184.887 174.646 185.364 174.018C185.841 173.391 186.167 172.587 186.301 171.71C186.434 170.833 186.369 169.923 186.113 169.096C185.784 168.016 185.153 167.151 184.355 166.686C183.556 166.221 182.653 166.193 181.838 166.607Z" fill="white"/>
</g>
<g style="mix-blend-mode:multiply" opacity="0.46">
<path d="M219.987 144.638C219.454 142.858 218.538 141.33 217.357 140.246C216.175 139.163 214.78 138.572 213.348 138.55C211.915 138.527 210.51 139.073 209.31 140.119C208.109 141.165 207.167 142.664 206.603 144.426C206.039 146.189 205.877 148.135 206.139 150.02C206.401 151.905 207.075 153.644 208.075 155.017C209.075 156.39 210.357 157.335 211.758 157.733C213.159 158.131 214.617 157.964 215.947 157.253C217.73 156.293 219.156 154.426 219.913 152.062C220.67 149.698 220.697 147.028 219.987 144.638Z" fill="white"/>
</g>
</g>
<g style="mix-blend-mode:multiply" opacity="0.46">
<g style="mix-blend-mode:multiply" opacity="0.46">
<path d="M192.353 247.078C189.663 246.99 187.041 248.224 184.985 250.548C182.928 252.872 181.579 256.123 181.192 259.688C180.805 263.253 181.407 266.885 182.885 269.895C184.363 272.906 186.614 275.088 189.212 276.028C188.916 277.406 188.977 278.878 189.383 280.205C189.918 281.733 190.87 282.929 192.044 283.548C193.217 284.167 194.523 284.16 195.693 283.531C196.864 282.901 197.81 281.696 198.337 280.163C198.864 278.629 198.933 276.884 198.53 275.284C198.421 274.909 198.278 274.553 198.102 274.226C200.082 272.51 201.598 269.99 202.429 267.035C203.26 264.081 203.361 260.847 202.718 257.81C202.075 254.773 200.721 252.092 198.856 250.16C196.99 248.228 194.711 247.148 192.353 247.078V247.078Z" fill="white"/>
</g>
<g style="mix-blend-mode:multiply" opacity="0.46">
<path d="M197.012 246.849C197.639 246.536 198.181 245.98 198.569 245.251C198.958 244.522 199.174 243.655 199.192 242.761C199.21 241.866 199.027 240.985 198.668 240.23C198.309 239.475 197.789 238.881 197.176 238.524C196.563 238.167 195.884 238.063 195.227 238.226C194.569 238.389 193.963 238.811 193.486 239.438C193.009 240.066 192.683 240.869 192.55 241.746C192.417 242.623 192.482 243.534 192.738 244.361C193.066 245.441 193.697 246.306 194.496 246.771C195.295 247.236 196.198 247.264 197.012 246.849V246.849Z" fill="white"/>
</g>
<g style="mix-blend-mode:multiply" opacity="0.46">
<path d="M180.086 286.727C179.283 287.172 178.64 288.018 178.293 289.085C177.946 290.152 177.922 291.358 178.227 292.448C178.55 293.533 179.181 294.403 179.981 294.869C180.782 295.335 181.687 295.36 182.501 294.937C183.284 294.456 183.9 293.589 184.219 292.517C184.538 291.445 184.536 290.25 184.215 289.18C183.893 288.109 183.276 287.245 182.491 286.767C181.707 286.289 180.815 286.234 180 286.613L180.086 286.727Z" fill="white"/>
</g>
<g style="mix-blend-mode:multiply" opacity="0.46">
<path d="M218.191 264.786C217.658 263.006 216.743 261.478 215.562 260.394C214.38 259.31 212.985 258.72 211.552 258.697C210.12 258.675 208.715 259.221 207.514 260.267C206.314 261.313 205.372 262.812 204.808 264.574C204.243 266.336 204.082 268.283 204.344 270.168C204.606 272.053 205.28 273.792 206.28 275.165C207.28 276.537 208.562 277.483 209.963 277.881C211.364 278.279 212.822 278.112 214.152 277.401C215.935 276.441 217.361 274.574 218.118 272.21C218.875 269.845 218.901 267.176 218.191 264.786Z" fill="white"/>
</g>
</g>
<g style="mix-blend-mode:multiply" opacity="0.46">
<g style="mix-blend-mode:multiply" opacity="0.46">
<path d="M190.558 367.198C187.867 367.109 185.246 368.344 183.189 370.667C181.133 372.991 179.783 376.243 179.397 379.808C179.01 383.373 179.612 387.004 181.09 390.015C182.568 393.026 184.818 395.207 187.416 396.147C187.121 397.526 187.181 398.997 187.587 400.324C188.072 401.948 189.019 403.247 190.219 403.936C191.419 404.626 192.775 404.649 193.988 404C195.201 403.351 196.172 402.084 196.687 400.477C197.202 398.871 197.219 397.056 196.734 395.432C196.626 395.047 196.483 394.682 196.307 394.345C198.287 392.629 199.803 390.109 200.634 387.155C201.465 384.2 201.566 380.967 200.923 377.929C200.28 374.892 198.926 372.211 197.06 370.279C195.195 368.348 192.916 367.268 190.558 367.198V367.198Z" fill="white"/>
</g>
<g style="mix-blend-mode:multiply" opacity="0.46">
<path d="M195.217 366.969C195.843 366.656 196.386 366.099 196.774 365.37C197.162 364.642 197.379 363.775 197.397 362.88C197.415 361.985 197.232 361.104 196.873 360.349C196.514 359.594 195.994 359 195.381 358.643C194.768 358.286 194.089 358.182 193.432 358.345C192.774 358.508 192.168 358.931 191.691 359.558C191.214 360.185 190.888 360.989 190.755 361.866C190.622 362.743 190.687 363.653 190.943 364.48C191.275 365.555 191.907 366.416 192.704 366.88C193.502 367.344 194.402 367.376 195.217 366.969V366.969Z" fill="white"/>
</g>
<g style="mix-blend-mode:multiply" opacity="0.46">
<path d="M178.269 406.847C177.643 407.158 177.1 407.712 176.71 408.438C176.321 409.165 176.102 410.03 176.082 410.924C176.062 411.818 176.242 412.7 176.599 413.456C176.956 414.212 177.473 414.808 178.085 415.169C178.696 415.529 179.374 415.636 180.032 415.478C180.689 415.319 181.296 414.901 181.775 414.277C182.254 413.654 182.583 412.853 182.72 411.978C182.857 411.102 182.796 410.192 182.544 409.364C182.215 408.283 181.585 407.417 180.787 406.947C179.99 406.477 179.086 406.441 178.269 406.847V406.847Z" fill="white"/>
</g>
<g style="mix-blend-mode:multiply" opacity="0.46">
<path d="M216.418 384.905C215.885 383.125 214.969 381.597 213.788 380.514C212.606 379.43 211.211 378.839 209.779 378.817C208.346 378.794 206.941 379.34 205.741 380.386C204.54 381.432 203.598 382.931 203.034 384.694C202.47 386.456 202.308 388.403 202.57 390.288C202.832 392.173 203.506 393.911 204.506 395.284C205.506 396.657 206.788 397.602 208.189 398C209.59 398.398 211.048 398.231 212.378 397.521C213.263 397.048 214.069 396.347 214.751 395.457C215.433 394.567 215.977 393.506 216.352 392.334C216.727 391.162 216.926 389.903 216.937 388.628C216.949 387.354 216.772 386.088 216.418 384.905V384.905Z" fill="white"/>
</g>
</g>
<g style="mix-blend-mode:multiply" opacity="0.46">
<g style="mix-blend-mode:multiply" opacity="0.46">
<path d="M188.763 487.317C186.081 487.258 183.476 488.508 181.434 490.835C179.391 493.161 178.052 496.404 177.667 499.956C177.282 503.509 177.877 507.127 179.341 510.134C180.805 513.142 183.038 515.332 185.621 516.295C185.379 517.478 185.389 518.728 185.649 519.904C185.91 521.079 186.411 522.134 187.095 522.949C187.779 523.764 188.62 524.307 189.523 524.516C190.426 524.726 191.354 524.593 192.204 524.134C193.415 523.479 194.384 522.208 194.896 520.599C195.409 518.991 195.425 517.176 194.939 515.552C194.83 515.173 194.694 514.809 194.533 514.465C196.514 512.747 198.031 510.225 198.862 507.267C199.692 504.31 199.791 501.074 199.145 498.036C198.5 494.997 197.142 492.316 195.273 490.386C193.405 488.457 191.123 487.381 188.763 487.317V487.317Z" fill="white"/>
</g>
<g style="mix-blend-mode:multiply" opacity="0.46">
<path d="M193.422 487.088C194.048 486.775 194.59 486.218 194.979 485.49C195.367 484.761 195.584 483.894 195.602 482.999C195.619 482.105 195.437 481.223 195.078 480.468C194.718 479.713 194.199 479.119 193.586 478.762C192.973 478.405 192.294 478.302 191.636 478.465C190.979 478.627 190.373 479.05 189.896 479.677C189.419 480.304 189.093 481.108 188.96 481.985C188.826 482.862 188.892 483.772 189.147 484.599C189.48 485.675 190.112 486.535 190.909 486.999C191.706 487.464 192.607 487.495 193.422 487.088V487.088Z" fill="white"/>
</g>
<g style="mix-blend-mode:multiply" opacity="0.46">
<path d="M176.474 526.966C175.848 527.277 175.305 527.831 174.915 528.557C174.526 529.284 174.307 530.15 174.287 531.044C174.267 531.937 174.447 532.819 174.804 533.575C175.161 534.331 175.678 534.928 176.289 535.288C176.901 535.648 177.579 535.755 178.237 535.597C178.894 535.438 179.501 535.02 179.98 534.396C180.459 533.773 180.788 532.972 180.925 532.097C181.062 531.222 181 530.311 180.748 529.483C180.42 528.403 179.79 527.536 178.992 527.066C178.194 526.596 177.291 526.56 176.474 526.966V526.966Z" fill="white"/>
</g>
<g style="mix-blend-mode:multiply" opacity="0.46">
<path d="M214.623 505.024C214.093 503.235 213.178 501.696 211.995 500.603C210.812 499.509 209.412 498.91 207.974 498.882C206.537 498.853 205.125 499.397 203.918 500.443C202.711 501.489 201.763 502.991 201.194 504.759C200.625 506.526 200.46 508.48 200.721 510.373C200.983 512.266 201.657 514.012 202.66 515.392C203.663 516.771 204.95 517.721 206.356 518.121C207.763 518.521 209.226 518.354 210.562 517.64C212.349 516.685 213.779 514.82 214.54 512.456C215.302 510.091 215.331 507.418 214.623 505.024V505.024Z" fill="white"/>
</g>
</g>
<g style="mix-blend-mode:multiply" opacity="0.46">
<g style="mix-blend-mode:multiply" opacity="0.46">
<path d="M186.968 607.465C184.279 607.384 181.662 608.624 179.609 610.95C177.557 613.276 176.212 616.527 175.828 620.09C175.444 623.653 176.048 627.28 177.525 630.288C179.003 633.295 181.252 635.475 183.847 636.415C183.555 637.782 183.608 639.24 183.997 640.563C184.506 642.143 185.455 643.396 186.643 644.054C187.831 644.712 189.164 644.723 190.359 644.086C191.553 643.449 192.515 642.213 193.039 640.642C193.563 639.07 193.608 637.287 193.165 635.671C193.04 635.297 192.897 634.934 192.738 634.584C194.71 632.862 196.218 630.34 197.042 627.389C197.866 624.437 197.962 621.209 197.318 618.179C196.673 615.148 195.32 612.473 193.458 610.545C191.596 608.617 189.321 607.538 186.968 607.465Z" fill="white"/>
</g>
<g style="mix-blend-mode:multiply" opacity="0.46">
<path d="M191.648 607.236C192.476 606.792 193.137 605.926 193.488 604.829C193.839 603.732 193.85 602.494 193.518 601.386C193.186 600.278 192.54 599.392 191.72 598.923C190.9 598.453 189.975 598.439 189.148 598.883C188.738 599.103 188.364 599.428 188.049 599.841C187.733 600.254 187.481 600.746 187.307 601.29C187.134 601.833 187.042 602.416 187.037 603.007C187.031 603.598 187.113 604.184 187.277 604.733C187.442 605.281 187.685 605.781 187.993 606.204C188.302 606.626 188.67 606.964 189.075 607.196C189.481 607.429 189.917 607.552 190.359 607.558C190.8 607.565 191.238 607.456 191.648 607.236Z" fill="white"/>
</g>
<g style="mix-blend-mode:multiply" opacity="0.46">
<path d="M174.679 647.085C174.052 647.396 173.51 647.95 173.12 648.677C172.73 649.403 172.512 650.269 172.492 651.163C172.472 652.057 172.652 652.938 173.009 653.694C173.365 654.451 173.883 655.047 174.494 655.407C175.106 655.767 175.784 655.875 176.441 655.716C177.099 655.557 177.706 655.139 178.185 654.516C178.664 653.892 178.993 653.092 179.13 652.216C179.267 651.341 179.205 650.431 178.953 649.603C178.625 648.522 177.995 647.655 177.197 647.185C176.399 646.715 175.496 646.68 174.679 647.085V647.085Z" fill="white"/>
</g>
<g style="mix-blend-mode:multiply" opacity="0.46">
<path d="M212.827 625.144C212.294 623.364 211.379 621.836 210.197 620.752C209.016 619.668 207.62 619.078 206.188 619.055C204.756 619.033 203.351 619.579 202.15 620.625C200.95 621.671 200.008 623.17 199.443 624.932C198.879 626.695 198.718 628.641 198.98 630.526C199.242 632.411 199.916 634.15 200.916 635.523C201.916 636.896 203.197 637.841 204.598 638.239C206 638.637 207.458 638.47 208.788 637.759C209.673 637.287 210.479 636.585 211.161 635.695C211.843 634.805 212.387 633.744 212.762 632.572C213.137 631.401 213.336 630.142 213.347 628.867C213.358 627.592 213.182 626.327 212.827 625.144V625.144Z" fill="white"/>
</g>
</g>
</g>
<g style="mix-blend-mode:darken">
<g style="mix-blend-mode:multiply" opacity="0.46">
<g style="mix-blend-mode:multiply" opacity="0.46">
<path d="M302.567 6.98255C299.878 6.95685 297.276 8.24904 295.25 10.6153C293.225 12.9815 291.917 16.2582 291.572 19.827C291.228 23.3958 291.871 27.01 293.381 29.9875C294.89 32.965 297.162 35.1001 299.767 35.9897C299.514 37.3802 299.596 38.8422 300.002 40.1663C300.234 41.0027 300.591 41.7673 301.051 42.4142C301.51 43.061 302.062 43.5766 302.675 43.9298C303.287 44.283 303.946 44.4666 304.613 44.4694C305.28 44.4722 305.94 44.2942 306.554 43.9462C307.168 43.5981 307.723 43.0872 308.185 42.4443C308.648 41.8014 309.008 41.0397 309.244 40.2053C309.481 39.3709 309.589 38.481 309.561 37.5893C309.534 36.6976 309.372 35.8226 309.085 35.0171C308.961 34.6459 308.811 34.2914 308.636 33.9586C310.6 32.1992 312.089 29.6401 312.883 26.6601C313.676 23.6801 313.731 20.4373 313.041 17.4117C312.351 14.3861 310.951 11.7383 309.049 9.86005C307.148 7.9818 304.845 6.97288 302.481 6.98255H302.567Z" fill="white"/>
</g>
<g style="mix-blend-mode:multiply" opacity="0.46">
<path d="M307.225 6.61048C307.851 6.2879 308.391 5.72171 308.774 4.98496C309.157 4.24821 309.366 3.37469 309.375 2.47713C309.383 1.57956 309.191 0.699122 308.822 -0.0506028C308.453 -0.800327 307.925 -1.38492 307.306 -1.72898C306.686 -2.07305 306.004 -2.1608 305.347 -1.98089C304.69 -1.80098 304.089 -1.36169 303.62 -0.719677C303.151 -0.0776614 302.837 0.737623 302.718 1.62097C302.599 2.50432 302.68 3.4152 302.951 4.23611C303.295 5.29547 303.933 6.13481 304.73 6.57763C305.528 7.02045 306.422 7.03223 307.225 6.61048V6.61048Z" fill="white"/>
</g>
<g style="mix-blend-mode:multiply" opacity="0.46">
<path d="M290.855 46.9171C290.244 47.2629 289.724 47.8431 289.359 48.5844C288.995 49.3258 288.803 50.1952 288.807 51.0827C288.811 51.9702 289.012 52.8361 289.384 53.5711C289.755 54.306 290.281 54.8771 290.895 55.2123C291.509 55.5474 292.184 55.6315 292.833 55.454C293.483 55.2764 294.079 54.8453 294.545 54.2148C295.012 53.5844 295.329 52.783 295.456 51.9119C295.582 51.0407 295.513 50.1388 295.257 49.3201C295.087 48.7746 294.838 48.2795 294.524 47.8633C294.21 47.4471 293.838 47.118 293.429 46.8947C293.02 46.6714 292.582 46.5585 292.14 46.5624C291.699 46.5662 291.262 46.6867 290.855 46.9171V46.9171Z" fill="white"/>
</g>
<g style="mix-blend-mode:multiply" opacity="0.46">
<path d="M328.683 24.0033C328.128 22.2259 327.192 20.7089 325.993 19.6445C324.794 18.5801 323.385 18.0162 321.947 18.0243C320.508 18.0323 319.103 18.6121 317.911 19.6899C316.718 20.7678 315.792 22.2953 315.248 24.0788C314.705 25.8623 314.57 27.8215 314.859 29.7081C315.149 31.5947 315.851 33.3237 316.875 34.676C317.9 36.0283 319.201 36.943 320.615 37.3041C322.028 37.6653 323.49 37.4566 324.814 36.7046C325.691 36.2107 326.487 35.4904 327.156 34.5848C327.826 33.6791 328.355 32.6059 328.714 31.4265C329.073 30.247 329.255 28.9844 329.25 27.7107C329.245 26.437 329.052 25.1772 328.683 24.0033V24.0033Z" fill="white"/>
</g>
</g>
<g style="mix-blend-mode:multiply" opacity="0.46">
<g style="mix-blend-mode:multiply" opacity="0.46">
<path d="M302.524 127.13C299.839 127.119 297.244 128.421 295.227 130.792C293.21 133.163 291.909 136.439 291.57 140.004C291.232 143.568 291.878 147.176 293.387 150.147C294.897 153.118 297.166 155.249 299.767 156.138C299.493 157.526 299.576 158.997 300.002 160.314C300.512 161.923 301.479 163.194 302.689 163.848C303.899 164.503 305.254 164.487 306.456 163.804C307.658 163.121 308.608 161.828 309.096 160.207C309.585 158.587 309.573 156.773 309.063 155.165C308.955 154.789 308.812 154.433 308.636 154.107C310.586 152.336 312.061 149.776 312.844 146.802C313.628 143.828 313.68 140.596 312.991 137.58C312.303 134.564 310.911 131.922 309.02 130.041C307.129 128.161 304.837 127.141 302.481 127.13H302.524Z" fill="white"/>
</g>
<g style="mix-blend-mode:multiply" opacity="0.46">
<path d="M307.183 126.759C307.793 126.41 308.313 125.828 308.676 125.085C309.039 124.341 309.23 123.471 309.223 122.582C309.217 121.694 309.014 120.829 308.64 120.095C308.266 119.361 307.737 118.793 307.122 118.461C306.507 118.129 305.831 118.049 305.182 118.23C304.532 118.412 303.938 118.847 303.473 119.481C303.008 120.115 302.694 120.919 302.571 121.792C302.448 122.665 302.521 123.567 302.78 124.384C302.953 124.927 303.203 125.419 303.518 125.832C303.833 126.246 304.205 126.572 304.614 126.792C305.023 127.013 305.46 127.123 305.901 127.118C306.342 127.112 306.777 126.99 307.183 126.759V126.759Z" fill="white"/>
</g>
<g style="mix-blend-mode:multiply" opacity="0.46">
<path d="M290.812 167.065C290.199 167.407 289.675 167.984 289.307 168.725C288.939 169.465 288.744 170.335 288.746 171.224C288.748 172.113 288.946 172.982 289.317 173.719C289.688 174.457 290.214 175.031 290.829 175.368C291.444 175.705 292.119 175.79 292.77 175.613C293.421 175.436 294.018 175.004 294.485 174.372C294.953 173.74 295.27 172.937 295.396 172.064C295.522 171.191 295.451 170.288 295.193 169.468C294.844 168.379 294.19 167.516 293.37 167.067C292.551 166.617 291.632 166.617 290.812 167.065V167.065Z" fill="white"/>
</g>
<g style="mix-blend-mode:multiply" opacity="0.46">
<path d="M328.619 144.151C328.061 142.384 327.124 140.878 325.927 139.823C324.729 138.768 323.325 138.213 321.892 138.227C320.459 138.24 319.061 138.823 317.875 139.901C316.689 140.978 315.768 142.503 315.23 144.281C314.691 146.059 314.559 148.01 314.849 149.889C315.14 151.768 315.84 153.489 316.862 154.835C317.883 156.181 319.18 157.091 320.588 157.45C321.996 157.809 323.452 157.601 324.772 156.853C326.539 155.85 327.937 153.949 328.658 151.567C329.38 149.186 329.365 146.519 328.619 144.151V144.151Z" fill="white"/>
</g>
</g>
<g style="mix-blend-mode:multiply" opacity="0.46">
<g style="mix-blend-mode:multiply" opacity="0.46">
<path d="M302.481 247.278C299.8 247.281 297.212 248.593 295.203 250.968C293.194 253.344 291.901 256.619 291.568 260.18C291.235 263.74 291.884 267.341 293.393 270.306C294.903 273.272 297.169 275.398 299.767 276.285C299.578 277.297 299.572 278.354 299.749 279.37C299.926 280.385 300.281 281.33 300.784 282.126C301.287 282.922 301.925 283.547 302.644 283.948C303.363 284.35 304.143 284.517 304.919 284.436C305.696 284.354 306.447 284.027 307.111 283.481C307.775 282.935 308.332 282.185 308.736 281.294C309.141 280.403 309.382 279.396 309.439 278.356C309.496 277.316 309.367 276.273 309.063 275.313C308.938 274.948 308.796 274.594 308.636 274.254C310.586 272.484 312.061 269.924 312.844 266.95C313.628 263.976 313.68 260.744 312.991 257.727C312.303 254.711 310.911 252.069 309.02 250.189C307.129 248.309 304.837 247.288 302.481 247.278V247.278Z" fill="white"/>
</g>
<g style="mix-blend-mode:multiply" opacity="0.46">
<path d="M307.14 246.906C307.921 246.41 308.528 245.529 308.836 244.448C309.144 243.367 309.128 242.169 308.791 241.103C308.455 240.037 307.825 239.186 307.032 238.727C306.238 238.268 305.343 238.236 304.533 238.639C304.108 238.85 303.72 239.174 303.391 239.591C303.062 240.009 302.8 240.511 302.62 241.068C302.441 241.624 302.347 242.224 302.345 242.83C302.343 243.437 302.433 244.037 302.609 244.596C302.785 245.155 303.044 245.66 303.37 246.081C303.696 246.502 304.083 246.831 304.506 247.047C304.929 247.262 305.381 247.361 305.834 247.337C306.286 247.313 306.731 247.166 307.14 246.906V246.906Z" fill="white"/>
</g>
<g style="mix-blend-mode:multiply" opacity="0.46">
<path d="M290.748 287.213C290.13 287.557 289.602 288.138 289.232 288.884C288.861 289.63 288.665 290.506 288.667 291.402C288.669 292.298 288.87 293.172 289.244 293.915C289.619 294.657 290.149 295.234 290.769 295.572C291.388 295.91 292.069 295.994 292.724 295.814C293.38 295.633 293.98 295.196 294.45 294.558C294.919 293.92 295.236 293.11 295.361 292.23C295.486 291.35 295.413 290.44 295.151 289.616C294.802 288.519 294.143 287.652 293.319 287.202C292.494 286.751 291.57 286.756 290.748 287.213V287.213Z" fill="white"/>
</g>
<g style="mix-blend-mode:multiply" opacity="0.46">
<path d="M328.576 264.299C328.02 262.531 327.085 261.024 325.889 259.968C324.693 258.911 323.29 258.353 321.857 258.364C320.424 258.375 319.026 258.954 317.839 260.029C316.652 261.103 315.73 262.625 315.189 264.401C314.648 266.177 314.513 268.127 314.8 270.006C315.088 271.885 315.785 273.608 316.804 274.957C317.823 276.305 319.117 277.219 320.524 277.583C321.931 277.947 323.387 277.744 324.707 277C325.585 276.507 326.38 275.786 327.049 274.881C327.719 273.975 328.248 272.902 328.607 271.722C328.966 270.543 329.148 269.28 329.143 268.006C329.138 266.733 328.945 265.473 328.576 264.299V264.299Z" fill="white"/>
</g>
</g>
<g style="mix-blend-mode:multiply" opacity="0.46">
<g style="mix-blend-mode:multiply" opacity="0.46">
<path d="M302.417 367.427C299.741 367.45 297.164 368.776 295.166 371.159C293.169 373.541 291.888 376.816 291.563 380.37C291.238 383.925 291.892 387.516 293.402 390.473C294.912 393.429 297.174 395.548 299.767 396.434C299.514 397.824 299.596 399.286 300.002 400.61C300.234 401.447 300.591 402.211 301.05 402.858C301.51 403.505 302.062 404.021 302.675 404.374C303.287 404.727 303.946 404.911 304.613 404.913C305.28 404.916 305.94 404.738 306.554 404.39C307.168 404.042 307.723 403.531 308.185 402.888C308.648 402.245 309.008 401.484 309.244 400.649C309.481 399.815 309.589 398.925 309.561 398.033C309.534 397.142 309.372 396.267 309.085 395.461C308.961 395.09 308.811 394.735 308.636 394.403C310.6 392.643 312.089 390.084 312.882 387.104C313.676 384.124 313.731 380.881 313.041 377.856C312.351 374.83 310.951 372.182 309.049 370.304C307.147 368.426 304.844 367.417 302.481 367.427H302.417Z" fill="white"/>
</g>
<g style="mix-blend-mode:multiply" opacity="0.46">
<path d="M307.076 367.055C307.701 366.732 308.241 366.166 308.624 365.429C309.007 364.692 309.216 363.819 309.225 362.921C309.234 362.024 309.041 361.143 308.672 360.394C308.304 359.644 307.775 359.059 307.156 358.715C306.537 358.371 305.854 358.283 305.198 358.463C304.541 358.643 303.939 359.082 303.47 359.724C303.002 360.366 302.687 361.182 302.568 362.065C302.449 362.948 302.53 363.859 302.801 364.68C303.146 365.74 303.784 366.579 304.581 367.022C305.378 367.465 306.272 367.476 307.076 367.055V367.055Z" fill="white"/>
</g>
<g style="mix-blend-mode:multiply" opacity="0.46">
<path d="M290.705 407.361C290.095 407.707 289.574 408.287 289.21 409.029C288.845 409.77 288.653 410.64 288.657 411.527C288.662 412.415 288.862 413.28 289.234 414.015C289.606 414.75 290.132 415.322 290.746 415.657C291.359 415.992 292.034 416.076 292.684 415.898C293.333 415.721 293.929 415.29 294.396 414.659C294.862 414.029 295.179 413.227 295.306 412.356C295.433 411.485 295.364 410.583 295.108 409.764C294.937 409.219 294.688 408.724 294.374 408.308C294.06 407.891 293.688 407.562 293.279 407.339C292.87 407.116 292.432 407.003 291.991 407.007C291.549 407.011 291.112 407.131 290.705 407.361V407.361Z" fill="white"/>
</g>
<g style="mix-blend-mode:multiply" opacity="0.46">
<path d="M328.533 384.447C327.979 382.67 327.042 381.153 325.843 380.089C324.644 379.024 323.236 378.46 321.797 378.468C320.358 378.476 318.954 379.056 317.761 380.134C316.569 381.212 315.642 382.739 315.099 384.523C314.556 386.306 314.421 388.266 314.71 390.152C315 392.039 315.701 393.768 316.726 395.12C317.75 396.472 319.052 397.387 320.465 397.748C321.878 398.109 323.34 397.901 324.665 397.149C325.542 396.655 326.338 395.934 327.007 395.029C327.676 394.123 328.205 393.05 328.564 391.871C328.924 390.691 329.106 389.428 329.1 388.155C329.095 386.881 328.902 385.621 328.533 384.447Z" fill="white"/>
</g>
</g>
<g style="mix-blend-mode:multiply" opacity="0.46">
<g style="mix-blend-mode:multiply" opacity="0.46">
<path d="M302.374 487.574C299.702 487.611 297.132 488.947 295.142 491.334C293.152 493.721 291.878 496.995 291.559 500.546C291.24 504.097 291.897 507.682 293.407 510.633C294.917 513.583 297.178 515.697 299.767 516.581C299.493 517.969 299.576 519.44 300.002 520.758C300.512 522.366 301.479 523.638 302.689 524.292C303.899 524.947 305.254 524.931 306.456 524.248C307.658 523.565 308.608 522.271 309.096 520.651C309.585 519.031 309.573 517.217 309.063 515.609C308.955 515.233 308.812 514.877 308.636 514.55C310.586 512.78 312.061 510.22 312.844 507.246C313.628 504.272 313.68 501.04 312.991 498.024C312.303 495.007 310.911 492.366 309.02 490.485C307.129 488.605 304.837 487.585 302.481 487.574H302.374Z" fill="white"/>
</g>
<g style="mix-blend-mode:multiply" opacity="0.46">
<path d="M307.033 487.202C307.644 486.854 308.163 486.272 308.526 485.528C308.89 484.785 309.08 483.914 309.073 483.026C309.067 482.138 308.864 481.272 308.49 480.539C308.116 479.805 307.588 479.237 306.972 478.905C306.357 478.573 305.682 478.492 305.032 478.674C304.383 478.856 303.788 479.291 303.323 479.925C302.858 480.559 302.545 481.363 302.421 482.236C302.298 483.109 302.371 484.011 302.631 484.828C302.803 485.371 303.054 485.863 303.368 486.276C303.683 486.69 304.056 487.016 304.464 487.236C304.873 487.457 305.31 487.567 305.751 487.561C306.192 487.556 306.628 487.434 307.033 487.202Z" fill="white"/>
</g>
<g style="mix-blend-mode:multiply" opacity="0.46">
<path d="M290.662 527.509C290.036 527.829 289.496 528.393 289.112 529.128C288.727 529.862 288.516 530.734 288.505 531.631C288.494 532.528 288.684 533.409 289.051 534.16C289.417 534.911 289.943 535.498 290.561 535.845C291.179 536.193 291.86 536.284 292.517 536.109C293.174 535.933 293.777 535.498 294.248 534.86C294.719 534.221 295.036 533.409 295.159 532.527C295.282 531.645 295.204 530.734 294.937 529.912C294.588 528.857 293.951 528.02 293.156 527.574C292.362 527.127 291.469 527.104 290.662 527.509V527.509Z" fill="white"/>
</g>
<g style="mix-blend-mode:multiply" opacity="0.46">
<path d="M328.469 504.595C327.911 502.828 326.975 501.321 325.777 500.267C324.58 499.212 323.176 498.657 321.742 498.67C320.309 498.684 318.911 499.267 317.725 500.344C316.539 501.422 315.619 502.946 315.08 504.724C314.542 506.502 314.41 508.454 314.7 510.333C314.99 512.212 315.691 513.933 316.712 515.279C317.734 516.625 319.03 517.535 320.438 517.894C321.846 518.253 323.302 518.045 324.622 517.297C326.39 516.294 327.788 514.393 328.509 512.011C329.23 509.63 329.216 506.962 328.469 504.595Z" fill="white"/>
</g>
</g>
<g style="mix-blend-mode:multiply" opacity="0.46">
<g style="mix-blend-mode:multiply" opacity="0.46">
<path d="M302.331 607.722C299.651 607.725 297.063 609.037 295.053 611.412C293.044 613.788 291.751 617.063 291.418 620.624C291.085 624.184 291.734 627.785 293.244 630.751C294.753 633.716 297.02 635.842 299.617 636.729C299.429 637.741 299.423 638.799 299.6 639.814C299.777 640.83 300.131 641.774 300.634 642.57C301.138 643.366 301.775 643.991 302.494 644.392C303.213 644.794 303.993 644.961 304.77 644.88C305.547 644.799 306.298 644.471 306.961 643.925C307.625 643.379 308.182 642.629 308.587 641.738C308.992 640.847 309.232 639.84 309.289 638.8C309.346 637.76 309.217 636.717 308.914 635.757C308.789 635.392 308.646 635.038 308.486 634.698C310.436 632.928 311.911 630.368 312.695 627.394C313.479 624.42 313.53 621.188 312.842 618.172C312.154 615.155 310.762 612.514 308.871 610.633C306.979 608.753 304.687 607.733 302.331 607.722Z" fill="white"/>
</g>
<g style="mix-blend-mode:multiply" opacity="0.46">
<path d="M306.99 607.351C307.771 606.854 308.379 605.974 308.686 604.892C308.994 603.811 308.978 602.613 308.642 601.547C308.306 600.481 307.675 599.63 306.882 599.171C306.089 598.712 305.193 598.681 304.383 599.083C303.958 599.294 303.57 599.618 303.241 600.036C302.913 600.453 302.651 600.955 302.471 601.512C302.291 602.069 302.197 602.668 302.195 603.275C302.194 603.881 302.283 604.482 302.46 605.041C302.636 605.599 302.895 606.104 303.221 606.525C303.547 606.947 303.933 607.275 304.356 607.491C304.78 607.707 305.231 607.806 305.684 607.781C306.137 607.757 306.581 607.611 306.99 607.351V607.351Z" fill="white"/>
</g>
<g style="mix-blend-mode:multiply" opacity="0.46">
<path d="M290.598 647.657C289.98 648.001 289.453 648.582 289.082 649.328C288.712 650.074 288.515 650.95 288.517 651.846C288.52 652.742 288.721 653.616 289.095 654.359C289.469 655.101 290 655.678 290.619 656.016C291.239 656.354 291.919 656.439 292.575 656.258C293.23 656.077 293.831 655.64 294.3 655.002C294.77 654.364 295.087 653.554 295.212 652.674C295.336 651.794 295.263 650.884 295.001 650.06C294.652 648.963 293.994 648.096 293.169 647.646C292.345 647.196 291.421 647.2 290.598 647.657V647.657Z" fill="white"/>
</g>
<g style="mix-blend-mode:multiply" opacity="0.46">
<path d="M328.426 624.743C327.858 622.99 326.915 621.5 325.716 620.461C324.517 619.423 323.116 618.882 321.688 618.906C320.26 618.93 318.869 619.519 317.69 620.598C316.511 621.676 315.597 623.198 315.062 624.97C314.527 626.742 314.396 628.687 314.684 630.559C314.972 632.431 315.667 634.148 316.681 635.493C317.696 636.838 318.985 637.752 320.386 638.119C321.788 638.487 323.239 638.292 324.558 637.559C325.445 637.066 326.251 636.341 326.927 635.427C327.603 634.513 328.137 633.428 328.497 632.235C328.857 631.043 329.036 629.766 329.024 628.48C329.012 627.194 328.808 625.923 328.426 624.743Z" fill="white"/>
</g>
</g>
</g>
<g style="mix-blend-mode:darken">
<g style="mix-blend-mode:multiply" opacity="0.46">
<g style="mix-blend-mode:multiply" opacity="0.46">
<path d="M364.758 8.47006C362.856 8.47006 361.338 15.0782 361.36 23.2311C361.36 30.1253 362.492 35.8753 363.967 37.5345C363.872 38.9142 363.872 40.3027 363.967 41.6824C364.309 45.0294 365.207 46.6028 365.976 45.1724C366.881 42.4845 367.164 39.4955 366.788 36.5904C366.752 36.2248 366.702 35.862 366.638 35.5034C367.729 31.6025 368.23 27.4505 368.113 23.2883C368.156 15.0496 366.638 8.44146 364.758 8.47006Z" fill="white"/>
</g>
<g style="mix-blend-mode:multiply" opacity="0.46">
<path d="M366.211 8.2125C366.822 6.36278 367.008 4.31129 366.745 2.31953C366.51 0.0309894 365.891 -1.02746 365.378 -0.054836C364.758 1.79147 364.564 3.84358 364.822 5.83814C365.057 8.01225 365.677 9.0707 366.211 8.2125Z" fill="white"/>
</g>
<g style="mix-blend-mode:multiply" opacity="0.46">
<path d="M361.21 48.4336C360.59 50.2799 360.397 52.332 360.654 54.3265C360.889 56.6151 361.509 57.6735 362.022 56.7009C362.652 54.8585 362.846 52.8021 362.578 50.8079C362.343 48.548 361.744 47.4609 361.21 48.4336Z" fill="white"/>
</g>
<g style="mix-blend-mode:multiply" opacity="0.46">
<path d="M372.9 25.3764C372.409 20.4275 371.084 18.1389 369.93 20.2272C368.594 24.2173 368.191 28.6552 368.776 32.9572C369.267 37.8775 370.592 40.1946 371.725 38.1064C372.858 36.0181 373.392 30.354 372.9 25.3764Z" fill="white"/>
</g>
</g>
<g style="mix-blend-mode:multiply" opacity="0.46">
<g style="mix-blend-mode:multiply" opacity="0.46">
<path d="M365.014 128.618C363.112 128.618 361.595 135.226 361.616 143.379C361.616 150.273 362.749 156.023 364.223 157.682C364.117 159.061 364.117 160.451 364.223 161.83C364.565 165.177 365.463 166.751 366.232 165.32C367.139 162.633 367.415 159.64 367.023 156.738C366.994 156.373 366.951 156.01 366.895 155.651C367.986 151.75 368.487 147.598 368.37 143.436C368.455 135.198 366.895 128.589 365.014 128.618Z" fill="white"/>
</g>
<g style="mix-blend-mode:multiply" opacity="0.46">
<path d="M366.446 128.36C367.066 126.514 367.259 124.462 367.002 122.467C366.767 120.179 366.147 119.12 365.634 120.093C365.014 121.939 364.821 123.992 365.078 125.986C365.313 128.16 366.019 129.219 366.446 128.36Z" fill="white"/>
</g>
<g style="mix-blend-mode:multiply" opacity="0.46">
<path d="M361.445 168.581C360.834 170.431 360.648 172.482 360.911 174.474C361.146 176.763 361.766 177.821 362.279 176.849C362.899 175.002 363.092 172.95 362.834 170.956C362.599 168.696 361.979 167.609 361.445 168.581Z" fill="white"/>
</g>
<g style="mix-blend-mode:multiply" opacity="0.46">
<path d="M373.157 145.524C372.665 140.575 371.34 138.287 370.186 140.375C368.852 144.366 368.443 148.8 369.011 153.105C369.524 158.025 370.849 160.343 371.981 158.254C373.114 156.166 373.648 150.502 373.157 145.524Z" fill="white"/>
</g>
</g>
<g style="mix-blend-mode:multiply" opacity="0.46">
<g style="mix-blend-mode:multiply" opacity="0.46">
<path d="M365.249 248.766C363.369 248.766 361.851 255.374 361.873 263.527C361.873 270.421 362.984 276.171 364.48 277.83C364.374 279.209 364.374 280.599 364.48 281.978C364.822 285.325 365.719 286.898 366.489 285.468C367.385 282.777 367.661 279.788 367.28 276.886C367.28 276.486 367.28 276.142 367.152 275.799C368.242 271.898 368.743 267.746 368.626 263.584C368.69 255.345 367.151 248.737 365.249 248.766Z" fill="white"/>
</g>
<g style="mix-blend-mode:multiply" opacity="0.46">
<path d="M366.703 248.508C367.322 246.662 367.516 244.61 367.258 242.615C367.023 240.327 366.403 239.268 365.869 240.241C365.258 242.091 365.072 244.142 365.335 246.134C365.57 248.308 366.19 249.367 366.703 248.508Z" fill="white"/>
</g>
<g style="mix-blend-mode:multiply" opacity="0.46">
<path d="M361.744 288.729C361.133 290.579 360.947 292.63 361.21 294.622C361.445 296.911 362.044 297.969 362.578 296.996C363.2 295.151 363.386 293.095 363.112 291.104C362.856 288.844 362.236 287.757 361.744 288.729Z" fill="white"/>
</g>
<g style="mix-blend-mode:multiply" opacity="0.46">
<path d="M373.413 265.672C372.922 260.723 371.597 258.435 370.443 260.523C369.108 264.514 368.699 268.948 369.267 273.253C369.78 278.173 371.105 280.49 372.238 278.402C373.568 274.41 373.978 269.978 373.413 265.672Z" fill="white"/>
</g>
</g>
<g style="mix-blend-mode:multiply" opacity="0.46">
<g style="mix-blend-mode:multiply" opacity="0.46">
<path d="M365.506 368.914C363.625 368.914 362.108 375.522 362.129 383.675C362.129 390.569 363.24 396.319 364.737 397.978C364.62 399.357 364.62 400.748 364.737 402.126C365.057 405.473 365.976 407.047 366.745 405.616C367.642 402.925 367.917 399.937 367.536 397.034C367.536 396.634 367.536 396.29 367.408 395.947C368.499 392.046 369 387.894 368.883 383.732C368.947 375.493 367.408 368.885 365.506 368.914Z" fill="white"/>
</g>
<g style="mix-blend-mode:multiply" opacity="0.46">
<path d="M366.959 368.656C367.581 366.81 367.767 364.755 367.493 362.763C367.28 360.475 366.66 359.416 366.126 360.389C365.514 362.239 365.328 364.29 365.591 366.282C365.826 368.456 366.425 369.515 366.959 368.656Z" fill="white"/>
</g>
<g style="mix-blend-mode:multiply" opacity="0.46">
<path d="M361.958 408.877C361.336 410.723 361.15 412.779 361.424 414.77C361.659 417.059 362.257 418.117 362.792 417.144C363.413 415.299 363.6 413.243 363.326 411.252C363.112 408.992 362.492 407.905 361.958 408.877Z" fill="white"/>
</g>
<g style="mix-blend-mode:multiply" opacity="0.46">
<path d="M373.67 385.82C373.157 380.871 371.832 378.583 370.699 380.671C369.566 382.759 369.032 388.452 369.524 393.401C370.015 398.35 371.34 400.639 372.494 398.55C373.825 394.558 374.234 390.126 373.67 385.82V385.82Z" fill="white"/>
</g>
</g>
<g style="mix-blend-mode:multiply" opacity="0.46">
<g style="mix-blend-mode:multiply" opacity="0.46">
<path d="M365.762 489.062C363.882 489.062 362.364 495.67 362.364 503.823C362.364 510.717 363.497 516.467 364.993 518.126C364.887 519.505 364.887 520.895 364.993 522.274C365.335 525.621 366.232 527.195 367.13 525.764C368.026 523.073 368.302 520.085 367.921 517.182C367.885 516.817 367.835 516.454 367.771 516.095C368.869 512.196 369.378 508.044 369.267 503.88C369.203 495.641 367.664 489.033 365.762 489.062Z" fill="white"/>
</g>
<g style="mix-blend-mode:multiply" opacity="0.46">
<path d="M367.215 488.804C367.837 486.959 368.023 484.903 367.75 482.911C367.536 480.623 366.916 479.564 366.382 480.537C365.76 482.383 365.574 484.439 365.848 486.43C366.019 488.604 366.681 489.663 367.215 488.804Z" fill="white"/>
</g>
<g style="mix-blend-mode:multiply" opacity="0.46">
<path d="M362.215 529.025C361.593 530.871 361.406 532.927 361.68 534.918C361.894 537.207 362.514 538.265 363.048 537.293C363.67 535.447 363.856 533.391 363.582 531.4C363.347 529.14 362.749 528.053 362.215 529.025Z" fill="white"/>
</g>
<g style="mix-blend-mode:multiply" opacity="0.46">
<path d="M373.905 505.968C373.413 501.019 372.088 498.731 370.956 500.819C369.823 502.908 369.289 508.6 369.78 513.549C370.272 518.498 371.597 520.787 372.751 518.698C374.083 514.707 374.485 510.271 373.905 505.968V505.968Z" fill="white"/>
</g>
</g>
<g style="mix-blend-mode:multiply" opacity="0.46">
<g style="mix-blend-mode:multiply" opacity="0.46">
<path d="M366.019 609.21C364.138 609.21 362.599 615.818 362.621 623.971C362.621 630.865 363.753 636.615 365.249 638.274C365.143 639.653 365.143 641.043 365.249 642.422C365.591 645.769 366.489 647.343 367.387 645.912C368.283 643.221 368.558 640.232 368.177 637.33C368.142 636.965 368.092 636.602 368.028 636.243C369.126 632.344 369.634 628.192 369.524 624.028C369.46 615.789 367.921 609.181 366.019 609.21Z" fill="white"/>
</g>
<g style="mix-blend-mode:multiply" opacity="0.46">
<path d="M367.472 608.952C368.083 607.103 368.269 605.051 368.006 603.059C367.771 600.771 367.173 599.712 366.638 600.685C366.017 602.531 365.83 604.587 366.104 606.578C366.318 608.752 366.938 609.81 367.472 608.952Z" fill="white"/>
</g>
<g style="mix-blend-mode:multiply" opacity="0.46">
<path d="M362.471 649.173C361.851 651.019 361.658 653.072 361.915 655.066C362.15 657.355 362.77 658.413 363.304 657.44C363.916 655.591 364.102 653.539 363.839 651.548C363.604 649.259 363.005 648.201 362.471 649.173Z" fill="white"/>
</g>
<g style="mix-blend-mode:multiply" opacity="0.46">
<path d="M374.161 626.116C373.67 621.167 372.345 618.879 371.212 620.967C370.079 623.055 369.545 628.748 370.037 633.697C370.528 638.646 371.853 640.934 373.007 638.846C374.339 634.855 374.742 630.418 374.161 626.116Z" fill="white"/>
</g>
</g>
</g>
</g>
<path d="M-800.87 214.61L-627.696 195.1L337.616 232.775L455.95 209.632L695.141 218.471V737.139L454.283 737.74L343.108 658.013L-637.633 628.977L-800.87 703.354V214.61Z" fill="url(#paint17_linear_10_8466)"/>
<path style="mix-blend-mode:multiply" d="M343.108 658.013L337.616 232.775L455.95 209.632L454.283 737.739L343.108 658.013Z" fill="url(#paint18_linear_10_8466)"/>
<path d="M695.141 218.471L446.355 200.735L337.445 218.471L-621.284 174.932L-800.87 192.926V242.758L-625.9 209.632L337.808 247.078L455.95 241.071L695.141 248.737V218.471Z" fill="url(#paint19_linear_10_8466)"/>
<path style="mix-blend-mode:multiply" d="M455.95 241.071L446.141 211.549L331.119 223.792L337.808 247.078L455.95 241.071Z" fill="url(#paint20_linear_10_8466)"/>
<path d="M695.141 225.909L446.141 211.549L337.616 222.934L-620.985 188.892L-800.87 214.609V192.926L-621.284 174.932L337.445 218.471L446.355 200.735L695.141 212.893V225.909Z" fill="#FFFFE0"/>
<path d="M-800.87 242.759L-625.9 209.632L337.808 247.078L455.95 241.071L695.141 248.737V252.542L455.95 249.882L337.958 258.349L-627.909 217.384L-800.87 242.759Z" fill="#6A8990"/>
<path d="M248.176 250.196L222.915 667.882L220.265 667.624L242.171 249.624L248.176 250.196Z" fill="#6A8990"/>
<path d="M371.383 249.71L357.363 667.796H358.603L374.738 249.71H371.383Z" fill="#6A8990"/>
<path d="M105.884 238.982L98.1687 656.783H101.203L109.09 238.41L105.884 238.982Z" fill="#6A8990"/>
<path d="M172.52 244.561L167.519 662.418L170.554 662.39L175.748 243.96L172.52 244.561Z" fill="#6A8990"/>
<path d="M43.3292 243.474L35.614 661.274H38.6488L46.5563 242.902L43.3292 243.474Z" fill="#6A8990"/>
<path d="M285.341 667.224L294.21 249.939L297.801 255.002L288.867 667.396L285.341 667.224Z" fill="#6A8990"/>
<path d="M358.603 667.796L389.527 688.851L396.794 254.144H399.316L390.938 692.312L358.603 667.796Z" fill="url(#paint21_linear_10_8466)"/>
<path d="M343.108 658.013L357.363 667.796L371.169 255.975L368.968 256.118L355.995 663.477L343.108 658.013Z" fill="url(#paint22_linear_10_8466)"/>
<path d="M248.176 254.544L294.082 256.49L285.341 654.923L291.453 262.011L248.176 254.544Z" fill="#FFFFE0"/>
<path d="M175.747 251.455L241.935 254.144L221.012 653.292L239.221 258.349L175.747 251.455Z" fill="#FFFFE0"/>
<path d="M109.09 248.623L172.456 251.312L167.519 652.806V255.975L109.09 248.623Z" fill="#FFFFE0"/>
<path d="M46.5563 245.991L105.691 248.48L98.2755 650.746L103.618 251.455L46.5563 245.991Z" fill="#FFFFE0"/>
<path d="M-8.15503 243.674L43.2863 245.848L35.849 648.916L41.085 248.737L-8.15503 243.674Z" fill="#FFFFE0"/>
<g style="mix-blend-mode:soft-light">
<path d="M50.2749 266.674L85.0037 271.251L89.8123 642.794L49.762 641.85L50.2749 266.674Z" fill="white"/>
</g>
<path d="M695.141 737.139L454.283 737.74L343.108 658.013L-637.633 628.977L-800.87 703.354V763.915L-638.809 675.205L343.108 677.065L454.283 763.915H695.141V737.139Z" fill="#FFFFE0"/>
<g style="mix-blend-mode:multiply" opacity="0.29">
<path d="M695.141 753.902V763.943H454.283L343.108 677.065L111.184 676.636L4.51844 676.436L-638.809 675.234L-800.87 763.943V740.543L-638.809 655.753L6.01441 665.107L109.987 666.624L340.01 669.97L343.108 658.013L454.283 737.768L455.95 753.902H695.141Z" fill="#770000"/>
</g>
<g style="mix-blend-mode:multiply" opacity="0.38">
<path d="M695.141 -189.488L454.283 -61.7593V737.74V763.915L-133.798 676.178L-150.96 643.366L-269.743 226.853L-335.033 199.048V185.402L-619.19 -121.948L-800.87 -47.3416V-272.133H695.141V-189.488Z" fill="#597E98"/>
</g>
<g style="mix-blend-mode:multiply" opacity="0.58">
<path d="M248.475 314.59L239.478 383.246L224.881 382.903C224.624 383.79 222.551 390.798 220.286 392.4C209.815 412.021 196.513 428.635 181.166 441.262C165.82 453.889 148.738 462.273 130.931 465.919H134.65L138.069 494.526L147.772 575.826L158.586 666.28L159.783 676.293L53.1174 676.092L54.6134 664.65L76.3483 501.249L77.7374 490.864L81.3279 463.888C68.0881 460.188 55.3373 453.852 43.5002 445.094C41.1707 443.349 38.9053 441.575 36.704 439.744L36.2979 439.372C34.1608 437.627 32.216 435.854 30.2925 434.051L29.8437 433.622C27.9203 431.82 26.0823 429.989 24.3084 428.13L23.9024 427.701C22.15 425.87 20.483 424.039 18.8587 422.208L18.645 421.979L18.2603 421.522C17.2772 420.377 16.3155 419.262 15.3965 418.146L14.9477 417.603C13.9433 416.401 12.9815 415.171 12.0412 413.97L11.229 412.911C10.5024 411.967 9.79714 411.052 9.09188 410.05L8.38665 409.106C7.55315 407.991 6.76242 406.875 5.99304 405.788L5.18091 404.587C4.62525 403.814 4.11235 403.042 3.59943 402.269C3.08651 401.497 3.06509 401.497 2.80863 401.097C2.14611 400.124 1.50499 399.123 0.906589 398.236L0.115851 396.977L-1.05963 395.089L-1.80758 393.888L-3.30362 391.37L-3.96613 390.226L-4.84237 388.681L-5.44078 387.594C-5.84684 386.879 -6.23152 386.193 -6.57347 385.535L-7.06504 384.591L-7.70616 383.389L-8.15494 382.531L-8.90296 381.072C-8.99994 380.844 -9.10697 380.625 -9.22352 380.414L-9.65098 379.499L-9.90743 378.984L-10.3562 378.04C-10.3501 377.983 -10.3501 377.925 -10.3562 377.868C-10.3562 377.639 -10.5272 377.467 -10.5913 377.324C-10.5983 377.277 -10.5983 377.229 -10.5913 377.181C-10.5862 377.124 -10.5862 377.067 -10.5913 377.01L-22.9441 377.239L-32.7964 313.703L107.017 314.161L106.781 304.749L100.37 304.95C98.7298 307.19 96.7658 308.959 94.5979 310.149C92.43 311.339 90.1036 311.926 87.7607 311.872C79.7036 312.216 73.057 306.981 72.8006 300.201C72.5441 293.421 79.0411 287.614 87.0769 287.271C94.2363 286.956 100.284 291.047 101.652 296.739H106.44L104.815 228.942H94.0012C94.0012 228.942 94.9416 140.261 108.342 134.111C123.921 127.045 127.832 228.827 127.832 228.827H115.458L114.133 297.14H118.579C118.579 290.475 124.99 284.868 132.833 284.524C140.677 284.181 147.558 289.416 147.794 296.196C148.029 302.976 141.574 308.783 133.517 309.126C129.113 309.547 124.747 307.786 121.25 304.177L114.048 304.406L113.813 314.104L248.475 314.59Z" fill="#597E98"/>
</g>
<path d="M-684.501 430.561C-687.045 435.539 -678.517 444.006 -678.517 444.006L-3.17542 388.138C-3.17542 388.138 13.2594 361.762 6.74102 353.066C-1.35881 342.253 -43.3754 348.403 -43.3754 348.403L-641.609 416.515C-641.609 416.515 -679.842 421.436 -684.501 430.561Z" fill="url(#paint23_linear_10_8466)"/>
<g style="mix-blend-mode:multiply" opacity="0.58">
<path d="M53.0747 676.436L154.376 720.232L155.124 703.526L111.184 676.636L53.0747 676.436Z" fill="#597E98"/>
</g>
<g style="mix-blend-mode:multiply" opacity="0.38">
<path d="M57.7977 -178.045L40.8073 -167.804L51.258 180.682L256.575 183.114L263.542 177.964L57.7977 -178.045Z" fill="#597E98"/>
</g>
<path d="M62.2216 169.954L55.5109 -184.854L310.153 -174.87L295.92 169.039L62.2216 169.954Z" fill="#FFEDD4"/>
<path d="M98.3183 138.659L87.8248 -164L285.982 -167.404L268.906 141.891L98.3183 138.659Z" fill="url(#paint24_linear_10_8466)"/>
<path d="M55.34 -193.178L47.7744 -181.593L59.2723 174.017L288.589 173.559L295.92 169.039L62.2216 169.955L55.34 -193.178Z" fill="#395456"/>
<g style="mix-blend-mode:multiply" opacity="0.15">
<path d="M61.5805 -172.954L65.0428 164.691L282.798 166.035L73.6127 157.31L61.5805 -172.954Z" fill="#A40000"/>
</g>
<path d="M86.1578 169.84C86.1578 169.84 108.341 208.459 170.511 208.459C232.681 208.459 250.826 169.268 250.826 169.268L86.1578 169.84Z" fill="#395456"/>
<g style="mix-blend-mode:soft-light">
<path d="M132 -159.68H279.656L263.008 102.614C263.008 102.614 271.022 -99.549 250.826 -130.73C233.322 -157.907 132 -159.68 132 -159.68Z" fill="#FFFECA"/>
</g>
<path d="M94.2362 169.84C94.2362 169.84 116.42 208.459 178.59 208.459C240.76 208.459 258.904 169.268 258.904 169.268L94.2362 169.84Z" fill="#FFEDD4"/>
<g style="mix-blend-mode:multiply" opacity="0.15">
<path d="M116.634 174.131H132C132 174.131 144.823 188.034 173.268 190.866C201.714 193.698 233.109 176.878 233.109 176.878C233.109 176.878 212.913 197.16 170.896 195.787C128.88 194.414 116.634 174.131 116.634 174.131Z" fill="#A40000"/>
</g>
<path d="M87.8248 -162.283H280.597L265.722 141.834L268.906 141.891L285.982 -167.404L87.8248 -164V-162.283Z" fill="#395456"/>
<g style="mix-blend-mode:multiply" opacity="0.38">
<path d="M92.6974 -155.561L101.267 135.484H261.105L110.03 128.589L92.6974 -155.561Z" fill="#597E98"/>
</g>
<path style="mix-blend-mode:color-dodge" d="M113.513 -124.036L152.452 -137.395L214.644 118.892L198.807 122.41L113.513 -124.036Z" fill="url(#paint25_linear_10_8466)"/>
<path style="mix-blend-mode:color-dodge" d="M159.612 -137.395L205.774 -141.772L235.203 114.944H221.568L159.612 -137.395Z" fill="url(#paint26_linear_10_8466)"/>
<path style="mix-blend-mode:color-dodge" opacity="0.16" d="M97.7839 114.973C97.7839 114.973 165.895 -17.3618 273.223 -11.4116L265.722 141.863L98.3182 138.659L97.7839 114.973Z" fill="url(#paint27_linear_10_8466)"/>
<path d="M195.26 261.238L194.448 261.267L187.224 261.525L183.463 261.639L182.928 261.668L180.171 261.753H180.15L173.803 261.982L170.02 262.097L174.722 253.743H175.17L179.958 253.886H180L182.971 253.972L183.762 254.001L187.395 254.115L191.84 254.23L194.918 254.316L195.26 261.238Z" fill="url(#paint28_linear_10_8466)"/>
<path d="M190.729 110.109L190.195 133.252L190.152 135.541L189.767 151.818L189.618 158.226L189.083 181.025L189.041 182.913L188.976 186.06L187.395 254.115L187.224 261.524L187.01 271.193L186.989 271.851L186.903 275.256L186.861 277.487L182.864 277.659L180.535 277.773L180.471 275.055L180.385 271.851V271.165L180.15 261.753L179.958 253.886L178.333 186.117L178.269 183.743L178.163 178.88L176.453 107.706L184.809 109.108L190.729 110.109Z" fill="url(#paint29_linear_10_8466)"/>
<path style="mix-blend-mode:multiply" d="M189.767 151.789L183.377 158.483L182.864 277.659L180.535 277.744L177.201 131.507L190.195 133.252L189.767 151.789Z" fill="url(#paint30_linear_10_8466)"/>
<path style="mix-blend-mode:color-dodge" d="M189.618 158.226L189.083 181.025L189.041 182.913L188.977 186.06L187.395 254.115L187.224 261.525L187.01 271.194L186.989 271.852L186.904 275.256L186.861 277.487L182.864 277.659L182.95 275.141L183.078 271.852L183.099 271.194L183.463 261.639L183.762 254.001L186.305 186.089L186.412 183.114L186.497 180.51L187.117 164.233L189.618 158.226Z" fill="url(#paint31_linear_10_8466)"/>
<path d="M175.47 255.946C175.488 258.164 174.894 260.314 173.803 261.982C172.161 264.218 170.197 265.983 168.029 267.168C165.861 268.354 163.535 268.935 161.193 268.876C153.136 269.22 146.49 263.985 146.233 257.205C145.977 250.425 152.452 244.618 160.51 244.275C167.669 243.96 173.717 248.051 175.085 253.744C175.288 254.451 175.417 255.192 175.47 255.946V255.946Z" fill="url(#paint32_linear_10_8466)"/>
<path style="mix-blend-mode:color-dodge" d="M172.798 254.43C172.926 259.923 167.754 264.614 161.236 264.9C154.718 265.186 149.311 260.953 149.183 255.431C149.054 249.91 154.226 245.248 160.745 244.961C167.263 244.675 172.67 248.909 172.798 254.43Z" fill="url(#paint33_linear_10_8466)"/>
<path d="M220.991 253.286C221.162 260.094 214.751 265.873 206.715 266.216C202.311 266.637 197.945 264.875 194.448 261.267C193.693 260.445 193.072 259.424 192.623 258.268C192.175 257.111 191.908 255.844 191.84 254.545V254.23C191.84 247.593 198.252 241.958 206.116 241.614C213.981 241.271 220.82 246.506 220.991 253.286Z" fill="url(#paint34_linear_10_8466)"/>
<path style="mix-blend-mode:color-dodge" d="M217.358 250.969C217.486 256.089 212.656 260.466 206.672 260.724C200.688 260.981 195.559 257.062 195.452 251.913C195.345 246.764 200.154 242.415 206.138 242.158C212.122 241.9 217.23 245.848 217.358 250.969Z" fill="url(#paint35_linear_10_8466)"/>
<path d="M201.458 186.031H167.519C167.519 186.031 168.46 97.3508 181.86 91.2004C197.44 84.249 201.458 186.031 201.458 186.031Z" fill="url(#paint36_linear_10_8466)"/>
<path style="mix-blend-mode:multiply" d="M195.986 182.37L170.02 184.372C170.02 184.372 167.883 128.36 176.431 103.558L175.812 178.422L195.986 182.37Z" fill="url(#paint37_linear_10_8466)"/>
<path style="mix-blend-mode:color-dodge" d="M181.518 99.2676C181.518 99.2676 192.204 124.098 192.204 166.293L197.653 163.747C197.653 163.747 196.393 116.203 186.326 97.1221L181.518 99.2676Z" fill="url(#paint38_linear_10_8466)"/>
<path d="M241.935 708.389C213.913 722.003 183.801 726.073 154.312 720.232C151.491 719.689 148.627 718.974 145.763 718.173C139.12 716.308 132.58 713.843 126.187 710.792C123.045 709.333 119.775 707.645 116.719 705.814L149.567 458.796L150.956 448.412L154.547 421.464H156.086L175.705 422.122L204.172 423.124H207.848L211.267 451.73L220.97 533.03L234.199 643.795L241.935 708.389Z" fill="url(#paint39_linear_10_8466)"/>
<g style="mix-blend-mode:multiply" opacity="0.23">
<path d="M211.288 451.873C211.288 451.873 188.25 469.552 176.389 479.193C174.044 480.978 171.775 482.936 169.592 485.057C167.455 487.918 147.131 718.116 147.131 718.116C147.131 718.116 146.661 718.116 145.806 718.116C139.163 716.251 132.623 713.785 126.229 710.735L154.996 466.406L149.61 458.739L150.999 448.355L154.59 421.407H156.128L175.747 422.065L204.214 423.066H207.89L211.288 451.873Z" fill="#A40000"/>
</g>
<path d="M321.651 271.651L312.633 340.393L298.057 340.05L284.294 339.735L126.101 336.016L62.4354 334.529L50.4032 334.242L40.5723 270.707L103.255 270.907L180.385 271.165L182.886 271.193H187.01L321.651 271.651Z" fill="url(#paint40_linear_10_8466)"/>
<g style="mix-blend-mode:multiply" opacity="0.19">
<path d="M208.831 434.137L164.399 445.065L150.978 448.383L154.568 421.436V421.407L156.107 421.464L175.726 422.122L204.193 423.124L207.869 423.238L208.831 434.137Z" fill="#A40000"/>
</g>
<path d="M298.057 340.05C297.801 340.622 296.305 344.169 293.462 349.547C282.996 369.144 269.706 385.739 254.375 398.355C239.044 410.971 221.981 419.354 204.193 423.009C197.055 424.437 189.847 425.144 182.629 425.126C173.777 425.153 164.944 424.023 156.257 421.75C155.68 421.75 155.124 421.464 154.568 421.321C141.326 417.616 128.575 411.271 116.741 402.498C115.544 401.611 114.368 400.725 113.214 399.809C112.06 398.894 110.927 397.978 109.816 396.949C108.705 395.919 107.914 395.347 106.995 394.517C106.076 393.687 104.858 392.715 103.96 391.656C99.7804 387.775 95.7503 383.612 91.8854 379.184L91.6503 378.926L90.0688 377.067C85.5613 371.788 81.2802 366.172 77.2459 360.246L75.1087 356.928C74.7026 356.298 74.2966 355.698 73.9332 355.097C70.4704 349.695 67.2519 344.021 64.2947 338.105L63.7604 337.046C63.2261 335.959 62.8628 335.158 62.6704 334.7L62.5208 334.386V334.243L126.187 335.73L284.337 339.449L298.057 340.05Z" fill="url(#paint41_linear_10_8466)"/>
<g style="mix-blend-mode:multiply" opacity="0.19">
<path d="M46.5563 277.659L52.9251 330.981L302.374 331.697L71.3474 320.025L67.7784 279.203L46.5563 277.659Z" fill="#A40000"/>
</g>
<path d="M267.026 278.288H304.383L295.428 328.321L260.807 325.174L267.026 278.288Z" fill="white"/>
<path d="M202.419 711.622L193.422 487.088L206.095 473.7L230.843 702.868L202.419 711.622Z" fill="white"/>
<path d="M260.807 277.859H237.875V325.174H255.271L260.807 277.859Z" fill="white"/>
<path d="M313.103 324.716L314.492 279.232L304.276 278.917L284.166 278.288L186.903 275.256L182.95 275.141H182.886L180.471 275.055L103.875 272.681L90.0902 272.252L40.5723 270.707L103.255 270.907L180.385 271.165L182.886 271.193H187.01L321.651 271.651L312.633 340.393L313.103 324.716Z" fill="white"/>
<g style="mix-blend-mode:multiply" opacity="0.19">
<path d="M298.057 340.05C297.801 340.937 295.728 347.945 293.462 349.547H293.334C293.334 349.547 178.504 354.153 150.144 372.232C146.782 374.387 143.74 376.438 141.019 378.383C120.694 393.001 116.719 402.441 116.719 402.441C115.522 401.554 114.347 400.667 113.193 399.752C112.039 398.836 110.906 397.921 109.795 396.891C108.683 395.861 107.893 395.289 106.974 394.46C106.055 393.63 104.836 392.657 103.939 391.599C99.7589 387.718 95.7288 383.555 91.8639 379.127L91.6288 378.869L90.0473 377.01C85.5398 371.73 81.2587 366.115 77.2244 360.189L75.0872 356.871C74.6812 356.241 74.2751 355.641 73.9118 355.04C70.449 349.638 67.2304 343.963 64.2732 338.047L63.7389 336.989C63.2046 335.902 62.8413 335.101 62.6489 334.643L62.4994 334.329V334.186L126.165 335.673L284.315 339.392L298.057 340.05Z" fill="#A40000"/>
</g>
<g style="mix-blend-mode:multiply" opacity="0.19">
<path d="M284.294 339.735C284.294 339.735 104.024 338.82 98.1686 346.658C92.3128 354.496 91.8854 379.498 91.8854 379.498C80.4432 366.606 70.547 351.44 62.5422 334.529L284.294 339.735Z" fill="#A40000"/>
</g>
<g style="mix-blend-mode:soft-light">
<path d="M248.176 360.075L284.23 357.214C284.23 357.214 264.397 407.619 193.742 421.607H186.754C186.754 421.607 235.032 398.465 248.176 360.075Z" fill="white"/>
</g>
<g style="mix-blend-mode:soft-light">
<path d="M182.864 421.407L175.726 422.122C175.726 422.122 205.411 397.664 220.264 359.931L241.935 358.301C241.935 358.301 236.122 391.942 182.864 421.407Z" fill="white"/>
</g>
<path style="mix-blend-mode:color-dodge" opacity="0.61" d="M89.6413 271.995C89.6413 271.995 191.904 330.724 314.492 324.66L321.651 271.651L89.6413 271.995Z" fill="url(#paint42_linear_10_8466)"/>
<path style="mix-blend-mode:color-dodge" opacity="0.61" d="M241.935 708.389C213.913 722.004 183.801 726.074 154.312 720.232C154.312 717.572 158.843 565.041 195.26 534.69L195.687 534.346C200.594 530.315 206.403 528.715 212.101 529.826C215.144 530.389 218.115 531.515 220.927 533.173V533.173L234.156 643.938L241.935 708.389Z" fill="url(#paint43_linear_10_8466)"/>
<path style="mix-blend-mode:color-dodge" opacity="0.42" d="M695.141 -42.9934L-7.87714 872.134L695.141 865.926V-42.9934Z" fill="url(#paint44_linear_10_8466)"/>
<g style="mix-blend-mode:hard-light" opacity="0.66">
<g style="mix-blend-mode:soft-light" opacity="0.66">
<g style="mix-blend-mode:soft-light" opacity="0.66">
<path d="M358.517 377.01C359.627 377.01 360.526 375.806 360.526 374.321C360.526 372.835 359.627 371.632 358.517 371.632C357.408 371.632 356.508 372.835 356.508 374.321C356.508 375.806 357.408 377.01 358.517 377.01Z" fill="white"/>
</g>
<g style="mix-blend-mode:soft-light" opacity="0.66">
<path d="M362.535 382.531C362.535 383.062 362.417 383.582 362.197 384.024C361.976 384.467 361.662 384.811 361.295 385.015C360.928 385.218 360.524 385.272 360.134 385.168C359.745 385.064 359.387 384.808 359.106 384.432C358.825 384.056 358.633 383.577 358.556 383.055C358.478 382.534 358.518 381.993 358.67 381.502C358.822 381.01 359.08 380.59 359.41 380.295C359.74 379.999 360.129 379.842 360.526 379.842C360.79 379.842 361.051 379.911 361.295 380.046C361.539 380.181 361.76 380.379 361.947 380.629C362.133 380.879 362.281 381.175 362.382 381.502C362.483 381.828 362.535 382.177 362.535 382.531V382.531Z" fill="white"/>
</g>
<g style="mix-blend-mode:soft-light" opacity="0.66">
<path d="M319.001 467.292C319.001 467.824 318.883 468.344 318.663 468.786C318.442 469.228 318.128 469.573 317.761 469.776C317.394 469.98 316.99 470.033 316.6 469.929C316.211 469.826 315.853 469.57 315.572 469.194C315.291 468.817 315.099 468.338 315.022 467.817C314.944 467.295 314.984 466.754 315.136 466.263C315.288 465.772 315.546 465.352 315.876 465.056C316.207 464.761 316.595 464.603 316.992 464.603C317.523 464.61 318.031 464.896 318.407 465.399C318.782 465.902 318.996 466.581 319.001 467.292Z" fill="white"/>
</g>
</g>
<g style="mix-blend-mode:soft-light" opacity="0.66">
<g style="mix-blend-mode:soft-light" opacity="0.66">
<path d="M372.836 528.539C372.836 529.071 372.718 529.591 372.498 530.033C372.277 530.475 371.963 530.82 371.596 531.023C371.229 531.227 370.825 531.28 370.435 531.176C370.046 531.073 369.688 530.817 369.407 530.44C369.126 530.064 368.935 529.585 368.857 529.064C368.78 528.542 368.819 528.001 368.971 527.51C369.123 527.019 369.381 526.599 369.711 526.303C370.042 526.008 370.43 525.85 370.827 525.85C371.36 525.85 371.871 526.133 372.248 526.638C372.625 527.142 372.836 527.826 372.836 528.539V528.539Z" fill="white"/>
</g>
<g style="mix-blend-mode:soft-light" opacity="0.66">
<path d="M370.827 441.346C370.827 441.878 370.709 442.398 370.489 442.84C370.268 443.282 369.954 443.627 369.587 443.83C369.22 444.034 368.816 444.087 368.426 443.983C368.037 443.879 367.679 443.623 367.398 443.247C367.117 442.871 366.926 442.392 366.848 441.871C366.771 441.349 366.81 440.808 366.962 440.317C367.114 439.826 367.372 439.406 367.702 439.11C368.033 438.815 368.421 438.657 368.818 438.657C369.351 438.657 369.862 438.94 370.239 439.445C370.616 439.949 370.827 440.633 370.827 441.346V441.346Z" fill="white"/>
</g>
</g>
</g>
</g>
<defs>
<linearGradient id="paint0_linear_10_8466" x1="-800.87" y1="765.059" x2="695.141" y2="765.059" gradientUnits="userSpaceOnUse">
<stop stop-color="#7A6D84"/>
<stop offset="1" stop-color="#7E868E"/>
</linearGradient>
<linearGradient id="paint1_linear_10_8466" x1="-800.87" y1="6258.47" x2="1.04641e+06" y2="6258.47" gradientUnits="userSpaceOnUse">
<stop/>
<stop offset="1" stop-color="#688B6B"/>
</linearGradient>
<linearGradient id="paint2_linear_10_8466" x1="26803.9" y1="9450.81" x2="698430" y2="9450.81" gradientUnits="userSpaceOnUse">
<stop/>
<stop offset="1" stop-color="#688B6B"/>
</linearGradient>
<linearGradient id="paint3_linear_10_8466" x1="48507.4" y1="3850.3" x2="615665" y2="3850.3" gradientUnits="userSpaceOnUse">
<stop/>
<stop offset="1" stop-color="#688B6B"/>
</linearGradient>
<linearGradient id="paint4_linear_10_8466" x1="66573" y1="4049.37" x2="560946" y2="4049.37" gradientUnits="userSpaceOnUse">
<stop/>
<stop offset="1" stop-color="#688B6B"/>
</linearGradient>
<linearGradient id="paint5_linear_10_8466" x1="-579.674" y1="833.743" x2="695.141" y2="833.743" gradientUnits="userSpaceOnUse">
<stop/>
<stop offset="1" stop-color="#6D5C68"/>
</linearGradient>
<linearGradient id="paint6_linear_10_8466" x1="178497" y1="13958.6" x2="695.14" y2="13958.6" gradientUnits="userSpaceOnUse">
<stop/>
<stop offset="1" stop-color="#6D5C68"/>
</linearGradient>
<linearGradient id="paint7_linear_10_8466" x1="157762" y1="9770.62" x2="435338" y2="9770.62" gradientUnits="userSpaceOnUse">
<stop/>
<stop offset="1" stop-color="#6D5C68"/>
</linearGradient>
<linearGradient id="paint8_linear_10_8466" x1="136600" y1="4887.02" x2="401779" y2="4887.02" gradientUnits="userSpaceOnUse">
<stop/>
<stop offset="1" stop-color="#6D5C68"/>
</linearGradient>
<linearGradient id="paint9_linear_10_8466" x1="-800.87" y1="192.926" x2="695.141" y2="192.926" gradientUnits="userSpaceOnUse">
<stop stop-color="#9FEDCA"/>
<stop offset="1" stop-color="#7FA2B3"/>
</linearGradient>
<linearGradient id="paint10_linear_10_8466" x1="-682.813" y1="791.692" x2="393.545" y2="791.692" gradientUnits="userSpaceOnUse">
<stop stop-color="#F4EDCA"/>
<stop offset="1" stop-color="#F4B8B0"/>
</linearGradient>
<linearGradient id="paint11_linear_10_8466" x1="392.648" y1="763.943" x2="392.648" y2="-272.133" gradientUnits="userSpaceOnUse">
<stop stop-color="#5BE0A4"/>
<stop offset="1" stop-color="#518098"/>
</linearGradient>
<linearGradient id="paint12_linear_10_8466" x1="22600.4" y1="360868" x2="22600.4" y2="4383.27" gradientUnits="userSpaceOnUse">
<stop stop-color="#C0EDCA"/>
<stop offset="1" stop-color="#BDCAD4"/>
</linearGradient>
<linearGradient id="paint13_linear_10_8466" x1="26087" y1="366914" x2="26087" y2="10449.1" gradientUnits="userSpaceOnUse">
<stop stop-color="#C0EDCA"/>
<stop offset="1" stop-color="#BDCAD4"/>
</linearGradient>
<linearGradient id="paint14_linear_10_8466" x1="29573" y1="365486" x2="29573" y2="9001.17" gradientUnits="userSpaceOnUse">
<stop stop-color="#C0EDCA"/>
<stop offset="1" stop-color="#BDCAD4"/>
</linearGradient>
<linearGradient id="paint15_linear_10_8466" x1="27120.8" y1="373568" x2="27120.8" y2="1114.04" gradientUnits="userSpaceOnUse">
<stop stop-color="#C0EDCA"/>
<stop offset="1" stop-color="#BDCAD4"/>
</linearGradient>
<linearGradient id="paint16_linear_10_8466" x1="24201.2" y1="352691" x2="24201.2" y2="34521.4" gradientUnits="userSpaceOnUse">
<stop stop-color="#C0EDCA"/>
<stop offset="1" stop-color="#BDCAD4"/>
</linearGradient>
<linearGradient id="paint17_linear_10_8466" x1="-800.87" y1="160084" x2="1.04641e+06" y2="160084" gradientUnits="userSpaceOnUse">
<stop stop-color="#C0EDCA"/>
<stop offset="1" stop-color="#BDCAD4"/>
</linearGradient>
<linearGradient id="paint18_linear_10_8466" x1="73198.4" y1="196792" x2="37234.7" y2="183521" gradientUnits="userSpaceOnUse">
<stop stop-color="#C0EDCA"/>
<stop offset="1" stop-color="#BDCAD4"/>
</linearGradient>
<linearGradient id="paint19_linear_10_8466" x1="-800.87" y1="15353" x2="1.04641e+06" y2="15353" gradientUnits="userSpaceOnUse">
<stop stop-color="#C0EDCA"/>
<stop offset="1" stop-color="#BDCAD4"/>
</linearGradient>
<linearGradient id="paint20_linear_10_8466" x1="71239" y1="8314.04" x2="70991.6" y2="6882.14" gradientUnits="userSpaceOnUse">
<stop stop-color="#C0EDCA"/>
<stop offset="1" stop-color="#BDCAD4"/>
</linearGradient>
<linearGradient id="paint21_linear_10_8466" x1="22446.6" y1="130399" x2="23222.1" y2="130399" gradientUnits="userSpaceOnUse">
<stop stop-color="#C0EDCA"/>
<stop offset="1" stop-color="#BDCAD4"/>
</linearGradient>
<linearGradient id="paint22_linear_10_8466" x1="15363.5" y1="120944" x2="15732" y2="120944" gradientUnits="userSpaceOnUse">
<stop stop-color="#C0EDCA"/>
<stop offset="1" stop-color="#BDCAD4"/>
</linearGradient>
<linearGradient id="paint23_linear_10_8466" x1="-684.972" y1="395.347" x2="8.23702" y2="395.347" gradientUnits="userSpaceOnUse">
<stop stop-color="#F4D6C4"/>
<stop offset="1" stop-color="white"/>
</linearGradient>
<linearGradient id="paint24_linear_10_8466" x1="186.903" y1="141.891" x2="186.903" y2="-167.404" gradientUnits="userSpaceOnUse">
<stop stop-color="#D6EDB3"/>
<stop offset="1" stop-color="#529CA9"/>
</linearGradient>
<linearGradient id="paint25_linear_10_8466" x1="45774.8" y1="45170.1" x2="45774.8" y2="21574.6" gradientUnits="userSpaceOnUse">
<stop/>
<stop offset="1" stop-color="#7C5C27"/>
</linearGradient>
<linearGradient id="paint26_linear_10_8466" x1="35469" y1="43956.9" x2="35469" y2="20919.2" gradientUnits="userSpaceOnUse">
<stop/>
<stop offset="1" stop-color="#7C5C27"/>
</linearGradient>
<linearGradient id="paint27_linear_10_8466" x1="81070" y1="22198.5" x2="81070" y2="13964.8" gradientUnits="userSpaceOnUse">
<stop/>
<stop offset="1" stop-color="#7C5C27"/>
</linearGradient>
<linearGradient id="paint28_linear_10_8466" x1="11636.2" y1="2106.16" x2="11934.3" y2="2106.16" gradientUnits="userSpaceOnUse">
<stop offset="0.01" stop-color="#FFBFB0"/>
<stop offset="0.53" stop-color="#958B9D"/>
<stop offset="1" stop-color="#C2929D"/>
</linearGradient>
<linearGradient id="paint29_linear_10_8466" x1="6752.65" y1="39001.9" x2="6752.65" y2="28891.5" gradientUnits="userSpaceOnUse">
<stop offset="0.01" stop-color="#FFBFB0"/>
<stop offset="0.53" stop-color="#958B9D"/>
<stop offset="1" stop-color="#C2929D"/>
</linearGradient>
<linearGradient id="paint30_linear_10_8466" x1="4646.32" y1="25178.3" x2="4734.8" y2="25183.6" gradientUnits="userSpaceOnUse">
<stop offset="0.01" stop-color="#CCBFB0"/>
<stop offset="0.53" stop-color="#958B9D"/>
<stop offset="1" stop-color="#C2929D"/>
</linearGradient>
<linearGradient id="paint31_linear_10_8466" x1="3302.13" y1="27467.7" x2="3302.13" y2="22481.4" gradientUnits="userSpaceOnUse">
<stop/>
<stop offset="1" stop-color="#7C5C27"/>
</linearGradient>
<linearGradient id="paint32_linear_10_8466" x1="13107.2" y1="4797.23" x2="13506.1" y2="4797.23" gradientUnits="userSpaceOnUse">
<stop offset="0.01" stop-color="#FFBFB0"/>
<stop offset="0.53" stop-color="#958B9D"/>
<stop offset="1" stop-color="#C2929D"/>
</linearGradient>
<linearGradient id="paint33_linear_10_8466" x1="10828.2" y1="4004.8" x2="11089.3" y2="3998.95" gradientUnits="userSpaceOnUse">
<stop/>
<stop offset="1" stop-color="#7C5C27"/>
</linearGradient>
<linearGradient id="paint34_linear_10_8466" x1="13734" y1="4779.79" x2="14131.6" y2="4779.79" gradientUnits="userSpaceOnUse">
<stop offset="0.01" stop-color="#FFBFB0"/>
<stop offset="0.53" stop-color="#958B9D"/>
<stop offset="1" stop-color="#C2929D"/>
</linearGradient>
<linearGradient id="paint35_linear_10_8466" x1="10574.5" y1="3707.97" x2="10800.2" y2="3702.91" gradientUnits="userSpaceOnUse">
<stop/>
<stop offset="1" stop-color="#7C5C27"/>
</linearGradient>
<linearGradient id="paint36_linear_10_8466" x1="15545.5" y1="13753.7" x2="16082.8" y2="13753.7" gradientUnits="userSpaceOnUse">
<stop offset="0.01" stop-color="#FFBFB0"/>
<stop offset="0.53" stop-color="#958B9D"/>
<stop offset="1" stop-color="#C2929D"/>
</linearGradient>
<linearGradient id="paint37_linear_10_8466" x1="12070.8" y1="11858.7" x2="12392.3" y2="11858.7" gradientUnits="userSpaceOnUse">
<stop offset="0.01" stop-color="#CCBFB0"/>
<stop offset="0.53" stop-color="#958B9D"/>
<stop offset="1" stop-color="#C2929D"/>
</linearGradient>
<linearGradient id="paint38_linear_10_8466" x1="7604.51" y1="9868.89" x2="7714.01" y2="9868.06" gradientUnits="userSpaceOnUse">
<stop/>
<stop offset="1" stop-color="#7C5C27"/>
</linearGradient>
<linearGradient id="paint39_linear_10_8466" x1="179.338" y1="722.835" x2="179.338" y2="421.407" gradientUnits="userSpaceOnUse">
<stop stop-color="#FFFFE7"/>
<stop offset="1" stop-color="#EDBDA0"/>
</linearGradient>
<linearGradient id="paint40_linear_10_8466" x1="40.5723" y1="305.55" x2="321.651" y2="305.55" gradientUnits="userSpaceOnUse">
<stop stop-color="#F4D6C4"/>
<stop offset="1" stop-color="#FFFFE0"/>
</linearGradient>
<linearGradient id="paint41_linear_10_8466" x1="62.4353" y1="379.87" x2="298.057" y2="379.87" gradientUnits="userSpaceOnUse">
<stop stop-color="#EDBDA0"/>
<stop offset="1" stop-color="#FFEBD1"/>
</linearGradient>
<linearGradient id="paint42_linear_10_8466" x1="96763.6" y1="10930.7" x2="121951" y2="10930.7" gradientUnits="userSpaceOnUse">
<stop/>
<stop offset="1" stop-color="#7C5C27"/>
</linearGradient>
<linearGradient id="paint43_linear_10_8466" x1="39319.4" y1="61242.5" x2="42909.3" y2="61242.5" gradientUnits="userSpaceOnUse">
<stop/>
<stop offset="1" stop-color="#7C5C27"/>
</linearGradient>
<linearGradient id="paint44_linear_10_8466" x1="-7.87714" y1="414.57" x2="695.141" y2="414.57" gradientUnits="userSpaceOnUse">
<stop/>
<stop offset="1" stop-color="#FC6B6B"/>
</linearGradient>
<clipPath id="clip0_10_8466">
<rect width="375" height="812" fill="white" transform="translate(-2 -2)"/>
</clipPath>
</defs>
</svg>
