<svg width="374" height="810" viewBox="0 0 374 810" fill="none" xmlns="http://www.w3.org/2000/svg">
<g clip-path="url(#clip0_7_2064)">
<path d="M1803.23 831.602L158.634 432.983L-2039.22 493.505V932.936L1803.23 913.129V831.602Z" fill="url(#paint0_linear_7_2064)"/>
<path opacity="0.17" d="M1744.73 748.157H1678.28L967.073 812.803L339.539 869.968L153.551 771.704L730.022 715.498L746.42 713.916L1272.59 662.602H1206.19L746.516 704.276L523.848 612.247L1156.23 561.316L1125.3 555.178L498.724 601.888L389.356 556.665L462.764 552.732L442.146 543.86L366.533 547.217L134.804 451.303L90.6442 452.598L195.697 495.759H180.737L-326.545 517.723L-452.263 451.303L-461.853 454.756L-345.676 518.539L-735.44 535.42L-755.962 536.331L-1176.17 554.698L-1232.27 479.741L-1252.46 468.28L-1190.12 555.274L-2039.22 588.316V600.593L-1184.08 564.05L-1169.7 563.331L-748.769 543.189L-693.582 594.359L-1131.92 613.877L-1147.88 614.597L-1653.87 637.089V665.863L-1140.5 625.387L-1063.78 728.591L-2039.22 801.773V818.558L-1058.61 739.573L-1039.04 738.038L-578.748 700.967L-457.25 813.714L-948.95 858.41L-972.204 860.52L-1514.3 909.772L-1449.47 927.852L-958.347 879.895L-885.947 981.18L-1042.26 995.568L-977.382 1013.65L-870.316 1003.19L-850.418 1031.06L-824.287 1025.16L-842.746 1000.51L-317.196 943.774L-208.259 1044.82L-167.504 1040.02L-274.523 944.973L324.244 886.609L448.907 955.14L496.231 952.694L363.8 882.725L989.081 822.011L1211.32 913.129H1251.74L1022.93 818.558L1744.73 748.157ZM348.841 558.823L460.51 604.718L-85.3704 645.385L-194.355 587.837L348.793 559.062L348.841 558.823ZM-728.104 542.182L-337.094 523.478L-317.915 522.567L199.916 497.725L324.819 549.087L-221.781 573.402L-244.46 574.409L-670.567 593.352L-728.104 542.182ZM-597.496 683.559L-1045.95 728.734L-1123.14 625.675L-673.157 602.08L-217.657 589.036L-111.502 647.351L-571.125 681.593L-597.496 683.559ZM-562.063 689.649L-87.3842 652.962L486.114 615.268L710.747 707.537L131.783 760.29L99.2268 763.264L-437.256 811.892L-562.063 689.649ZM-294.229 927.516L-331.005 930.874L-858.857 978.831L-934.565 877.641L-440.229 829.684L-408.104 826.519L120.563 775.013L300.174 873.613L-294.229 927.516Z" fill="#A21800"/>
<path d="M210.417 -810.495L163.285 469.191L-982.656 442.095L-1016.65 442.431H-1016.94L-2039.22 452.742V-1014.74L210.417 -810.495Z" fill="#5ECAD3"/>
<path d="M210.418 -810.495L1803.23 -1107.78V831.603L158.635 432.983L210.418 -810.495Z" fill="#C0D4D8"/>
<path d="M1803.23 721.301V831.603L-79.5688 451.447L-1903.44 489.333L-1925.73 490.004L-2039.22 493.505V432.984L-1925.78 431.065L-1900.85 430.634L-77.9864 399.989L1803.23 721.301Z" fill="#FBEADE"/>
<g style="mix-blend-mode:multiply" opacity="0.26">
<path d="M246.713 -791.696L194.546 -448.755L176.518 228.83L236.884 222.404L246.713 -791.696Z" fill="#72658E"/>
</g>
<path d="M544.993 -828.527L525.862 505.447L226.575 475.33L235.781 -103.464L236.26 -134.108L240.719 -413.794L241.391 -458.202L246.713 -791.696L264.549 -812.845H303.051L323.429 -825.074L362.985 -812.845H371.376L412.131 -837.255L458.112 -812.845L496.423 -828.527H544.993Z" fill="url(#paint1_linear_7_2064)"/>
<path d="M257.118 55.4174L269.488 -46.7791L288.523 55.4174H257.118Z" fill="#FBEADE"/>
<path d="M210.513 206.914L222.883 104.717L241.918 206.914H210.513Z" fill="#FBEADE"/>
<path d="M312.976 206.914L325.347 104.717L344.382 206.914H312.976Z" fill="#FBEADE"/>
<path d="M369.842 55.4174L385.521 -46.7791L401.247 55.4174H369.842Z" fill="#FBEADE"/>
<path d="M257.118 328.677L269.488 226.528L288.523 328.677H257.118Z" fill="#FBEADE"/>
<path d="M218.472 502.713L230.842 400.564L249.877 502.713H218.472Z" fill="#FBEADE"/>
<path d="M320.935 502.713L333.306 400.564L352.341 502.713H320.935Z" fill="#FBEADE"/>
<path d="M369.842 658.526L382.212 556.377L401.247 658.526H369.842Z" fill="#FBEADE"/>
<path d="M369.842 328.437L385.521 226.288L401.247 328.437H369.842Z" fill="#FBEADE"/>
<g style="mix-blend-mode:multiply" opacity="0.48">
<path d="M264.548 -812.845C264.548 -812.845 256.925 -130.56 269.343 -118.043C281.761 -105.527 346.73 -73.7311 366.101 -73.7311C385.472 -73.7311 389.595 -477.625 389.595 -477.625C389.595 -477.625 400.192 -6.06372 425.652 39.4955C451.112 85.0547 531.424 116.227 531.424 116.227L529.41 256.405L230.122 251.61L246.712 -791.456L264.548 -812.845Z" fill="#72658E"/>
</g>
<g style="mix-blend-mode:multiply" opacity="0.25">
<path d="M-2039.22 -1014.74V-570.374L-1290.24 -678.374L-1289.81 -675.352L-1277.01 -675.88L-1259.89 -582.508L-1255.09 -557.138L-1237.16 -459.354L-1334.93 -382.862L-1375.3 -351.259L-1313.54 154.065L-1475.17 156.175L-1552.89 185.381L-1681.06 484.729L-662.464 481.852L-642.902 176.317H-642.135L-661.313 467.129L-630.004 442.143L-572.467 -373.703L-845.767 -606.87L-1069.54 -590.421L-1072.61 -682.738H-1064.26L-1053.57 -734.052L103.446 -769.204L128.571 395.577L160.024 399.989L210.465 -810.495L-2039.22 -1014.74ZM-606.126 -364.015L-616.435 -209.066H-616.675L-606.126 -364.015ZM-618.592 -180.867H-618.305L-640.073 145.241H-640.792L-618.592 -180.867ZM-776.291 -109.555H-663.135L-672.725 37.7211L-776.627 34.9397L-776.291 -109.555ZM-1063.64 -175.16L-1052.76 150.612H-1053.33L-1063.83 -175.16H-1063.64ZM-1064.65 -205.757L-1069.73 -364.015L-1064.65 -205.757Z" fill="#2C478E"/>
</g>
<g style="mix-blend-mode:multiply" opacity="0.45">
<path d="M366.533 709.312L-126.701 811.892L-723.981 515.661L-539 516.621L-534.781 456.626L-361.019 452.742L476.812 680.586L366.533 709.312Z" fill="#690054"/>
</g>
<path style="mix-blend-mode:color-dodge" opacity="0.45" d="M544.993 -821.046L-242.877 70.9557L445.023 306.761L959.258 -223.261L922.147 -889.001L829.081 -885.548L780.655 -863.536L754.763 -880.465L724.412 -855.863L713.193 -872.456L652.395 -840.42L589.345 -837.255L561.487 -824.067L544.993 -821.046Z" fill="url(#paint2_linear_7_2064)"/>
<g style="mix-blend-mode:color-dodge" opacity="0.44">
<g style="mix-blend-mode:soft-light" opacity="0.44">
<g style="mix-blend-mode:soft-light" opacity="0.44">
<g style="mix-blend-mode:soft-light" opacity="0.44">
<path d="M152.688 51.9164C151.976 52.0788 151.232 52.0262 150.549 51.7652C149.867 51.5043 149.277 51.0466 148.855 50.4503C148.433 49.854 148.197 49.1457 148.177 48.4153C148.157 47.6848 148.355 46.965 148.745 46.3469C149.134 45.7288 149.698 45.2401 150.366 44.9428C151.033 44.6456 151.774 44.5531 152.494 44.677C153.214 44.801 153.881 45.1357 154.411 45.639C154.94 46.1423 155.309 46.7915 155.469 47.5044C155.684 48.4582 155.512 49.4583 154.991 50.2853C154.47 51.1124 153.642 51.6991 152.688 51.9164V51.9164Z" fill="white"/>
</g>
<g style="mix-blend-mode:soft-light" opacity="0.44">
<path d="M53.0538 33.5011C52.3415 33.6635 51.597 33.611 50.9146 33.35C50.2322 33.0891 49.6426 32.6314 49.2204 32.035C48.7981 31.4387 48.5622 30.7304 48.5426 29.9999C48.523 29.2694 48.7206 28.5495 49.1102 27.9313C49.4998 27.3131 50.064 26.8246 50.7314 26.5273C51.3988 26.23 52.1394 26.1376 52.8594 26.2615C53.5794 26.3855 54.2464 26.7202 54.776 27.2235C55.3057 27.7269 55.6742 28.3761 55.8348 29.089C56.0497 30.0429 55.8775 31.043 55.3562 31.8701C54.8349 32.6972 54.0069 33.2837 53.0538 33.5011V33.5011Z" fill="white"/>
</g>
</g>
</g>
<g style="mix-blend-mode:soft-light" opacity="0.44">
<g style="mix-blend-mode:soft-light" opacity="0.44">
<g style="mix-blend-mode:soft-light" opacity="0.44">
<path d="M212.814 54.6974C211.867 54.9072 210.875 54.7321 210.056 54.2105C209.238 53.6889 208.66 52.8637 208.451 51.9162C208.241 50.9687 208.416 49.9766 208.937 49.1582C209.459 48.3399 210.284 47.7623 211.232 47.5524C212.179 47.3426 213.172 47.5177 213.99 48.0393C214.808 48.5609 215.386 49.3861 215.596 50.3336C215.806 51.2811 215.631 52.2732 215.109 53.0916C214.587 53.9099 213.762 54.4875 212.814 54.6974Z" fill="white"/>
</g>
<g style="mix-blend-mode:soft-light" opacity="0.44">
<path d="M323.284 167.205C322.572 167.368 321.827 167.315 321.145 167.054C320.463 166.793 319.874 166.336 319.451 165.739C319.029 165.143 318.793 164.435 318.774 163.704C318.754 162.974 318.952 162.254 319.341 161.636C319.731 161.018 320.295 160.529 320.962 160.232C321.629 159.935 322.369 159.842 323.089 159.966C323.809 160.09 324.476 160.425 325.005 160.928C325.535 161.431 325.903 162.081 326.064 162.793C326.279 163.747 326.107 164.747 325.586 165.574C325.064 166.401 324.237 166.988 323.284 167.205V167.205Z" fill="white"/>
</g>
<g style="mix-blend-mode:soft-light" opacity="0.44">
<path d="M222.308 238.661C221.595 238.824 220.851 238.771 220.168 238.51C219.486 238.249 218.896 237.792 218.473 237.195C218.051 236.599 217.815 235.891 217.796 235.16C217.776 234.43 217.973 233.71 218.363 233.092C218.753 232.474 219.317 231.985 219.985 231.688C220.652 231.39 221.393 231.298 222.113 231.422C222.833 231.546 223.501 231.88 224.03 232.384C224.56 232.887 224.929 233.536 225.089 234.249C225.304 235.203 225.132 236.203 224.611 237.03C224.089 237.857 223.261 238.444 222.308 238.661V238.661Z" fill="white"/>
</g>
</g>
<g style="mix-blend-mode:soft-light" opacity="0.44">
<g style="mix-blend-mode:soft-light" opacity="0.44">
<path d="M254.768 120.783C253.845 120.916 252.906 120.695 252.139 120.164C251.373 119.634 250.835 118.833 250.635 117.922C250.435 117.011 250.586 116.058 251.06 115.254C251.533 114.451 252.292 113.856 253.186 113.589C254.145 113.389 255.145 113.573 255.969 114.102C256.794 114.631 257.379 115.463 257.597 116.419C257.702 116.892 257.712 117.38 257.626 117.857C257.541 118.334 257.361 118.788 257.098 119.195C256.834 119.601 256.492 119.951 256.092 120.223C255.693 120.496 255.242 120.686 254.768 120.783V120.783Z" fill="white"/>
</g>
</g>
</g>
</g>
<path d="M-462.716 -10.2359L-426.515 472.452L255.488 461.038L293.319 8.61138C294.377 -2.25749 293.162 -13.2277 289.751 -23.6015C286.341 -33.9753 280.809 -43.5256 273.507 -51.6448C266.206 -59.764 257.295 -66.2745 247.342 -70.7622C237.388 -75.2499 226.61 -77.6164 215.692 -77.7114L-387.007 -93.5373C-397.676 -93.7836 -408.274 -91.7347 -418.082 -87.5292C-427.891 -83.3237 -436.682 -77.0598 -443.861 -69.1614C-451.039 -61.2629 -456.438 -51.9143 -459.691 -41.7481C-462.944 -31.5819 -463.975 -20.8354 -462.716 -10.2359V-10.2359Z" fill="#778DB3"/>
<path d="M-444.64 -6.15946L-409.159 482.523L287.612 464.683L311.585 12.6398C312.489 1.58155 311.127 -9.54492 307.582 -20.0582C304.037 -30.5715 298.383 -40.2504 290.968 -48.5023C283.553 -56.7541 274.532 -63.4053 264.457 -68.0484C254.382 -72.6916 243.466 -75.229 232.376 -75.5054L-368.739 -89.5568C-379.433 -89.833 -390.062 -87.8027 -399.901 -83.6039C-409.741 -79.4051 -418.561 -73.1363 -425.763 -65.2237C-432.964 -57.3112 -438.377 -47.9404 -441.635 -37.7486C-444.892 -27.5568 -445.917 -16.7829 -444.64 -6.15946V-6.15946Z" fill="white"/>
<path d="M-374.301 437.108L401.822 618.481L371.999 457.777L-386.048 344.167L-374.301 437.108Z" fill="#DBF7F2"/>
<path d="M-384.657 355.149L-397.411 233.386L296.003 234.825L1020.01 344.167L379.24 496.718L-384.657 355.149Z" fill="#778DB3"/>
<path opacity="0.38" d="M160.983 562.18L310.674 517.244L-385.856 365.028L-384.658 355.149L379.239 496.718L401.822 618.481L160.983 562.18Z" fill="#ACBAD6"/>
<g style="mix-blend-mode:multiply" opacity="0.82">
<path d="M312.065 597.476L363.608 504.008L219.527 467.081L379.239 496.718L401.822 618.481L312.065 597.476Z" fill="#ACBAD6"/>
</g>
<path d="M409.734 659.484C407.817 662.215 405.026 664.211 401.823 665.143C387.151 669.171 295.619 646.536 185.82 616.275L154.798 607.642L106.851 594.166L99.2271 591.817C15.5111 567.838 -70.0269 542.613 -134.9 523.19L-171.292 512.208L-203.56 502.617L-210.944 500.411L-211.903 500.123L-245.035 490.004C-245.035 490.004 -210.081 443.821 -167.12 396.2L-165.922 394.857C-126.845 351.696 -81.5344 307.815 -49.8891 296.306C17.2371 271.944 547.247 252.329 582.009 260.53C616.771 268.731 1005.48 335.966 1034.63 344.167C1063.78 352.367 1095.05 448.185 1095.05 448.185C1095.05 448.185 411.412 457.537 401.823 467.128C392.952 475.905 434.139 626.777 409.734 659.484Z" fill="#5EA9D3"/>
<g style="mix-blend-mode:multiply" opacity="0.45">
<path d="M-154.894 517.34C-154.894 517.34 -37.3749 330.307 -1.46238 315.105C34.4502 299.903 642.278 271.944 642.278 271.944L592.988 262.352C592.988 262.352 22.1277 276.308 -30.8541 301.725C-83.8359 327.142 -211.759 500.123 -211.759 500.123L-154.894 517.34Z" fill="#6A9ACC"/>
</g>
<path d="M602.674 274.581C602.674 274.581 67.246 283.309 -16.6618 308.151C-51.8072 318.654 -94.0007 357.979 -132.646 401.572C-186.299 462.094 -233.096 531.056 -244.651 542.374C-262.536 560.262 -454.66 478.783 -454.66 436.868C-454.66 426.893 -447.516 410.108 -435.481 390.014C-396.788 325.32 -307.606 226.432 -244.651 211.661C-162.086 192.479 341.649 204.564 395.493 214.587C434.379 221.78 508.026 223.89 553.719 232.091C571.124 235.256 584.358 239.285 589.92 244.896C609.914 265.326 602.674 274.581 602.674 274.581Z" fill="#5EA9D3"/>
<g style="mix-blend-mode:multiply">
<path d="M130.776 168.308C125.981 174.83 109.487 179.722 84.0275 184.277L74.0545 185.956C62.2115 187.826 48.8342 189.745 34.0665 191.711L23.9017 193.006C4.33917 195.547 -17.3331 198.233 -40.4917 201.35L-43.2725 201.686L-57.4171 203.652L-69.3079 205.283C-87.6717 207.824 -105.892 210.798 -123.68 214.107C-127.612 214.73 -131.496 215.498 -135.331 216.217C-152.497 219.43 -169.182 222.835 -185.197 226.24L-193.348 228.062C-209.698 231.611 -225.328 235.112 -239.952 238.517L-254.72 241.922L-262.344 243.696C-270.687 245.663 -278.598 247.437 -286.078 249.115C-293.557 250.794 -300.845 252.472 -307.414 253.911C-332.682 259.234 -349.464 261.584 -354.259 258.707C-354.944 258.274 -355.586 257.776 -356.177 257.22C-360.204 253.575 -359.869 249.067 -358.67 243.648C-357.514 239.417 -356.681 235.105 -356.177 230.748V230.748C-355.843 228.233 -355.843 225.685 -356.177 223.171C-356.153 222.964 -356.153 222.754 -356.177 222.547C-356.979 217.282 -358.856 212.238 -361.691 207.729C-368.643 196.315 -373.198 176.413 -376.075 154.976C-377.273 146.631 -378.137 138.047 -378.808 129.607C-380.486 109.896 -387.007 94.7418 -387.007 81.6496C-387.007 76.2305 -389.884 62.4668 -390.699 56.8079C-392.041 48.0798 -412.131 27.5542 -414.241 19.6413C-419.036 1.60945 -397.411 3.86344 -392.281 2.42473C-383.482 1.40294 -374.621 1.01819 -365.766 1.27366L-351.094 1.03393L-327.6 0.458473H-321.031C-315.038 0.458473 -308.709 0.0747469 -301.852 -0.212995C-290.249 -0.644608 -277.591 -1.26792 -263.83 -2.1791L-250.117 -2.99444C-237.028 -3.85766 -223.027 -4.96074 -208.115 -6.20762H-207.636L-201.547 -6.73507L-197.183 -7.16667C-179.922 -8.84516 -162.278 -11.5787 -144.777 -14.9837C-140.366 -15.8469 -135.955 -16.7581 -131.592 -17.7173C-111.933 -21.8895 -92.5624 -26.8291 -74.0548 -32.1044C-70.5067 -33.0635 -66.9105 -34.0705 -63.4583 -35.1256C-44.2794 -40.6886 -25.9156 -46.3955 -9.70943 -51.6707L3.2364 -55.843C36.7995 -66.8731 59.6703 -74.6421 63.2664 -72.4361C64.1778 -71.844 64.9472 -71.058 65.5199 -70.1342C68.2049 -65.914 68.3488 -57.7134 69.6913 -44.9089C71.6969 -24.9096 76.1908 -5.23903 83.0686 13.6466C99.2269 58.918 115.385 125.099 120.228 145.48C121.043 148.933 121.522 151.139 121.666 151.571C131.447 157.949 134.18 163.608 130.776 168.308Z" fill="#776A98"/>
</g>
<path style="mix-blend-mode:color-dodge" opacity="0.49" d="M130.776 168.308C120.42 182.696 52.7181 189.026 -40.4435 201.351C-37.8064 199.481 92.2268 174.351 85.4662 146.44C78.7056 118.529 10.9081 27.602 -59.7663 23.6695C-130.441 19.737 -329.182 0.841793 -329.182 0.841793L-327.84 -0.117264C-298.017 -0.932536 -257.981 -2.75497 -207.972 -7.07112L-201.882 -7.59858C-83.7399 -18.0533 53.5812 -78.863 62.9309 -73.1082C63.8491 -72.54 64.6081 -71.7479 65.1366 -70.8062C67.8216 -66.586 68.0134 -58.4333 69.308 -45.6287C71.3147 -25.6093 75.8249 -5.92104 82.7332 12.975C98.8914 58.2466 115.05 124.38 119.844 144.761C120.707 148.262 121.187 150.42 121.283 150.9C131.448 157.95 134.181 163.609 130.776 168.308Z" fill="url(#paint3_linear_7_2064)"/>
<g style="mix-blend-mode:multiply" opacity="0.45">
<path d="M553.432 232.139C547.295 232.523 349.512 265.709 290.153 265.709C257.309 265.709 203.848 271.608 203.848 271.608C203.848 271.608 -28.2171 284.892 -47.0605 284.892C-65.9038 284.892 -132.407 360.952 -132.407 378.216C-132.407 395.481 -132.79 402.195 -132.79 402.195C-186.443 462.717 -233.24 531.679 -244.795 542.997C-262.68 560.885 -454.804 479.406 -454.804 437.491C-454.804 427.516 -447.66 410.731 -435.626 390.637C-431.262 400.229 -427.139 408.621 -427.139 408.621L-330.669 297.169C-332.539 300.046 -398.371 399.749 -387.055 425.886C-375.739 452.022 -355.218 443.39 -341.457 449.385C-327.696 455.379 -200.012 283.165 -213.438 269.738C-226.863 256.31 -270.735 247.773 -270.735 247.773L-92.5624 222.548L337.429 210.846L553.192 232.379L553.432 232.139Z" fill="#6A9ACC"/>
</g>
<path d="M67.439 231.852C63.3635 236.024 50.6574 237.847 31.6222 238.374C29.1769 238.374 26.8275 238.374 24.0945 238.374C15.2721 238.374 5.20316 238.374 -5.72886 238.374H-13.3525C-27.7367 238.374 -44.0388 237.799 -61.2999 237.511H-63.4575C-66.9576 237.511 -70.4099 237.511 -74.006 237.511L-82.9721 236.936C-96.6371 236.936 -110.302 236.936 -123.679 237.463C-126.652 237.463 -129.577 237.463 -132.454 237.703C-145.352 238.23 -157.914 238.854 -169.997 239.621C-172.058 239.621 -174.072 239.957 -176.134 240.053L-200.491 241.779L-211.375 242.643L-222.547 243.554L-246.233 245.376C-251.987 245.856 -257.405 246.287 -262.392 246.479C-281.571 247.678 -293.941 247.534 -297.105 244.753C-301.085 241.204 -300.318 237.655 -298.688 233.243C-297.044 229.618 -295.806 225.822 -294.996 221.925C-294.799 220.656 -294.703 219.373 -294.708 218.088C-294.693 214.126 -295.509 210.205 -297.105 206.579C-299.261 200.822 -300.554 194.778 -300.941 188.643C-301.721 181.252 -302.026 173.82 -301.852 166.39C-301.852 161.595 -301.612 156.799 -301.277 151.763C-301.277 151.092 -301.277 150.517 -301.277 149.893C-301.277 149.27 -301.277 148.215 -301.277 147.495C-300.366 133.108 -303.482 121.071 -302.044 111.527C-301.469 107.547 -302.044 97.1402 -302.044 92.9679C-302.044 86.4457 -314.558 69.2289 -315.23 63.3302C-315.645 61.7423 -315.575 60.0663 -315.028 58.5188C-314.481 56.9713 -313.482 55.6235 -312.161 54.6499V54.6499C-307.702 51.7245 -299.982 53.403 -297.345 53.0194C-290.82 53.3043 -284.319 53.9929 -277.878 55.0815C-274.666 55.4652 -271.118 55.9928 -267.138 56.5683C-262.008 57.0959 -256.254 57.8152 -249.877 58.6305L-245.082 59.2539L-231.178 60.7884C-222.595 61.6996 -213.293 62.6588 -203.08 63.474C-199.82 63.8097 -196.416 64.1455 -193.012 64.3852C-183.422 65.1526 -172.969 65.92 -161.942 66.5914H-161.462L-156.955 66.8311C-155.852 66.8311 -154.797 66.8311 -153.743 67.0708C-140.941 67.5984 -127.707 67.5504 -114.474 67.0708L-104.596 66.4954C-89.7328 65.5362 -75.1088 64.0496 -60.9643 62.3231L-52.957 61.268C-38.1892 59.2538 -24.1886 57.0478 -11.8661 54.9857L-1.89297 53.3071C23.8069 48.8951 41.2597 45.7299 43.7529 47.7441C44.3632 48.2437 44.8408 48.8861 45.1435 49.6145C46.6298 53.0194 45.8627 59.206 45.4791 68.5576C44.7949 83.4122 45.9382 98.2945 48.8834 112.87C49.5546 116.179 50.178 119.68 50.8492 123.181C53.0548 136.369 55.0206 150.804 56.6508 164.376C59.2879 185.621 61.014 204.756 61.7332 213.245C62.0209 215.882 62.0689 217.561 62.1169 218.04C69.0213 224.275 70.4597 228.783 67.439 231.852Z" fill="#C0D4D8"/>
<path d="M-300.989 147.591L-225.856 65.3924L-154.175 142.939L-90.8363 71.8665L-31.5733 136.801L12.0108 59.3018L52.0468 128.408L54.2524 142.939L13.1615 70.4759L-30.1349 147.591L-90.8363 79.0601L-152.305 154.497L-225.376 78.6285L-301.373 154.497L-300.989 147.591Z" fill="#776A98"/>
<path d="M59.7194 188.115L34.3552 164.136L-1.03005 238.661L-80.1433 164.136L-142.475 238.661L-228.109 160.635L-281.858 213.724L-296.482 228.111C-295.276 224.937 -294.628 221.578 -294.564 218.184C-294.546 216.771 -294.642 215.36 -294.852 213.963L-286.413 205.715L-226.239 146.584L-144.729 223.891L-80.383 151.044L-3.6671 226.145L31.2386 154.497L58.6166 177.66L59.7194 188.115Z" fill="#776A98"/>
<path style="mix-blend-mode:color-dodge" opacity="0.74" d="M67.4389 231.804C58.2809 241.395 8.12791 238.422 -61.348 237.319C-59.1904 236.216 38.6224 232.044 36.7045 210.847C34.7866 189.65 -4.86588 115.891 -56.1217 105.341C-107.378 94.7903 -250.789 59.4939 -250.789 59.4939L-249.734 58.9184C-227.822 61.604 -198.382 64.6252 -161.271 66.9272L-156.764 67.2149C-69.2595 72.3943 37.7594 42.9006 43.9446 48.0321C44.5612 48.5451 45.0394 49.2048 45.3352 49.9505C46.8695 53.3554 46.1022 59.5419 45.6707 68.8456C44.9375 83.6849 46.0815 98.5574 49.0751 113.11C55.9795 147.975 60.5824 198.138 61.9249 213.532C62.1647 216.17 62.2605 217.8 62.3085 218.328C69.0691 224.275 70.4596 228.735 67.4389 231.804Z" fill="url(#paint4_linear_7_2064)"/>
<path d="M342.704 229.165C342.219 229.652 341.67 230.071 341.074 230.412C337.578 232.292 333.752 233.481 329.806 233.913C322.23 235.014 314.59 235.607 306.935 235.687C304.49 235.687 302.14 235.687 299.407 235.687C290.585 235.687 280.516 235.687 269.584 235.687H261.96L238.61 235.255H233.575L214.013 234.92H211.855H201.307H192.436C178.723 234.92 165.106 234.92 151.729 235.399C148.756 235.399 145.831 235.399 142.954 235.687H138.495H133.173C123.584 236.103 114.33 236.598 105.412 237.174L99.2743 237.653C90.8835 238.181 82.7323 238.756 74.9169 239.38L64.0328 240.195L52.861 241.106L45.1895 241.682L36.415 242.401L29.1751 242.929C23.4214 243.456 18.0032 243.84 13.0166 244.08C-6.16238 245.231 -18.5328 245.135 -21.6973 242.353C-25.677 238.756 -24.9097 235.256 -23.2795 230.844C-21.6289 227.221 -20.3905 223.425 -19.5876 219.526C-19.3892 218.273 -19.293 217.006 -19.3 215.737C-19.2807 212.194 -19.9314 208.68 -21.2178 205.378L-21.6973 204.227C-22.8506 201.383 -23.7024 198.426 -24.2385 195.403V195.403C-24.8615 192.427 -25.3098 189.416 -25.5811 186.387C-26.3443 178.98 -26.6325 171.532 -26.4441 164.088C-26.4441 159.292 -26.4442 154.496 -25.9167 149.461C-25.9167 148.789 -25.9167 148.214 -25.9167 147.638C-25.9167 147.063 -25.9167 145.96 -25.9167 145.193C-25.0057 130.806 -28.1223 118.768 -26.6839 109.225C-26.1565 105.292 -26.6839 94.838 -26.6839 90.7137C-26.6839 84.1436 -39.1982 66.7352 -39.8695 61.0284C-40.2786 59.4403 -40.2052 57.7664 -39.6586 56.2202C-39.112 54.6741 -38.117 53.326 -36.8008 52.3482V52.3482C-32.3416 49.4708 -24.6221 51.1492 -21.985 50.7655C-15.4559 50.9973 -8.9511 51.6864 -2.51832 52.8276L8.22187 54.2664L25.483 56.3286L30.2778 56.952C34.6889 57.5275 39.3398 57.959 44.1825 58.5345C52.7651 59.3977 62.067 60.357 72.2798 61.1722C75.5402 61.5079 78.9445 61.8436 82.3488 62.0834C91.9383 62.8507 102.391 63.666 113.419 64.3374H113.898L118.405 64.5771H121.618C134.42 65.1526 147.653 65.1047 160.887 64.5771L170.764 64.0497C185.628 63.0905 200.252 61.5559 214.396 59.8295L222.403 58.7744C237.171 56.7602 251.172 54.6021 263.494 52.5399L273.468 50.8615C299.167 46.4495 316.62 43.2363 319.113 45.2505C319.722 45.7715 320.198 46.4287 320.504 47.1688C321.99 50.5737 321.223 56.7602 320.84 66.1118C320.84 68.2698 320.84 70.5237 320.84 73.0654C320.776 85.56 321.981 98.0288 324.436 110.28C325.107 113.589 325.73 117.09 326.402 120.639C326.833 123.228 327.265 125.914 327.696 128.6C329.374 139.486 330.909 150.899 332.203 161.786C334.84 183.03 336.566 202.213 337.286 210.702C337.573 213.291 337.621 214.97 337.669 215.258C344.334 221.636 345.724 226.096 342.704 229.165Z" fill="url(#paint5_linear_7_2064)"/>
<path d="M8.7981 128.648L24.6688 68.126L41.1147 128.648H8.7981Z" fill="#FBEADE"/>
<path d="M119.94 128.648L135.811 68.126L152.256 128.648H119.94Z" fill="#FBEADE"/>
<path d="M211.424 128.648L227.342 68.126L243.74 128.648H211.424Z" fill="#FBEADE"/>
<path d="M264.789 200.823L280.66 140.253L297.105 200.823H264.789Z" fill="#FBEADE"/>
<path d="M329.806 233.914L335.799 210.99L341.073 230.413L329.806 233.914Z" fill="#FBEADE"/>
<path d="M168.32 205.187L184.19 144.618L200.636 205.187H168.32Z" fill="#FBEADE"/>
<path d="M238.609 235.112H233.575L236.02 225.521L238.609 235.112Z" fill="#FBEADE"/>
<path d="M60.4377 205.187L76.3088 144.618L92.7551 205.187H60.4377Z" fill="#FBEADE"/>
<path d="M138.496 235.4H133.175L135.811 225.377L138.496 235.4Z" fill="#FBEADE"/>
<path d="M5.44088 205.187H-21.2167L-21.6962 204.036C-22.8495 201.192 -23.7011 198.234 -24.2373 195.212V195.212L-11.0523 144.618L5.44088 205.187Z" fill="#FBEADE"/>
<path d="M45.1902 241.731L36.4158 242.45L40.827 225.713L45.1902 241.731Z" fill="#FBEADE"/>
<path d="M327.84 128.648H303.866L319.785 68.0781L321.127 72.8738C321.064 85.3685 322.269 97.8372 324.723 110.088C325.395 113.397 326.018 116.898 326.689 120.447C326.977 123.277 327.408 125.962 327.84 128.648Z" fill="#FBEADE"/>
<path style="mix-blend-mode:color-dodge" opacity="0.74" d="M342.751 229.165C333.593 238.517 283.44 235.783 213.964 234.68C216.122 233.577 313.935 229.357 312.017 208.208C310.099 187.059 270.446 113.206 219.095 102.655C167.743 92.1045 24.572 56.6644 24.572 56.6644L25.6749 56.0889C47.5389 58.7265 77.0264 61.7957 114.138 64.0976L118.645 64.3375C206.149 69.5648 313.167 40.0233 319.353 45.1547C319.969 45.6678 320.447 46.3273 320.743 47.073C322.229 50.43 321.462 56.6644 321.079 65.968C320.346 80.8073 321.489 95.6796 324.483 110.232C331.387 145.097 335.99 195.212 337.333 210.654C337.333 213.292 337.668 214.922 337.716 215.45C344.381 221.636 345.772 226.048 342.751 229.165Z" fill="url(#paint6_linear_7_2064)"/>
<g style="mix-blend-mode:multiply" opacity="0.25">
<path d="M243.742 221.301L79.2815 235.928L74.9183 239.285L66.0001 239.957C65.3937 239.909 64.7844 239.909 64.178 239.957L53.0062 240.82L29.3202 242.69C23.5665 243.17 18.1483 243.553 13.1618 243.793C-6.01724 244.944 -18.3877 244.848 -21.5522 242.067C-25.5319 238.47 -24.7646 234.969 -23.1344 230.557C-20.8219 225.817 -19.4695 220.667 -19.1548 215.403C-19.1394 211.44 -19.9562 207.519 -21.5522 203.893C-23.6949 198.13 -25.0027 192.09 -25.4359 185.957C-26.2001 178.55 -26.4883 171.101 -26.299 163.657C-26.299 158.861 -26.299 154.065 -25.7716 149.03C-25.7716 148.358 -25.7716 147.831 -25.7716 147.207C-25.7716 146.584 -25.7716 145.529 -25.7716 144.81C-24.8606 130.422 -28.0252 118.385 -26.5388 108.794C-26.0114 104.861 -26.5388 94.4066 -26.5388 90.2823C-26.5388 83.7121 -39.0531 66.5434 -39.7244 60.5967C-40.1364 59.016 -40.0642 57.3478 -39.517 55.8086C-38.9699 54.2694 -37.9729 52.9301 -36.6557 51.9644V51.9644C-36.6557 51.9644 39.8207 76.3267 49.9376 101.456C60.0545 126.586 50.7527 183.319 73.9114 206.626C96.4947 229.118 232.81 221.925 243.742 221.301Z" fill="#F90000"/>
</g>
<g style="mix-blend-mode:multiply" opacity="0.55">
<path d="M53.6779 224.466C53.6779 224.466 16.9015 232.379 2.90055 232.379C-5.20274 232.379 -13.7855 225.281 -19.5873 219.335C-19.4126 218.079 -19.3166 216.814 -19.2996 215.546C-19.2842 211.584 -20.101 207.663 -21.697 204.036C-23.8397 198.273 -25.1475 192.234 -25.5808 186.1C-26.345 178.693 -26.6332 171.244 -26.4439 163.8C-26.4439 159.005 -26.444 154.209 -25.9165 149.173C-25.9165 148.502 -25.9165 147.975 -25.9165 147.351C-25.9165 146.728 -25.9165 145.673 -25.9165 144.953C-25.0055 130.566 -28.1701 118.529 -26.6837 108.937C-26.1563 105.005 -26.6837 94.5503 -26.6837 90.426C-26.6837 90.426 -12.6827 115.987 -12.6827 135.554C-12.6827 155.12 2.46894 193.965 14.3602 205.811C26.2514 217.656 53.6779 224.466 53.6779 224.466Z" fill="#840000"/>
</g>
<g style="mix-blend-mode:multiply" opacity="0.55">
<path d="M65.9983 239.957C65.3919 239.909 64.7827 239.909 64.1763 239.957L53.0045 240.82L29.3187 242.69C23.565 243.17 18.1468 243.553 13.1603 243.793C-6.01863 244.944 -18.389 244.848 -21.5535 242.067C-25.5331 238.47 -24.7659 234.969 -23.1357 230.557C-20.8232 225.817 -19.4708 220.667 -19.1561 215.403C-19.1408 211.44 -19.9575 207.519 -21.5535 203.893C-23.6961 198.13 -25.0039 192.09 -25.4372 185.957C-26.2013 178.55 -26.4896 171.101 -26.3002 163.657C-26.3002 158.861 -26.3003 154.065 -25.7729 149.03C-25.7729 148.358 -25.7729 147.831 -25.7729 147.207C-25.7729 146.584 -25.7729 145.529 -25.7729 144.81C-24.8619 130.422 -28.0264 118.385 -26.5401 108.794C-26.0127 104.861 -26.5401 94.4066 -26.5401 90.2823C-26.5401 83.7122 -39.0543 66.5435 -39.7256 60.5968C-32.0613 71.8981 -23.3438 82.4478 -13.6901 92.1046H-21.3617C-21.3617 92.1046 -24.6221 183.847 -12.9709 200.392C-1.3197 216.937 -2.18283 225.33 -6.45014 229.598C-10.7174 233.866 65.9983 239.957 65.9983 239.957Z" fill="#840000"/>
</g>
<path d="M192.005 266.861C191.64 267.24 191.219 267.564 190.759 267.82C188.069 269.272 185.12 270.185 182.08 270.505C176.235 271.354 170.341 271.819 164.436 271.896C162.566 271.896 160.648 271.896 158.634 271.896C151.825 271.896 144.25 271.896 135.619 271.896H129.77L111.741 271.608H107.858L92.8022 271.369H91.124H82.9729H76.1644C65.5681 271.369 55.0676 271.369 44.759 271.704C42.4575 271.704 40.2039 271.704 37.9984 271.704H34.5461H30.4706C23.1186 272.056 15.9745 272.44 9.03809 272.855L4.24335 273.239C-2.22955 273.623 -8.51072 274.102 -14.5521 274.582L-22.9429 275.205L-31.5734 275.877L-37.4709 276.356L-44.2315 276.884L-49.8413 277.315C-54.2525 277.699 -58.4239 277.987 -62.2597 278.179C-76.9316 279.09 -86.6169 278.994 -89.0622 276.836C-91.5075 274.678 -91.5075 271.369 -90.2609 267.964C-88.9839 265.173 -88.0346 262.244 -87.432 259.235C-87.2748 258.268 -87.1947 257.29 -87.1923 256.31C-87.1808 253.571 -87.685 250.854 -88.6787 248.301C-88.7864 248.005 -88.9145 247.716 -89.0622 247.438C-89.9372 245.241 -90.5801 242.959 -90.9802 240.628V240.628C-91.4733 238.334 -91.8255 236.012 -92.0351 233.674C-92.6091 227.954 -92.8332 222.205 -92.7063 216.458C-92.7063 212.717 -92.7063 208.976 -92.2748 205.188C-92.3019 204.724 -92.3019 204.26 -92.2748 203.797C-92.2748 203.078 -92.2748 202.502 -92.2748 201.879C-91.5556 190.657 -93.9529 181.497 -92.8501 174.159C-92.4186 171.138 -92.8501 163.081 -92.8501 159.772C-92.8501 154.737 -102.44 141.453 -103.015 136.897C-103.33 135.678 -103.276 134.392 -102.857 133.205C-102.439 132.018 -101.676 130.982 -100.666 130.23V130.23C-97.2133 127.977 -91.0761 129.271 -89.2541 128.984C-84.22 129.149 -79.2044 129.678 -74.2465 130.566L-65.9517 131.669L-52.6223 133.3L-48.8824 133.779C-45.4782 134.211 -41.93 134.547 -38.1901 134.978C-31.5734 135.65 -24.3813 136.369 -16.5179 136.992C-14.0247 137.28 -11.3875 137.52 -8.75035 137.712C-1.3185 138.287 6.68871 138.959 15.2233 139.438H15.5589H19.0591H21.5044C31.3816 139.87 41.5943 139.822 51.8071 139.438L59.4308 139.055C70.8903 138.287 82.1579 137.088 92.994 135.794L99.1791 134.978C110.591 133.396 121.283 131.765 130.872 130.182L138.544 128.936C158.394 125.531 172.107 123.037 173.737 124.572C174.198 124.991 174.573 125.496 174.84 126.058C175.696 130.81 175.777 135.668 175.08 140.445C175.08 142.076 175.08 143.85 175.08 145.769C175.012 155.43 175.944 165.073 177.861 174.543C178.388 177.133 178.868 179.818 179.347 182.552L180.354 188.69C181.649 197.083 182.847 205.859 183.854 214.252C185.868 230.653 187.211 245.424 187.738 251.994C187.978 253.96 188.026 255.255 188.074 255.495C193.252 260.914 194.355 264.511 192.005 266.861Z" fill="url(#paint7_linear_7_2064)"/>
<path style="mix-blend-mode:color-dodge" opacity="0.74" d="M192.053 266.812C185.005 274.054 146.312 271.944 92.7547 271.081C94.4328 270.265 169.854 267.004 168.367 250.699C166.881 234.393 136.291 177.468 96.7822 169.172C57.2737 160.875 -53.1965 133.683 -53.1965 133.683L-52.3334 133.252C-35.456 135.314 -12.7292 137.664 15.8474 139.438H19.3476C86.8092 143.467 169.326 120.687 174.121 124.715C174.573 125.131 174.933 125.638 175.176 126.202C176.068 130.95 176.149 135.815 175.416 140.589C174.834 152.037 175.72 163.512 178.053 174.735C183.375 201.639 186.923 240.292 187.93 252.185C187.93 254.2 188.217 255.447 188.217 255.734C193.3 260.914 194.355 264.463 192.053 266.812Z" fill="url(#paint8_linear_7_2064)"/>
<g style="mix-blend-mode:multiply" opacity="0.25">
<path d="M115.721 260.914L-11.0517 272.088L-14.408 274.677L-21.3125 275.157H-22.7508L-31.3813 275.828C-37.8542 276.356 -43.9916 276.883 -49.6014 277.267C-54.0605 277.651 -58.232 277.938 -62.0678 278.13C-76.452 279.041 -86.425 278.945 -88.8703 276.787C-91.3156 274.629 -91.3156 271.32 -90.069 267.915C-88.2898 264.27 -87.247 260.31 -87.0003 256.262C-86.9735 253.204 -87.6116 250.177 -88.8703 247.39C-90.4891 242.944 -91.4893 238.296 -91.843 233.578C-92.418 227.858 -92.6421 222.109 -92.5142 216.361C-92.5142 212.621 -92.5143 208.88 -92.0827 205.091C-92.1082 204.612 -92.1082 204.132 -92.0827 203.653C-92.0827 202.981 -92.0827 202.358 -92.0827 201.83C-91.4115 190.56 -93.8089 181.449 -92.7061 174.063C-92.2745 170.994 -92.7061 162.985 -92.7061 159.676C-92.7061 154.641 -102.296 141.356 -102.871 136.8C-103.186 135.582 -103.132 134.296 -102.713 133.109C-102.295 131.922 -101.531 130.886 -100.522 130.135V130.135C-100.522 130.135 -41.5462 148.886 -33.7787 168.5C-26.0112 188.115 -33.1074 231.612 -15.1751 249.596C2.18188 266.812 107.282 261.249 115.721 260.914Z" fill="#F90000"/>
</g>
<path d="M-21.1687 203.844C-25.6515 203.606 -30.0841 202.784 -34.3542 201.399C-34.9094 201.205 -35.421 200.903 -35.8593 200.511C-36.2975 200.119 -36.6538 199.644 -36.9078 199.114C-37.1619 198.583 -37.3086 198.008 -37.3393 197.421C-37.3701 196.833 -37.2844 196.246 -37.0872 195.692C-36.894 195.142 -36.5939 194.637 -36.2043 194.204C-35.8148 193.771 -35.3436 193.42 -34.8176 193.17C-34.2917 192.921 -33.7213 192.778 -33.1399 192.75C-32.5584 192.721 -31.9771 192.808 -31.4295 193.006V193.006C-23.5362 195.266 -15.2379 195.732 -7.14121 194.371C0.955462 193.011 8.64578 189.857 15.3672 185.141C15.8489 184.807 16.3916 184.572 16.9643 184.448C17.537 184.324 18.1285 184.314 18.7051 184.418C19.2817 184.523 19.832 184.74 20.3246 185.058C20.8173 185.375 21.2426 185.786 21.5763 186.268C21.91 186.75 22.1456 187.293 22.2696 187.866C22.3935 188.438 22.4034 189.03 22.2988 189.607C22.1942 190.183 21.9771 190.734 21.6598 191.227C21.3425 191.719 20.9313 192.145 20.4496 192.479C8.29612 200.941 -6.40198 204.955 -21.1687 203.844Z" fill="#3F0800"/>
<path d="M9.90001 211.086C9.27557 211.053 8.66562 210.886 8.11137 210.596C7.55711 210.307 7.07158 209.901 6.68765 209.407L-0.504379 200.152C-1.22921 199.217 -1.55306 198.032 -1.4047 196.859C-1.25634 195.685 -0.648009 194.618 0.286639 193.893C1.22129 193.168 2.40561 192.844 3.57904 192.993C4.75246 193.141 5.81899 193.75 6.54382 194.685L13.7358 203.892C14.4534 204.836 14.7702 206.025 14.6176 207.201C14.465 208.377 13.8553 209.445 12.9207 210.175C12.0744 210.867 10.9878 211.195 9.90001 211.086V211.086Z" fill="#3F0800"/>
<path d="M23.4231 200.632C22.513 200.541 21.648 200.191 20.93 199.625L13.3544 193.39C12.8952 193.023 12.514 192.567 12.2333 192.05C11.9527 191.533 11.7781 190.965 11.72 190.38C11.662 189.795 11.7215 189.204 11.8952 188.642C12.0688 188.08 12.353 187.558 12.7311 187.107C13.4879 186.202 14.5698 185.629 15.7443 185.512C16.9187 185.396 18.0919 185.745 19.012 186.484L26.5875 192.719C27.0468 193.086 27.428 193.542 27.7086 194.059C27.9893 194.575 28.1639 195.143 28.2219 195.729C28.28 196.314 28.2204 196.905 28.0468 197.467C27.8731 198.029 27.589 198.551 27.2109 199.001C26.7548 199.555 26.1731 199.992 25.5143 200.275C24.8555 200.559 24.1386 200.681 23.4231 200.632V200.632Z" fill="#3F0800"/>
<path d="M120.659 201.159C115.339 200.799 110.152 199.334 105.43 196.857C100.708 194.38 96.5541 190.945 93.2336 186.772C92.5614 185.796 92.3003 184.595 92.5067 183.428C92.7131 182.262 93.3704 181.223 94.3364 180.537C94.8106 180.197 95.3476 179.954 95.9163 179.823C96.4849 179.692 97.0739 179.675 97.6492 179.773C98.2245 179.871 98.7746 180.083 99.2676 180.395C99.7607 180.707 100.187 181.114 100.521 181.592C103.059 184.706 106.213 187.259 109.787 189.091C113.36 190.924 117.274 191.996 121.282 192.239C132.454 193.054 133.797 188.978 133.844 188.93C134.011 187.817 134.605 186.813 135.501 186.133C136.397 185.452 137.523 185.148 138.639 185.285C139.799 185.539 140.823 186.214 141.514 187.179C142.205 188.145 142.513 189.333 142.379 190.513C142.379 190.992 140.605 202.55 120.659 201.159Z" fill="#3F0800"/>
<path d="M91.6035 194.732C90.6852 194.655 89.8126 194.298 89.1033 193.71C88.394 193.121 87.882 192.33 87.6364 191.441C87.3908 190.553 87.4233 189.611 87.7297 188.741C88.0361 187.872 88.6017 187.118 89.35 186.58L95.727 182.168C96.6998 181.494 97.9005 181.234 99.0649 181.445C100.229 181.657 101.262 182.322 101.936 183.295C102.61 184.268 102.87 185.469 102.659 186.633C102.448 187.798 101.782 188.831 100.809 189.505L94.4324 193.773C93.6156 194.386 92.6246 194.722 91.6035 194.732Z" fill="#3F0800"/>
<path d="M102.296 207.105C101.616 207.052 100.959 206.838 100.378 206.482C99.3625 205.882 98.6261 204.905 98.3296 203.763C98.0331 202.622 98.2006 201.409 98.7955 200.391L104.022 191.567C104.626 190.55 105.609 189.814 106.756 189.522C107.902 189.23 109.118 189.405 110.135 190.009C111.153 190.613 111.888 191.597 112.181 192.743C112.473 193.89 112.298 195.106 111.694 196.123L106.467 204.947C106.041 205.659 105.425 206.239 104.688 206.62C103.952 207.001 103.123 207.169 102.296 207.105V207.105Z" fill="#3F0800"/>
<path d="M121.618 210.991C120.562 210.925 119.565 210.483 118.808 209.743C118.051 209.004 117.585 208.017 117.495 206.962L116.536 197.131C116.442 195.97 116.806 194.818 117.549 193.922C118.293 193.026 119.358 192.456 120.516 192.335C121.665 192.32 122.781 192.719 123.661 193.458C124.541 194.197 125.126 195.229 125.31 196.363L126.269 206.195C126.362 207.363 125.992 208.521 125.238 209.419C124.485 210.316 123.408 210.881 122.241 210.991C122.034 211.009 121.826 211.009 121.618 210.991V210.991Z" fill="#3F0800"/>
<path d="M142.763 204.036C141.656 203.925 140.623 203.434 139.838 202.645L133.365 195.787C132.962 195.359 132.648 194.856 132.439 194.306C132.231 193.756 132.133 193.17 132.15 192.583C132.168 191.995 132.302 191.416 132.543 190.88C132.784 190.344 133.129 189.86 133.557 189.457C133.985 189.054 134.489 188.74 135.039 188.531C135.588 188.323 136.174 188.224 136.761 188.242C137.349 188.26 137.928 188.394 138.464 188.635C139 188.876 139.483 189.221 139.886 189.649L146.359 196.507C147.191 197.35 147.657 198.487 147.657 199.672C147.657 200.856 147.191 201.993 146.359 202.837C145.887 203.291 145.319 203.635 144.697 203.842C144.074 204.05 143.414 204.116 142.763 204.036V204.036Z" fill="#3F0800"/>
<g style="mix-blend-mode:multiply" opacity="0.45">
<path d="M409.734 659.485C407.817 662.216 405.026 664.212 401.822 665.144C392.952 667.59 355.937 660.348 303.722 647.4C249.638 634.02 179.059 614.741 107.138 594.168L99.2269 591.818C-34.0666 552.781 -169.278 512.688 -203.56 502.474L-210.944 500.268L-211.903 499.98L-110.734 377.593C-110.734 377.593 -131.927 435.621 -141.66 461.998C-151.394 488.374 -113.947 479.982 -70.7942 507.893C-27.6416 535.804 134.9 580.212 139.695 575.368C144.489 570.525 152.065 403.346 152.065 403.346C152.065 403.346 160.839 562.036 165.155 577.479C169.47 592.921 231.274 599.874 271.166 599.874C311.058 599.874 389.884 403.25 389.884 403.25L403.644 503.193L401.679 512.161L409.734 659.485Z" fill="#6A9ACC"/>
</g>
<g style="mix-blend-mode:multiply" opacity="0.19">
<path d="M409.735 659.485C407.818 662.216 405.027 664.212 401.824 665.144C392.953 667.59 355.937 660.348 303.722 647.4C303.722 647.4 392.282 583.473 386.624 496.67L409.735 659.485Z" fill="#6A9ACC"/>
</g>
<path style="mix-blend-mode:color-dodge" d="M679.533 278.801L60.4377 317.263L369.985 373.469L954.224 329.06L679.533 278.801Z" fill="url(#paint9_linear_7_2064)"/>
<g style="mix-blend-mode:multiply">
<path d="M240.288 461.758L224.897 453.797L209.603 461.95L212.431 444.829L199.917 432.84L217.082 430.25L224.658 414.616L232.425 430.106L249.59 432.504L237.268 444.685L240.288 461.758Z" fill="#776A98"/>
</g>
<g style="mix-blend-mode:multiply">
<path d="M393.096 420.563L377.657 412.602L362.41 420.754L365.191 403.682L352.724 391.645L369.842 389.055L377.417 373.469L385.185 388.959L402.35 391.309L390.027 403.49L393.096 420.563Z" fill="#776A98"/>
</g>
<g style="mix-blend-mode:multiply">
<path d="M60.6295 546.93L45.2382 538.969L29.943 547.121L32.7719 530.048L20.3057 518.011L37.4228 515.422L44.9986 499.835L52.766 515.326L69.9311 517.676L57.5608 529.857L60.6295 546.93Z" fill="#776A98"/>
</g>
<g style="mix-blend-mode:multiply">
<path d="M261.577 329.012L246.042 327.526L231.034 331.698L233.383 325.464L220.677 322.298L237.699 319.949L244.843 313.81L252.946 318.606L270.111 317.982L258.124 323.306L261.577 329.012Z" fill="#776A98"/>
</g>
<g style="mix-blend-mode:multiply">
<path d="M398.85 341.865L384.226 336.398L368.643 336.542L372.575 331.123L361.067 324.792L378.137 326.903L386.623 322.874L393.24 329.54L409.974 333.377L397.028 335.439L398.85 341.865Z" fill="#776A98"/>
</g>
<g style="mix-blend-mode:multiply">
<path d="M267.522 264.606L252.035 262.784L236.932 266.572L239.473 260.434L226.815 256.981L243.884 255.015L251.172 249.068L259.179 254.008L276.344 253.768L264.214 258.803L267.522 264.606Z" fill="#776A98"/>
</g>
<g style="mix-blend-mode:multiply">
<path d="M405.994 247.246L390.843 243.649L375.356 245.711L378.616 239.86L366.437 235.017L383.603 234.969L391.514 229.933L398.898 235.736L416.015 237.51L403.405 241.107L405.994 247.246Z" fill="#776A98"/>
</g>
<g style="mix-blend-mode:multiply">
<path d="M312.641 566.256L297.249 558.247L281.954 566.448L284.735 549.327L272.269 537.338L289.386 534.7L296.962 519.114L304.729 534.604L321.895 537.002L309.572 549.183L312.641 566.256Z" fill="#776A98"/>
</g>
<g style="mix-blend-mode:multiply">
<path d="M154.798 607.691L160.647 606.828L168.223 591.194L175.991 606.684L193.156 609.082L185.82 616.323L154.798 607.691Z" fill="#776A98"/>
</g>
<g style="mix-blend-mode:multiply">
<path d="M98.3648 388.479L82.9733 380.518L67.6778 388.671L70.5069 371.598L58.0403 359.561L75.1578 356.971L82.7336 341.385L90.5012 356.875L107.667 359.225L95.344 371.454L98.3648 388.479Z" fill="#776A98"/>
</g>
</g>
<defs>
<linearGradient id="paint0_linear_7_2064" x1="-2039.22" y1="682.983" x2="1803.23" y2="682.983" gradientUnits="userSpaceOnUse">
<stop stop-color="#F4B8B0"/>
<stop offset="1" stop-color="#F9E2CA"/>
</linearGradient>
<linearGradient id="paint1_linear_7_2064" x1="170962" y1="489236" x2="170962" y2="113306" gradientUnits="userSpaceOnUse">
<stop stop-color="#C2929D"/>
<stop offset="1" stop-color="#958B9D"/>
</linearGradient>
<linearGradient id="paint2_linear_7_2064" x1="358.191" y1="306.713" x2="358.191" y2="-889.001" gradientUnits="userSpaceOnUse">
<stop/>
<stop offset="1" stop-color="#FC6B6B"/>
</linearGradient>
<linearGradient id="paint3_linear_7_2064" x1="-309.327" y1="111.985" x2="118.647" y2="47.1534" gradientUnits="userSpaceOnUse">
<stop/>
<stop offset="1" stop-color="#B67700"/>
</linearGradient>
<linearGradient id="paint4_linear_7_2064" x1="64146.9" y1="57101.8" x2="85457.7" y2="57098.1" gradientUnits="userSpaceOnUse">
<stop/>
<stop offset="1" stop-color="#505400"/>
</linearGradient>
<linearGradient id="paint5_linear_7_2064" x1="-39.7736" y1="144.665" x2="344.238" y2="144.665" gradientUnits="userSpaceOnUse">
<stop stop-color="#958B9D"/>
<stop offset="1" stop-color="#C2929D"/>
</linearGradient>
<linearGradient id="paint6_linear_7_2064" x1="82770.3" y1="57038.8" x2="104078" y2="57035.1" gradientUnits="userSpaceOnUse">
<stop/>
<stop offset="1" stop-color="#505400"/>
</linearGradient>
<linearGradient id="paint7_linear_7_2064" x1="-102.871" y1="201.687" x2="193.204" y2="201.687" gradientUnits="userSpaceOnUse">
<stop stop-color="#F4EDCA"/>
<stop offset="1" stop-color="#F4B8B0"/>
</linearGradient>
<linearGradient id="paint8_linear_7_2064" x1="59913.6" y1="45925" x2="72574" y2="45922.8" gradientUnits="userSpaceOnUse">
<stop/>
<stop offset="1" stop-color="#505400"/>
</linearGradient>
<linearGradient id="paint9_linear_7_2064" x1="60.4377" y1="326.135" x2="954.224" y2="326.135" gradientUnits="userSpaceOnUse">
<stop/>
<stop offset="1" stop-color="#9A5400"/>
</linearGradient>
<clipPath id="clip0_7_2064">
<rect width="375" height="812" fill="white" transform="translate(-1 -2)"/>
</clipPath>
</defs>
</svg>
