<svg width="375" height="812" viewBox="0 0 375 812" fill="none" xmlns="http://www.w3.org/2000/svg">
<path d="M2703.43 -972.686H-808.85V367.753H2703.43V-972.686Z" fill="url(#paint0_linear_8_3301)"/>
<path d="M2681.18 356.821H-831.1V380.384H2681.18V356.821Z" fill="url(#paint1_linear_8_3301)"/>
<path style="mix-blend-mode:multiply" opacity="0.82" d="M-844.014 518.585L-719.963 533.255L103.336 400.774V396.639L83.6582 388.2L-844.014 518.585Z" fill="url(#paint2_linear_8_3301)"/>
<g style="mix-blend-mode:screen" opacity="0.28">
</g>
<path d="M2623.21 380.384H-931.56V659.448H2623.21V380.384Z" fill="url(#paint3_linear_8_3301)"/>
<path style="mix-blend-mode:color-dodge" opacity="0.23" d="M-135.933 400.774L-499.701 432.775L-275.19 495.023L-1031.46 549.51L-640.523 686.692L323.095 580.379L-243.94 495.023L98.92 439.006L-135.933 400.774Z" fill="url(#paint4_linear_8_3301)"/>
<path opacity="0.4" d="M-135.877 400.774L-499.589 433.625V432.039L-274.966 493.947L-268.426 495.702L-275.246 496.212L-653.157 523.909L-1031.24 551.379L-1030.57 547.754L-639.573 684.766H-640.802L-159.021 631.638L322.927 578.623V582.191L-244.163 496.212L-251.543 495.079L-244.219 493.89L98.8081 438.439V439.572L-135.877 400.774ZM-135.877 400.774L98.9199 438.439L102.33 439.006L98.9199 439.572L-243.772 496.212V493.89L323.431 578.85L337.071 580.889L323.319 582.418L-158.462 635.773L-640.243 688.958H-640.858H-641.473L-1032.35 551.663L-1040.91 548.661L-1031.63 547.981L-653.493 521.02L-275.246 493.89L-275.581 496.155L-499.98 433.568L-504.229 432.379L-499.756 432.039L-135.877 400.774Z" fill="#481930"/>
<path style="mix-blend-mode:color-dodge" opacity="0.23" d="M942.009 401.284L1165.4 432.775L940.891 495.023L1464.71 587.176L884.54 721.752L342.606 580.379L909.697 495.023L642.866 446.879L942.009 401.284Z" fill="url(#paint5_linear_8_3301)"/>
<path opacity="0.4" d="M642.867 446.879L909.976 493.89L917.3 495.079L909.92 496.212L342.997 582.192V578.623L886.329 721.809H885.099L1464.71 586.326L1465.38 590.008L940.835 496.042L934.015 495.533L940.556 493.777L1165.4 433.455L942.233 401.171L642.867 446.879ZM1170.27 432.719L941.394 496.156L941.059 493.89L1478.69 586.496L1470.13 589.498L886.944 725.774H886.329H885.658L342.382 582.078L328.63 580.549L342.27 578.51L909.473 493.55V495.872L633.531 447.049L942.68 401.737L1170.27 432.719Z" fill="#481930"/>
<path style="mix-blend-mode:color-dodge" opacity="0.23" d="M322.928 447.389L100.094 493.494L322.928 536.427L535.363 494.513L322.928 447.389ZM320.3 508.673L214.082 488.226L320.3 466.25L421.486 488.906L320.3 508.673Z" fill="url(#paint6_linear_8_3301)"/>
<path style="mix-blend-mode:multiply" opacity="0.77" d="M201.001 -496.175L9.24988 -287.797L24.2321 368.319L219.058 391.372L303.864 -142.742L201.001 -496.175Z" fill="url(#paint7_linear_8_3301)"/>
<path style="mix-blend-mode:multiply" opacity="0.6" d="M182.385 -537.522L137.438 355.236L-844.014 484.035L-813.49 -929.753L2916.88 -1059.57L2693.09 -616.591L182.385 -537.522Z" fill="url(#paint8_linear_8_3301)"/>
<path d="M119.437 381.29L-733.156 507.483L-985.339 490.152L-984.277 293.838L117.312 321.025L117.816 335.072L119.437 381.29Z" fill="url(#paint9_linear_8_3301)"/>
<path d="M119.437 381.29L-733.156 507.484V417.143L117.816 335.072L119.437 381.29Z" fill="url(#paint10_linear_8_3301)"/>
<path d="M179.422 -518.718L134.978 363.505L-712.974 462.455L-973.431 447.785L-958.449 -759.494L-712.974 -773.654L179.422 -518.718Z" fill="url(#paint11_linear_8_3301)"/>
<path d="M165.446 -497.251L160.414 -402.549L159.911 -393.544L159.073 -377.175L156.725 -333.562L155.942 -318.269V-318.213L130.841 152.465L-674.233 175.517V-733.893L-445.306 -669.266L-313.54 -632.111L-119.889 -577.566L165.446 -497.251Z" fill="url(#paint12_linear_8_3301)"/>
<path d="M-677.643 436.344L-675.127 217.94L126.425 181.917L122.288 347.702L-677.643 436.344Z" fill="url(#paint13_linear_8_3301)"/>
<path d="M119.604 191.376L118.43 256.795V257.588L116.921 341.189L111.554 341.755L7.46092 352.913L-163.046 371.151L-325.56 388.596L-354.126 391.655L-666.63 425.129L-666.183 341.302V339.206L-665.568 226.833L-617.602 224.681L-345.014 212.333L-300.179 210.351L-276.867 209.275L119.604 191.376Z" fill="url(#paint14_linear_8_3301)"/>
<path style="mix-blend-mode:multiply" opacity="0.91" d="M165.446 -496.911L160.415 -402.266L159.911 -393.204L159.073 -376.891H158.57L146.103 -162.736L145.209 -146.877L136.599 1.17979L135.649 17.0956L127.711 153.768H22.3315L26.5243 19.5311L27.1393 1.12309L31.8911 -151.351L32.5061 -169.816L39.4941 -392.411L9.30586 -396.319C-0.980484 -418.182 -27.5908 -461.455 -77.9603 -464.287C-140.182 -467.402 -165.73 -426.225 -169.419 -419.655L-266.525 -432.229L-272.115 161.867H-266.022L-251.151 161.414V164.926L-421.099 170.59L-419.534 0.670048L-417.969 -165.115L-415.453 -451.599L-490.253 -461.172C-505.403 -488.925 -536.765 -530.046 -590.489 -532.821C-629.621 -534.803 -656.623 -522.343 -674.345 -508.806V-664.735L-486.731 -675.723L-445.418 -669.266L-313.708 -632.111L-120 -577.623L165.446 -496.911Z" fill="url(#paint15_linear_8_3301)"/>
<path d="M-674.009 326.746L120.387 266.651L120.443 269.313L-676.469 337.507L-674.009 326.746Z" fill="url(#paint16_linear_8_3301)"/>
<path opacity="0.85" d="M137.047 12.1679L135.649 28.0836L129.667 28.027H125.81L41.8979 27.6305L38.8791 27.5739L26.5243 27.5173L-77.4572 27.0075L-94.0607 26.8942L-253.22 26.1013H-262.444L-263.115 26.0446L-301.856 25.8747L-376.823 25.4783H-382.134L-674.457 24.0623L-673.898 -10.8279L-401.924 -3.12486L-381.855 -2.55843L-304.092 -0.349483L-253.779 1.12312L-178.308 3.21877L-101.272 5.42771L-81.2028 5.99415L27.5865 9.10935L33.68 9.27927L37.202 9.33587L79.8009 10.582L130.618 11.998L137.047 12.1679Z" fill="url(#paint17_linear_8_3301)"/>
<path style="mix-blend-mode:color-dodge" d="M-181.271 3.04883L-15.6832 12.5077L83.7143 10.4686L-181.271 3.04883Z" fill="url(#paint18_linear_8_3301)"/>
<path style="mix-blend-mode:multiply" opacity="0.54" d="M41.8978 27.6306L38.879 27.574L36.2514 9.16602L33.6799 9.27932L33.624 9.16602L37.2019 9.33593L41.8978 27.6306Z" fill="url(#paint19_linear_8_3301)"/>
<path d="M135.481 28.1403L129.667 28.1969L-191.781 28.9899L-262.444 26.1013L-262.5 26.0446H-263.115H-674.513L-674.457 24.0623L-674.233 16.9823L38.767 26.8376H41.7299L125.81 28.027L129.667 28.0836L135.481 28.1403Z" fill="url(#paint20_linear_8_3301)"/>
<path style="mix-blend-mode:multiply" opacity="0.62" d="M129.667 16.982L135.481 16.8689L129.667 17.095V16.982Z" fill="url(#paint21_linear_8_3301)"/>
<path style="mix-blend-mode:multiply" opacity="0.62" d="M130.17 12.6775L136.599 12.7342L135.649 28.6501L129.667 28.7634L130.17 12.6775Z" fill="url(#paint22_linear_8_3301)"/>
<path d="M-199.384 150.936V164.019L127.711 153.541L22.3315 147.764L-199.384 150.936Z" fill="#E56E2C"/>
<path style="mix-blend-mode:multiply" opacity="0.62" d="M-84.8925 220.206C-64.4285 221.705 -43.8963 222.008 -23.398 221.112C13.3309 219.753 15.7348 212.503 15.7348 212.503L28.3132 213.409C28.3132 213.409 17.1323 231.138 -20.9942 234.309C-43.2172 236.359 -65.5248 231.436 -84.8925 220.206V220.206Z" fill="url(#paint23_linear_8_3301)"/>
<path d="M24.959 206.443H25.7976C26.4452 206.594 27.0668 206.842 27.6424 207.179L28.0896 207.519C28.6906 207.912 29.1636 208.477 29.4491 209.142C29.7346 209.807 29.82 210.542 29.6946 211.256C29.5692 211.97 29.2386 212.63 28.7442 213.154C28.2499 213.678 27.6138 214.043 26.9157 214.202H26.2448C25.5411 214.317 24.8241 214.317 24.1204 214.202C22.9613 214.11 21.8539 213.677 20.9338 212.956C20.3903 212.586 19.9537 212.077 19.6688 211.48C19.3839 210.882 19.261 210.219 19.3127 209.558C19.4041 208.846 19.6871 208.173 20.1309 207.614C20.5747 207.054 21.162 206.63 21.8283 206.386H22.1079C23.0537 206.228 24.02 206.247 24.959 206.443V206.443Z" fill="url(#paint24_linear_8_3301)"/>
<path d="M28.425 213.409C27.7541 214.995 17.9709 217.884 -10.7078 220.886L-20.491 221.849C-65.9969 226.04 -78.0722 223.888 -81.2028 222.358L-82.265 221.226V213.579C-82.265 214.032 -81.0351 219.696 -20.7706 215.788L-12.1054 215.222C-5.78826 214.712 -0.533365 214.259 3.88305 213.806C20.6543 212.05 27.81 209.954 28.5367 208.708L28.425 213.409Z" fill="url(#paint25_linear_8_3301)"/>
<path d="M9.86492 215.845C9.85202 216.442 9.70421 217.028 9.43286 217.558C9.16151 218.089 8.77385 218.549 8.29961 218.903L7.74054 219.413C-10.0691 227.796 -30.366 228.971 -49.0021 222.698C-49.2847 222.542 -49.5475 222.352 -49.7848 222.132C-50.0515 221.955 -50.2956 221.746 -50.5115 221.509C-51.1009 220.938 -51.4763 220.177 -51.5737 219.357C-51.5576 218.788 -51.4191 218.23 -51.168 217.721C-50.917 217.213 -50.5594 216.766 -50.1202 216.411L-49.7848 216.128C-48.2064 214.889 -46.454 213.896 -44.5857 213.183C-37.1024 210.505 -29.2607 208.997 -21.3296 208.708C-11.6026 207.553 -1.74471 208.877 7.34925 212.56L8.07595 213.07C8.7499 213.543 9.28966 214.188 9.64134 214.939C9.78816 215.218 9.86492 215.529 9.86492 215.845Z" fill="url(#paint26_linear_8_3301)"/>
<path d="M15.9583 215.562C16.0249 216.588 15.8526 217.617 15.4552 218.564C15.1979 219.281 14.7472 219.911 14.1542 220.381C13.5613 220.852 12.8499 221.144 12.1009 221.226C11.4331 221.254 10.7698 221.101 10.18 220.783C9.59018 220.464 9.09535 219.991 8.74675 219.413C8.1062 218.559 7.71847 217.537 7.62869 216.468V216.071C7.54053 215.086 7.69409 214.094 8.07584 213.183C8.05491 212.976 8.05491 212.767 8.07584 212.56C8.37254 211.955 8.81489 211.435 9.36203 211.049C9.90918 210.663 10.5436 210.423 11.2065 210.351C11.9291 210.361 12.6358 210.566 13.2546 210.944C13.8734 211.323 14.382 211.861 14.7284 212.503C15.4074 213.389 15.8329 214.447 15.9583 215.562Z" fill="url(#paint27_linear_8_3301)"/>
<g style="mix-blend-mode:color-dodge">
<path d="M14.2254 213.919C14.3406 214.535 14.2114 215.171 13.866 215.691C13.5206 216.211 12.9868 216.571 12.3806 216.694C11.7627 216.637 11.1909 216.339 10.7845 215.864C10.3782 215.389 10.1688 214.773 10.2003 214.146C10.1438 213.844 10.1468 213.535 10.2091 213.234C10.2714 212.934 10.3918 212.649 10.5634 212.397C10.7349 212.144 10.9542 211.928 11.2085 211.762C11.4628 211.595 11.7472 211.481 12.0452 211.427C13.2191 211.087 14.1695 212.446 14.2254 213.919Z" fill="#9CFA2D"/>
</g>
<g style="mix-blend-mode:multiply" opacity="0.48">
<path d="M9.86482 214.939C9.93597 215.236 9.93597 215.547 9.86482 215.845C9.85192 216.442 9.70411 217.028 9.43276 217.558C9.16141 218.089 8.77375 218.549 8.29951 218.903L7.74044 219.413C-10.0691 227.796 -30.366 228.971 -49.0021 222.698C-49.2847 222.542 -49.5475 222.352 -49.7848 222.132C-50.0515 221.955 -50.2956 221.746 -50.5115 221.509C-51.1009 220.938 -51.4763 220.177 -51.5737 219.357C-51.5576 218.788 -51.4191 218.23 -51.168 217.721C-50.917 217.213 -50.5594 216.765 -50.1202 216.411L-49.7848 216.128C-48.2064 214.889 -46.4541 213.896 -44.5857 213.183C-46.2628 217.657 -45.536 225.247 -18.758 222.925C0.976107 221.282 7.74047 217.827 9.86482 214.939Z" fill="#AC399F"/>
</g>
<path style="mix-blend-mode:multiply" opacity="0.62" d="M-81.4265 301.314C-60.9624 302.81 -40.4304 303.113 -19.932 302.221C16.797 300.861 19.2009 293.611 19.2009 293.611L31.7794 294.518C31.7794 294.518 20.5986 312.189 -17.528 315.418C-39.75 317.449 -62.0522 312.527 -81.4265 301.314V301.314Z" fill="url(#paint28_linear_8_3301)"/>
<path d="M28.481 287.551H29.3196C29.9671 287.702 30.5888 287.95 31.1644 288.287L31.6116 288.627C32.1618 289.007 32.6054 289.525 32.8993 290.131C33.1932 290.736 33.3274 291.408 33.2887 292.082C33.1608 292.837 32.8256 293.541 32.3213 294.112C31.8171 294.683 31.1642 295.098 30.4376 295.31H29.7668C29.0632 295.425 28.346 295.425 27.6424 295.31C26.4954 295.166 25.4011 294.738 24.456 294.064C23.9037 293.69 23.4615 293.171 23.1761 292.563C22.8907 291.955 22.7728 291.28 22.8348 290.609C22.9358 289.908 23.2232 289.247 23.6663 288.698C24.1095 288.15 24.6917 287.733 25.3504 287.494C26.3842 287.267 27.456 287.286 28.481 287.551V287.551Z" fill="url(#paint29_linear_8_3301)"/>
<path d="M32.2264 294.518C31.5556 296.103 21.7724 298.992 -6.90642 301.994L-16.6338 302.957C-62.1956 307.148 -74.2149 304.939 -77.3455 303.41L-78.4077 302.334V294.687C-78.4077 295.141 -77.1219 300.805 -16.5778 296.896L-7.96861 296.273C-1.70736 295.82 3.60353 295.367 8.01995 294.914C24.7912 293.158 31.9469 291.062 32.6178 289.816L32.2264 294.518Z" fill="url(#paint30_linear_8_3301)"/>
<path d="M13.4987 296.953C13.4817 297.549 13.3321 298.134 13.0611 298.664C12.7901 299.193 12.4046 299.654 11.9334 300.012L11.3744 300.521C2.79781 305.244 -6.81616 307.699 -16.5777 307.658C-26.3045 308.79 -36.1566 307.466 -45.2565 303.806L-46.0392 303.24L-46.7659 302.617C-47.3759 302.062 -47.7555 301.292 -47.8281 300.465C-47.812 299.896 -47.6735 299.338 -47.4224 298.829C-47.1714 298.321 -46.8138 297.874 -46.3746 297.519H-46.0392C-44.4692 296.268 -42.7148 295.274 -40.8401 294.574C-33.3636 291.872 -25.518 290.362 -17.584 290.1C-7.85698 288.944 2.00089 290.268 11.0948 293.951L11.8216 294.461C12.507 294.922 13.0496 295.57 13.3869 296.33C13.4485 296.532 13.486 296.742 13.4987 296.953V296.953Z" fill="url(#paint31_linear_8_3301)"/>
<g style="mix-blend-mode:color-dodge">
<path d="M2.70926 294.178C2.70926 294.857 -0.309571 295.537 -4.11106 295.764C-7.91255 295.99 -11.0432 295.764 -11.0432 294.914C-11.0432 294.064 -8.08025 293.555 -4.27876 293.328C-0.477277 293.102 2.65336 293.498 2.70926 294.178Z" fill="#9CFA2D"/>
</g>
<path d="M19.4802 296.67C19.5509 297.679 19.3782 298.689 18.9771 299.615C18.7305 300.355 18.2768 301.006 17.6712 301.489C17.0657 301.971 16.3345 302.265 15.567 302.334C14.9001 302.357 14.239 302.201 13.6502 301.883C13.0614 301.565 12.5656 301.095 12.2127 300.521V300.521C11.6121 299.65 11.246 298.635 11.1506 297.576C11.1779 297.427 11.1779 297.273 11.1506 297.123C11.0846 296.133 11.2573 295.142 11.6538 294.234C11.7244 294.035 11.8181 293.845 11.9332 293.668C12.2299 293.063 12.6723 292.544 13.2194 292.158C13.7665 291.772 14.4009 291.531 15.0638 291.459C15.7864 291.47 16.4932 291.675 17.112 292.053C17.7308 292.431 18.2394 292.969 18.5858 293.612C19.1457 294.533 19.4543 295.588 19.4802 296.67Z" fill="url(#paint32_linear_8_3301)"/>
<g style="mix-blend-mode:color-dodge">
<path d="M17.7474 295.027C17.8625 295.643 17.7333 296.28 17.3879 296.799C17.0425 297.319 16.5088 297.679 15.9026 297.803C15.3596 297.992 14.7718 298.003 14.2221 297.835C13.6724 297.668 13.1886 297.329 12.8391 296.868C12.4896 296.406 12.2919 295.845 12.2741 295.264C12.2564 294.683 12.4194 294.11 12.7401 293.628C13.0608 293.145 13.523 292.777 14.0614 292.575C14.5998 292.373 15.1872 292.348 15.7407 292.503C16.2941 292.657 16.7855 292.984 17.1456 293.437C17.5057 293.89 17.7162 294.447 17.7474 295.027V295.027Z" fill="#9CFA2D"/>
</g>
<g style="mix-blend-mode:multiply" opacity="0.48">
<path d="M13.2751 296.047C13.3262 296.347 13.3262 296.653 13.2751 296.953C13.258 297.549 13.1085 298.134 12.8374 298.664C12.5664 299.193 12.1809 299.654 11.7097 300.012L11.1507 300.521C2.57412 305.244 -7.03984 307.699 -16.8013 307.658C-26.5281 308.79 -36.3801 307.466 -45.48 303.806L-46.2627 303.24L-46.9894 302.617C-47.5994 302.062 -47.979 301.292 -48.0516 300.465C-48.0355 299.896 -47.8971 299.338 -47.646 298.829C-47.395 298.321 -47.0374 297.874 -46.5982 297.519H-46.2627C-44.6927 296.268 -42.9383 295.274 -41.0636 294.574C-42.7408 298.992 -42.014 306.638 -15.236 304.316C4.27447 302.39 11.2625 298.935 13.2751 296.047Z" fill="#AC399F"/>
</g>
<path d="M23.8968 154.051L63.7005 155.467L74.4901 150.482L47.9356 49.1537L10.927 48.8139L23.8968 154.051Z" fill="#7F7B4A"/>
<path d="M36.0839 54.3645L43.5192 50.3997H9.41772L11.3184 54.5344L36.0839 54.3645Z" fill="url(#paint33_linear_8_3301)"/>
<path d="M63.7006 155.467C62.5825 155.467 36.0839 54.3646 36.0839 54.3646H8.13184L14.3372 155.58L63.7006 155.467Z" fill="#685D31"/>
<path d="M41.7301 66.9953L49.7803 90.5573L55.7621 88.2352L49.6126 63.5402L41.7301 66.9953Z" fill="url(#paint34_linear_8_3301)"/>
<path d="M-7.96858 153.541L31.8909 154.957L52.5195 146.801L22.3314 33.9742L-53.9777 36.1832L-7.96858 153.541Z" fill="url(#paint35_linear_8_3301)"/>
<path d="M0.640692 42.357L16.4057 34.9938L-51.5737 38.9019L-56.2137 44.5659L0.640692 42.357Z" fill="url(#paint36_linear_8_3301)"/>
<path d="M31.8911 154.957C30.773 154.957 0.640713 42.357 0.640713 42.357L-59.568 44.6226L-17.6958 155.24L31.8911 154.957Z" fill="#3F3F5B"/>
<path d="M3.54773 50.1733L24.0087 41.734L24.4559 43.6597L3.93901 53.2318L3.54773 50.1733Z" fill="url(#paint37_linear_8_3301)"/>
<path d="M12.3806 82.458L32.5059 74.2452L33.065 76.2843L13.1633 85.12L12.3806 82.458Z" fill="url(#paint38_linear_8_3301)"/>
<path d="M-38.7157 154.9L1.08796 156.26L21.7166 148.16L-4.83786 46.7748L-49.1139 46.9448L-38.7157 154.9Z" fill="#CC465F"/>
<path d="M1.14391 156.316C-0.0300726 156.316 -26.5286 55.2141 -26.5286 55.2141H-54.4806L-48.2752 156.43L1.14391 156.316Z" fill="#812545"/>
<path d="M-14.2856 95.8251L5.83988 87.6122L6.39887 89.6513L-13.503 98.4872L-14.2856 95.8251Z" fill="url(#paint39_linear_8_3301)"/>
<path style="mix-blend-mode:multiply" opacity="0.74" d="M-723.373 507.54L-880.407 497.628L-860.282 695.075L-742.995 720.733L136.879 688.958V402.586H119.325V381.007L-723.373 507.54Z" fill="url(#paint40_linear_8_3301)"/>
<path style="mix-blend-mode:multiply" opacity="0.74" d="M204.467 395.563L203.908 416.52H184.789L177.577 658.542L654.271 659.448L646.5 413.858H629.002V392.335L204.467 395.563Z" fill="url(#paint41_linear_8_3301)"/>
<path d="M203.293 337.054V390.692H629.17V344.984L203.293 337.054Z" fill="url(#paint42_linear_8_3301)"/>
<path d="M184.956 -513.677V365.204H643.314L655.892 -513.677H184.956Z" fill="url(#paint43_linear_8_3301)"/>
<path d="M635.934 -493.456L634.537 -389.862L634.481 -382.952L625.424 342.888H204.355L208.324 -382.952L208.38 -389.862L209.051 -493.456H635.934Z" fill="url(#paint44_linear_8_3301)"/>
<path style="mix-blend-mode:multiply" opacity="0.91" d="M631.686 -106.776H631.294L630.847 -106.719L630.176 -106.606L629.226 1.23641L432.835 -7.6561L449.886 43.6596L203.852 45.2455L206.368 -103.434L623.188 -106.719L628.052 -106.776H631.294H631.686Z" fill="url(#paint45_linear_8_3301)"/>
<path style="mix-blend-mode:multiply" opacity="0.91" d="M629.226 56.8002H628.835L628.443 56.8568L627.772 56.9135L627.661 151.559L203.852 146.801L205.306 60.1985L620.84 56.8568L625.648 56.8002H628.835H629.226Z" fill="url(#paint46_linear_8_3301)"/>
<path d="M628.387 48.8705L628.108 63.3704H206.032H204.187L204.075 45.3589L344.954 46.5484L355.24 46.605L395.1 46.9448L420.927 47.1714L620.225 48.8139L628.387 48.8705Z" fill="url(#paint47_linear_8_3301)"/>
<path style="mix-blend-mode:color-dodge" d="M204.075 45.4154L289.05 48.5873L339.978 46.4916L204.075 45.4154Z" fill="url(#paint48_linear_8_3301)"/>
<path style="mix-blend-mode:multiply" opacity="0.91" d="M627.269 215.278L626.878 215.335L626.487 215.392L625.76 215.448L626.151 346.23L204.355 338.64L204.746 218.563L618.884 215.335L623.692 215.278H626.878H627.269Z" fill="url(#paint49_linear_8_3301)"/>
<path d="M626.431 207.405L626.263 217.941L420.201 218.507L415.449 218.564L395.379 218.847L357.085 219.47H354.346L205.473 221.679L203.628 221.735L203.516 203.724L343.947 204.913L354.178 205.027L393.926 205.366L419.642 205.593L618.269 207.349L626.431 207.405Z" fill="url(#paint50_linear_8_3301)"/>
<path style="mix-blend-mode:multiply" opacity="0.62" d="M357.085 219.47L357.141 219.866L354.346 219.47L348.867 218.79L343.948 204.913L354.178 205.027L357.085 219.47Z" fill="url(#paint51_linear_8_3301)"/>
<path d="M204.355 342.888H626.542L623.915 337.054L204.355 338.64V342.888Z" fill="#E56E2C"/>
<path d="M254.669 334.392L234.711 339.093L215.368 269.426L213.635 263.196L212.014 257.475L211.567 255.833L206.312 234.536L229.009 229.155L254.669 334.392Z" fill="url(#paint52_linear_8_3301)"/>
<path d="M253.047 326.802L235.773 331.39L232.531 332.183L231.636 328.955L235.046 328.162L252.265 323.631L253.047 326.802Z" fill="#F2AB4C"/>
<path d="M232.251 247.11L214.585 250.962L211.343 251.698L210.448 248.583L213.859 247.733L231.524 243.882L232.251 247.11Z" fill="#F2AB4C"/>
<path d="M280.888 334.392L260.93 339.093L241.531 269.426L239.798 263.196L238.233 257.475L237.73 255.833L232.531 234.536L255.172 229.155L280.888 334.392Z" fill="url(#paint53_linear_8_3301)"/>
<path d="M279.211 326.802L261.992 331.39L258.75 332.183L257.855 328.955L261.265 328.162L278.484 323.631L279.211 326.802Z" fill="#F2AB4C"/>
<path d="M258.414 247.11L240.749 250.962L237.562 251.698L236.668 248.583L240.022 247.733L257.687 243.882L258.414 247.11Z" fill="#F2AB4C"/>
<path d="M307.051 333.316L287.093 338.017L267.694 268.35L265.961 262.12L264.396 256.399L263.949 254.813L258.694 233.517L281.335 228.079L307.051 333.316Z" fill="url(#paint54_linear_8_3301)"/>
<path d="M305.374 325.783L288.155 330.314L284.913 331.107L284.018 327.935L287.428 327.086L304.647 322.554L305.374 325.783Z" fill="#F2AB4C"/>
<path d="M284.633 246.034L266.912 249.885L263.725 250.678L262.831 247.507L266.185 246.657L283.907 242.806L284.633 246.034Z" fill="#F2AB4C"/>
<path d="M333.773 333.826L313.815 338.583L294.417 268.86L292.684 262.629L291.118 256.965L290.671 255.323L285.416 234.026L308.057 228.645L333.773 333.826Z" fill="url(#paint55_linear_8_3301)"/>
<path d="M332.096 326.293L314.878 330.824L311.635 331.617L310.741 328.445L314.151 327.652L331.369 323.064L332.096 326.293Z" fill="#F2AB4C"/>
<path d="M311.355 246.544L293.634 250.395L290.447 251.188L289.553 248.016L292.907 247.223L310.629 243.315L311.355 246.544Z" fill="#F2AB4C"/>
<path d="M361.501 333.826L341.544 338.583L322.145 268.86L320.412 262.629L318.847 256.965L318.399 255.323L313.144 234.026L335.841 228.645L361.501 333.826Z" fill="url(#paint56_linear_8_3301)"/>
<path d="M359.824 326.293L342.606 330.824L339.419 331.617L338.525 328.445L341.879 327.652L359.153 323.064L359.824 326.293Z" fill="#F2AB4C"/>
<path d="M339.084 246.544L321.418 250.395L318.176 251.188L317.281 248.016L320.691 247.223L338.357 243.315L339.084 246.544Z" fill="#F2AB4C"/>
<path d="M387.72 332.75L367.707 337.507L348.364 267.84L346.631 261.61L345.01 255.889L344.562 254.247L339.307 232.95L362.004 227.569L387.72 332.75Z" fill="url(#paint57_linear_8_3301)"/>
<path d="M386.043 325.217L368.769 329.804L365.582 330.541L364.688 327.369L368.042 326.576L385.316 322.045L386.043 325.217Z" fill="#F2AB4C"/>
<path d="M365.247 245.467L347.581 249.376L344.339 250.112L343.444 246.94L346.854 246.147L364.52 242.296L365.247 245.467Z" fill="#F2AB4C"/>
<path d="M415.449 333.316L395.491 338.017L376.092 268.35L374.359 262.12L372.794 256.399L372.347 254.813L367.092 233.517L389.733 228.079L415.449 333.316Z" fill="url(#paint58_linear_8_3301)"/>
<path d="M393.031 246.034L375.31 249.885L372.123 250.678L371.229 247.507L374.583 246.657L392.304 242.806L393.031 246.034Z" fill="#F2AB4C"/>
<path d="M391.69 175.177L389.901 204.857L287.708 203.328L278.596 203.214L270.21 203.101L267.862 203.044L236.891 201.685L238.848 167.984L391.69 175.177Z" fill="#7F7B4A"/>
<path d="M380.788 174.441L379.894 200.212L379.67 205.027L374.974 204.97L375.254 199.929L376.148 174.101L380.788 174.441Z" fill="#F2AB4C"/>
<path d="M264.396 170.76L262.439 196.87L262.16 201.685L257.52 201.628L257.799 196.587L259.756 170.476L264.396 170.76Z" fill="#F2AB4C"/>
<path d="M401.529 141.647L399.74 171.326L297.547 169.853L288.435 169.683L280.049 169.57H277.701L246.73 168.154L248.687 134.453L401.529 141.647Z" fill="#CC465F"/>
<path d="M274.235 137.229L272.278 163.396L271.999 168.154L267.359 168.097L267.639 163.056L269.595 136.946L274.235 137.229Z" fill="#F2AB4C"/>
<path d="M244.55 45.5854L221.685 45.8119L215.033 -20.7966L214.418 -26.7438L213.859 -32.1812L213.691 -33.7671L210.001 -79.0223L234.823 -80.7216L238.289 -33.7671V-33.9937L238.68 -29.0094L239.183 -22.5525L244.55 45.5854Z" fill="#7F7B4A"/>
<path d="M271.328 47.6811L248.463 47.9076L241.755 -18.7009L241.196 -24.6481L240.637 -30.0854L240.469 -31.6714L236.78 -76.9266L261.601 -78.6259L265.067 -31.6714V-31.898L265.458 -26.9136L265.961 -20.4567L271.328 47.6811Z" fill="#7F7B4A"/>
<path d="M296.709 46.2083L273.844 46.3783L267.191 -20.2302L266.576 -26.1774L266.017 -31.6148L265.905 -33.2007L262.16 -78.3993L287.037 -80.1552L290.503 -33.2007V-33.4273L290.895 -28.443L291.398 -21.986L296.709 46.2083Z" fill="#7F7B4A"/>
<path d="M323.543 45.6986L300.678 45.8685L294.025 -20.7399L293.41 -26.6871L292.851 -32.1245L292.739 -33.7104L288.994 -78.9091L313.871 -80.6649L317.337 -33.7104V-33.937L317.729 -28.9527L318.232 -22.4957L323.543 45.6986Z" fill="#7F7B4A"/>
<path d="M350.824 45.189L328.015 45.3589L321.306 -21.2496L320.747 -27.1968L320.188 -32.6342L320.021 -34.2201L316.331 -79.4187L341.152 -81.1746L344.618 -34.2201V-34.4467L345.01 -29.4623L345.513 -23.0054L350.824 45.189Z" fill="#7F7B4A"/>
<path d="M377.658 44.6791L354.793 44.849L348.14 -21.7595L347.581 -27.7067L347.022 -33.1441L346.855 -34.6734L343.109 -79.9286L367.986 -81.6844L371.452 -34.73V-34.9566L371.844 -29.9723L372.347 -23.5154L377.658 44.6791Z" fill="#7F7B4A"/>
<path d="M403.989 45.1889L381.124 45.4154L374.471 -21.193L373.856 -27.1402L373.353 -32.6342L373.185 -34.1635L369.44 -79.4187L394.317 -81.1179L397.783 -34.1635V-34.3901L398.175 -29.4057L398.678 -22.9488L403.989 45.1889Z" fill="#7F7B4A"/>
<defs>
<linearGradient id="paint0_linear_8_3301" x1="959.842" y1="-1107.94" x2="937.061" y2="313.426" gradientUnits="userSpaceOnUse">
<stop stop-color="#585C73"/>
<stop offset="1" stop-color="#9F9FA9"/>
</linearGradient>
<linearGradient id="paint1_linear_8_3301" x1="918.026" y1="25.4214" x2="932.659" y2="719.592" gradientUnits="userSpaceOnUse">
<stop stop-color="#481930"/>
<stop offset="1" stop-color="#962E27"/>
</linearGradient>
<linearGradient id="paint2_linear_8_3301" x1="-682.06" y1="686.805" x2="-791.419" y2="764.406" gradientUnits="userSpaceOnUse">
<stop stop-color="#924257"/>
<stop offset="1" stop-color="#CBA9B7"/>
</linearGradient>
<linearGradient id="paint3_linear_8_3301" x1="844.009" y1="277.979" x2="849.862" y2="1041.54" gradientUnits="userSpaceOnUse">
<stop stop-color="#B87D7D"/>
<stop offset="0.76" stop-color="#6A5161"/>
</linearGradient>
<linearGradient id="paint4_linear_8_3301" x1="-369.5" y1="236.405" x2="-327.898" y2="1104.87" gradientUnits="userSpaceOnUse">
<stop stop-color="#818629"/>
<stop offset="0.25" stop-color="#5A5D1D"/>
<stop offset="0.59" stop-color="#292B0D"/>
<stop offset="0.85" stop-color="#0B0C04"/>
<stop offset="1"/>
</linearGradient>
<linearGradient id="paint5_linear_8_3301" x1="386897" y1="74041.7" x2="387572" y2="123993" gradientUnits="userSpaceOnUse">
<stop stop-color="#818629"/>
<stop offset="0.25" stop-color="#5A5D1D"/>
<stop offset="0.59" stop-color="#292B0D"/>
<stop offset="0.85" stop-color="#0B0C04"/>
<stop offset="1"/>
</linearGradient>
<linearGradient id="paint6_linear_8_3301" x1="86157.1" y1="18232.7" x2="86079.8" y2="27830.2" gradientUnits="userSpaceOnUse">
<stop stop-color="#818629"/>
<stop offset="0.25" stop-color="#5A5D1D"/>
<stop offset="0.59" stop-color="#292B0D"/>
<stop offset="0.85" stop-color="#0B0C04"/>
<stop offset="1"/>
</linearGradient>
<linearGradient id="paint7_linear_8_3301" x1="523.959" y1="237.028" x2="811.502" y2="442.007" gradientUnits="userSpaceOnUse">
<stop stop-color="#7756AE"/>
<stop offset="1" stop-color="white"/>
</linearGradient>
<linearGradient id="paint8_linear_8_3301" x1="1.06887e+06" y1="-292369" x2="1.17636e+06" y2="715500" gradientUnits="userSpaceOnUse">
<stop stop-color="#7756AE"/>
<stop offset="1" stop-color="white"/>
</linearGradient>
<linearGradient id="paint9_linear_8_3301" x1="128594" y1="62242.5" x2="129158" y2="69214.6" gradientUnits="userSpaceOnUse">
<stop stop-color="#481930"/>
<stop offset="1" stop-color="#962E27"/>
</linearGradient>
<linearGradient id="paint10_linear_8_3301" x1="101220" y1="38298.4" x2="102558" y2="67845.3" gradientUnits="userSpaceOnUse">
<stop stop-color="#481930"/>
<stop offset="1" stop-color="#962E27"/>
</linearGradient>
<linearGradient id="paint11_linear_8_3301" x1="-373.19" y1="-974.102" x2="-425.751" y2="75.1402" gradientUnits="userSpaceOnUse">
<stop stop-color="#883341"/>
<stop offset="1" stop-color="#C35A32"/>
</linearGradient>
<linearGradient id="paint12_linear_8_3301" x1="36364" y1="130358" x2="291446" y2="175168" gradientUnits="userSpaceOnUse">
<stop stop-color="#481930"/>
<stop offset="1" stop-color="#962E27"/>
</linearGradient>
<linearGradient id="paint13_linear_8_3301" x1="105017" y1="52807.5" x2="105792" y2="73165.8" gradientUnits="userSpaceOnUse">
<stop stop-color="#481930"/>
<stop offset="1" stop-color="#962E27"/>
</linearGradient>
<linearGradient id="paint14_linear_8_3301" x1="112040" y1="81693.9" x2="111808" y2="69258.1" gradientUnits="userSpaceOnUse">
<stop stop-color="#481930"/>
<stop offset="1" stop-color="#962E27"/>
</linearGradient>
<linearGradient id="paint15_linear_8_3301" x1="118643" y1="75213.2" x2="-50818.8" y2="140016" gradientUnits="userSpaceOnUse">
<stop stop-color="#924257"/>
<stop offset="1" stop-color="#CBA9B7"/>
</linearGradient>
<linearGradient id="paint16_linear_8_3301" x1="107831" y1="15822.5" x2="107835" y2="20819.7" gradientUnits="userSpaceOnUse">
<stop stop-color="#481930"/>
<stop offset="1" stop-color="#962E27"/>
</linearGradient>
<linearGradient id="paint17_linear_8_3301" x1="61739.3" y1="7044.93" x2="61648.9" y2="9391.06" gradientUnits="userSpaceOnUse">
<stop stop-color="#883341"/>
<stop offset="1" stop-color="#C35A32"/>
</linearGradient>
<linearGradient id="paint18_linear_8_3301" x1="37375.3" y1="-3413.52" x2="37391.2" y2="-3217.1" gradientUnits="userSpaceOnUse">
<stop stop-color="#818629"/>
<stop offset="1"/>
</linearGradient>
<linearGradient id="paint19_linear_8_3301" x1="1398.87" y1="4042.1" x2="1302.11" y2="4035.85" gradientUnits="userSpaceOnUse">
<stop stop-color="#924257"/>
<stop offset="1" stop-color="#CBA9B7"/>
</linearGradient>
<linearGradient id="paint20_linear_8_3301" x1="51237.1" y1="3794.69" x2="51211.1" y2="4630.5" gradientUnits="userSpaceOnUse">
<stop stop-color="#481930"/>
<stop offset="1" stop-color="#962E27"/>
</linearGradient>
<linearGradient id="paint21_linear_8_3301" x1="1350.31" y1="61.982" x2="1350.31" y2="62.3013" gradientUnits="userSpaceOnUse">
<stop stop-color="#924257"/>
<stop offset="1" stop-color="#CBA9B7"/>
</linearGradient>
<linearGradient id="paint22_linear_8_3301" x1="1596.42" y1="2673.28" x2="1510.2" y2="3503.76" gradientUnits="userSpaceOnUse">
<stop stop-color="#924257"/>
<stop offset="1" stop-color="#CBA9B7"/>
</linearGradient>
<linearGradient id="paint23_linear_8_3301" x1="15364.3" y1="4408.14" x2="15350" y2="4551.7" gradientUnits="userSpaceOnUse">
<stop stop-color="#924257"/>
<stop offset="1" stop-color="#CBA9B7"/>
</linearGradient>
<linearGradient id="paint24_linear_8_3301" x1="1507.23" y1="1783.46" x2="1514.58" y2="1744.11" gradientUnits="userSpaceOnUse">
<stop stop-color="#FA803E"/>
<stop offset="0.28" stop-color="#FA8A3E"/>
<stop offset="0.77" stop-color="#FAA63E"/>
<stop offset="1" stop-color="#FAB63E"/>
</linearGradient>
<linearGradient id="paint25_linear_8_3301" x1="14734.1" y1="3248.84" x2="14737" y2="3167.49" gradientUnits="userSpaceOnUse">
<stop stop-color="#FA803E"/>
<stop offset="0.28" stop-color="#FA8A3E"/>
<stop offset="0.77" stop-color="#FAA63E"/>
<stop offset="1" stop-color="#FAB63E"/>
</linearGradient>
<linearGradient id="paint26_linear_8_3301" x1="8240.8" y1="3799.65" x2="8247.58" y2="3706.7" gradientUnits="userSpaceOnUse">
<stop stop-color="#FA803E"/>
<stop offset="0.28" stop-color="#FA8A3E"/>
<stop offset="0.77" stop-color="#FAA63E"/>
<stop offset="1" stop-color="#FAB63E"/>
</linearGradient>
<linearGradient id="paint27_linear_8_3301" x1="1182.36" y1="2350.34" x2="1198.29" y2="2300.07" gradientUnits="userSpaceOnUse">
<stop stop-color="#FA803E"/>
<stop offset="0.28" stop-color="#FA8A3E"/>
<stop offset="0.77" stop-color="#FAA63E"/>
<stop offset="1" stop-color="#FAB63E"/>
</linearGradient>
<linearGradient id="paint28_linear_8_3301" x1="15439.1" y1="4806.41" x2="15424.9" y2="4950.09" gradientUnits="userSpaceOnUse">
<stop stop-color="#924257"/>
<stop offset="1" stop-color="#CBA9B7"/>
</linearGradient>
<linearGradient id="paint29_linear_8_3301" x1="1521.17" y1="1990.02" x2="1528.59" y2="1950.43" gradientUnits="userSpaceOnUse">
<stop stop-color="#FA803E"/>
<stop offset="0.28" stop-color="#FA8A3E"/>
<stop offset="0.77" stop-color="#FAA63E"/>
<stop offset="1" stop-color="#FAB63E"/>
</linearGradient>
<linearGradient id="paint30_linear_8_3301" x1="14837.9" y1="3548.4" x2="14840.7" y2="3467.17" gradientUnits="userSpaceOnUse">
<stop stop-color="#FA803E"/>
<stop offset="0.28" stop-color="#FA8A3E"/>
<stop offset="0.77" stop-color="#FAA63E"/>
<stop offset="1" stop-color="#FAB63E"/>
</linearGradient>
<linearGradient id="paint31_linear_8_3301" x1="8268.09" y1="4140.15" x2="8274.86" y2="4047.3" gradientUnits="userSpaceOnUse">
<stop stop-color="#FA803E"/>
<stop offset="0.28" stop-color="#FA8A3E"/>
<stop offset="0.77" stop-color="#FAA63E"/>
<stop offset="1" stop-color="#FAB63E"/>
</linearGradient>
<linearGradient id="paint32_linear_8_3301" x1="1189.9" y1="2586.92" x2="1205.84" y2="2536.66" gradientUnits="userSpaceOnUse">
<stop stop-color="#FA803E"/>
<stop offset="0.28" stop-color="#FA8A3E"/>
<stop offset="0.77" stop-color="#FAA63E"/>
<stop offset="1" stop-color="#FAB63E"/>
</linearGradient>
<linearGradient id="paint33_linear_8_3301" x1="5682.2" y1="690.285" x2="5856.05" y2="681.867" gradientUnits="userSpaceOnUse">
<stop stop-color="#F7ABA6"/>
<stop offset="1" stop-color="#E5CABB"/>
</linearGradient>
<linearGradient id="paint34_linear_8_3301" x1="2505.06" y1="4559.42" x2="2484.44" y2="4667.01" gradientUnits="userSpaceOnUse">
<stop stop-color="#FA803E"/>
<stop offset="0.28" stop-color="#FA8A3E"/>
<stop offset="0.77" stop-color="#FAA63E"/>
<stop offset="1" stop-color="#FAB63E"/>
</linearGradient>
<linearGradient id="paint35_linear_8_3301" x1="-53.9777" y1="94.4656" x2="52.5195" y2="94.4656" gradientUnits="userSpaceOnUse">
<stop stop-color="#666A85"/>
<stop offset="1" stop-color="#676685"/>
</linearGradient>
<linearGradient id="paint36_linear_8_3301" x1="12339.2" y1="1493.89" x2="13128.3" y2="1449.95" gradientUnits="userSpaceOnUse">
<stop stop-color="#F7ABA6"/>
<stop offset="1" stop-color="#E5CABB"/>
</linearGradient>
<linearGradient id="paint37_linear_8_3301" x1="3416.38" y1="2068.23" x2="3415.18" y2="2091.87" gradientUnits="userSpaceOnUse">
<stop stop-color="#FA803E"/>
<stop offset="0.28" stop-color="#FA8A3E"/>
<stop offset="0.77" stop-color="#FAA63E"/>
<stop offset="1" stop-color="#FAB63E"/>
</linearGradient>
<linearGradient id="paint38_linear_8_3301" x1="3422.39" y1="2068.51" x2="3421.36" y2="2089.78" gradientUnits="userSpaceOnUse">
<stop stop-color="#FA803E"/>
<stop offset="0.28" stop-color="#FA8A3E"/>
<stop offset="0.77" stop-color="#FAA63E"/>
<stop offset="1" stop-color="#FAB63E"/>
</linearGradient>
<linearGradient id="paint39_linear_8_3301" x1="3297.09" y1="2108.08" x2="3296.06" y2="2129.35" gradientUnits="userSpaceOnUse">
<stop stop-color="#FA803E"/>
<stop offset="0.28" stop-color="#FA8A3E"/>
<stop offset="0.77" stop-color="#FAA63E"/>
<stop offset="1" stop-color="#FAB63E"/>
</linearGradient>
<linearGradient id="paint40_linear_8_3301" x1="120919" y1="94763.7" x2="121093" y2="108055" gradientUnits="userSpaceOnUse">
<stop stop-color="#924257"/>
<stop offset="1" stop-color="#CBA9B7"/>
</linearGradient>
<linearGradient id="paint41_linear_8_3301" x1="123698" y1="73143.4" x2="123928" y2="83587.9" gradientUnits="userSpaceOnUse">
<stop stop-color="#924257"/>
<stop offset="1" stop-color="#CBA9B7"/>
</linearGradient>
<linearGradient id="paint42_linear_8_3301" x1="116957" y1="13123.3" x2="115837" y2="28521.9" gradientUnits="userSpaceOnUse">
<stop stop-color="#481930"/>
<stop offset="1" stop-color="#962E27"/>
</linearGradient>
<linearGradient id="paint43_linear_8_3301" x1="123335" y1="83639.2" x2="121449" y2="193503" gradientUnits="userSpaceOnUse">
<stop stop-color="#883341"/>
<stop offset="1" stop-color="#C35A32"/>
</linearGradient>
<linearGradient id="paint44_linear_8_3301" x1="113088" y1="94900" x2="112343" y2="224162" gradientUnits="userSpaceOnUse">
<stop stop-color="#481930"/>
<stop offset="1" stop-color="#962E27"/>
</linearGradient>
<linearGradient id="paint45_linear_8_3301" x1="114461" y1="7422.84" x2="113629" y2="60448.3" gradientUnits="userSpaceOnUse">
<stop stop-color="#924257"/>
<stop offset="1" stop-color="#CBA9B7"/>
</linearGradient>
<linearGradient id="paint46_linear_8_3301" x1="113694" y1="7443.22" x2="113483" y2="28871.7" gradientUnits="userSpaceOnUse">
<stop stop-color="#924257"/>
<stop offset="1" stop-color="#CBA9B7"/>
</linearGradient>
<linearGradient id="paint47_linear_8_3301" x1="109715" y1="2871.55" x2="109717" y2="4115.02" gradientUnits="userSpaceOnUse">
<stop stop-color="#883341"/>
<stop offset="1" stop-color="#C35A32"/>
</linearGradient>
<linearGradient id="paint48_linear_8_3301" x1="30926.6" y1="-1660.01" x2="30930.2" y2="-1626.34" gradientUnits="userSpaceOnUse">
<stop stop-color="#818629"/>
<stop offset="1"/>
</linearGradient>
<linearGradient id="paint49_linear_8_3301" x1="114742" y1="2014.55" x2="114213" y2="40763.1" gradientUnits="userSpaceOnUse">
<stop stop-color="#924257"/>
<stop offset="1" stop-color="#CBA9B7"/>
</linearGradient>
<linearGradient id="paint50_linear_8_3301" x1="85394.2" y1="3094.59" x2="85396.6" y2="4215.28" gradientUnits="userSpaceOnUse">
<stop stop-color="#883341"/>
<stop offset="1" stop-color="#C35A32"/>
</linearGradient>
<linearGradient id="paint51_linear_8_3301" x1="3466.21" y1="-880.848" x2="3273" y2="-872.785" gradientUnits="userSpaceOnUse">
<stop stop-color="#924257"/>
<stop offset="1" stop-color="#CBA9B7"/>
</linearGradient>
<linearGradient id="paint52_linear_8_3301" x1="10994.8" y1="27459.7" x2="11413" y2="27459.7" gradientUnits="userSpaceOnUse">
<stop stop-color="#666A85"/>
<stop offset="1" stop-color="#676685"/>
</linearGradient>
<linearGradient id="paint53_linear_8_3301" x1="11247.8" y1="27459.7" x2="11666.1" y2="27459.7" gradientUnits="userSpaceOnUse">
<stop stop-color="#666A85"/>
<stop offset="1" stop-color="#676685"/>
</linearGradient>
<linearGradient id="paint54_linear_8_3301" x1="11500.3" y1="27437.8" x2="11918.5" y2="27437.8" gradientUnits="userSpaceOnUse">
<stop stop-color="#666A85"/>
<stop offset="1" stop-color="#676685"/>
</linearGradient>
<linearGradient id="paint55_linear_8_3301" x1="11758.1" y1="27448.2" x2="12176.4" y2="27448.2" gradientUnits="userSpaceOnUse">
<stop stop-color="#666A85"/>
<stop offset="1" stop-color="#676685"/>
</linearGradient>
<linearGradient id="paint56_linear_8_3301" x1="12025.7" y1="27448.2" x2="12444" y2="27448.2" gradientUnits="userSpaceOnUse">
<stop stop-color="#666A85"/>
<stop offset="1" stop-color="#676685"/>
</linearGradient>
<linearGradient id="paint57_linear_8_3301" x1="12292" y1="27426.2" x2="12711.2" y2="27426.2" gradientUnits="userSpaceOnUse">
<stop stop-color="#666A85"/>
<stop offset="1" stop-color="#676685"/>
</linearGradient>
<linearGradient id="paint58_linear_8_3301" x1="12546.3" y1="27437.8" x2="12964.6" y2="27437.8" gradientUnits="userSpaceOnUse">
<stop stop-color="#666A85"/>
<stop offset="1" stop-color="#676685"/>
</linearGradient>
</defs>
</svg>
